M48
INCH,TZ
T1C0.0157
T2C0.0236
T3C0.0335
T4C0.0394
T5C0.1693
%
G90
G05
T1
X42913Y-39370
X43307Y-36614
X44882Y-29528
X44882Y-42126
X45669Y-40551
X46063Y-30315
X46063Y-31496
X46063Y-38583
X46392Y-39197
X46457Y-39764
X46535Y-35787
X46850Y-28346
X48031Y-44488
X48425Y-42126
X48504Y-40551
X48976Y-35827
X49213Y-28346
X49594Y-38177
X50000Y-31496
X50157Y-35197
X50394Y-35827
X50787Y-41732
X51181Y-29528
X51181Y-34252
X51260Y-37008
X51575Y-39764
X52362Y-41732
X52756Y-44488
X53150Y-38976
X53400Y-37400
X53425Y-35827
X53583Y-39764
X53800Y-42000
X54331Y-31890
X54331Y-36614
X55217Y-43012
X55500Y-37500
X55684Y-29684
X56000Y-28500
X56000Y-40500
X56000Y-43000
X56000Y-44200
X56600Y-43000
X56600Y-44200
X57000Y-28500
X57000Y-29500
X57000Y-41000
X57244Y-40472
X57362Y-34921
X57362Y-35433
X57362Y-35945
X57835Y-33346
X57874Y-34921
X57874Y-35433
X57874Y-35945
X58000Y-28500
X58000Y-30000
X58000Y-40500
X58386Y-34921
X58386Y-35433
X58386Y-35945
X58400Y-37400
X58671Y-42087
X59000Y-33500
X59124Y-42589
X59144Y-43081
X59154Y-40059
X59200Y-37600
X59200Y-40600
X59400Y-44800
X59500Y-28500
X59500Y-29500
X60000Y-34000
X60000Y-37500
X60002Y-33502
X60500Y-28500
X60500Y-30000
X60984Y-44800
X61400Y-37000
X61500Y-28500
X61500Y-30000
X62000Y-35000
X63307Y-37490
X64400Y-39000
X64449Y-41102
X64600Y-43600
X64800Y-42600
X65256Y-39469
X66000Y-43000
X66535Y-40591
X67874Y-39882
X68770Y-31191
X71063Y-39213
T2
X41250Y-27559
X41250Y-43307
X41622Y-26661
X41622Y-28457
X41622Y-42409
X41622Y-44205
X42520Y-26289
X42520Y-28829
X42520Y-42037
X42520Y-44577
X43417Y-26661
X43417Y-28457
X43417Y-42409
X43417Y-44205
X43789Y-27559
X43789Y-43307
X76683Y-27559
X76683Y-43307
X77055Y-26661
X77055Y-28457
X77055Y-42409
X77055Y-44205
X77953Y-26289
X77953Y-28829
X77953Y-42037
X77953Y-44577
X78851Y-26661
X78851Y-28457
X78851Y-42409
X78851Y-44205
X79222Y-27559
X79222Y-43307
T3
X42308Y-34449
X42308Y-36417
T4
X68039Y-29843
X68110Y-41024
X69039Y-29843
X69110Y-41024
X70039Y-29843
X70110Y-41024
X71039Y-29843
X71110Y-41024
X72039Y-29843
X72110Y-41024
X73039Y-29843
X73110Y-41024
X74039Y-29843
X74110Y-41024
X75039Y-29843
X75110Y-41024
T5
X42520Y-27559
X42520Y-43307
X77953Y-27559
X77953Y-43307
T2
G00X41107Y-34055
M15
G01X41383Y-34055
M16
G05
G00X41383Y-36811
M15
G01X41107Y-36811
M16
G05
T0
M30
