%TF.GenerationSoftware,KiCad,Pcbnew,(5.1.9)-1*%
%TF.CreationDate,2021-03-29T12:12:37-04:00*%
%TF.ProjectId,EEG,4545472e-6b69-4636-9164-5f7063625858,rev?*%
%TF.SameCoordinates,Original*%
%TF.FileFunction,Legend,Top*%
%TF.FilePolarity,Positive*%
%FSLAX46Y46*%
G04 Gerber Fmt 4.6, Leading zero omitted, Abs format (unit mm)*
G04 Created by KiCad (PCBNEW (5.1.9)-1) date 2021-03-29 12:12:37*
%MOMM*%
%LPD*%
G01*
G04 APERTURE LIST*
%ADD10C,0.010000*%
%ADD11C,0.120000*%
%ADD12C,0.150000*%
%ADD13C,0.203200*%
%ADD14C,0.254000*%
%ADD15C,0.075000*%
%ADD16C,0.015000*%
G04 APERTURE END LIST*
D10*
%TO.C,G\u002A\u002A\u002A*%
G36*
X153261146Y-70356197D02*
G01*
X153294590Y-70365128D01*
X153324578Y-70378631D01*
X153342924Y-70391293D01*
X153364302Y-70409591D01*
X153364302Y-70358000D01*
X153481142Y-70358000D01*
X153481103Y-70544690D01*
X153480949Y-70589743D01*
X153480529Y-70632569D01*
X153479874Y-70671808D01*
X153479019Y-70706097D01*
X153477995Y-70734075D01*
X153476836Y-70754380D01*
X153475799Y-70764400D01*
X153466090Y-70802731D01*
X153450241Y-70838398D01*
X153429515Y-70869387D01*
X153405172Y-70893683D01*
X153387604Y-70905144D01*
X153347508Y-70921215D01*
X153301300Y-70931619D01*
X153251456Y-70936117D01*
X153200452Y-70934468D01*
X153155795Y-70927573D01*
X153128090Y-70920367D01*
X153101181Y-70911338D01*
X153077417Y-70901452D01*
X153059145Y-70891677D01*
X153049281Y-70883707D01*
X153046862Y-70877968D01*
X153048266Y-70869273D01*
X153054076Y-70855459D01*
X153060191Y-70843288D01*
X153071578Y-70821419D01*
X153079737Y-70807338D01*
X153086315Y-70799920D01*
X153092956Y-70798036D01*
X153101306Y-70800562D01*
X153113010Y-70806369D01*
X153113639Y-70806688D01*
X153147911Y-70820818D01*
X153184908Y-70830546D01*
X153222151Y-70835617D01*
X153257163Y-70835776D01*
X153287465Y-70830769D01*
X153300802Y-70825918D01*
X153327160Y-70808550D01*
X153346015Y-70784691D01*
X153356790Y-70755283D01*
X153359222Y-70730592D01*
X153359222Y-70706619D01*
X153345252Y-70719648D01*
X153318097Y-70738549D01*
X153284221Y-70751702D01*
X153245719Y-70758408D01*
X153227142Y-70759135D01*
X153180643Y-70754440D01*
X153137976Y-70740978D01*
X153100133Y-70719353D01*
X153068104Y-70690168D01*
X153042880Y-70654028D01*
X153037585Y-70643621D01*
X153030191Y-70627226D01*
X153025467Y-70613593D01*
X153022822Y-70599522D01*
X153021664Y-70581818D01*
X153021438Y-70560573D01*
X153141750Y-70560573D01*
X153146763Y-70589679D01*
X153159432Y-70616128D01*
X153167694Y-70626570D01*
X153188191Y-70642134D01*
X153214705Y-70652685D01*
X153244157Y-70657732D01*
X153273466Y-70656786D01*
X153299551Y-70649353D01*
X153302274Y-70648025D01*
X153329509Y-70629519D01*
X153347779Y-70606385D01*
X153357421Y-70578079D01*
X153359222Y-70556120D01*
X153355132Y-70524071D01*
X153342639Y-70497557D01*
X153321404Y-70476034D01*
X153302274Y-70464214D01*
X153276378Y-70455929D01*
X153246687Y-70454323D01*
X153216534Y-70458956D01*
X153189252Y-70469388D01*
X153171931Y-70481432D01*
X153154404Y-70504038D01*
X153144320Y-70531222D01*
X153141750Y-70560573D01*
X153021438Y-70560573D01*
X153021402Y-70557283D01*
X153021402Y-70556120D01*
X153021640Y-70531246D01*
X153022752Y-70513331D01*
X153025326Y-70499177D01*
X153029956Y-70485587D01*
X153037232Y-70469363D01*
X153037585Y-70468618D01*
X153060911Y-70430702D01*
X153091274Y-70399665D01*
X153127753Y-70376064D01*
X153169430Y-70360459D01*
X153215386Y-70353407D01*
X153227876Y-70353044D01*
X153261146Y-70356197D01*
G37*
X153261146Y-70356197D02*
X153294590Y-70365128D01*
X153324578Y-70378631D01*
X153342924Y-70391293D01*
X153364302Y-70409591D01*
X153364302Y-70358000D01*
X153481142Y-70358000D01*
X153481103Y-70544690D01*
X153480949Y-70589743D01*
X153480529Y-70632569D01*
X153479874Y-70671808D01*
X153479019Y-70706097D01*
X153477995Y-70734075D01*
X153476836Y-70754380D01*
X153475799Y-70764400D01*
X153466090Y-70802731D01*
X153450241Y-70838398D01*
X153429515Y-70869387D01*
X153405172Y-70893683D01*
X153387604Y-70905144D01*
X153347508Y-70921215D01*
X153301300Y-70931619D01*
X153251456Y-70936117D01*
X153200452Y-70934468D01*
X153155795Y-70927573D01*
X153128090Y-70920367D01*
X153101181Y-70911338D01*
X153077417Y-70901452D01*
X153059145Y-70891677D01*
X153049281Y-70883707D01*
X153046862Y-70877968D01*
X153048266Y-70869273D01*
X153054076Y-70855459D01*
X153060191Y-70843288D01*
X153071578Y-70821419D01*
X153079737Y-70807338D01*
X153086315Y-70799920D01*
X153092956Y-70798036D01*
X153101306Y-70800562D01*
X153113010Y-70806369D01*
X153113639Y-70806688D01*
X153147911Y-70820818D01*
X153184908Y-70830546D01*
X153222151Y-70835617D01*
X153257163Y-70835776D01*
X153287465Y-70830769D01*
X153300802Y-70825918D01*
X153327160Y-70808550D01*
X153346015Y-70784691D01*
X153356790Y-70755283D01*
X153359222Y-70730592D01*
X153359222Y-70706619D01*
X153345252Y-70719648D01*
X153318097Y-70738549D01*
X153284221Y-70751702D01*
X153245719Y-70758408D01*
X153227142Y-70759135D01*
X153180643Y-70754440D01*
X153137976Y-70740978D01*
X153100133Y-70719353D01*
X153068104Y-70690168D01*
X153042880Y-70654028D01*
X153037585Y-70643621D01*
X153030191Y-70627226D01*
X153025467Y-70613593D01*
X153022822Y-70599522D01*
X153021664Y-70581818D01*
X153021438Y-70560573D01*
X153141750Y-70560573D01*
X153146763Y-70589679D01*
X153159432Y-70616128D01*
X153167694Y-70626570D01*
X153188191Y-70642134D01*
X153214705Y-70652685D01*
X153244157Y-70657732D01*
X153273466Y-70656786D01*
X153299551Y-70649353D01*
X153302274Y-70648025D01*
X153329509Y-70629519D01*
X153347779Y-70606385D01*
X153357421Y-70578079D01*
X153359222Y-70556120D01*
X153355132Y-70524071D01*
X153342639Y-70497557D01*
X153321404Y-70476034D01*
X153302274Y-70464214D01*
X153276378Y-70455929D01*
X153246687Y-70454323D01*
X153216534Y-70458956D01*
X153189252Y-70469388D01*
X153171931Y-70481432D01*
X153154404Y-70504038D01*
X153144320Y-70531222D01*
X153141750Y-70560573D01*
X153021438Y-70560573D01*
X153021402Y-70557283D01*
X153021402Y-70556120D01*
X153021640Y-70531246D01*
X153022752Y-70513331D01*
X153025326Y-70499177D01*
X153029956Y-70485587D01*
X153037232Y-70469363D01*
X153037585Y-70468618D01*
X153060911Y-70430702D01*
X153091274Y-70399665D01*
X153127753Y-70376064D01*
X153169430Y-70360459D01*
X153215386Y-70353407D01*
X153227876Y-70353044D01*
X153261146Y-70356197D01*
G36*
X158528122Y-70358173D02*
G01*
X158573549Y-70471116D01*
X158587160Y-70504835D01*
X158600319Y-70537208D01*
X158612289Y-70566444D01*
X158622336Y-70590751D01*
X158629725Y-70608336D01*
X158632251Y-70614180D01*
X158645525Y-70644300D01*
X158670445Y-70583700D01*
X158681460Y-70556938D01*
X158694928Y-70524247D01*
X158709424Y-70489086D01*
X158723523Y-70454917D01*
X158728930Y-70441820D01*
X158762493Y-70360540D01*
X158819297Y-70359103D01*
X158841945Y-70358847D01*
X158860304Y-70359241D01*
X158872345Y-70360201D01*
X158876102Y-70361459D01*
X158874123Y-70368001D01*
X158868493Y-70382766D01*
X158859674Y-70404684D01*
X158848127Y-70432686D01*
X158834312Y-70465704D01*
X158818690Y-70502667D01*
X158801724Y-70542509D01*
X158783873Y-70584159D01*
X158765599Y-70626548D01*
X158747363Y-70668608D01*
X158729625Y-70709271D01*
X158712848Y-70747466D01*
X158697491Y-70782125D01*
X158684017Y-70812180D01*
X158672885Y-70836561D01*
X158664558Y-70854199D01*
X158659495Y-70864025D01*
X158658951Y-70864906D01*
X158645489Y-70882305D01*
X158629810Y-70898405D01*
X158620078Y-70906284D01*
X158586479Y-70923656D01*
X158548110Y-70933820D01*
X158507764Y-70936351D01*
X158468232Y-70930826D01*
X158464622Y-70929867D01*
X158441778Y-70922215D01*
X158422715Y-70913361D01*
X158409723Y-70904502D01*
X158405479Y-70898968D01*
X158406546Y-70891557D01*
X158411723Y-70877782D01*
X158420032Y-70860077D01*
X158424497Y-70851544D01*
X158446255Y-70811260D01*
X158460628Y-70821886D01*
X158476543Y-70829646D01*
X158499491Y-70833926D01*
X158507832Y-70834602D01*
X158525909Y-70835436D01*
X158537471Y-70834326D01*
X158546131Y-70830164D01*
X158555500Y-70821842D01*
X158558223Y-70819134D01*
X158569398Y-70806104D01*
X158577229Y-70793588D01*
X158578859Y-70789319D01*
X158578460Y-70783293D01*
X158575360Y-70771830D01*
X158569338Y-70754361D01*
X158560172Y-70730319D01*
X158547640Y-70699134D01*
X158531520Y-70660238D01*
X158511591Y-70613062D01*
X158494858Y-70573881D01*
X158476505Y-70531052D01*
X158459351Y-70491005D01*
X158443816Y-70454729D01*
X158430324Y-70423212D01*
X158419298Y-70397440D01*
X158411160Y-70378401D01*
X158406334Y-70367083D01*
X158405178Y-70364350D01*
X158406401Y-70361585D01*
X158413542Y-70359710D01*
X158427808Y-70358598D01*
X158450407Y-70358124D01*
X158465348Y-70358086D01*
X158528122Y-70358173D01*
G37*
X158528122Y-70358173D02*
X158573549Y-70471116D01*
X158587160Y-70504835D01*
X158600319Y-70537208D01*
X158612289Y-70566444D01*
X158622336Y-70590751D01*
X158629725Y-70608336D01*
X158632251Y-70614180D01*
X158645525Y-70644300D01*
X158670445Y-70583700D01*
X158681460Y-70556938D01*
X158694928Y-70524247D01*
X158709424Y-70489086D01*
X158723523Y-70454917D01*
X158728930Y-70441820D01*
X158762493Y-70360540D01*
X158819297Y-70359103D01*
X158841945Y-70358847D01*
X158860304Y-70359241D01*
X158872345Y-70360201D01*
X158876102Y-70361459D01*
X158874123Y-70368001D01*
X158868493Y-70382766D01*
X158859674Y-70404684D01*
X158848127Y-70432686D01*
X158834312Y-70465704D01*
X158818690Y-70502667D01*
X158801724Y-70542509D01*
X158783873Y-70584159D01*
X158765599Y-70626548D01*
X158747363Y-70668608D01*
X158729625Y-70709271D01*
X158712848Y-70747466D01*
X158697491Y-70782125D01*
X158684017Y-70812180D01*
X158672885Y-70836561D01*
X158664558Y-70854199D01*
X158659495Y-70864025D01*
X158658951Y-70864906D01*
X158645489Y-70882305D01*
X158629810Y-70898405D01*
X158620078Y-70906284D01*
X158586479Y-70923656D01*
X158548110Y-70933820D01*
X158507764Y-70936351D01*
X158468232Y-70930826D01*
X158464622Y-70929867D01*
X158441778Y-70922215D01*
X158422715Y-70913361D01*
X158409723Y-70904502D01*
X158405479Y-70898968D01*
X158406546Y-70891557D01*
X158411723Y-70877782D01*
X158420032Y-70860077D01*
X158424497Y-70851544D01*
X158446255Y-70811260D01*
X158460628Y-70821886D01*
X158476543Y-70829646D01*
X158499491Y-70833926D01*
X158507832Y-70834602D01*
X158525909Y-70835436D01*
X158537471Y-70834326D01*
X158546131Y-70830164D01*
X158555500Y-70821842D01*
X158558223Y-70819134D01*
X158569398Y-70806104D01*
X158577229Y-70793588D01*
X158578859Y-70789319D01*
X158578460Y-70783293D01*
X158575360Y-70771830D01*
X158569338Y-70754361D01*
X158560172Y-70730319D01*
X158547640Y-70699134D01*
X158531520Y-70660238D01*
X158511591Y-70613062D01*
X158494858Y-70573881D01*
X158476505Y-70531052D01*
X158459351Y-70491005D01*
X158443816Y-70454729D01*
X158430324Y-70423212D01*
X158419298Y-70397440D01*
X158411160Y-70378401D01*
X158406334Y-70367083D01*
X158405178Y-70364350D01*
X158406401Y-70361585D01*
X158413542Y-70359710D01*
X158427808Y-70358598D01*
X158450407Y-70358124D01*
X158465348Y-70358086D01*
X158528122Y-70358173D01*
G36*
X148279269Y-70358169D02*
G01*
X148319442Y-70370015D01*
X148356417Y-70388800D01*
X148388851Y-70414295D01*
X148415402Y-70446269D01*
X148429300Y-70471349D01*
X148437892Y-70495159D01*
X148444520Y-70523118D01*
X148448523Y-70551321D01*
X148449242Y-70575861D01*
X148448383Y-70584269D01*
X148445532Y-70601840D01*
X148131217Y-70601840D01*
X148134603Y-70613270D01*
X148143621Y-70631136D01*
X148158872Y-70649554D01*
X148177252Y-70665062D01*
X148185512Y-70670062D01*
X148197724Y-70675352D01*
X148211608Y-70678575D01*
X148230034Y-70680171D01*
X148254270Y-70680580D01*
X148277391Y-70680369D01*
X148293433Y-70679280D01*
X148305476Y-70676623D01*
X148316597Y-70671712D01*
X148329878Y-70663858D01*
X148330301Y-70663595D01*
X148357624Y-70646610D01*
X148389432Y-70681375D01*
X148421241Y-70716140D01*
X148402301Y-70733119D01*
X148375863Y-70753040D01*
X148346134Y-70767417D01*
X148313671Y-70777046D01*
X148282682Y-70781971D01*
X148247408Y-70783868D01*
X148212885Y-70782635D01*
X148190322Y-70779555D01*
X148154343Y-70769331D01*
X148118739Y-70753876D01*
X148095107Y-70739898D01*
X148063575Y-70712372D01*
X148039261Y-70679105D01*
X148022245Y-70641586D01*
X148012606Y-70601306D01*
X148010426Y-70559755D01*
X148015324Y-70521969D01*
X148132523Y-70521969D01*
X148136954Y-70526240D01*
X148146974Y-70528835D01*
X148163642Y-70530171D01*
X148188018Y-70530662D01*
X148221162Y-70530723D01*
X148233502Y-70530720D01*
X148272678Y-70530460D01*
X148302569Y-70529689D01*
X148322934Y-70528419D01*
X148333527Y-70526663D01*
X148335102Y-70525476D01*
X148330747Y-70508093D01*
X148319118Y-70489290D01*
X148302362Y-70471444D01*
X148282628Y-70456930D01*
X148266226Y-70449342D01*
X148237579Y-70444500D01*
X148208393Y-70447568D01*
X148181109Y-70457652D01*
X148158167Y-70473852D01*
X148142162Y-70494963D01*
X148136187Y-70506746D01*
X148132620Y-70515610D01*
X148132523Y-70521969D01*
X148015324Y-70521969D01*
X148015784Y-70518421D01*
X148028761Y-70478795D01*
X148049436Y-70442366D01*
X148077394Y-70411070D01*
X148113430Y-70384773D01*
X148152977Y-70366564D01*
X148194694Y-70356213D01*
X148237239Y-70353492D01*
X148279269Y-70358169D01*
G37*
X148279269Y-70358169D02*
X148319442Y-70370015D01*
X148356417Y-70388800D01*
X148388851Y-70414295D01*
X148415402Y-70446269D01*
X148429300Y-70471349D01*
X148437892Y-70495159D01*
X148444520Y-70523118D01*
X148448523Y-70551321D01*
X148449242Y-70575861D01*
X148448383Y-70584269D01*
X148445532Y-70601840D01*
X148131217Y-70601840D01*
X148134603Y-70613270D01*
X148143621Y-70631136D01*
X148158872Y-70649554D01*
X148177252Y-70665062D01*
X148185512Y-70670062D01*
X148197724Y-70675352D01*
X148211608Y-70678575D01*
X148230034Y-70680171D01*
X148254270Y-70680580D01*
X148277391Y-70680369D01*
X148293433Y-70679280D01*
X148305476Y-70676623D01*
X148316597Y-70671712D01*
X148329878Y-70663858D01*
X148330301Y-70663595D01*
X148357624Y-70646610D01*
X148389432Y-70681375D01*
X148421241Y-70716140D01*
X148402301Y-70733119D01*
X148375863Y-70753040D01*
X148346134Y-70767417D01*
X148313671Y-70777046D01*
X148282682Y-70781971D01*
X148247408Y-70783868D01*
X148212885Y-70782635D01*
X148190322Y-70779555D01*
X148154343Y-70769331D01*
X148118739Y-70753876D01*
X148095107Y-70739898D01*
X148063575Y-70712372D01*
X148039261Y-70679105D01*
X148022245Y-70641586D01*
X148012606Y-70601306D01*
X148010426Y-70559755D01*
X148015324Y-70521969D01*
X148132523Y-70521969D01*
X148136954Y-70526240D01*
X148146974Y-70528835D01*
X148163642Y-70530171D01*
X148188018Y-70530662D01*
X148221162Y-70530723D01*
X148233502Y-70530720D01*
X148272678Y-70530460D01*
X148302569Y-70529689D01*
X148322934Y-70528419D01*
X148333527Y-70526663D01*
X148335102Y-70525476D01*
X148330747Y-70508093D01*
X148319118Y-70489290D01*
X148302362Y-70471444D01*
X148282628Y-70456930D01*
X148266226Y-70449342D01*
X148237579Y-70444500D01*
X148208393Y-70447568D01*
X148181109Y-70457652D01*
X148158167Y-70473852D01*
X148142162Y-70494963D01*
X148136187Y-70506746D01*
X148132620Y-70515610D01*
X148132523Y-70521969D01*
X148015324Y-70521969D01*
X148015784Y-70518421D01*
X148028761Y-70478795D01*
X148049436Y-70442366D01*
X148077394Y-70411070D01*
X148113430Y-70384773D01*
X148152977Y-70366564D01*
X148194694Y-70356213D01*
X148237239Y-70353492D01*
X148279269Y-70358169D01*
G36*
X148763825Y-70358856D02*
G01*
X148807094Y-70369321D01*
X148832571Y-70379411D01*
X148856905Y-70391020D01*
X148837192Y-70432701D01*
X148817479Y-70474383D01*
X148795853Y-70465113D01*
X148764444Y-70454040D01*
X148733096Y-70447263D01*
X148703133Y-70444585D01*
X148675879Y-70445809D01*
X148652656Y-70450736D01*
X148634788Y-70459169D01*
X148623598Y-70470910D01*
X148620410Y-70485761D01*
X148621309Y-70491190D01*
X148624110Y-70498206D01*
X148629520Y-70504005D01*
X148638924Y-70509120D01*
X148653709Y-70514083D01*
X148675257Y-70519425D01*
X148704956Y-70525678D01*
X148717759Y-70528225D01*
X148752273Y-70535396D01*
X148778714Y-70541891D01*
X148799079Y-70548373D01*
X148815365Y-70555505D01*
X148829572Y-70563951D01*
X148833351Y-70566571D01*
X148851573Y-70585416D01*
X148863461Y-70610049D01*
X148868938Y-70638256D01*
X148867928Y-70667819D01*
X148860355Y-70696523D01*
X148846141Y-70722152D01*
X148839022Y-70730583D01*
X148814976Y-70749493D01*
X148783145Y-70764747D01*
X148745376Y-70775923D01*
X148703516Y-70782602D01*
X148659411Y-70784363D01*
X148617042Y-70781090D01*
X148599686Y-70777871D01*
X148578641Y-70772760D01*
X148556051Y-70766437D01*
X148534059Y-70759582D01*
X148514807Y-70752873D01*
X148500439Y-70746991D01*
X148493097Y-70742615D01*
X148492582Y-70741624D01*
X148494568Y-70736808D01*
X148499906Y-70724847D01*
X148507665Y-70707813D01*
X148512899Y-70696443D01*
X148533217Y-70652466D01*
X148558522Y-70665289D01*
X148588731Y-70677684D01*
X148622322Y-70686659D01*
X148656606Y-70691889D01*
X148688890Y-70693047D01*
X148716484Y-70689808D01*
X148728953Y-70685923D01*
X148745031Y-70675585D01*
X148753763Y-70662157D01*
X148753994Y-70647746D01*
X148752223Y-70643529D01*
X148746874Y-70636893D01*
X148737668Y-70631298D01*
X148723114Y-70626250D01*
X148701719Y-70621252D01*
X148671991Y-70615810D01*
X148665302Y-70614689D01*
X148627593Y-70607814D01*
X148598154Y-70600880D01*
X148575110Y-70593296D01*
X148556584Y-70584472D01*
X148544510Y-70576673D01*
X148522735Y-70555299D01*
X148509066Y-70529777D01*
X148503194Y-70501652D01*
X148504811Y-70472469D01*
X148513607Y-70443776D01*
X148529275Y-70417117D01*
X148551506Y-70394040D01*
X148579992Y-70376089D01*
X148584976Y-70373853D01*
X148624648Y-70361443D01*
X148669649Y-70354851D01*
X148717026Y-70354011D01*
X148763825Y-70358856D01*
G37*
X148763825Y-70358856D02*
X148807094Y-70369321D01*
X148832571Y-70379411D01*
X148856905Y-70391020D01*
X148837192Y-70432701D01*
X148817479Y-70474383D01*
X148795853Y-70465113D01*
X148764444Y-70454040D01*
X148733096Y-70447263D01*
X148703133Y-70444585D01*
X148675879Y-70445809D01*
X148652656Y-70450736D01*
X148634788Y-70459169D01*
X148623598Y-70470910D01*
X148620410Y-70485761D01*
X148621309Y-70491190D01*
X148624110Y-70498206D01*
X148629520Y-70504005D01*
X148638924Y-70509120D01*
X148653709Y-70514083D01*
X148675257Y-70519425D01*
X148704956Y-70525678D01*
X148717759Y-70528225D01*
X148752273Y-70535396D01*
X148778714Y-70541891D01*
X148799079Y-70548373D01*
X148815365Y-70555505D01*
X148829572Y-70563951D01*
X148833351Y-70566571D01*
X148851573Y-70585416D01*
X148863461Y-70610049D01*
X148868938Y-70638256D01*
X148867928Y-70667819D01*
X148860355Y-70696523D01*
X148846141Y-70722152D01*
X148839022Y-70730583D01*
X148814976Y-70749493D01*
X148783145Y-70764747D01*
X148745376Y-70775923D01*
X148703516Y-70782602D01*
X148659411Y-70784363D01*
X148617042Y-70781090D01*
X148599686Y-70777871D01*
X148578641Y-70772760D01*
X148556051Y-70766437D01*
X148534059Y-70759582D01*
X148514807Y-70752873D01*
X148500439Y-70746991D01*
X148493097Y-70742615D01*
X148492582Y-70741624D01*
X148494568Y-70736808D01*
X148499906Y-70724847D01*
X148507665Y-70707813D01*
X148512899Y-70696443D01*
X148533217Y-70652466D01*
X148558522Y-70665289D01*
X148588731Y-70677684D01*
X148622322Y-70686659D01*
X148656606Y-70691889D01*
X148688890Y-70693047D01*
X148716484Y-70689808D01*
X148728953Y-70685923D01*
X148745031Y-70675585D01*
X148753763Y-70662157D01*
X148753994Y-70647746D01*
X148752223Y-70643529D01*
X148746874Y-70636893D01*
X148737668Y-70631298D01*
X148723114Y-70626250D01*
X148701719Y-70621252D01*
X148671991Y-70615810D01*
X148665302Y-70614689D01*
X148627593Y-70607814D01*
X148598154Y-70600880D01*
X148575110Y-70593296D01*
X148556584Y-70584472D01*
X148544510Y-70576673D01*
X148522735Y-70555299D01*
X148509066Y-70529777D01*
X148503194Y-70501652D01*
X148504811Y-70472469D01*
X148513607Y-70443776D01*
X148529275Y-70417117D01*
X148551506Y-70394040D01*
X148579992Y-70376089D01*
X148584976Y-70373853D01*
X148624648Y-70361443D01*
X148669649Y-70354851D01*
X148717026Y-70354011D01*
X148763825Y-70358856D01*
G36*
X149081862Y-70368160D02*
G01*
X149183462Y-70368160D01*
X149183462Y-70459600D01*
X149081862Y-70459600D01*
X149081862Y-70658501D01*
X149096711Y-70673350D01*
X149115025Y-70684914D01*
X149137250Y-70688571D01*
X149160572Y-70684028D01*
X149167861Y-70680766D01*
X149182236Y-70673332D01*
X149196819Y-70712363D01*
X149203786Y-70730946D01*
X149209411Y-70745830D01*
X149212731Y-70754471D01*
X149213123Y-70755443D01*
X149209899Y-70759568D01*
X149199769Y-70765794D01*
X149190680Y-70770181D01*
X149169324Y-70776742D01*
X149141909Y-70781176D01*
X149112368Y-70783192D01*
X149084634Y-70782496D01*
X149065273Y-70779516D01*
X149029132Y-70765923D01*
X149000147Y-70745149D01*
X148978170Y-70717075D01*
X148971456Y-70704096D01*
X148968539Y-70695940D01*
X148966255Y-70684853D01*
X148964494Y-70669462D01*
X148963147Y-70648390D01*
X148962106Y-70620266D01*
X148961262Y-70583714D01*
X148961061Y-70572630D01*
X148959097Y-70459600D01*
X148893902Y-70459600D01*
X148893902Y-70368160D01*
X148959942Y-70368160D01*
X148959942Y-70266560D01*
X149081862Y-70266560D01*
X149081862Y-70368160D01*
G37*
X149081862Y-70368160D02*
X149183462Y-70368160D01*
X149183462Y-70459600D01*
X149081862Y-70459600D01*
X149081862Y-70658501D01*
X149096711Y-70673350D01*
X149115025Y-70684914D01*
X149137250Y-70688571D01*
X149160572Y-70684028D01*
X149167861Y-70680766D01*
X149182236Y-70673332D01*
X149196819Y-70712363D01*
X149203786Y-70730946D01*
X149209411Y-70745830D01*
X149212731Y-70754471D01*
X149213123Y-70755443D01*
X149209899Y-70759568D01*
X149199769Y-70765794D01*
X149190680Y-70770181D01*
X149169324Y-70776742D01*
X149141909Y-70781176D01*
X149112368Y-70783192D01*
X149084634Y-70782496D01*
X149065273Y-70779516D01*
X149029132Y-70765923D01*
X149000147Y-70745149D01*
X148978170Y-70717075D01*
X148971456Y-70704096D01*
X148968539Y-70695940D01*
X148966255Y-70684853D01*
X148964494Y-70669462D01*
X148963147Y-70648390D01*
X148962106Y-70620266D01*
X148961262Y-70583714D01*
X148961061Y-70572630D01*
X148959097Y-70459600D01*
X148893902Y-70459600D01*
X148893902Y-70368160D01*
X148959942Y-70368160D01*
X148959942Y-70266560D01*
X149081862Y-70266560D01*
X149081862Y-70368160D01*
G36*
X149508629Y-70358169D02*
G01*
X149548802Y-70370015D01*
X149585777Y-70388800D01*
X149618211Y-70414295D01*
X149644762Y-70446269D01*
X149658660Y-70471349D01*
X149667252Y-70495159D01*
X149673880Y-70523118D01*
X149677883Y-70551321D01*
X149678602Y-70575861D01*
X149677743Y-70584269D01*
X149674892Y-70601840D01*
X149360577Y-70601840D01*
X149363963Y-70613270D01*
X149372981Y-70631136D01*
X149388232Y-70649554D01*
X149406612Y-70665062D01*
X149414872Y-70670062D01*
X149427084Y-70675352D01*
X149440968Y-70678575D01*
X149459394Y-70680171D01*
X149483630Y-70680580D01*
X149506751Y-70680369D01*
X149522793Y-70679280D01*
X149534836Y-70676623D01*
X149545957Y-70671712D01*
X149559238Y-70663858D01*
X149559661Y-70663595D01*
X149586984Y-70646610D01*
X149618792Y-70681375D01*
X149650601Y-70716140D01*
X149631661Y-70733119D01*
X149605223Y-70753040D01*
X149575494Y-70767417D01*
X149543031Y-70777046D01*
X149512042Y-70781971D01*
X149476768Y-70783868D01*
X149442245Y-70782635D01*
X149419682Y-70779555D01*
X149383703Y-70769331D01*
X149348099Y-70753876D01*
X149324467Y-70739898D01*
X149292935Y-70712372D01*
X149268621Y-70679105D01*
X149251605Y-70641586D01*
X149241966Y-70601306D01*
X149239786Y-70559755D01*
X149244684Y-70521969D01*
X149361883Y-70521969D01*
X149366314Y-70526240D01*
X149376334Y-70528835D01*
X149393002Y-70530171D01*
X149417378Y-70530662D01*
X149450522Y-70530723D01*
X149462862Y-70530720D01*
X149502038Y-70530460D01*
X149531929Y-70529689D01*
X149552294Y-70528419D01*
X149562887Y-70526663D01*
X149564462Y-70525476D01*
X149560107Y-70508093D01*
X149548478Y-70489290D01*
X149531722Y-70471444D01*
X149511988Y-70456930D01*
X149495586Y-70449342D01*
X149466939Y-70444500D01*
X149437753Y-70447568D01*
X149410469Y-70457652D01*
X149387527Y-70473852D01*
X149371522Y-70494963D01*
X149365547Y-70506746D01*
X149361980Y-70515610D01*
X149361883Y-70521969D01*
X149244684Y-70521969D01*
X149245144Y-70518421D01*
X149258121Y-70478795D01*
X149278796Y-70442366D01*
X149306754Y-70411070D01*
X149342790Y-70384773D01*
X149382337Y-70366564D01*
X149424054Y-70356213D01*
X149466599Y-70353492D01*
X149508629Y-70358169D01*
G37*
X149508629Y-70358169D02*
X149548802Y-70370015D01*
X149585777Y-70388800D01*
X149618211Y-70414295D01*
X149644762Y-70446269D01*
X149658660Y-70471349D01*
X149667252Y-70495159D01*
X149673880Y-70523118D01*
X149677883Y-70551321D01*
X149678602Y-70575861D01*
X149677743Y-70584269D01*
X149674892Y-70601840D01*
X149360577Y-70601840D01*
X149363963Y-70613270D01*
X149372981Y-70631136D01*
X149388232Y-70649554D01*
X149406612Y-70665062D01*
X149414872Y-70670062D01*
X149427084Y-70675352D01*
X149440968Y-70678575D01*
X149459394Y-70680171D01*
X149483630Y-70680580D01*
X149506751Y-70680369D01*
X149522793Y-70679280D01*
X149534836Y-70676623D01*
X149545957Y-70671712D01*
X149559238Y-70663858D01*
X149559661Y-70663595D01*
X149586984Y-70646610D01*
X149618792Y-70681375D01*
X149650601Y-70716140D01*
X149631661Y-70733119D01*
X149605223Y-70753040D01*
X149575494Y-70767417D01*
X149543031Y-70777046D01*
X149512042Y-70781971D01*
X149476768Y-70783868D01*
X149442245Y-70782635D01*
X149419682Y-70779555D01*
X149383703Y-70769331D01*
X149348099Y-70753876D01*
X149324467Y-70739898D01*
X149292935Y-70712372D01*
X149268621Y-70679105D01*
X149251605Y-70641586D01*
X149241966Y-70601306D01*
X149239786Y-70559755D01*
X149244684Y-70521969D01*
X149361883Y-70521969D01*
X149366314Y-70526240D01*
X149376334Y-70528835D01*
X149393002Y-70530171D01*
X149417378Y-70530662D01*
X149450522Y-70530723D01*
X149462862Y-70530720D01*
X149502038Y-70530460D01*
X149531929Y-70529689D01*
X149552294Y-70528419D01*
X149562887Y-70526663D01*
X149564462Y-70525476D01*
X149560107Y-70508093D01*
X149548478Y-70489290D01*
X149531722Y-70471444D01*
X149511988Y-70456930D01*
X149495586Y-70449342D01*
X149466939Y-70444500D01*
X149437753Y-70447568D01*
X149410469Y-70457652D01*
X149387527Y-70473852D01*
X149371522Y-70494963D01*
X149365547Y-70506746D01*
X149361980Y-70515610D01*
X149361883Y-70521969D01*
X149244684Y-70521969D01*
X149245144Y-70518421D01*
X149258121Y-70478795D01*
X149278796Y-70442366D01*
X149306754Y-70411070D01*
X149342790Y-70384773D01*
X149382337Y-70366564D01*
X149424054Y-70356213D01*
X149466599Y-70353492D01*
X149508629Y-70358169D01*
G36*
X152055710Y-70356171D02*
G01*
X152098859Y-70365808D01*
X152138387Y-70383199D01*
X152154709Y-70393743D01*
X152168896Y-70405824D01*
X152183142Y-70420857D01*
X152195416Y-70436328D01*
X152203688Y-70449722D01*
X152206062Y-70457361D01*
X152201857Y-70462350D01*
X152190536Y-70470614D01*
X152174041Y-70480823D01*
X152161871Y-70487651D01*
X152117681Y-70511544D01*
X152102758Y-70492941D01*
X152088777Y-70478810D01*
X152072517Y-70466738D01*
X152068410Y-70464429D01*
X152046392Y-70457310D01*
X152019888Y-70454625D01*
X151993626Y-70456526D01*
X151976028Y-70461428D01*
X151950577Y-70477241D01*
X151931395Y-70499356D01*
X151918614Y-70525979D01*
X151912367Y-70555317D01*
X151912785Y-70585576D01*
X151920000Y-70614961D01*
X151934144Y-70641678D01*
X151955350Y-70663933D01*
X151960842Y-70667961D01*
X151975930Y-70675959D01*
X151994308Y-70680485D01*
X152013105Y-70682261D01*
X152043840Y-70681356D01*
X152068467Y-70674062D01*
X152089489Y-70659384D01*
X152100782Y-70647376D01*
X152116760Y-70628344D01*
X152160141Y-70651515D01*
X152178906Y-70661583D01*
X152194016Y-70669777D01*
X152203424Y-70674980D01*
X152205475Y-70676200D01*
X152205787Y-70682260D01*
X152200670Y-70693415D01*
X152191579Y-70707284D01*
X152179969Y-70721490D01*
X152174011Y-70727650D01*
X152141520Y-70752392D01*
X152102925Y-70770412D01*
X152060106Y-70781276D01*
X152014943Y-70784548D01*
X151969314Y-70779792D01*
X151958909Y-70777507D01*
X151918268Y-70763589D01*
X151880826Y-70742962D01*
X151848546Y-70717055D01*
X151823391Y-70687298D01*
X151814589Y-70672394D01*
X151797754Y-70629239D01*
X151790046Y-70584739D01*
X151791261Y-70540360D01*
X151801195Y-70497571D01*
X151819642Y-70457840D01*
X151846397Y-70422632D01*
X151849965Y-70418972D01*
X151883658Y-70392120D01*
X151922916Y-70372262D01*
X151965902Y-70359550D01*
X152010779Y-70354135D01*
X152055710Y-70356171D01*
G37*
X152055710Y-70356171D02*
X152098859Y-70365808D01*
X152138387Y-70383199D01*
X152154709Y-70393743D01*
X152168896Y-70405824D01*
X152183142Y-70420857D01*
X152195416Y-70436328D01*
X152203688Y-70449722D01*
X152206062Y-70457361D01*
X152201857Y-70462350D01*
X152190536Y-70470614D01*
X152174041Y-70480823D01*
X152161871Y-70487651D01*
X152117681Y-70511544D01*
X152102758Y-70492941D01*
X152088777Y-70478810D01*
X152072517Y-70466738D01*
X152068410Y-70464429D01*
X152046392Y-70457310D01*
X152019888Y-70454625D01*
X151993626Y-70456526D01*
X151976028Y-70461428D01*
X151950577Y-70477241D01*
X151931395Y-70499356D01*
X151918614Y-70525979D01*
X151912367Y-70555317D01*
X151912785Y-70585576D01*
X151920000Y-70614961D01*
X151934144Y-70641678D01*
X151955350Y-70663933D01*
X151960842Y-70667961D01*
X151975930Y-70675959D01*
X151994308Y-70680485D01*
X152013105Y-70682261D01*
X152043840Y-70681356D01*
X152068467Y-70674062D01*
X152089489Y-70659384D01*
X152100782Y-70647376D01*
X152116760Y-70628344D01*
X152160141Y-70651515D01*
X152178906Y-70661583D01*
X152194016Y-70669777D01*
X152203424Y-70674980D01*
X152205475Y-70676200D01*
X152205787Y-70682260D01*
X152200670Y-70693415D01*
X152191579Y-70707284D01*
X152179969Y-70721490D01*
X152174011Y-70727650D01*
X152141520Y-70752392D01*
X152102925Y-70770412D01*
X152060106Y-70781276D01*
X152014943Y-70784548D01*
X151969314Y-70779792D01*
X151958909Y-70777507D01*
X151918268Y-70763589D01*
X151880826Y-70742962D01*
X151848546Y-70717055D01*
X151823391Y-70687298D01*
X151814589Y-70672394D01*
X151797754Y-70629239D01*
X151790046Y-70584739D01*
X151791261Y-70540360D01*
X151801195Y-70497571D01*
X151819642Y-70457840D01*
X151846397Y-70422632D01*
X151849965Y-70418972D01*
X151883658Y-70392120D01*
X151922916Y-70372262D01*
X151965902Y-70359550D01*
X152010779Y-70354135D01*
X152055710Y-70356171D01*
G36*
X153814286Y-70357865D02*
G01*
X153848041Y-70365704D01*
X153849442Y-70366177D01*
X153884921Y-70381690D01*
X153912450Y-70401811D01*
X153933807Y-70428210D01*
X153949973Y-70460569D01*
X153953167Y-70469106D01*
X153955699Y-70477963D01*
X153957667Y-70488455D01*
X153959166Y-70501896D01*
X153960294Y-70519599D01*
X153961148Y-70542877D01*
X153961823Y-70573045D01*
X153962417Y-70611416D01*
X153962707Y-70633590D01*
X153964557Y-70779640D01*
X153846902Y-70779640D01*
X153846902Y-70732436D01*
X153834164Y-70746180D01*
X153813647Y-70761820D01*
X153786012Y-70773613D01*
X153753715Y-70781110D01*
X153719211Y-70783862D01*
X153684957Y-70781420D01*
X153664968Y-70777114D01*
X153629543Y-70762845D01*
X153601892Y-70742100D01*
X153581864Y-70714761D01*
X153580009Y-70711121D01*
X153572416Y-70693857D01*
X153568635Y-70678928D01*
X153567794Y-70661590D01*
X153568347Y-70647893D01*
X153684342Y-70647893D01*
X153687789Y-70668463D01*
X153699065Y-70684591D01*
X153711336Y-70693874D01*
X153730156Y-70700794D01*
X153753883Y-70702637D01*
X153778763Y-70699641D01*
X153801044Y-70692044D01*
X153808435Y-70687737D01*
X153828311Y-70669514D01*
X153839115Y-70647602D01*
X153841822Y-70625186D01*
X153841822Y-70601840D01*
X153786272Y-70601840D01*
X153762192Y-70602277D01*
X153740759Y-70603459D01*
X153724709Y-70605191D01*
X153717895Y-70606717D01*
X153699220Y-70617865D01*
X153687512Y-70633471D01*
X153684342Y-70647893D01*
X153568347Y-70647893D01*
X153568350Y-70647820D01*
X153573609Y-70615148D01*
X153585875Y-70589191D01*
X153606064Y-70568531D01*
X153628462Y-70554901D01*
X153650161Y-70545443D01*
X153672910Y-70538650D01*
X153698869Y-70534169D01*
X153730201Y-70531650D01*
X153769067Y-70530740D01*
X153777110Y-70530720D01*
X153843092Y-70530720D01*
X153839858Y-70514210D01*
X153830084Y-70489488D01*
X153811837Y-70470029D01*
X153800820Y-70463119D01*
X153790095Y-70458620D01*
X153777297Y-70456075D01*
X153759754Y-70455183D01*
X153734791Y-70455642D01*
X153734655Y-70455647D01*
X153709674Y-70456953D01*
X153691280Y-70459314D01*
X153675905Y-70463492D01*
X153659979Y-70470249D01*
X153655054Y-70472649D01*
X153624199Y-70487942D01*
X153603141Y-70448419D01*
X153594088Y-70430102D01*
X153587853Y-70414858D01*
X153585354Y-70405060D01*
X153585642Y-70403136D01*
X153593715Y-70396410D01*
X153609369Y-70388217D01*
X153630304Y-70379460D01*
X153654222Y-70371046D01*
X153678823Y-70363879D01*
X153694775Y-70360179D01*
X153733993Y-70354960D01*
X153775050Y-70354236D01*
X153814286Y-70357865D01*
G37*
X153814286Y-70357865D02*
X153848041Y-70365704D01*
X153849442Y-70366177D01*
X153884921Y-70381690D01*
X153912450Y-70401811D01*
X153933807Y-70428210D01*
X153949973Y-70460569D01*
X153953167Y-70469106D01*
X153955699Y-70477963D01*
X153957667Y-70488455D01*
X153959166Y-70501896D01*
X153960294Y-70519599D01*
X153961148Y-70542877D01*
X153961823Y-70573045D01*
X153962417Y-70611416D01*
X153962707Y-70633590D01*
X153964557Y-70779640D01*
X153846902Y-70779640D01*
X153846902Y-70732436D01*
X153834164Y-70746180D01*
X153813647Y-70761820D01*
X153786012Y-70773613D01*
X153753715Y-70781110D01*
X153719211Y-70783862D01*
X153684957Y-70781420D01*
X153664968Y-70777114D01*
X153629543Y-70762845D01*
X153601892Y-70742100D01*
X153581864Y-70714761D01*
X153580009Y-70711121D01*
X153572416Y-70693857D01*
X153568635Y-70678928D01*
X153567794Y-70661590D01*
X153568347Y-70647893D01*
X153684342Y-70647893D01*
X153687789Y-70668463D01*
X153699065Y-70684591D01*
X153711336Y-70693874D01*
X153730156Y-70700794D01*
X153753883Y-70702637D01*
X153778763Y-70699641D01*
X153801044Y-70692044D01*
X153808435Y-70687737D01*
X153828311Y-70669514D01*
X153839115Y-70647602D01*
X153841822Y-70625186D01*
X153841822Y-70601840D01*
X153786272Y-70601840D01*
X153762192Y-70602277D01*
X153740759Y-70603459D01*
X153724709Y-70605191D01*
X153717895Y-70606717D01*
X153699220Y-70617865D01*
X153687512Y-70633471D01*
X153684342Y-70647893D01*
X153568347Y-70647893D01*
X153568350Y-70647820D01*
X153573609Y-70615148D01*
X153585875Y-70589191D01*
X153606064Y-70568531D01*
X153628462Y-70554901D01*
X153650161Y-70545443D01*
X153672910Y-70538650D01*
X153698869Y-70534169D01*
X153730201Y-70531650D01*
X153769067Y-70530740D01*
X153777110Y-70530720D01*
X153843092Y-70530720D01*
X153839858Y-70514210D01*
X153830084Y-70489488D01*
X153811837Y-70470029D01*
X153800820Y-70463119D01*
X153790095Y-70458620D01*
X153777297Y-70456075D01*
X153759754Y-70455183D01*
X153734791Y-70455642D01*
X153734655Y-70455647D01*
X153709674Y-70456953D01*
X153691280Y-70459314D01*
X153675905Y-70463492D01*
X153659979Y-70470249D01*
X153655054Y-70472649D01*
X153624199Y-70487942D01*
X153603141Y-70448419D01*
X153594088Y-70430102D01*
X153587853Y-70414858D01*
X153585354Y-70405060D01*
X153585642Y-70403136D01*
X153593715Y-70396410D01*
X153609369Y-70388217D01*
X153630304Y-70379460D01*
X153654222Y-70371046D01*
X153678823Y-70363879D01*
X153694775Y-70360179D01*
X153733993Y-70354960D01*
X153775050Y-70354236D01*
X153814286Y-70357865D01*
G36*
X154959644Y-70407530D02*
G01*
X154959758Y-70457654D01*
X154960045Y-70498737D01*
X154960636Y-70531898D01*
X154961660Y-70558255D01*
X154963247Y-70578927D01*
X154965527Y-70595033D01*
X154968628Y-70607690D01*
X154972680Y-70618019D01*
X154977814Y-70627137D01*
X154984158Y-70636164D01*
X154986480Y-70639235D01*
X155003621Y-70656773D01*
X155024488Y-70668109D01*
X155051066Y-70674020D01*
X155078802Y-70675362D01*
X155114054Y-70672452D01*
X155141829Y-70663686D01*
X155163257Y-70648603D01*
X155172962Y-70637147D01*
X155179396Y-70627459D01*
X155184639Y-70617506D01*
X155188812Y-70606168D01*
X155192036Y-70592328D01*
X155194430Y-70574867D01*
X155196116Y-70552665D01*
X155197213Y-70524604D01*
X155197843Y-70489565D01*
X155198125Y-70446429D01*
X155198182Y-70402912D01*
X155198182Y-70231000D01*
X155325182Y-70231000D01*
X155325143Y-70392290D01*
X155324966Y-70433515D01*
X155324484Y-70472970D01*
X155323740Y-70509102D01*
X155322775Y-70540355D01*
X155321634Y-70565175D01*
X155320357Y-70582010D01*
X155319821Y-70586146D01*
X155307991Y-70635972D01*
X155289729Y-70678108D01*
X155264677Y-70713008D01*
X155232476Y-70741126D01*
X155192769Y-70762916D01*
X155174911Y-70769888D01*
X155148394Y-70776616D01*
X155115521Y-70781056D01*
X155079873Y-70783044D01*
X155045032Y-70782416D01*
X155014577Y-70779007D01*
X155007513Y-70777575D01*
X154967581Y-70765435D01*
X154933743Y-70747940D01*
X154902543Y-70723202D01*
X154895477Y-70716388D01*
X154871759Y-70688795D01*
X154854493Y-70658621D01*
X154842270Y-70623059D01*
X154837162Y-70600047D01*
X154836023Y-70589001D01*
X154834984Y-70569202D01*
X154834075Y-70542054D01*
X154833333Y-70508965D01*
X154832791Y-70471341D01*
X154832481Y-70430587D01*
X154832422Y-70403026D01*
X154832422Y-70231000D01*
X154959422Y-70231000D01*
X154959644Y-70407530D01*
G37*
X154959644Y-70407530D02*
X154959758Y-70457654D01*
X154960045Y-70498737D01*
X154960636Y-70531898D01*
X154961660Y-70558255D01*
X154963247Y-70578927D01*
X154965527Y-70595033D01*
X154968628Y-70607690D01*
X154972680Y-70618019D01*
X154977814Y-70627137D01*
X154984158Y-70636164D01*
X154986480Y-70639235D01*
X155003621Y-70656773D01*
X155024488Y-70668109D01*
X155051066Y-70674020D01*
X155078802Y-70675362D01*
X155114054Y-70672452D01*
X155141829Y-70663686D01*
X155163257Y-70648603D01*
X155172962Y-70637147D01*
X155179396Y-70627459D01*
X155184639Y-70617506D01*
X155188812Y-70606168D01*
X155192036Y-70592328D01*
X155194430Y-70574867D01*
X155196116Y-70552665D01*
X155197213Y-70524604D01*
X155197843Y-70489565D01*
X155198125Y-70446429D01*
X155198182Y-70402912D01*
X155198182Y-70231000D01*
X155325182Y-70231000D01*
X155325143Y-70392290D01*
X155324966Y-70433515D01*
X155324484Y-70472970D01*
X155323740Y-70509102D01*
X155322775Y-70540355D01*
X155321634Y-70565175D01*
X155320357Y-70582010D01*
X155319821Y-70586146D01*
X155307991Y-70635972D01*
X155289729Y-70678108D01*
X155264677Y-70713008D01*
X155232476Y-70741126D01*
X155192769Y-70762916D01*
X155174911Y-70769888D01*
X155148394Y-70776616D01*
X155115521Y-70781056D01*
X155079873Y-70783044D01*
X155045032Y-70782416D01*
X155014577Y-70779007D01*
X155007513Y-70777575D01*
X154967581Y-70765435D01*
X154933743Y-70747940D01*
X154902543Y-70723202D01*
X154895477Y-70716388D01*
X154871759Y-70688795D01*
X154854493Y-70658621D01*
X154842270Y-70623059D01*
X154837162Y-70600047D01*
X154836023Y-70589001D01*
X154834984Y-70569202D01*
X154834075Y-70542054D01*
X154833333Y-70508965D01*
X154832791Y-70471341D01*
X154832481Y-70430587D01*
X154832422Y-70403026D01*
X154832422Y-70231000D01*
X154959422Y-70231000D01*
X154959644Y-70407530D01*
G36*
X156900029Y-70358169D02*
G01*
X156940202Y-70370015D01*
X156977177Y-70388800D01*
X157009611Y-70414295D01*
X157036162Y-70446269D01*
X157050060Y-70471349D01*
X157058652Y-70495159D01*
X157065280Y-70523118D01*
X157069283Y-70551321D01*
X157070002Y-70575861D01*
X157069143Y-70584269D01*
X157066292Y-70601840D01*
X156751977Y-70601840D01*
X156755363Y-70613270D01*
X156764381Y-70631136D01*
X156779632Y-70649554D01*
X156798012Y-70665062D01*
X156806272Y-70670062D01*
X156818484Y-70675352D01*
X156832368Y-70678575D01*
X156850794Y-70680171D01*
X156875030Y-70680580D01*
X156898151Y-70680369D01*
X156914193Y-70679280D01*
X156926236Y-70676623D01*
X156937357Y-70671712D01*
X156950638Y-70663858D01*
X156951061Y-70663595D01*
X156978384Y-70646610D01*
X157010192Y-70681375D01*
X157042001Y-70716140D01*
X157023061Y-70733119D01*
X156996623Y-70753040D01*
X156966894Y-70767417D01*
X156934431Y-70777046D01*
X156903442Y-70781971D01*
X156868168Y-70783868D01*
X156833645Y-70782635D01*
X156811082Y-70779555D01*
X156775103Y-70769331D01*
X156739499Y-70753876D01*
X156715867Y-70739898D01*
X156684335Y-70712372D01*
X156660021Y-70679105D01*
X156643005Y-70641586D01*
X156633366Y-70601306D01*
X156631186Y-70559755D01*
X156636084Y-70521969D01*
X156753283Y-70521969D01*
X156757714Y-70526240D01*
X156767734Y-70528835D01*
X156784402Y-70530171D01*
X156808778Y-70530662D01*
X156841922Y-70530723D01*
X156854262Y-70530720D01*
X156893438Y-70530460D01*
X156923329Y-70529689D01*
X156943694Y-70528419D01*
X156954287Y-70526663D01*
X156955862Y-70525476D01*
X156951507Y-70508093D01*
X156939878Y-70489290D01*
X156923122Y-70471444D01*
X156903388Y-70456930D01*
X156886986Y-70449342D01*
X156858339Y-70444500D01*
X156829153Y-70447568D01*
X156801869Y-70457652D01*
X156778927Y-70473852D01*
X156762922Y-70494963D01*
X156756947Y-70506746D01*
X156753380Y-70515610D01*
X156753283Y-70521969D01*
X156636084Y-70521969D01*
X156636544Y-70518421D01*
X156649521Y-70478795D01*
X156670196Y-70442366D01*
X156698154Y-70411070D01*
X156734190Y-70384773D01*
X156773737Y-70366564D01*
X156815454Y-70356213D01*
X156857999Y-70353492D01*
X156900029Y-70358169D01*
G37*
X156900029Y-70358169D02*
X156940202Y-70370015D01*
X156977177Y-70388800D01*
X157009611Y-70414295D01*
X157036162Y-70446269D01*
X157050060Y-70471349D01*
X157058652Y-70495159D01*
X157065280Y-70523118D01*
X157069283Y-70551321D01*
X157070002Y-70575861D01*
X157069143Y-70584269D01*
X157066292Y-70601840D01*
X156751977Y-70601840D01*
X156755363Y-70613270D01*
X156764381Y-70631136D01*
X156779632Y-70649554D01*
X156798012Y-70665062D01*
X156806272Y-70670062D01*
X156818484Y-70675352D01*
X156832368Y-70678575D01*
X156850794Y-70680171D01*
X156875030Y-70680580D01*
X156898151Y-70680369D01*
X156914193Y-70679280D01*
X156926236Y-70676623D01*
X156937357Y-70671712D01*
X156950638Y-70663858D01*
X156951061Y-70663595D01*
X156978384Y-70646610D01*
X157010192Y-70681375D01*
X157042001Y-70716140D01*
X157023061Y-70733119D01*
X156996623Y-70753040D01*
X156966894Y-70767417D01*
X156934431Y-70777046D01*
X156903442Y-70781971D01*
X156868168Y-70783868D01*
X156833645Y-70782635D01*
X156811082Y-70779555D01*
X156775103Y-70769331D01*
X156739499Y-70753876D01*
X156715867Y-70739898D01*
X156684335Y-70712372D01*
X156660021Y-70679105D01*
X156643005Y-70641586D01*
X156633366Y-70601306D01*
X156631186Y-70559755D01*
X156636084Y-70521969D01*
X156753283Y-70521969D01*
X156757714Y-70526240D01*
X156767734Y-70528835D01*
X156784402Y-70530171D01*
X156808778Y-70530662D01*
X156841922Y-70530723D01*
X156854262Y-70530720D01*
X156893438Y-70530460D01*
X156923329Y-70529689D01*
X156943694Y-70528419D01*
X156954287Y-70526663D01*
X156955862Y-70525476D01*
X156951507Y-70508093D01*
X156939878Y-70489290D01*
X156923122Y-70471444D01*
X156903388Y-70456930D01*
X156886986Y-70449342D01*
X156858339Y-70444500D01*
X156829153Y-70447568D01*
X156801869Y-70457652D01*
X156778927Y-70473852D01*
X156762922Y-70494963D01*
X156756947Y-70506746D01*
X156753380Y-70515610D01*
X156753283Y-70521969D01*
X156636084Y-70521969D01*
X156636544Y-70518421D01*
X156649521Y-70478795D01*
X156670196Y-70442366D01*
X156698154Y-70411070D01*
X156734190Y-70384773D01*
X156773737Y-70366564D01*
X156815454Y-70356213D01*
X156857999Y-70353492D01*
X156900029Y-70358169D01*
G36*
X157714785Y-70358856D02*
G01*
X157758054Y-70369321D01*
X157783531Y-70379411D01*
X157807865Y-70391020D01*
X157788152Y-70432701D01*
X157768439Y-70474383D01*
X157746813Y-70465113D01*
X157715404Y-70454040D01*
X157684056Y-70447263D01*
X157654093Y-70444585D01*
X157626839Y-70445809D01*
X157603616Y-70450736D01*
X157585748Y-70459169D01*
X157574558Y-70470910D01*
X157571370Y-70485761D01*
X157572269Y-70491190D01*
X157575070Y-70498206D01*
X157580480Y-70504005D01*
X157589884Y-70509120D01*
X157604669Y-70514083D01*
X157626217Y-70519425D01*
X157655916Y-70525678D01*
X157668719Y-70528225D01*
X157703233Y-70535396D01*
X157729674Y-70541891D01*
X157750039Y-70548373D01*
X157766325Y-70555505D01*
X157780532Y-70563951D01*
X157784311Y-70566571D01*
X157802533Y-70585416D01*
X157814421Y-70610049D01*
X157819898Y-70638256D01*
X157818888Y-70667819D01*
X157811315Y-70696523D01*
X157797101Y-70722152D01*
X157789982Y-70730583D01*
X157765936Y-70749493D01*
X157734105Y-70764747D01*
X157696336Y-70775923D01*
X157654476Y-70782602D01*
X157610371Y-70784363D01*
X157568002Y-70781090D01*
X157550646Y-70777871D01*
X157529601Y-70772760D01*
X157507011Y-70766437D01*
X157485019Y-70759582D01*
X157465767Y-70752873D01*
X157451399Y-70746991D01*
X157444057Y-70742615D01*
X157443542Y-70741624D01*
X157445528Y-70736808D01*
X157450866Y-70724847D01*
X157458625Y-70707813D01*
X157463859Y-70696443D01*
X157484177Y-70652466D01*
X157509482Y-70665289D01*
X157539691Y-70677684D01*
X157573282Y-70686659D01*
X157607566Y-70691889D01*
X157639850Y-70693047D01*
X157667444Y-70689808D01*
X157679913Y-70685923D01*
X157695991Y-70675585D01*
X157704723Y-70662157D01*
X157704954Y-70647746D01*
X157703183Y-70643529D01*
X157697834Y-70636893D01*
X157688628Y-70631298D01*
X157674074Y-70626250D01*
X157652679Y-70621252D01*
X157622951Y-70615810D01*
X157616262Y-70614689D01*
X157578553Y-70607814D01*
X157549114Y-70600880D01*
X157526070Y-70593296D01*
X157507544Y-70584472D01*
X157495470Y-70576673D01*
X157473695Y-70555299D01*
X157460026Y-70529777D01*
X157454154Y-70501652D01*
X157455771Y-70472469D01*
X157464567Y-70443776D01*
X157480235Y-70417117D01*
X157502466Y-70394040D01*
X157530952Y-70376089D01*
X157535936Y-70373853D01*
X157575608Y-70361443D01*
X157620609Y-70354851D01*
X157667986Y-70354011D01*
X157714785Y-70358856D01*
G37*
X157714785Y-70358856D02*
X157758054Y-70369321D01*
X157783531Y-70379411D01*
X157807865Y-70391020D01*
X157788152Y-70432701D01*
X157768439Y-70474383D01*
X157746813Y-70465113D01*
X157715404Y-70454040D01*
X157684056Y-70447263D01*
X157654093Y-70444585D01*
X157626839Y-70445809D01*
X157603616Y-70450736D01*
X157585748Y-70459169D01*
X157574558Y-70470910D01*
X157571370Y-70485761D01*
X157572269Y-70491190D01*
X157575070Y-70498206D01*
X157580480Y-70504005D01*
X157589884Y-70509120D01*
X157604669Y-70514083D01*
X157626217Y-70519425D01*
X157655916Y-70525678D01*
X157668719Y-70528225D01*
X157703233Y-70535396D01*
X157729674Y-70541891D01*
X157750039Y-70548373D01*
X157766325Y-70555505D01*
X157780532Y-70563951D01*
X157784311Y-70566571D01*
X157802533Y-70585416D01*
X157814421Y-70610049D01*
X157819898Y-70638256D01*
X157818888Y-70667819D01*
X157811315Y-70696523D01*
X157797101Y-70722152D01*
X157789982Y-70730583D01*
X157765936Y-70749493D01*
X157734105Y-70764747D01*
X157696336Y-70775923D01*
X157654476Y-70782602D01*
X157610371Y-70784363D01*
X157568002Y-70781090D01*
X157550646Y-70777871D01*
X157529601Y-70772760D01*
X157507011Y-70766437D01*
X157485019Y-70759582D01*
X157465767Y-70752873D01*
X157451399Y-70746991D01*
X157444057Y-70742615D01*
X157443542Y-70741624D01*
X157445528Y-70736808D01*
X157450866Y-70724847D01*
X157458625Y-70707813D01*
X157463859Y-70696443D01*
X157484177Y-70652466D01*
X157509482Y-70665289D01*
X157539691Y-70677684D01*
X157573282Y-70686659D01*
X157607566Y-70691889D01*
X157639850Y-70693047D01*
X157667444Y-70689808D01*
X157679913Y-70685923D01*
X157695991Y-70675585D01*
X157704723Y-70662157D01*
X157704954Y-70647746D01*
X157703183Y-70643529D01*
X157697834Y-70636893D01*
X157688628Y-70631298D01*
X157674074Y-70626250D01*
X157652679Y-70621252D01*
X157622951Y-70615810D01*
X157616262Y-70614689D01*
X157578553Y-70607814D01*
X157549114Y-70600880D01*
X157526070Y-70593296D01*
X157507544Y-70584472D01*
X157495470Y-70576673D01*
X157473695Y-70555299D01*
X157460026Y-70529777D01*
X157454154Y-70501652D01*
X157455771Y-70472469D01*
X157464567Y-70443776D01*
X157480235Y-70417117D01*
X157502466Y-70394040D01*
X157530952Y-70376089D01*
X157535936Y-70373853D01*
X157575608Y-70361443D01*
X157620609Y-70354851D01*
X157667986Y-70354011D01*
X157714785Y-70358856D01*
G36*
X158271582Y-70368160D02*
G01*
X158373182Y-70368160D01*
X158373182Y-70459600D01*
X158271582Y-70459600D01*
X158271582Y-70658501D01*
X158286431Y-70673350D01*
X158304745Y-70684914D01*
X158326970Y-70688571D01*
X158350292Y-70684028D01*
X158357581Y-70680766D01*
X158371956Y-70673332D01*
X158386539Y-70712363D01*
X158393506Y-70730946D01*
X158399131Y-70745830D01*
X158402451Y-70754471D01*
X158402843Y-70755443D01*
X158399619Y-70759568D01*
X158389489Y-70765794D01*
X158380400Y-70770181D01*
X158359044Y-70776742D01*
X158331629Y-70781176D01*
X158302088Y-70783192D01*
X158274354Y-70782496D01*
X158254993Y-70779516D01*
X158218852Y-70765923D01*
X158189867Y-70745149D01*
X158167890Y-70717075D01*
X158161176Y-70704096D01*
X158158259Y-70695940D01*
X158155975Y-70684853D01*
X158154214Y-70669462D01*
X158152867Y-70648390D01*
X158151826Y-70620266D01*
X158150982Y-70583714D01*
X158150781Y-70572630D01*
X158148817Y-70459600D01*
X158083622Y-70459600D01*
X158083622Y-70368160D01*
X158149662Y-70368160D01*
X158149662Y-70266560D01*
X158271582Y-70266560D01*
X158271582Y-70368160D01*
G37*
X158271582Y-70368160D02*
X158373182Y-70368160D01*
X158373182Y-70459600D01*
X158271582Y-70459600D01*
X158271582Y-70658501D01*
X158286431Y-70673350D01*
X158304745Y-70684914D01*
X158326970Y-70688571D01*
X158350292Y-70684028D01*
X158357581Y-70680766D01*
X158371956Y-70673332D01*
X158386539Y-70712363D01*
X158393506Y-70730946D01*
X158399131Y-70745830D01*
X158402451Y-70754471D01*
X158402843Y-70755443D01*
X158399619Y-70759568D01*
X158389489Y-70765794D01*
X158380400Y-70770181D01*
X158359044Y-70776742D01*
X158331629Y-70781176D01*
X158302088Y-70783192D01*
X158274354Y-70782496D01*
X158254993Y-70779516D01*
X158218852Y-70765923D01*
X158189867Y-70745149D01*
X158167890Y-70717075D01*
X158161176Y-70704096D01*
X158158259Y-70695940D01*
X158155975Y-70684853D01*
X158154214Y-70669462D01*
X158152867Y-70648390D01*
X158151826Y-70620266D01*
X158150982Y-70583714D01*
X158150781Y-70572630D01*
X158148817Y-70459600D01*
X158083622Y-70459600D01*
X158083622Y-70368160D01*
X158149662Y-70368160D01*
X158149662Y-70266560D01*
X158271582Y-70266560D01*
X158271582Y-70368160D01*
G36*
X147583134Y-70232119D02*
G01*
X147641478Y-70233540D01*
X147702473Y-70424953D01*
X147715901Y-70466832D01*
X147728434Y-70505421D01*
X147739733Y-70539705D01*
X147749454Y-70568672D01*
X147757257Y-70591307D01*
X147762800Y-70606596D01*
X147765742Y-70613525D01*
X147766074Y-70613815D01*
X147768167Y-70608575D01*
X147773024Y-70594719D01*
X147780293Y-70573301D01*
X147789624Y-70545377D01*
X147800662Y-70512001D01*
X147813058Y-70474226D01*
X147826460Y-70433109D01*
X147829935Y-70422401D01*
X147891189Y-70233540D01*
X147950990Y-70232105D01*
X147976777Y-70231661D01*
X147993949Y-70231905D01*
X148004033Y-70232994D01*
X148008561Y-70235087D01*
X148009116Y-70238122D01*
X148007277Y-70244232D01*
X148002597Y-70259105D01*
X147995364Y-70281837D01*
X147985869Y-70311525D01*
X147974400Y-70347266D01*
X147961248Y-70388157D01*
X147946702Y-70433295D01*
X147931052Y-70481778D01*
X147921082Y-70512625D01*
X147834722Y-70779675D01*
X147766879Y-70778387D01*
X147699037Y-70777100D01*
X147640191Y-70595432D01*
X147626896Y-70554762D01*
X147614471Y-70517467D01*
X147603275Y-70484576D01*
X147593668Y-70457115D01*
X147586013Y-70436113D01*
X147580668Y-70422598D01*
X147577994Y-70417598D01*
X147577858Y-70417632D01*
X147575517Y-70423179D01*
X147570372Y-70437284D01*
X147562799Y-70458858D01*
X147553175Y-70486808D01*
X147541874Y-70520044D01*
X147529272Y-70557474D01*
X147515745Y-70598007D01*
X147514893Y-70600570D01*
X147455416Y-70779640D01*
X147321642Y-70779526D01*
X147233954Y-70509073D01*
X147217682Y-70458817D01*
X147202393Y-70411459D01*
X147188366Y-70367881D01*
X147175884Y-70328961D01*
X147165228Y-70295581D01*
X147156679Y-70268623D01*
X147150518Y-70248965D01*
X147147028Y-70237490D01*
X147146324Y-70234810D01*
X147151105Y-70233363D01*
X147164116Y-70232169D01*
X147183426Y-70231344D01*
X147207107Y-70231003D01*
X147209630Y-70231000D01*
X147272879Y-70231000D01*
X147305764Y-70333870D01*
X147317871Y-70371803D01*
X147331082Y-70413298D01*
X147344304Y-70454916D01*
X147356443Y-70493217D01*
X147365084Y-70520560D01*
X147373915Y-70548191D01*
X147381881Y-70572418D01*
X147388419Y-70591585D01*
X147392967Y-70604036D01*
X147394800Y-70608056D01*
X147397061Y-70604225D01*
X147402125Y-70591740D01*
X147409634Y-70571604D01*
X147419231Y-70544821D01*
X147430558Y-70512392D01*
X147443257Y-70475320D01*
X147456971Y-70434609D01*
X147461436Y-70421216D01*
X147524789Y-70230699D01*
X147583134Y-70232119D01*
G37*
X147583134Y-70232119D02*
X147641478Y-70233540D01*
X147702473Y-70424953D01*
X147715901Y-70466832D01*
X147728434Y-70505421D01*
X147739733Y-70539705D01*
X147749454Y-70568672D01*
X147757257Y-70591307D01*
X147762800Y-70606596D01*
X147765742Y-70613525D01*
X147766074Y-70613815D01*
X147768167Y-70608575D01*
X147773024Y-70594719D01*
X147780293Y-70573301D01*
X147789624Y-70545377D01*
X147800662Y-70512001D01*
X147813058Y-70474226D01*
X147826460Y-70433109D01*
X147829935Y-70422401D01*
X147891189Y-70233540D01*
X147950990Y-70232105D01*
X147976777Y-70231661D01*
X147993949Y-70231905D01*
X148004033Y-70232994D01*
X148008561Y-70235087D01*
X148009116Y-70238122D01*
X148007277Y-70244232D01*
X148002597Y-70259105D01*
X147995364Y-70281837D01*
X147985869Y-70311525D01*
X147974400Y-70347266D01*
X147961248Y-70388157D01*
X147946702Y-70433295D01*
X147931052Y-70481778D01*
X147921082Y-70512625D01*
X147834722Y-70779675D01*
X147766879Y-70778387D01*
X147699037Y-70777100D01*
X147640191Y-70595432D01*
X147626896Y-70554762D01*
X147614471Y-70517467D01*
X147603275Y-70484576D01*
X147593668Y-70457115D01*
X147586013Y-70436113D01*
X147580668Y-70422598D01*
X147577994Y-70417598D01*
X147577858Y-70417632D01*
X147575517Y-70423179D01*
X147570372Y-70437284D01*
X147562799Y-70458858D01*
X147553175Y-70486808D01*
X147541874Y-70520044D01*
X147529272Y-70557474D01*
X147515745Y-70598007D01*
X147514893Y-70600570D01*
X147455416Y-70779640D01*
X147321642Y-70779526D01*
X147233954Y-70509073D01*
X147217682Y-70458817D01*
X147202393Y-70411459D01*
X147188366Y-70367881D01*
X147175884Y-70328961D01*
X147165228Y-70295581D01*
X147156679Y-70268623D01*
X147150518Y-70248965D01*
X147147028Y-70237490D01*
X147146324Y-70234810D01*
X147151105Y-70233363D01*
X147164116Y-70232169D01*
X147183426Y-70231344D01*
X147207107Y-70231003D01*
X147209630Y-70231000D01*
X147272879Y-70231000D01*
X147305764Y-70333870D01*
X147317871Y-70371803D01*
X147331082Y-70413298D01*
X147344304Y-70454916D01*
X147356443Y-70493217D01*
X147365084Y-70520560D01*
X147373915Y-70548191D01*
X147381881Y-70572418D01*
X147388419Y-70591585D01*
X147392967Y-70604036D01*
X147394800Y-70608056D01*
X147397061Y-70604225D01*
X147402125Y-70591740D01*
X147409634Y-70571604D01*
X147419231Y-70544821D01*
X147430558Y-70512392D01*
X147443257Y-70475320D01*
X147456971Y-70434609D01*
X147461436Y-70421216D01*
X147524789Y-70230699D01*
X147583134Y-70232119D01*
G36*
X150016582Y-70468511D02*
G01*
X149994938Y-70466072D01*
X149964745Y-70467027D01*
X149936547Y-70475959D01*
X149912341Y-70491645D01*
X149894119Y-70512864D01*
X149885088Y-70533374D01*
X149883235Y-70545355D01*
X149881684Y-70566052D01*
X149880496Y-70594023D01*
X149879731Y-70627828D01*
X149879450Y-70666025D01*
X149879450Y-70666610D01*
X149879422Y-70779640D01*
X149757502Y-70779640D01*
X149757502Y-70358000D01*
X149874342Y-70358000D01*
X149874342Y-70409591D01*
X149895254Y-70391691D01*
X149926043Y-70371887D01*
X149964100Y-70359013D01*
X149989824Y-70354665D01*
X150016582Y-70351521D01*
X150016582Y-70468511D01*
G37*
X150016582Y-70468511D02*
X149994938Y-70466072D01*
X149964745Y-70467027D01*
X149936547Y-70475959D01*
X149912341Y-70491645D01*
X149894119Y-70512864D01*
X149885088Y-70533374D01*
X149883235Y-70545355D01*
X149881684Y-70566052D01*
X149880496Y-70594023D01*
X149879731Y-70627828D01*
X149879450Y-70666025D01*
X149879450Y-70666610D01*
X149879422Y-70779640D01*
X149757502Y-70779640D01*
X149757502Y-70358000D01*
X149874342Y-70358000D01*
X149874342Y-70409591D01*
X149895254Y-70391691D01*
X149926043Y-70371887D01*
X149964100Y-70359013D01*
X149989824Y-70354665D01*
X150016582Y-70351521D01*
X150016582Y-70468511D01*
G36*
X150379231Y-70357001D02*
G01*
X150417227Y-70367629D01*
X150442811Y-70380680D01*
X150462691Y-70395421D01*
X150478108Y-70412411D01*
X150491693Y-70434832D01*
X150497618Y-70446914D01*
X150511882Y-70477380D01*
X150513491Y-70628510D01*
X150515101Y-70779640D01*
X150392502Y-70779640D01*
X150392390Y-70651370D01*
X150392290Y-70611230D01*
X150392008Y-70579876D01*
X150391454Y-70555936D01*
X150390539Y-70538034D01*
X150389172Y-70524798D01*
X150387265Y-70514854D01*
X150384726Y-70506829D01*
X150382612Y-70501808D01*
X150368505Y-70481838D01*
X150348585Y-70468294D01*
X150324837Y-70461090D01*
X150299249Y-70460142D01*
X150273806Y-70465365D01*
X150250495Y-70476674D01*
X150231302Y-70493984D01*
X150221845Y-70508676D01*
X150218781Y-70515778D01*
X150216393Y-70524147D01*
X150214577Y-70535152D01*
X150213226Y-70550161D01*
X150212236Y-70570542D01*
X150211500Y-70597665D01*
X150210913Y-70632898D01*
X150210643Y-70653910D01*
X150209125Y-70779640D01*
X150087702Y-70779640D01*
X150087702Y-70358000D01*
X150204542Y-70358000D01*
X150204542Y-70404598D01*
X150226108Y-70388738D01*
X150259803Y-70369844D01*
X150298140Y-70358197D01*
X150338742Y-70353887D01*
X150379231Y-70357001D01*
G37*
X150379231Y-70357001D02*
X150417227Y-70367629D01*
X150442811Y-70380680D01*
X150462691Y-70395421D01*
X150478108Y-70412411D01*
X150491693Y-70434832D01*
X150497618Y-70446914D01*
X150511882Y-70477380D01*
X150513491Y-70628510D01*
X150515101Y-70779640D01*
X150392502Y-70779640D01*
X150392390Y-70651370D01*
X150392290Y-70611230D01*
X150392008Y-70579876D01*
X150391454Y-70555936D01*
X150390539Y-70538034D01*
X150389172Y-70524798D01*
X150387265Y-70514854D01*
X150384726Y-70506829D01*
X150382612Y-70501808D01*
X150368505Y-70481838D01*
X150348585Y-70468294D01*
X150324837Y-70461090D01*
X150299249Y-70460142D01*
X150273806Y-70465365D01*
X150250495Y-70476674D01*
X150231302Y-70493984D01*
X150221845Y-70508676D01*
X150218781Y-70515778D01*
X150216393Y-70524147D01*
X150214577Y-70535152D01*
X150213226Y-70550161D01*
X150212236Y-70570542D01*
X150211500Y-70597665D01*
X150210913Y-70632898D01*
X150210643Y-70653910D01*
X150209125Y-70779640D01*
X150087702Y-70779640D01*
X150087702Y-70358000D01*
X150204542Y-70358000D01*
X150204542Y-70404598D01*
X150226108Y-70388738D01*
X150259803Y-70369844D01*
X150298140Y-70358197D01*
X150338742Y-70353887D01*
X150379231Y-70357001D01*
G36*
X150906746Y-70232092D02*
G01*
X150958711Y-70233540D01*
X151057876Y-70399603D01*
X151080132Y-70436826D01*
X151100777Y-70471266D01*
X151119228Y-70501956D01*
X151134902Y-70527931D01*
X151147217Y-70548224D01*
X151155588Y-70561871D01*
X151159434Y-70567904D01*
X151159588Y-70568096D01*
X151162620Y-70564409D01*
X151170176Y-70552858D01*
X151181692Y-70534373D01*
X151196602Y-70509884D01*
X151214342Y-70480319D01*
X151234347Y-70446610D01*
X151256051Y-70409685D01*
X151261188Y-70400898D01*
X151360242Y-70231270D01*
X151464382Y-70231000D01*
X151464382Y-70779640D01*
X151347542Y-70779640D01*
X151347542Y-70618604D01*
X151347393Y-70570335D01*
X151346953Y-70530511D01*
X151346235Y-70499481D01*
X151345247Y-70477593D01*
X151344002Y-70465195D01*
X151342650Y-70462459D01*
X151338893Y-70467942D01*
X151330677Y-70481035D01*
X151318698Y-70500593D01*
X151303650Y-70525472D01*
X151286231Y-70554526D01*
X151267134Y-70586610D01*
X151262584Y-70594285D01*
X151187411Y-70721220D01*
X151159526Y-70722625D01*
X151131642Y-70724031D01*
X150974162Y-70463021D01*
X150972819Y-70621330D01*
X150971477Y-70779640D01*
X150854782Y-70779640D01*
X150854782Y-70230644D01*
X150906746Y-70232092D01*
G37*
X150906746Y-70232092D02*
X150958711Y-70233540D01*
X151057876Y-70399603D01*
X151080132Y-70436826D01*
X151100777Y-70471266D01*
X151119228Y-70501956D01*
X151134902Y-70527931D01*
X151147217Y-70548224D01*
X151155588Y-70561871D01*
X151159434Y-70567904D01*
X151159588Y-70568096D01*
X151162620Y-70564409D01*
X151170176Y-70552858D01*
X151181692Y-70534373D01*
X151196602Y-70509884D01*
X151214342Y-70480319D01*
X151234347Y-70446610D01*
X151256051Y-70409685D01*
X151261188Y-70400898D01*
X151360242Y-70231270D01*
X151464382Y-70231000D01*
X151464382Y-70779640D01*
X151347542Y-70779640D01*
X151347542Y-70618604D01*
X151347393Y-70570335D01*
X151346953Y-70530511D01*
X151346235Y-70499481D01*
X151345247Y-70477593D01*
X151344002Y-70465195D01*
X151342650Y-70462459D01*
X151338893Y-70467942D01*
X151330677Y-70481035D01*
X151318698Y-70500593D01*
X151303650Y-70525472D01*
X151286231Y-70554526D01*
X151267134Y-70586610D01*
X151262584Y-70594285D01*
X151187411Y-70721220D01*
X151159526Y-70722625D01*
X151131642Y-70724031D01*
X150974162Y-70463021D01*
X150972819Y-70621330D01*
X150971477Y-70779640D01*
X150854782Y-70779640D01*
X150854782Y-70230644D01*
X150906746Y-70232092D01*
G36*
X151708222Y-70779640D02*
G01*
X151586302Y-70779640D01*
X151586302Y-70358000D01*
X151708222Y-70358000D01*
X151708222Y-70779640D01*
G37*
X151708222Y-70779640D02*
X151586302Y-70779640D01*
X151586302Y-70358000D01*
X151708222Y-70358000D01*
X151708222Y-70779640D01*
G36*
X152400264Y-70300045D02*
G01*
X152401642Y-70399571D01*
X152415905Y-70388346D01*
X152442865Y-70372501D01*
X152476084Y-70361211D01*
X152512500Y-70354988D01*
X152549050Y-70354345D01*
X152582674Y-70359793D01*
X152584108Y-70360201D01*
X152619180Y-70373266D01*
X152646492Y-70390582D01*
X152668134Y-70413909D01*
X152686196Y-70445006D01*
X152687098Y-70446914D01*
X152701362Y-70477380D01*
X152702971Y-70628510D01*
X152704581Y-70779640D01*
X152581982Y-70779640D01*
X152581870Y-70651370D01*
X152581770Y-70611230D01*
X152581488Y-70579876D01*
X152580934Y-70555936D01*
X152580019Y-70538034D01*
X152578652Y-70524798D01*
X152576745Y-70514854D01*
X152574206Y-70506829D01*
X152572092Y-70501808D01*
X152557985Y-70481838D01*
X152538065Y-70468294D01*
X152514317Y-70461090D01*
X152488729Y-70460142D01*
X152463286Y-70465365D01*
X152439975Y-70476674D01*
X152420782Y-70493984D01*
X152411325Y-70508676D01*
X152408261Y-70515778D01*
X152405873Y-70524147D01*
X152404057Y-70535152D01*
X152402706Y-70550161D01*
X152401716Y-70570542D01*
X152400980Y-70597665D01*
X152400393Y-70632898D01*
X152400123Y-70653910D01*
X152398605Y-70779640D01*
X152277182Y-70779640D01*
X152277182Y-70200520D01*
X152398887Y-70200520D01*
X152400264Y-70300045D01*
G37*
X152400264Y-70300045D02*
X152401642Y-70399571D01*
X152415905Y-70388346D01*
X152442865Y-70372501D01*
X152476084Y-70361211D01*
X152512500Y-70354988D01*
X152549050Y-70354345D01*
X152582674Y-70359793D01*
X152584108Y-70360201D01*
X152619180Y-70373266D01*
X152646492Y-70390582D01*
X152668134Y-70413909D01*
X152686196Y-70445006D01*
X152687098Y-70446914D01*
X152701362Y-70477380D01*
X152702971Y-70628510D01*
X152704581Y-70779640D01*
X152581982Y-70779640D01*
X152581870Y-70651370D01*
X152581770Y-70611230D01*
X152581488Y-70579876D01*
X152580934Y-70555936D01*
X152580019Y-70538034D01*
X152578652Y-70524798D01*
X152576745Y-70514854D01*
X152574206Y-70506829D01*
X152572092Y-70501808D01*
X152557985Y-70481838D01*
X152538065Y-70468294D01*
X152514317Y-70461090D01*
X152488729Y-70460142D01*
X152463286Y-70465365D01*
X152439975Y-70476674D01*
X152420782Y-70493984D01*
X152411325Y-70508676D01*
X152408261Y-70515778D01*
X152405873Y-70524147D01*
X152404057Y-70535152D01*
X152402706Y-70550161D01*
X152401716Y-70570542D01*
X152400980Y-70597665D01*
X152400393Y-70632898D01*
X152400123Y-70653910D01*
X152398605Y-70779640D01*
X152277182Y-70779640D01*
X152277182Y-70200520D01*
X152398887Y-70200520D01*
X152400264Y-70300045D01*
G36*
X152937582Y-70779640D02*
G01*
X152815662Y-70779640D01*
X152815662Y-70358000D01*
X152937582Y-70358000D01*
X152937582Y-70779640D01*
G37*
X152937582Y-70779640D02*
X152815662Y-70779640D01*
X152815662Y-70358000D01*
X152937582Y-70358000D01*
X152937582Y-70779640D01*
G36*
X154361951Y-70357001D02*
G01*
X154399947Y-70367629D01*
X154425531Y-70380680D01*
X154445411Y-70395421D01*
X154460828Y-70412411D01*
X154474413Y-70434832D01*
X154480338Y-70446914D01*
X154494602Y-70477380D01*
X154496211Y-70628510D01*
X154497821Y-70779640D01*
X154375222Y-70779640D01*
X154375110Y-70651370D01*
X154375010Y-70611230D01*
X154374728Y-70579876D01*
X154374174Y-70555936D01*
X154373259Y-70538034D01*
X154371892Y-70524798D01*
X154369985Y-70514854D01*
X154367446Y-70506829D01*
X154365332Y-70501808D01*
X154351225Y-70481838D01*
X154331305Y-70468294D01*
X154307557Y-70461090D01*
X154281969Y-70460142D01*
X154256526Y-70465365D01*
X154233215Y-70476674D01*
X154214022Y-70493984D01*
X154204565Y-70508676D01*
X154201501Y-70515778D01*
X154199113Y-70524147D01*
X154197297Y-70535152D01*
X154195946Y-70550161D01*
X154194956Y-70570542D01*
X154194220Y-70597665D01*
X154193633Y-70632898D01*
X154193363Y-70653910D01*
X154191845Y-70779640D01*
X154070422Y-70779640D01*
X154070422Y-70358000D01*
X154187262Y-70358000D01*
X154187262Y-70404598D01*
X154208828Y-70388738D01*
X154242523Y-70369844D01*
X154280860Y-70358197D01*
X154321462Y-70353887D01*
X154361951Y-70357001D01*
G37*
X154361951Y-70357001D02*
X154399947Y-70367629D01*
X154425531Y-70380680D01*
X154445411Y-70395421D01*
X154460828Y-70412411D01*
X154474413Y-70434832D01*
X154480338Y-70446914D01*
X154494602Y-70477380D01*
X154496211Y-70628510D01*
X154497821Y-70779640D01*
X154375222Y-70779640D01*
X154375110Y-70651370D01*
X154375010Y-70611230D01*
X154374728Y-70579876D01*
X154374174Y-70555936D01*
X154373259Y-70538034D01*
X154371892Y-70524798D01*
X154369985Y-70514854D01*
X154367446Y-70506829D01*
X154365332Y-70501808D01*
X154351225Y-70481838D01*
X154331305Y-70468294D01*
X154307557Y-70461090D01*
X154281969Y-70460142D01*
X154256526Y-70465365D01*
X154233215Y-70476674D01*
X154214022Y-70493984D01*
X154204565Y-70508676D01*
X154201501Y-70515778D01*
X154199113Y-70524147D01*
X154197297Y-70535152D01*
X154195946Y-70550161D01*
X154194956Y-70570542D01*
X154194220Y-70597665D01*
X154193633Y-70632898D01*
X154193363Y-70653910D01*
X154191845Y-70779640D01*
X154070422Y-70779640D01*
X154070422Y-70358000D01*
X154187262Y-70358000D01*
X154187262Y-70404598D01*
X154208828Y-70388738D01*
X154242523Y-70369844D01*
X154280860Y-70358197D01*
X154321462Y-70353887D01*
X154361951Y-70357001D01*
G36*
X155728471Y-70357001D02*
G01*
X155766467Y-70367629D01*
X155792051Y-70380680D01*
X155811931Y-70395421D01*
X155827348Y-70412411D01*
X155840933Y-70434832D01*
X155846858Y-70446914D01*
X155861122Y-70477380D01*
X155862731Y-70628510D01*
X155864341Y-70779640D01*
X155741742Y-70779640D01*
X155741630Y-70651370D01*
X155741530Y-70611230D01*
X155741248Y-70579876D01*
X155740694Y-70555936D01*
X155739779Y-70538034D01*
X155738412Y-70524798D01*
X155736505Y-70514854D01*
X155733966Y-70506829D01*
X155731852Y-70501808D01*
X155717745Y-70481838D01*
X155697825Y-70468294D01*
X155674077Y-70461090D01*
X155648489Y-70460142D01*
X155623046Y-70465365D01*
X155599735Y-70476674D01*
X155580542Y-70493984D01*
X155571085Y-70508676D01*
X155568021Y-70515778D01*
X155565633Y-70524147D01*
X155563817Y-70535152D01*
X155562466Y-70550161D01*
X155561476Y-70570542D01*
X155560740Y-70597665D01*
X155560153Y-70632898D01*
X155559883Y-70653910D01*
X155558365Y-70779640D01*
X155436942Y-70779640D01*
X155436942Y-70358000D01*
X155553782Y-70358000D01*
X155553782Y-70404598D01*
X155575348Y-70388738D01*
X155609043Y-70369844D01*
X155647380Y-70358197D01*
X155687982Y-70353887D01*
X155728471Y-70357001D01*
G37*
X155728471Y-70357001D02*
X155766467Y-70367629D01*
X155792051Y-70380680D01*
X155811931Y-70395421D01*
X155827348Y-70412411D01*
X155840933Y-70434832D01*
X155846858Y-70446914D01*
X155861122Y-70477380D01*
X155862731Y-70628510D01*
X155864341Y-70779640D01*
X155741742Y-70779640D01*
X155741630Y-70651370D01*
X155741530Y-70611230D01*
X155741248Y-70579876D01*
X155740694Y-70555936D01*
X155739779Y-70538034D01*
X155738412Y-70524798D01*
X155736505Y-70514854D01*
X155733966Y-70506829D01*
X155731852Y-70501808D01*
X155717745Y-70481838D01*
X155697825Y-70468294D01*
X155674077Y-70461090D01*
X155648489Y-70460142D01*
X155623046Y-70465365D01*
X155599735Y-70476674D01*
X155580542Y-70493984D01*
X155571085Y-70508676D01*
X155568021Y-70515778D01*
X155565633Y-70524147D01*
X155563817Y-70535152D01*
X155562466Y-70550161D01*
X155561476Y-70570542D01*
X155560740Y-70597665D01*
X155560153Y-70632898D01*
X155559883Y-70653910D01*
X155558365Y-70779640D01*
X155436942Y-70779640D01*
X155436942Y-70358000D01*
X155553782Y-70358000D01*
X155553782Y-70404598D01*
X155575348Y-70388738D01*
X155609043Y-70369844D01*
X155647380Y-70358197D01*
X155687982Y-70353887D01*
X155728471Y-70357001D01*
G36*
X156097342Y-70779640D02*
G01*
X155975422Y-70779640D01*
X155975422Y-70358000D01*
X156097342Y-70358000D01*
X156097342Y-70779640D01*
G37*
X156097342Y-70779640D02*
X155975422Y-70779640D01*
X155975422Y-70358000D01*
X156097342Y-70358000D01*
X156097342Y-70779640D01*
G36*
X156272602Y-70358095D02*
G01*
X156328275Y-70498105D01*
X156342413Y-70533491D01*
X156355414Y-70565705D01*
X156366791Y-70593567D01*
X156376055Y-70615893D01*
X156382721Y-70631503D01*
X156386300Y-70639216D01*
X156386711Y-70639822D01*
X156389275Y-70635755D01*
X156395201Y-70623422D01*
X156403990Y-70603955D01*
X156415141Y-70578486D01*
X156428155Y-70548148D01*
X156442533Y-70514071D01*
X156447976Y-70501034D01*
X156506478Y-70360540D01*
X156563530Y-70359103D01*
X156586230Y-70358862D01*
X156604646Y-70359295D01*
X156616753Y-70360311D01*
X156620579Y-70361643D01*
X156618678Y-70367019D01*
X156613241Y-70380792D01*
X156604667Y-70401990D01*
X156593353Y-70429645D01*
X156579698Y-70462784D01*
X156564101Y-70500437D01*
X156546958Y-70541634D01*
X156534546Y-70571360D01*
X156448514Y-70777100D01*
X156385642Y-70778514D01*
X156322769Y-70779929D01*
X156236725Y-70573281D01*
X156218740Y-70530081D01*
X156201954Y-70489750D01*
X156186771Y-70453261D01*
X156173596Y-70421587D01*
X156162833Y-70395698D01*
X156154887Y-70376569D01*
X156150161Y-70365170D01*
X156148988Y-70362316D01*
X156153074Y-70360679D01*
X156165451Y-70359335D01*
X156184253Y-70358414D01*
X156207612Y-70358049D01*
X156209948Y-70358047D01*
X156272602Y-70358095D01*
G37*
X156272602Y-70358095D02*
X156328275Y-70498105D01*
X156342413Y-70533491D01*
X156355414Y-70565705D01*
X156366791Y-70593567D01*
X156376055Y-70615893D01*
X156382721Y-70631503D01*
X156386300Y-70639216D01*
X156386711Y-70639822D01*
X156389275Y-70635755D01*
X156395201Y-70623422D01*
X156403990Y-70603955D01*
X156415141Y-70578486D01*
X156428155Y-70548148D01*
X156442533Y-70514071D01*
X156447976Y-70501034D01*
X156506478Y-70360540D01*
X156563530Y-70359103D01*
X156586230Y-70358862D01*
X156604646Y-70359295D01*
X156616753Y-70360311D01*
X156620579Y-70361643D01*
X156618678Y-70367019D01*
X156613241Y-70380792D01*
X156604667Y-70401990D01*
X156593353Y-70429645D01*
X156579698Y-70462784D01*
X156564101Y-70500437D01*
X156546958Y-70541634D01*
X156534546Y-70571360D01*
X156448514Y-70777100D01*
X156385642Y-70778514D01*
X156322769Y-70779929D01*
X156236725Y-70573281D01*
X156218740Y-70530081D01*
X156201954Y-70489750D01*
X156186771Y-70453261D01*
X156173596Y-70421587D01*
X156162833Y-70395698D01*
X156154887Y-70376569D01*
X156150161Y-70365170D01*
X156148988Y-70362316D01*
X156153074Y-70360679D01*
X156165451Y-70359335D01*
X156184253Y-70358414D01*
X156207612Y-70358049D01*
X156209948Y-70358047D01*
X156272602Y-70358095D01*
G36*
X157413062Y-70468511D02*
G01*
X157391418Y-70466072D01*
X157361225Y-70467027D01*
X157333027Y-70475959D01*
X157308821Y-70491645D01*
X157290599Y-70512864D01*
X157281568Y-70533374D01*
X157279715Y-70545355D01*
X157278164Y-70566052D01*
X157276976Y-70594023D01*
X157276211Y-70627828D01*
X157275930Y-70666025D01*
X157275930Y-70666610D01*
X157275902Y-70779640D01*
X157153982Y-70779640D01*
X157153982Y-70358000D01*
X157270822Y-70358000D01*
X157270822Y-70409591D01*
X157291734Y-70391691D01*
X157322523Y-70371887D01*
X157360580Y-70359013D01*
X157386304Y-70354665D01*
X157413062Y-70351521D01*
X157413062Y-70468511D01*
G37*
X157413062Y-70468511D02*
X157391418Y-70466072D01*
X157361225Y-70467027D01*
X157333027Y-70475959D01*
X157308821Y-70491645D01*
X157290599Y-70512864D01*
X157281568Y-70533374D01*
X157279715Y-70545355D01*
X157278164Y-70566052D01*
X157276976Y-70594023D01*
X157276211Y-70627828D01*
X157275930Y-70666025D01*
X157275930Y-70666610D01*
X157275902Y-70779640D01*
X157153982Y-70779640D01*
X157153982Y-70358000D01*
X157270822Y-70358000D01*
X157270822Y-70409591D01*
X157291734Y-70391691D01*
X157322523Y-70371887D01*
X157360580Y-70359013D01*
X157386304Y-70354665D01*
X157413062Y-70351521D01*
X157413062Y-70468511D01*
G36*
X158022662Y-70779640D02*
G01*
X157900742Y-70779640D01*
X157900742Y-70358000D01*
X158022662Y-70358000D01*
X158022662Y-70779640D01*
G37*
X158022662Y-70779640D02*
X157900742Y-70779640D01*
X157900742Y-70358000D01*
X158022662Y-70358000D01*
X158022662Y-70779640D01*
G36*
X151668471Y-70168266D02*
G01*
X151693191Y-70180083D01*
X151700290Y-70185688D01*
X151715055Y-70204709D01*
X151721321Y-70226804D01*
X151719263Y-70249759D01*
X151709059Y-70271360D01*
X151692090Y-70288531D01*
X151674673Y-70296440D01*
X151652409Y-70300248D01*
X151629910Y-70299558D01*
X151614242Y-70295230D01*
X151592224Y-70281247D01*
X151579055Y-70263103D01*
X151573793Y-70239349D01*
X151573602Y-70232740D01*
X151574248Y-70215762D01*
X151577387Y-70204575D01*
X151584818Y-70194836D01*
X151592242Y-70187736D01*
X151616024Y-70172130D01*
X151642092Y-70165627D01*
X151668471Y-70168266D01*
G37*
X151668471Y-70168266D02*
X151693191Y-70180083D01*
X151700290Y-70185688D01*
X151715055Y-70204709D01*
X151721321Y-70226804D01*
X151719263Y-70249759D01*
X151709059Y-70271360D01*
X151692090Y-70288531D01*
X151674673Y-70296440D01*
X151652409Y-70300248D01*
X151629910Y-70299558D01*
X151614242Y-70295230D01*
X151592224Y-70281247D01*
X151579055Y-70263103D01*
X151573793Y-70239349D01*
X151573602Y-70232740D01*
X151574248Y-70215762D01*
X151577387Y-70204575D01*
X151584818Y-70194836D01*
X151592242Y-70187736D01*
X151616024Y-70172130D01*
X151642092Y-70165627D01*
X151668471Y-70168266D01*
G36*
X152897831Y-70168266D02*
G01*
X152922551Y-70180083D01*
X152929650Y-70185688D01*
X152944415Y-70204709D01*
X152950681Y-70226804D01*
X152948623Y-70249759D01*
X152938419Y-70271360D01*
X152921450Y-70288531D01*
X152904033Y-70296440D01*
X152881769Y-70300248D01*
X152859270Y-70299558D01*
X152843602Y-70295230D01*
X152821584Y-70281247D01*
X152808415Y-70263103D01*
X152803153Y-70239349D01*
X152802962Y-70232740D01*
X152803608Y-70215762D01*
X152806747Y-70204575D01*
X152814178Y-70194836D01*
X152821602Y-70187736D01*
X152845384Y-70172130D01*
X152871452Y-70165627D01*
X152897831Y-70168266D01*
G37*
X152897831Y-70168266D02*
X152922551Y-70180083D01*
X152929650Y-70185688D01*
X152944415Y-70204709D01*
X152950681Y-70226804D01*
X152948623Y-70249759D01*
X152938419Y-70271360D01*
X152921450Y-70288531D01*
X152904033Y-70296440D01*
X152881769Y-70300248D01*
X152859270Y-70299558D01*
X152843602Y-70295230D01*
X152821584Y-70281247D01*
X152808415Y-70263103D01*
X152803153Y-70239349D01*
X152802962Y-70232740D01*
X152803608Y-70215762D01*
X152806747Y-70204575D01*
X152814178Y-70194836D01*
X152821602Y-70187736D01*
X152845384Y-70172130D01*
X152871452Y-70165627D01*
X152897831Y-70168266D01*
G36*
X156057591Y-70168266D02*
G01*
X156082311Y-70180083D01*
X156089410Y-70185688D01*
X156104175Y-70204709D01*
X156110441Y-70226804D01*
X156108383Y-70249759D01*
X156098179Y-70271360D01*
X156081210Y-70288531D01*
X156063793Y-70296440D01*
X156041529Y-70300248D01*
X156019030Y-70299558D01*
X156003362Y-70295230D01*
X155981344Y-70281247D01*
X155968175Y-70263103D01*
X155962913Y-70239349D01*
X155962722Y-70232740D01*
X155963368Y-70215762D01*
X155966507Y-70204575D01*
X155973938Y-70194836D01*
X155981362Y-70187736D01*
X156005144Y-70172130D01*
X156031212Y-70165627D01*
X156057591Y-70168266D01*
G37*
X156057591Y-70168266D02*
X156082311Y-70180083D01*
X156089410Y-70185688D01*
X156104175Y-70204709D01*
X156110441Y-70226804D01*
X156108383Y-70249759D01*
X156098179Y-70271360D01*
X156081210Y-70288531D01*
X156063793Y-70296440D01*
X156041529Y-70300248D01*
X156019030Y-70299558D01*
X156003362Y-70295230D01*
X155981344Y-70281247D01*
X155968175Y-70263103D01*
X155962913Y-70239349D01*
X155962722Y-70232740D01*
X155963368Y-70215762D01*
X155966507Y-70204575D01*
X155973938Y-70194836D01*
X155981362Y-70187736D01*
X156005144Y-70172130D01*
X156031212Y-70165627D01*
X156057591Y-70168266D01*
G36*
X157982911Y-70168266D02*
G01*
X158007631Y-70180083D01*
X158014730Y-70185688D01*
X158029495Y-70204709D01*
X158035761Y-70226804D01*
X158033703Y-70249759D01*
X158023499Y-70271360D01*
X158006530Y-70288531D01*
X157989113Y-70296440D01*
X157966849Y-70300248D01*
X157944350Y-70299558D01*
X157928682Y-70295230D01*
X157906664Y-70281247D01*
X157893495Y-70263103D01*
X157888233Y-70239349D01*
X157888042Y-70232740D01*
X157888688Y-70215762D01*
X157891827Y-70204575D01*
X157899258Y-70194836D01*
X157906682Y-70187736D01*
X157930464Y-70172130D01*
X157956532Y-70165627D01*
X157982911Y-70168266D01*
G37*
X157982911Y-70168266D02*
X158007631Y-70180083D01*
X158014730Y-70185688D01*
X158029495Y-70204709D01*
X158035761Y-70226804D01*
X158033703Y-70249759D01*
X158023499Y-70271360D01*
X158006530Y-70288531D01*
X157989113Y-70296440D01*
X157966849Y-70300248D01*
X157944350Y-70299558D01*
X157928682Y-70295230D01*
X157906664Y-70281247D01*
X157893495Y-70263103D01*
X157888233Y-70239349D01*
X157888042Y-70232740D01*
X157888688Y-70215762D01*
X157891827Y-70204575D01*
X157899258Y-70194836D01*
X157906682Y-70187736D01*
X157930464Y-70172130D01*
X157956532Y-70165627D01*
X157982911Y-70168266D01*
G36*
X153496881Y-67784963D02*
G01*
X153520884Y-67793886D01*
X153551838Y-67805079D01*
X153587058Y-67817588D01*
X153623858Y-67830460D01*
X153659554Y-67842743D01*
X153661114Y-67843275D01*
X153736441Y-67869454D01*
X153811803Y-67896671D01*
X153886154Y-67924497D01*
X153958451Y-67952503D01*
X154027649Y-67980259D01*
X154092704Y-68007337D01*
X154152570Y-68033306D01*
X154206204Y-68057737D01*
X154252560Y-68080202D01*
X154290595Y-68100270D01*
X154301301Y-68106387D01*
X154360471Y-68144489D01*
X154416486Y-68188018D01*
X154472044Y-68239087D01*
X154477264Y-68244276D01*
X154534662Y-68306399D01*
X154583244Y-68369597D01*
X154623576Y-68435094D01*
X154656219Y-68504114D01*
X154681735Y-68577878D01*
X154700688Y-68657611D01*
X154713640Y-68744536D01*
X154715487Y-68762148D01*
X154720504Y-68860100D01*
X154716240Y-68955838D01*
X154702901Y-69048808D01*
X154680692Y-69138458D01*
X154649819Y-69224236D01*
X154610488Y-69305588D01*
X154562904Y-69381962D01*
X154507274Y-69452805D01*
X154443802Y-69517565D01*
X154429744Y-69530123D01*
X154357201Y-69587276D01*
X154277424Y-69638846D01*
X154192152Y-69684008D01*
X154103125Y-69721939D01*
X154012086Y-69751817D01*
X153920774Y-69772816D01*
X153914305Y-69773952D01*
X153876475Y-69779268D01*
X153830367Y-69783815D01*
X153777837Y-69787538D01*
X153720743Y-69790385D01*
X153660939Y-69792301D01*
X153600284Y-69793231D01*
X153540634Y-69793122D01*
X153483845Y-69791920D01*
X153431773Y-69789570D01*
X153415364Y-69788492D01*
X153305155Y-69776453D01*
X153197753Y-69756540D01*
X153093981Y-69729072D01*
X152994663Y-69694364D01*
X152900622Y-69652733D01*
X152812682Y-69604497D01*
X152731667Y-69549972D01*
X152673422Y-69502939D01*
X152610631Y-69441368D01*
X152556203Y-69374055D01*
X152510188Y-69301096D01*
X152472632Y-69222587D01*
X152443585Y-69138623D01*
X152423095Y-69049301D01*
X152414447Y-68988940D01*
X152412142Y-68967045D01*
X152410368Y-68947847D01*
X152409402Y-68934432D01*
X152409303Y-68931400D01*
X152409262Y-68919581D01*
X152593412Y-68921589D01*
X152644870Y-68922198D01*
X152687476Y-68922905D01*
X152722537Y-68923873D01*
X152751360Y-68925265D01*
X152775253Y-68927245D01*
X152795521Y-68929975D01*
X152813474Y-68933619D01*
X152830417Y-68938340D01*
X152847659Y-68944301D01*
X152866507Y-68951664D01*
X152880564Y-68957414D01*
X152928139Y-68981660D01*
X152975483Y-69014606D01*
X153021011Y-69054881D01*
X153063141Y-69101116D01*
X153093430Y-69141615D01*
X153134183Y-69194017D01*
X153179764Y-69238171D01*
X153230901Y-69274554D01*
X153288327Y-69303642D01*
X153352771Y-69325913D01*
X153389702Y-69335046D01*
X153405040Y-69338039D01*
X153421174Y-69340344D01*
X153439668Y-69342042D01*
X153462090Y-69343215D01*
X153490005Y-69343946D01*
X153524981Y-69344318D01*
X153567502Y-69344413D01*
X153618256Y-69344164D01*
X153660528Y-69343329D01*
X153695987Y-69341738D01*
X153726300Y-69339219D01*
X153753137Y-69335602D01*
X153778166Y-69330716D01*
X153803058Y-69324390D01*
X153824042Y-69318163D01*
X153864745Y-69303420D01*
X153899168Y-69285799D01*
X153930542Y-69263269D01*
X153962096Y-69233797D01*
X153968076Y-69227565D01*
X154010264Y-69177111D01*
X154043244Y-69124127D01*
X154067748Y-69067110D01*
X154084506Y-69004559D01*
X154088971Y-68979181D01*
X154094166Y-68923568D01*
X154093484Y-68865835D01*
X154087234Y-68808739D01*
X154075724Y-68755035D01*
X154059263Y-68707483D01*
X154058316Y-68705316D01*
X154029825Y-68652524D01*
X153992041Y-68601251D01*
X153945807Y-68552304D01*
X153891964Y-68506488D01*
X153831355Y-68464609D01*
X153771833Y-68431011D01*
X153731299Y-68411597D01*
X153681082Y-68389767D01*
X153621353Y-68365589D01*
X153552279Y-68339127D01*
X153474032Y-68310448D01*
X153386780Y-68279617D01*
X153354142Y-68268329D01*
X153257528Y-68234648D01*
X153170082Y-68203190D01*
X153091135Y-68173647D01*
X153020013Y-68145713D01*
X152956045Y-68119081D01*
X152898562Y-68093443D01*
X152846890Y-68068493D01*
X152800358Y-68043924D01*
X152758296Y-68019428D01*
X152720032Y-67994699D01*
X152684895Y-67969429D01*
X152663001Y-67952232D01*
X152643680Y-67935583D01*
X152621776Y-67915153D01*
X152598434Y-67892183D01*
X152574798Y-67867911D01*
X152552012Y-67843577D01*
X152531221Y-67820419D01*
X152513568Y-67799678D01*
X152500199Y-67782593D01*
X152492258Y-67770403D01*
X152490542Y-67765468D01*
X152495504Y-67764984D01*
X152509922Y-67764521D01*
X152533090Y-67764084D01*
X152564304Y-67763678D01*
X152602860Y-67763308D01*
X152648052Y-67762979D01*
X152699175Y-67762696D01*
X152755525Y-67762463D01*
X152816398Y-67762287D01*
X152881088Y-67762171D01*
X152948891Y-67762121D01*
X152963691Y-67762120D01*
X153436841Y-67762120D01*
X153496881Y-67784963D01*
G37*
X153496881Y-67784963D02*
X153520884Y-67793886D01*
X153551838Y-67805079D01*
X153587058Y-67817588D01*
X153623858Y-67830460D01*
X153659554Y-67842743D01*
X153661114Y-67843275D01*
X153736441Y-67869454D01*
X153811803Y-67896671D01*
X153886154Y-67924497D01*
X153958451Y-67952503D01*
X154027649Y-67980259D01*
X154092704Y-68007337D01*
X154152570Y-68033306D01*
X154206204Y-68057737D01*
X154252560Y-68080202D01*
X154290595Y-68100270D01*
X154301301Y-68106387D01*
X154360471Y-68144489D01*
X154416486Y-68188018D01*
X154472044Y-68239087D01*
X154477264Y-68244276D01*
X154534662Y-68306399D01*
X154583244Y-68369597D01*
X154623576Y-68435094D01*
X154656219Y-68504114D01*
X154681735Y-68577878D01*
X154700688Y-68657611D01*
X154713640Y-68744536D01*
X154715487Y-68762148D01*
X154720504Y-68860100D01*
X154716240Y-68955838D01*
X154702901Y-69048808D01*
X154680692Y-69138458D01*
X154649819Y-69224236D01*
X154610488Y-69305588D01*
X154562904Y-69381962D01*
X154507274Y-69452805D01*
X154443802Y-69517565D01*
X154429744Y-69530123D01*
X154357201Y-69587276D01*
X154277424Y-69638846D01*
X154192152Y-69684008D01*
X154103125Y-69721939D01*
X154012086Y-69751817D01*
X153920774Y-69772816D01*
X153914305Y-69773952D01*
X153876475Y-69779268D01*
X153830367Y-69783815D01*
X153777837Y-69787538D01*
X153720743Y-69790385D01*
X153660939Y-69792301D01*
X153600284Y-69793231D01*
X153540634Y-69793122D01*
X153483845Y-69791920D01*
X153431773Y-69789570D01*
X153415364Y-69788492D01*
X153305155Y-69776453D01*
X153197753Y-69756540D01*
X153093981Y-69729072D01*
X152994663Y-69694364D01*
X152900622Y-69652733D01*
X152812682Y-69604497D01*
X152731667Y-69549972D01*
X152673422Y-69502939D01*
X152610631Y-69441368D01*
X152556203Y-69374055D01*
X152510188Y-69301096D01*
X152472632Y-69222587D01*
X152443585Y-69138623D01*
X152423095Y-69049301D01*
X152414447Y-68988940D01*
X152412142Y-68967045D01*
X152410368Y-68947847D01*
X152409402Y-68934432D01*
X152409303Y-68931400D01*
X152409262Y-68919581D01*
X152593412Y-68921589D01*
X152644870Y-68922198D01*
X152687476Y-68922905D01*
X152722537Y-68923873D01*
X152751360Y-68925265D01*
X152775253Y-68927245D01*
X152795521Y-68929975D01*
X152813474Y-68933619D01*
X152830417Y-68938340D01*
X152847659Y-68944301D01*
X152866507Y-68951664D01*
X152880564Y-68957414D01*
X152928139Y-68981660D01*
X152975483Y-69014606D01*
X153021011Y-69054881D01*
X153063141Y-69101116D01*
X153093430Y-69141615D01*
X153134183Y-69194017D01*
X153179764Y-69238171D01*
X153230901Y-69274554D01*
X153288327Y-69303642D01*
X153352771Y-69325913D01*
X153389702Y-69335046D01*
X153405040Y-69338039D01*
X153421174Y-69340344D01*
X153439668Y-69342042D01*
X153462090Y-69343215D01*
X153490005Y-69343946D01*
X153524981Y-69344318D01*
X153567502Y-69344413D01*
X153618256Y-69344164D01*
X153660528Y-69343329D01*
X153695987Y-69341738D01*
X153726300Y-69339219D01*
X153753137Y-69335602D01*
X153778166Y-69330716D01*
X153803058Y-69324390D01*
X153824042Y-69318163D01*
X153864745Y-69303420D01*
X153899168Y-69285799D01*
X153930542Y-69263269D01*
X153962096Y-69233797D01*
X153968076Y-69227565D01*
X154010264Y-69177111D01*
X154043244Y-69124127D01*
X154067748Y-69067110D01*
X154084506Y-69004559D01*
X154088971Y-68979181D01*
X154094166Y-68923568D01*
X154093484Y-68865835D01*
X154087234Y-68808739D01*
X154075724Y-68755035D01*
X154059263Y-68707483D01*
X154058316Y-68705316D01*
X154029825Y-68652524D01*
X153992041Y-68601251D01*
X153945807Y-68552304D01*
X153891964Y-68506488D01*
X153831355Y-68464609D01*
X153771833Y-68431011D01*
X153731299Y-68411597D01*
X153681082Y-68389767D01*
X153621353Y-68365589D01*
X153552279Y-68339127D01*
X153474032Y-68310448D01*
X153386780Y-68279617D01*
X153354142Y-68268329D01*
X153257528Y-68234648D01*
X153170082Y-68203190D01*
X153091135Y-68173647D01*
X153020013Y-68145713D01*
X152956045Y-68119081D01*
X152898562Y-68093443D01*
X152846890Y-68068493D01*
X152800358Y-68043924D01*
X152758296Y-68019428D01*
X152720032Y-67994699D01*
X152684895Y-67969429D01*
X152663001Y-67952232D01*
X152643680Y-67935583D01*
X152621776Y-67915153D01*
X152598434Y-67892183D01*
X152574798Y-67867911D01*
X152552012Y-67843577D01*
X152531221Y-67820419D01*
X152513568Y-67799678D01*
X152500199Y-67782593D01*
X152492258Y-67770403D01*
X152490542Y-67765468D01*
X152495504Y-67764984D01*
X152509922Y-67764521D01*
X152533090Y-67764084D01*
X152564304Y-67763678D01*
X152602860Y-67763308D01*
X152648052Y-67762979D01*
X152699175Y-67762696D01*
X152755525Y-67762463D01*
X152816398Y-67762287D01*
X152881088Y-67762171D01*
X152948891Y-67762121D01*
X152963691Y-67762120D01*
X153436841Y-67762120D01*
X153496881Y-67784963D01*
G36*
X157293668Y-68971943D02*
G01*
X157281488Y-69065695D01*
X157261805Y-69152873D01*
X157234390Y-69233994D01*
X157199012Y-69309580D01*
X157155442Y-69380149D01*
X157103450Y-69446221D01*
X157066425Y-69485613D01*
X156997303Y-69547463D01*
X156920795Y-69602650D01*
X156837286Y-69651059D01*
X156747161Y-69692574D01*
X156650803Y-69727079D01*
X156548597Y-69754459D01*
X156440927Y-69774598D01*
X156328177Y-69787381D01*
X156210731Y-69792693D01*
X156088974Y-69790416D01*
X156058976Y-69788717D01*
X155941906Y-69777236D01*
X155830486Y-69758216D01*
X155724954Y-69731813D01*
X155625541Y-69698184D01*
X155532483Y-69657485D01*
X155446013Y-69609873D01*
X155366367Y-69555504D01*
X155293778Y-69494536D01*
X155228480Y-69427126D01*
X155170708Y-69353429D01*
X155120695Y-69273602D01*
X155078677Y-69187803D01*
X155050736Y-69114253D01*
X155039851Y-69079930D01*
X155029957Y-69045406D01*
X155021561Y-69012744D01*
X155015169Y-68984011D01*
X155011288Y-68961271D01*
X155010331Y-68949570D01*
X155010222Y-68935600D01*
X155638247Y-68935600D01*
X155650238Y-68977100D01*
X155657763Y-68999489D01*
X155668495Y-69026787D01*
X155680796Y-69054977D01*
X155689250Y-69072663D01*
X155726490Y-69136704D01*
X155770270Y-69192988D01*
X155820472Y-69241434D01*
X155876977Y-69281959D01*
X155939667Y-69314482D01*
X156008425Y-69338920D01*
X156083132Y-69355193D01*
X156099882Y-69357606D01*
X156133566Y-69360496D01*
X156173448Y-69361481D01*
X156216167Y-69360678D01*
X156258361Y-69358208D01*
X156296668Y-69354188D01*
X156323402Y-69349698D01*
X156390690Y-69330703D01*
X156452131Y-69303401D01*
X156507777Y-69267758D01*
X156557679Y-69223739D01*
X156601888Y-69171311D01*
X156611856Y-69157180D01*
X156657407Y-69098404D01*
X156708019Y-69048289D01*
X156763523Y-69006960D01*
X156823746Y-68974545D01*
X156888518Y-68951170D01*
X156892362Y-68950107D01*
X156903859Y-68947157D01*
X156915284Y-68944752D01*
X156927860Y-68942820D01*
X156942808Y-68941288D01*
X156961352Y-68940083D01*
X156984715Y-68939132D01*
X157014119Y-68938362D01*
X157050787Y-68937701D01*
X157095941Y-68937076D01*
X157114967Y-68936840D01*
X157296933Y-68934626D01*
X157293668Y-68971943D01*
G37*
X157293668Y-68971943D02*
X157281488Y-69065695D01*
X157261805Y-69152873D01*
X157234390Y-69233994D01*
X157199012Y-69309580D01*
X157155442Y-69380149D01*
X157103450Y-69446221D01*
X157066425Y-69485613D01*
X156997303Y-69547463D01*
X156920795Y-69602650D01*
X156837286Y-69651059D01*
X156747161Y-69692574D01*
X156650803Y-69727079D01*
X156548597Y-69754459D01*
X156440927Y-69774598D01*
X156328177Y-69787381D01*
X156210731Y-69792693D01*
X156088974Y-69790416D01*
X156058976Y-69788717D01*
X155941906Y-69777236D01*
X155830486Y-69758216D01*
X155724954Y-69731813D01*
X155625541Y-69698184D01*
X155532483Y-69657485D01*
X155446013Y-69609873D01*
X155366367Y-69555504D01*
X155293778Y-69494536D01*
X155228480Y-69427126D01*
X155170708Y-69353429D01*
X155120695Y-69273602D01*
X155078677Y-69187803D01*
X155050736Y-69114253D01*
X155039851Y-69079930D01*
X155029957Y-69045406D01*
X155021561Y-69012744D01*
X155015169Y-68984011D01*
X155011288Y-68961271D01*
X155010331Y-68949570D01*
X155010222Y-68935600D01*
X155638247Y-68935600D01*
X155650238Y-68977100D01*
X155657763Y-68999489D01*
X155668495Y-69026787D01*
X155680796Y-69054977D01*
X155689250Y-69072663D01*
X155726490Y-69136704D01*
X155770270Y-69192988D01*
X155820472Y-69241434D01*
X155876977Y-69281959D01*
X155939667Y-69314482D01*
X156008425Y-69338920D01*
X156083132Y-69355193D01*
X156099882Y-69357606D01*
X156133566Y-69360496D01*
X156173448Y-69361481D01*
X156216167Y-69360678D01*
X156258361Y-69358208D01*
X156296668Y-69354188D01*
X156323402Y-69349698D01*
X156390690Y-69330703D01*
X156452131Y-69303401D01*
X156507777Y-69267758D01*
X156557679Y-69223739D01*
X156601888Y-69171311D01*
X156611856Y-69157180D01*
X156657407Y-69098404D01*
X156708019Y-69048289D01*
X156763523Y-69006960D01*
X156823746Y-68974545D01*
X156888518Y-68951170D01*
X156892362Y-68950107D01*
X156903859Y-68947157D01*
X156915284Y-68944752D01*
X156927860Y-68942820D01*
X156942808Y-68941288D01*
X156961352Y-68940083D01*
X156984715Y-68939132D01*
X157014119Y-68938362D01*
X157050787Y-68937701D01*
X157095941Y-68937076D01*
X157114967Y-68936840D01*
X157296933Y-68934626D01*
X157293668Y-68971943D01*
G36*
X158640394Y-67783001D02*
G01*
X158661309Y-67790735D01*
X158689661Y-67800967D01*
X158723270Y-67812925D01*
X158759953Y-67825834D01*
X158797530Y-67838922D01*
X158817682Y-67845879D01*
X158923443Y-67883004D01*
X159022630Y-67919325D01*
X159114812Y-67954658D01*
X159199561Y-67988822D01*
X159276445Y-68021635D01*
X159345036Y-68052914D01*
X159404904Y-68082477D01*
X159455619Y-68110143D01*
X159488242Y-68130089D01*
X159553602Y-68177419D01*
X159615139Y-68231565D01*
X159671701Y-68291142D01*
X159722136Y-68354765D01*
X159765294Y-68421050D01*
X159800023Y-68488613D01*
X159813314Y-68520965D01*
X159832661Y-68581328D01*
X159848318Y-68648663D01*
X159859951Y-68720352D01*
X159867227Y-68793776D01*
X159869811Y-68866319D01*
X159867371Y-68935361D01*
X159866904Y-68941186D01*
X159857859Y-69018704D01*
X159843928Y-69089911D01*
X159824318Y-69157794D01*
X159798238Y-69225341D01*
X159782172Y-69260659D01*
X159738369Y-69341466D01*
X159686871Y-69415987D01*
X159627556Y-69484332D01*
X159560298Y-69546612D01*
X159484974Y-69602934D01*
X159401461Y-69653409D01*
X159309634Y-69698147D01*
X159268509Y-69715271D01*
X159223579Y-69732317D01*
X159180849Y-69746661D01*
X159138865Y-69758530D01*
X159096177Y-69768154D01*
X159051330Y-69775758D01*
X159002874Y-69781571D01*
X158949356Y-69785820D01*
X158889323Y-69788732D01*
X158821323Y-69790536D01*
X158784662Y-69791084D01*
X158743715Y-69791497D01*
X158704644Y-69791748D01*
X158668988Y-69791840D01*
X158638286Y-69791773D01*
X158614076Y-69791547D01*
X158597899Y-69791165D01*
X158594162Y-69790977D01*
X158471529Y-69778687D01*
X158355046Y-69758446D01*
X158244765Y-69730272D01*
X158140735Y-69694185D01*
X158043007Y-69650200D01*
X157951632Y-69598338D01*
X157866660Y-69538615D01*
X157851143Y-69526299D01*
X157784464Y-69466076D01*
X157726082Y-69400109D01*
X157676179Y-69328681D01*
X157634937Y-69252076D01*
X157602540Y-69170577D01*
X157586196Y-69114660D01*
X157580015Y-69087310D01*
X157574006Y-69055579D01*
X157568603Y-69022352D01*
X157564242Y-68990515D01*
X157561357Y-68962956D01*
X157560382Y-68943448D01*
X157560382Y-68919581D01*
X157744532Y-68921529D01*
X157792669Y-68922052D01*
X157831861Y-68922556D01*
X157863319Y-68923122D01*
X157888257Y-68923835D01*
X157907888Y-68924777D01*
X157923424Y-68926031D01*
X157936079Y-68927681D01*
X157947066Y-68929809D01*
X157957598Y-68932498D01*
X157968888Y-68935832D01*
X157973326Y-68937192D01*
X158036958Y-68961238D01*
X158094645Y-68992683D01*
X158147159Y-69032109D01*
X158195267Y-69080099D01*
X158239739Y-69137234D01*
X158242047Y-69140584D01*
X158282873Y-69193232D01*
X158327738Y-69237421D01*
X158377380Y-69273570D01*
X158432537Y-69302099D01*
X158493946Y-69323427D01*
X158562345Y-69337973D01*
X158597381Y-69342615D01*
X158628977Y-69345034D01*
X158667271Y-69346306D01*
X158709967Y-69346505D01*
X158754773Y-69345702D01*
X158799393Y-69343972D01*
X158841531Y-69341387D01*
X158878894Y-69338021D01*
X158909188Y-69333947D01*
X158917435Y-69332420D01*
X158962047Y-69321366D01*
X159004192Y-69307173D01*
X159040812Y-69290948D01*
X159056442Y-69282205D01*
X159090242Y-69256867D01*
X159123531Y-69223432D01*
X159154920Y-69183921D01*
X159183018Y-69140358D01*
X159206434Y-69094767D01*
X159223777Y-69049171D01*
X159228649Y-69031603D01*
X159237430Y-68984810D01*
X159242536Y-68933285D01*
X159243620Y-68881895D01*
X159241735Y-68847919D01*
X159232771Y-68786594D01*
X159217642Y-68731372D01*
X159195521Y-68680581D01*
X159165580Y-68632551D01*
X159126993Y-68585610D01*
X159096426Y-68554452D01*
X159073860Y-68533428D01*
X159051138Y-68513823D01*
X159027581Y-68495320D01*
X159002513Y-68477602D01*
X158975255Y-68460353D01*
X158945128Y-68443257D01*
X158911455Y-68425998D01*
X158873558Y-68408258D01*
X158830760Y-68389722D01*
X158782381Y-68370073D01*
X158727744Y-68348995D01*
X158666171Y-68326171D01*
X158596984Y-68301285D01*
X158519505Y-68274020D01*
X158433056Y-68244060D01*
X158426522Y-68241809D01*
X158353190Y-68215886D01*
X158280913Y-68189044D01*
X158210872Y-68161782D01*
X158144248Y-68134598D01*
X158082224Y-68107992D01*
X158025979Y-68082461D01*
X157976697Y-68058506D01*
X157935558Y-68036625D01*
X157922223Y-68028907D01*
X157848722Y-67979818D01*
X157778653Y-67922503D01*
X157714117Y-67858810D01*
X157670267Y-67807531D01*
X157636366Y-67764660D01*
X158585026Y-67762068D01*
X158640394Y-67783001D01*
G37*
X158640394Y-67783001D02*
X158661309Y-67790735D01*
X158689661Y-67800967D01*
X158723270Y-67812925D01*
X158759953Y-67825834D01*
X158797530Y-67838922D01*
X158817682Y-67845879D01*
X158923443Y-67883004D01*
X159022630Y-67919325D01*
X159114812Y-67954658D01*
X159199561Y-67988822D01*
X159276445Y-68021635D01*
X159345036Y-68052914D01*
X159404904Y-68082477D01*
X159455619Y-68110143D01*
X159488242Y-68130089D01*
X159553602Y-68177419D01*
X159615139Y-68231565D01*
X159671701Y-68291142D01*
X159722136Y-68354765D01*
X159765294Y-68421050D01*
X159800023Y-68488613D01*
X159813314Y-68520965D01*
X159832661Y-68581328D01*
X159848318Y-68648663D01*
X159859951Y-68720352D01*
X159867227Y-68793776D01*
X159869811Y-68866319D01*
X159867371Y-68935361D01*
X159866904Y-68941186D01*
X159857859Y-69018704D01*
X159843928Y-69089911D01*
X159824318Y-69157794D01*
X159798238Y-69225341D01*
X159782172Y-69260659D01*
X159738369Y-69341466D01*
X159686871Y-69415987D01*
X159627556Y-69484332D01*
X159560298Y-69546612D01*
X159484974Y-69602934D01*
X159401461Y-69653409D01*
X159309634Y-69698147D01*
X159268509Y-69715271D01*
X159223579Y-69732317D01*
X159180849Y-69746661D01*
X159138865Y-69758530D01*
X159096177Y-69768154D01*
X159051330Y-69775758D01*
X159002874Y-69781571D01*
X158949356Y-69785820D01*
X158889323Y-69788732D01*
X158821323Y-69790536D01*
X158784662Y-69791084D01*
X158743715Y-69791497D01*
X158704644Y-69791748D01*
X158668988Y-69791840D01*
X158638286Y-69791773D01*
X158614076Y-69791547D01*
X158597899Y-69791165D01*
X158594162Y-69790977D01*
X158471529Y-69778687D01*
X158355046Y-69758446D01*
X158244765Y-69730272D01*
X158140735Y-69694185D01*
X158043007Y-69650200D01*
X157951632Y-69598338D01*
X157866660Y-69538615D01*
X157851143Y-69526299D01*
X157784464Y-69466076D01*
X157726082Y-69400109D01*
X157676179Y-69328681D01*
X157634937Y-69252076D01*
X157602540Y-69170577D01*
X157586196Y-69114660D01*
X157580015Y-69087310D01*
X157574006Y-69055579D01*
X157568603Y-69022352D01*
X157564242Y-68990515D01*
X157561357Y-68962956D01*
X157560382Y-68943448D01*
X157560382Y-68919581D01*
X157744532Y-68921529D01*
X157792669Y-68922052D01*
X157831861Y-68922556D01*
X157863319Y-68923122D01*
X157888257Y-68923835D01*
X157907888Y-68924777D01*
X157923424Y-68926031D01*
X157936079Y-68927681D01*
X157947066Y-68929809D01*
X157957598Y-68932498D01*
X157968888Y-68935832D01*
X157973326Y-68937192D01*
X158036958Y-68961238D01*
X158094645Y-68992683D01*
X158147159Y-69032109D01*
X158195267Y-69080099D01*
X158239739Y-69137234D01*
X158242047Y-69140584D01*
X158282873Y-69193232D01*
X158327738Y-69237421D01*
X158377380Y-69273570D01*
X158432537Y-69302099D01*
X158493946Y-69323427D01*
X158562345Y-69337973D01*
X158597381Y-69342615D01*
X158628977Y-69345034D01*
X158667271Y-69346306D01*
X158709967Y-69346505D01*
X158754773Y-69345702D01*
X158799393Y-69343972D01*
X158841531Y-69341387D01*
X158878894Y-69338021D01*
X158909188Y-69333947D01*
X158917435Y-69332420D01*
X158962047Y-69321366D01*
X159004192Y-69307173D01*
X159040812Y-69290948D01*
X159056442Y-69282205D01*
X159090242Y-69256867D01*
X159123531Y-69223432D01*
X159154920Y-69183921D01*
X159183018Y-69140358D01*
X159206434Y-69094767D01*
X159223777Y-69049171D01*
X159228649Y-69031603D01*
X159237430Y-68984810D01*
X159242536Y-68933285D01*
X159243620Y-68881895D01*
X159241735Y-68847919D01*
X159232771Y-68786594D01*
X159217642Y-68731372D01*
X159195521Y-68680581D01*
X159165580Y-68632551D01*
X159126993Y-68585610D01*
X159096426Y-68554452D01*
X159073860Y-68533428D01*
X159051138Y-68513823D01*
X159027581Y-68495320D01*
X159002513Y-68477602D01*
X158975255Y-68460353D01*
X158945128Y-68443257D01*
X158911455Y-68425998D01*
X158873558Y-68408258D01*
X158830760Y-68389722D01*
X158782381Y-68370073D01*
X158727744Y-68348995D01*
X158666171Y-68326171D01*
X158596984Y-68301285D01*
X158519505Y-68274020D01*
X158433056Y-68244060D01*
X158426522Y-68241809D01*
X158353190Y-68215886D01*
X158280913Y-68189044D01*
X158210872Y-68161782D01*
X158144248Y-68134598D01*
X158082224Y-68107992D01*
X158025979Y-68082461D01*
X157976697Y-68058506D01*
X157935558Y-68036625D01*
X157922223Y-68028907D01*
X157848722Y-67979818D01*
X157778653Y-67922503D01*
X157714117Y-67858810D01*
X157670267Y-67807531D01*
X157636366Y-67764660D01*
X158585026Y-67762068D01*
X158640394Y-67783001D01*
G36*
X150822948Y-66310476D02*
G01*
X151191681Y-66311780D01*
X151691139Y-67657980D01*
X151732916Y-67770584D01*
X151773766Y-67880700D01*
X151813551Y-67987948D01*
X151852129Y-68091949D01*
X151889358Y-68192322D01*
X151925099Y-68288689D01*
X151959211Y-68380669D01*
X151991552Y-68467882D01*
X152021983Y-68549949D01*
X152050361Y-68626491D01*
X152076547Y-68697127D01*
X152100400Y-68761477D01*
X152121778Y-68819162D01*
X152140542Y-68869803D01*
X152156549Y-68913019D01*
X152169661Y-68948430D01*
X152179735Y-68975658D01*
X152186631Y-68994321D01*
X152190208Y-69004042D01*
X152190710Y-69005438D01*
X152185719Y-69005566D01*
X152171039Y-69005702D01*
X152147139Y-69005846D01*
X152114489Y-69005996D01*
X152073561Y-69006152D01*
X152024824Y-69006311D01*
X151968749Y-69006473D01*
X151905805Y-69006637D01*
X151836462Y-69006801D01*
X151761193Y-69006965D01*
X151680465Y-69007127D01*
X151594750Y-69007286D01*
X151504518Y-69007442D01*
X151410239Y-69007592D01*
X151312383Y-69007737D01*
X151211421Y-69007874D01*
X151128459Y-69007978D01*
X150066097Y-69009260D01*
X150037147Y-69090540D01*
X150017549Y-69143579D01*
X149999098Y-69188977D01*
X149980748Y-69229012D01*
X149961452Y-69265962D01*
X149940162Y-69302106D01*
X149939047Y-69303900D01*
X149886121Y-69379360D01*
X149825349Y-69448911D01*
X149757546Y-69511957D01*
X149683523Y-69567904D01*
X149604096Y-69616157D01*
X149520078Y-69656120D01*
X149432282Y-69687198D01*
X149404335Y-69694959D01*
X149376608Y-69701456D01*
X149346203Y-69707388D01*
X149314623Y-69712597D01*
X149283370Y-69716924D01*
X149253946Y-69720211D01*
X149227853Y-69722299D01*
X149206592Y-69723030D01*
X149191666Y-69722244D01*
X149184577Y-69719784D01*
X149184308Y-69718183D01*
X149186264Y-69712893D01*
X149191543Y-69698672D01*
X149199927Y-69676111D01*
X149211194Y-69645800D01*
X149225126Y-69608331D01*
X149241503Y-69564295D01*
X149260104Y-69514283D01*
X149280710Y-69458885D01*
X149303102Y-69398693D01*
X149327059Y-69334297D01*
X149352361Y-69266289D01*
X149378789Y-69195259D01*
X149396822Y-69146797D01*
X149607642Y-68580227D01*
X150515692Y-68580113D01*
X150610928Y-68580082D01*
X150703398Y-68580014D01*
X150792593Y-68579911D01*
X150878005Y-68579775D01*
X150959123Y-68579608D01*
X151035440Y-68579413D01*
X151106448Y-68579190D01*
X151171636Y-68578943D01*
X151230498Y-68578674D01*
X151282523Y-68578383D01*
X151327204Y-68578074D01*
X151364031Y-68577748D01*
X151392496Y-68577408D01*
X151412090Y-68577055D01*
X151422305Y-68576691D01*
X151423742Y-68576493D01*
X151422096Y-68570825D01*
X151417294Y-68556224D01*
X151409541Y-68533272D01*
X151399041Y-68502554D01*
X151385999Y-68464650D01*
X151370619Y-68420145D01*
X151353105Y-68369620D01*
X151333662Y-68313658D01*
X151312494Y-68252842D01*
X151289807Y-68187754D01*
X151265803Y-68118978D01*
X151240688Y-68047096D01*
X151214666Y-67972690D01*
X151187942Y-67896343D01*
X151160719Y-67818638D01*
X151133203Y-67740158D01*
X151105597Y-67661484D01*
X151078107Y-67583201D01*
X151050937Y-67505890D01*
X151024290Y-67430134D01*
X150998372Y-67356516D01*
X150973387Y-67285618D01*
X150949539Y-67218024D01*
X150927033Y-67154315D01*
X150906074Y-67095075D01*
X150886865Y-67040886D01*
X150869611Y-66992330D01*
X150854516Y-66949991D01*
X150841786Y-66914451D01*
X150831624Y-66886293D01*
X150824234Y-66866099D01*
X150819822Y-66854452D01*
X150818575Y-66851679D01*
X150816443Y-66856908D01*
X150811216Y-66871056D01*
X150803135Y-66893443D01*
X150792438Y-66923390D01*
X150779366Y-66960220D01*
X150764158Y-67003252D01*
X150747055Y-67051809D01*
X150728296Y-67105211D01*
X150708120Y-67162780D01*
X150686769Y-67223836D01*
X150664482Y-67287701D01*
X150662021Y-67294760D01*
X150639304Y-67359764D01*
X150617213Y-67422639D01*
X150596018Y-67482639D01*
X150575988Y-67539016D01*
X150557392Y-67591025D01*
X150540498Y-67637920D01*
X150525575Y-67678955D01*
X150512892Y-67713383D01*
X150502717Y-67740458D01*
X150495320Y-67759435D01*
X150490970Y-67769567D01*
X150490928Y-67769650D01*
X150456184Y-67827336D01*
X150413679Y-67879101D01*
X150364331Y-67924306D01*
X150309058Y-67962312D01*
X150248777Y-67992480D01*
X150184406Y-68014171D01*
X150122521Y-68026071D01*
X150103443Y-68027849D01*
X150078344Y-68029275D01*
X150048671Y-68030356D01*
X150015873Y-68031096D01*
X149981398Y-68031500D01*
X149946693Y-68031574D01*
X149913207Y-68031322D01*
X149882387Y-68030749D01*
X149855682Y-68029860D01*
X149834540Y-68028661D01*
X149820408Y-68027156D01*
X149814735Y-68025350D01*
X149814717Y-68025010D01*
X149816722Y-68019646D01*
X149822092Y-68005251D01*
X149830646Y-67982311D01*
X149842201Y-67951315D01*
X149856576Y-67912751D01*
X149873589Y-67867108D01*
X149893058Y-67814873D01*
X149914801Y-67756534D01*
X149938635Y-67692581D01*
X149964380Y-67623500D01*
X149991853Y-67549781D01*
X150020872Y-67471911D01*
X150051255Y-67390378D01*
X150082821Y-67305671D01*
X150115386Y-67218278D01*
X150125693Y-67190620D01*
X150158665Y-67102136D01*
X150190770Y-67015978D01*
X150221822Y-66932650D01*
X150251631Y-66852656D01*
X150280010Y-66776501D01*
X150306772Y-66704689D01*
X150331727Y-66637724D01*
X150354689Y-66576109D01*
X150375469Y-66520351D01*
X150393879Y-66470952D01*
X150409733Y-66428416D01*
X150422840Y-66393249D01*
X150433015Y-66365953D01*
X150440068Y-66347035D01*
X150443812Y-66336996D01*
X150444231Y-66335876D01*
X150454216Y-66309173D01*
X150822948Y-66310476D01*
G37*
X150822948Y-66310476D02*
X151191681Y-66311780D01*
X151691139Y-67657980D01*
X151732916Y-67770584D01*
X151773766Y-67880700D01*
X151813551Y-67987948D01*
X151852129Y-68091949D01*
X151889358Y-68192322D01*
X151925099Y-68288689D01*
X151959211Y-68380669D01*
X151991552Y-68467882D01*
X152021983Y-68549949D01*
X152050361Y-68626491D01*
X152076547Y-68697127D01*
X152100400Y-68761477D01*
X152121778Y-68819162D01*
X152140542Y-68869803D01*
X152156549Y-68913019D01*
X152169661Y-68948430D01*
X152179735Y-68975658D01*
X152186631Y-68994321D01*
X152190208Y-69004042D01*
X152190710Y-69005438D01*
X152185719Y-69005566D01*
X152171039Y-69005702D01*
X152147139Y-69005846D01*
X152114489Y-69005996D01*
X152073561Y-69006152D01*
X152024824Y-69006311D01*
X151968749Y-69006473D01*
X151905805Y-69006637D01*
X151836462Y-69006801D01*
X151761193Y-69006965D01*
X151680465Y-69007127D01*
X151594750Y-69007286D01*
X151504518Y-69007442D01*
X151410239Y-69007592D01*
X151312383Y-69007737D01*
X151211421Y-69007874D01*
X151128459Y-69007978D01*
X150066097Y-69009260D01*
X150037147Y-69090540D01*
X150017549Y-69143579D01*
X149999098Y-69188977D01*
X149980748Y-69229012D01*
X149961452Y-69265962D01*
X149940162Y-69302106D01*
X149939047Y-69303900D01*
X149886121Y-69379360D01*
X149825349Y-69448911D01*
X149757546Y-69511957D01*
X149683523Y-69567904D01*
X149604096Y-69616157D01*
X149520078Y-69656120D01*
X149432282Y-69687198D01*
X149404335Y-69694959D01*
X149376608Y-69701456D01*
X149346203Y-69707388D01*
X149314623Y-69712597D01*
X149283370Y-69716924D01*
X149253946Y-69720211D01*
X149227853Y-69722299D01*
X149206592Y-69723030D01*
X149191666Y-69722244D01*
X149184577Y-69719784D01*
X149184308Y-69718183D01*
X149186264Y-69712893D01*
X149191543Y-69698672D01*
X149199927Y-69676111D01*
X149211194Y-69645800D01*
X149225126Y-69608331D01*
X149241503Y-69564295D01*
X149260104Y-69514283D01*
X149280710Y-69458885D01*
X149303102Y-69398693D01*
X149327059Y-69334297D01*
X149352361Y-69266289D01*
X149378789Y-69195259D01*
X149396822Y-69146797D01*
X149607642Y-68580227D01*
X150515692Y-68580113D01*
X150610928Y-68580082D01*
X150703398Y-68580014D01*
X150792593Y-68579911D01*
X150878005Y-68579775D01*
X150959123Y-68579608D01*
X151035440Y-68579413D01*
X151106448Y-68579190D01*
X151171636Y-68578943D01*
X151230498Y-68578674D01*
X151282523Y-68578383D01*
X151327204Y-68578074D01*
X151364031Y-68577748D01*
X151392496Y-68577408D01*
X151412090Y-68577055D01*
X151422305Y-68576691D01*
X151423742Y-68576493D01*
X151422096Y-68570825D01*
X151417294Y-68556224D01*
X151409541Y-68533272D01*
X151399041Y-68502554D01*
X151385999Y-68464650D01*
X151370619Y-68420145D01*
X151353105Y-68369620D01*
X151333662Y-68313658D01*
X151312494Y-68252842D01*
X151289807Y-68187754D01*
X151265803Y-68118978D01*
X151240688Y-68047096D01*
X151214666Y-67972690D01*
X151187942Y-67896343D01*
X151160719Y-67818638D01*
X151133203Y-67740158D01*
X151105597Y-67661484D01*
X151078107Y-67583201D01*
X151050937Y-67505890D01*
X151024290Y-67430134D01*
X150998372Y-67356516D01*
X150973387Y-67285618D01*
X150949539Y-67218024D01*
X150927033Y-67154315D01*
X150906074Y-67095075D01*
X150886865Y-67040886D01*
X150869611Y-66992330D01*
X150854516Y-66949991D01*
X150841786Y-66914451D01*
X150831624Y-66886293D01*
X150824234Y-66866099D01*
X150819822Y-66854452D01*
X150818575Y-66851679D01*
X150816443Y-66856908D01*
X150811216Y-66871056D01*
X150803135Y-66893443D01*
X150792438Y-66923390D01*
X150779366Y-66960220D01*
X150764158Y-67003252D01*
X150747055Y-67051809D01*
X150728296Y-67105211D01*
X150708120Y-67162780D01*
X150686769Y-67223836D01*
X150664482Y-67287701D01*
X150662021Y-67294760D01*
X150639304Y-67359764D01*
X150617213Y-67422639D01*
X150596018Y-67482639D01*
X150575988Y-67539016D01*
X150557392Y-67591025D01*
X150540498Y-67637920D01*
X150525575Y-67678955D01*
X150512892Y-67713383D01*
X150502717Y-67740458D01*
X150495320Y-67759435D01*
X150490970Y-67769567D01*
X150490928Y-67769650D01*
X150456184Y-67827336D01*
X150413679Y-67879101D01*
X150364331Y-67924306D01*
X150309058Y-67962312D01*
X150248777Y-67992480D01*
X150184406Y-68014171D01*
X150122521Y-68026071D01*
X150103443Y-68027849D01*
X150078344Y-68029275D01*
X150048671Y-68030356D01*
X150015873Y-68031096D01*
X149981398Y-68031500D01*
X149946693Y-68031574D01*
X149913207Y-68031322D01*
X149882387Y-68030749D01*
X149855682Y-68029860D01*
X149834540Y-68028661D01*
X149820408Y-68027156D01*
X149814735Y-68025350D01*
X149814717Y-68025010D01*
X149816722Y-68019646D01*
X149822092Y-68005251D01*
X149830646Y-67982311D01*
X149842201Y-67951315D01*
X149856576Y-67912751D01*
X149873589Y-67867108D01*
X149893058Y-67814873D01*
X149914801Y-67756534D01*
X149938635Y-67692581D01*
X149964380Y-67623500D01*
X149991853Y-67549781D01*
X150020872Y-67471911D01*
X150051255Y-67390378D01*
X150082821Y-67305671D01*
X150115386Y-67218278D01*
X150125693Y-67190620D01*
X150158665Y-67102136D01*
X150190770Y-67015978D01*
X150221822Y-66932650D01*
X150251631Y-66852656D01*
X150280010Y-66776501D01*
X150306772Y-66704689D01*
X150331727Y-66637724D01*
X150354689Y-66576109D01*
X150375469Y-66520351D01*
X150393879Y-66470952D01*
X150409733Y-66428416D01*
X150422840Y-66393249D01*
X150433015Y-66365953D01*
X150440068Y-66347035D01*
X150443812Y-66336996D01*
X150444231Y-66335876D01*
X150454216Y-66309173D01*
X150822948Y-66310476D01*
G36*
X147530309Y-67231676D02*
G01*
X147572918Y-67241660D01*
X147612824Y-67259556D01*
X147648626Y-67285149D01*
X147678922Y-67318225D01*
X147683189Y-67324234D01*
X147706581Y-67366709D01*
X147720617Y-67411183D01*
X147725397Y-67456439D01*
X147721023Y-67501256D01*
X147707596Y-67544417D01*
X147685217Y-67584702D01*
X147658894Y-67616114D01*
X147641708Y-67631227D01*
X147621144Y-67646173D01*
X147599683Y-67659467D01*
X147579810Y-67669626D01*
X147564006Y-67675164D01*
X147559132Y-67675755D01*
X147558059Y-67677627D01*
X147557106Y-67683571D01*
X147556266Y-67694081D01*
X147555535Y-67709651D01*
X147554905Y-67730776D01*
X147554370Y-67757950D01*
X147553925Y-67791667D01*
X147553563Y-67832421D01*
X147553277Y-67880707D01*
X147553063Y-67937019D01*
X147552913Y-68001851D01*
X147552822Y-68075698D01*
X147552784Y-68159053D01*
X147552782Y-68187605D01*
X147552782Y-68699450D01*
X147689942Y-68836540D01*
X147827102Y-68973629D01*
X147827102Y-69590920D01*
X147725502Y-69590920D01*
X147725502Y-69019392D01*
X147369902Y-68663820D01*
X147014302Y-68308247D01*
X147014302Y-68083768D01*
X146992712Y-68077323D01*
X146954240Y-68060754D01*
X146919496Y-68035975D01*
X146889530Y-68004581D01*
X146865392Y-67968163D01*
X146848133Y-67928314D01*
X146838803Y-67886626D01*
X146838590Y-67861180D01*
X146943182Y-67861180D01*
X146947720Y-67896950D01*
X146961353Y-67928196D01*
X146984111Y-67954975D01*
X146991659Y-67961318D01*
X147018655Y-67976434D01*
X147049773Y-67983871D01*
X147082355Y-67983521D01*
X147113746Y-67975277D01*
X147130143Y-67966970D01*
X147155092Y-67945806D01*
X147170512Y-67924722D01*
X147180349Y-67906459D01*
X147185327Y-67890625D01*
X147186959Y-67871752D01*
X147187022Y-67865051D01*
X147183735Y-67831032D01*
X147173341Y-67802809D01*
X147155042Y-67778213D01*
X147155014Y-67778184D01*
X147129379Y-67756727D01*
X147101355Y-67744340D01*
X147068532Y-67739999D01*
X147065102Y-67739969D01*
X147031403Y-67743667D01*
X147003039Y-67755331D01*
X146978090Y-67775813D01*
X146973815Y-67780501D01*
X146955769Y-67805510D01*
X146946034Y-67831387D01*
X146943182Y-67861180D01*
X146838590Y-67861180D01*
X146838451Y-67844691D01*
X146838570Y-67843626D01*
X146848669Y-67794851D01*
X146867334Y-67751447D01*
X146894836Y-67712918D01*
X146926196Y-67682949D01*
X146963379Y-67658998D01*
X147004989Y-67643339D01*
X147049385Y-67636111D01*
X147094928Y-67637458D01*
X147139976Y-67647519D01*
X147173942Y-67661622D01*
X147198357Y-67677649D01*
X147223484Y-67700162D01*
X147246423Y-67726150D01*
X147264276Y-67752602D01*
X147267559Y-67758841D01*
X147284869Y-67804790D01*
X147292170Y-67851505D01*
X147289461Y-67898264D01*
X147276738Y-67944350D01*
X147268108Y-67963942D01*
X147247395Y-67998322D01*
X147221211Y-68027354D01*
X147188191Y-68052195D01*
X147146971Y-68074004D01*
X147129872Y-68081332D01*
X147115902Y-68087022D01*
X147115902Y-68262558D01*
X147281002Y-68427600D01*
X147446102Y-68592641D01*
X147446102Y-68134200D01*
X147446082Y-68053987D01*
X147446016Y-67983362D01*
X147445896Y-67921756D01*
X147445714Y-67868597D01*
X147445460Y-67823315D01*
X147445126Y-67785338D01*
X147444703Y-67754096D01*
X147444183Y-67729018D01*
X147443557Y-67709533D01*
X147442816Y-67695071D01*
X147441951Y-67685060D01*
X147440955Y-67678929D01*
X147439819Y-67676108D01*
X147439164Y-67675760D01*
X147431532Y-67673597D01*
X147417640Y-67667873D01*
X147400232Y-67659737D01*
X147396752Y-67658012D01*
X147357814Y-67633329D01*
X147326014Y-67602607D01*
X147301468Y-67567104D01*
X147284294Y-67528078D01*
X147274612Y-67486786D01*
X147273544Y-67465013D01*
X147375820Y-67465013D01*
X147381159Y-67494830D01*
X147389817Y-67512582D01*
X147404566Y-67532104D01*
X147422685Y-67550581D01*
X147441457Y-67565196D01*
X147456262Y-67572598D01*
X147490424Y-67578512D01*
X147524924Y-67575654D01*
X147550601Y-67567145D01*
X147579426Y-67548294D01*
X147601779Y-67522143D01*
X147616523Y-67490039D01*
X147616959Y-67488579D01*
X147621822Y-67455681D01*
X147617725Y-67424346D01*
X147605863Y-67395759D01*
X147587431Y-67371110D01*
X147563621Y-67351587D01*
X147535628Y-67338376D01*
X147504646Y-67332667D01*
X147471869Y-67335646D01*
X147465040Y-67337437D01*
X147433207Y-67351636D01*
X147407589Y-67372956D01*
X147388965Y-67399934D01*
X147378116Y-67431107D01*
X147375820Y-67465013D01*
X147273544Y-67465013D01*
X147272537Y-67444486D01*
X147278189Y-67402434D01*
X147291685Y-67361889D01*
X147313144Y-67324108D01*
X147342682Y-67290349D01*
X147360857Y-67275115D01*
X147400270Y-67251321D01*
X147442584Y-67236292D01*
X147486397Y-67229815D01*
X147530309Y-67231676D01*
G37*
X147530309Y-67231676D02*
X147572918Y-67241660D01*
X147612824Y-67259556D01*
X147648626Y-67285149D01*
X147678922Y-67318225D01*
X147683189Y-67324234D01*
X147706581Y-67366709D01*
X147720617Y-67411183D01*
X147725397Y-67456439D01*
X147721023Y-67501256D01*
X147707596Y-67544417D01*
X147685217Y-67584702D01*
X147658894Y-67616114D01*
X147641708Y-67631227D01*
X147621144Y-67646173D01*
X147599683Y-67659467D01*
X147579810Y-67669626D01*
X147564006Y-67675164D01*
X147559132Y-67675755D01*
X147558059Y-67677627D01*
X147557106Y-67683571D01*
X147556266Y-67694081D01*
X147555535Y-67709651D01*
X147554905Y-67730776D01*
X147554370Y-67757950D01*
X147553925Y-67791667D01*
X147553563Y-67832421D01*
X147553277Y-67880707D01*
X147553063Y-67937019D01*
X147552913Y-68001851D01*
X147552822Y-68075698D01*
X147552784Y-68159053D01*
X147552782Y-68187605D01*
X147552782Y-68699450D01*
X147689942Y-68836540D01*
X147827102Y-68973629D01*
X147827102Y-69590920D01*
X147725502Y-69590920D01*
X147725502Y-69019392D01*
X147369902Y-68663820D01*
X147014302Y-68308247D01*
X147014302Y-68083768D01*
X146992712Y-68077323D01*
X146954240Y-68060754D01*
X146919496Y-68035975D01*
X146889530Y-68004581D01*
X146865392Y-67968163D01*
X146848133Y-67928314D01*
X146838803Y-67886626D01*
X146838590Y-67861180D01*
X146943182Y-67861180D01*
X146947720Y-67896950D01*
X146961353Y-67928196D01*
X146984111Y-67954975D01*
X146991659Y-67961318D01*
X147018655Y-67976434D01*
X147049773Y-67983871D01*
X147082355Y-67983521D01*
X147113746Y-67975277D01*
X147130143Y-67966970D01*
X147155092Y-67945806D01*
X147170512Y-67924722D01*
X147180349Y-67906459D01*
X147185327Y-67890625D01*
X147186959Y-67871752D01*
X147187022Y-67865051D01*
X147183735Y-67831032D01*
X147173341Y-67802809D01*
X147155042Y-67778213D01*
X147155014Y-67778184D01*
X147129379Y-67756727D01*
X147101355Y-67744340D01*
X147068532Y-67739999D01*
X147065102Y-67739969D01*
X147031403Y-67743667D01*
X147003039Y-67755331D01*
X146978090Y-67775813D01*
X146973815Y-67780501D01*
X146955769Y-67805510D01*
X146946034Y-67831387D01*
X146943182Y-67861180D01*
X146838590Y-67861180D01*
X146838451Y-67844691D01*
X146838570Y-67843626D01*
X146848669Y-67794851D01*
X146867334Y-67751447D01*
X146894836Y-67712918D01*
X146926196Y-67682949D01*
X146963379Y-67658998D01*
X147004989Y-67643339D01*
X147049385Y-67636111D01*
X147094928Y-67637458D01*
X147139976Y-67647519D01*
X147173942Y-67661622D01*
X147198357Y-67677649D01*
X147223484Y-67700162D01*
X147246423Y-67726150D01*
X147264276Y-67752602D01*
X147267559Y-67758841D01*
X147284869Y-67804790D01*
X147292170Y-67851505D01*
X147289461Y-67898264D01*
X147276738Y-67944350D01*
X147268108Y-67963942D01*
X147247395Y-67998322D01*
X147221211Y-68027354D01*
X147188191Y-68052195D01*
X147146971Y-68074004D01*
X147129872Y-68081332D01*
X147115902Y-68087022D01*
X147115902Y-68262558D01*
X147281002Y-68427600D01*
X147446102Y-68592641D01*
X147446102Y-68134200D01*
X147446082Y-68053987D01*
X147446016Y-67983362D01*
X147445896Y-67921756D01*
X147445714Y-67868597D01*
X147445460Y-67823315D01*
X147445126Y-67785338D01*
X147444703Y-67754096D01*
X147444183Y-67729018D01*
X147443557Y-67709533D01*
X147442816Y-67695071D01*
X147441951Y-67685060D01*
X147440955Y-67678929D01*
X147439819Y-67676108D01*
X147439164Y-67675760D01*
X147431532Y-67673597D01*
X147417640Y-67667873D01*
X147400232Y-67659737D01*
X147396752Y-67658012D01*
X147357814Y-67633329D01*
X147326014Y-67602607D01*
X147301468Y-67567104D01*
X147284294Y-67528078D01*
X147274612Y-67486786D01*
X147273544Y-67465013D01*
X147375820Y-67465013D01*
X147381159Y-67494830D01*
X147389817Y-67512582D01*
X147404566Y-67532104D01*
X147422685Y-67550581D01*
X147441457Y-67565196D01*
X147456262Y-67572598D01*
X147490424Y-67578512D01*
X147524924Y-67575654D01*
X147550601Y-67567145D01*
X147579426Y-67548294D01*
X147601779Y-67522143D01*
X147616523Y-67490039D01*
X147616959Y-67488579D01*
X147621822Y-67455681D01*
X147617725Y-67424346D01*
X147605863Y-67395759D01*
X147587431Y-67371110D01*
X147563621Y-67351587D01*
X147535628Y-67338376D01*
X147504646Y-67332667D01*
X147471869Y-67335646D01*
X147465040Y-67337437D01*
X147433207Y-67351636D01*
X147407589Y-67372956D01*
X147388965Y-67399934D01*
X147378116Y-67431107D01*
X147375820Y-67465013D01*
X147273544Y-67465013D01*
X147272537Y-67444486D01*
X147278189Y-67402434D01*
X147291685Y-67361889D01*
X147313144Y-67324108D01*
X147342682Y-67290349D01*
X147360857Y-67275115D01*
X147400270Y-67251321D01*
X147442584Y-67236292D01*
X147486397Y-67229815D01*
X147530309Y-67231676D01*
G36*
X148111940Y-66910109D02*
G01*
X148129026Y-66913379D01*
X148148661Y-66919461D01*
X148150925Y-66920244D01*
X148194322Y-66940356D01*
X148231929Y-66968046D01*
X148262744Y-67002297D01*
X148285768Y-67042089D01*
X148295106Y-67067133D01*
X148302451Y-67104332D01*
X148303859Y-67145007D01*
X148299464Y-67185080D01*
X148290158Y-67218560D01*
X148269937Y-67257504D01*
X148241892Y-67292443D01*
X148207902Y-67321511D01*
X148169851Y-67342848D01*
X148161112Y-67346323D01*
X148131902Y-67357081D01*
X148131902Y-68103928D01*
X148176416Y-68061294D01*
X148193110Y-68045305D01*
X148215428Y-68023932D01*
X148241655Y-67998815D01*
X148270077Y-67971595D01*
X148298980Y-67943916D01*
X148313576Y-67929938D01*
X148406222Y-67841216D01*
X148406222Y-67773728D01*
X148406017Y-67745394D01*
X148405309Y-67725848D01*
X148403958Y-67713724D01*
X148401822Y-67707656D01*
X148399284Y-67706240D01*
X148391652Y-67704077D01*
X148377760Y-67698353D01*
X148360352Y-67690217D01*
X148356872Y-67688492D01*
X148318218Y-67663652D01*
X148284860Y-67631054D01*
X148258478Y-67592435D01*
X148252464Y-67580553D01*
X148244315Y-67561706D01*
X148239189Y-67544969D01*
X148236234Y-67526446D01*
X148234599Y-67502239D01*
X148234419Y-67497960D01*
X148234180Y-67485857D01*
X148336065Y-67485857D01*
X148340304Y-67518148D01*
X148349762Y-67542543D01*
X148364513Y-67563889D01*
X148385057Y-67584148D01*
X148407418Y-67599576D01*
X148413447Y-67602514D01*
X148433816Y-67607779D01*
X148459196Y-67609261D01*
X148485142Y-67606893D01*
X148498381Y-67603824D01*
X148520773Y-67593164D01*
X148543006Y-67575969D01*
X148561533Y-67555287D01*
X148569052Y-67543150D01*
X148580343Y-67510963D01*
X148582448Y-67478761D01*
X148576241Y-67447965D01*
X148562594Y-67419999D01*
X148542378Y-67396285D01*
X148516467Y-67378246D01*
X148485733Y-67367304D01*
X148459562Y-67364610D01*
X148425591Y-67369150D01*
X148395818Y-67381834D01*
X148371110Y-67401254D01*
X148352336Y-67426003D01*
X148340365Y-67454673D01*
X148336065Y-67485857D01*
X148234180Y-67485857D01*
X148233898Y-67471674D01*
X148235095Y-67451583D01*
X148238448Y-67433802D01*
X148243539Y-67416954D01*
X148262871Y-67373620D01*
X148289202Y-67336384D01*
X148320969Y-67307045D01*
X148362313Y-67282350D01*
X148405659Y-67266888D01*
X148449822Y-67260371D01*
X148493615Y-67262510D01*
X148535855Y-67273016D01*
X148575355Y-67291601D01*
X148610929Y-67317977D01*
X148641392Y-67351855D01*
X148664479Y-67390640D01*
X148674170Y-67412636D01*
X148680023Y-67431256D01*
X148683209Y-67451253D01*
X148684688Y-67472752D01*
X148682498Y-67522294D01*
X148671290Y-67567880D01*
X148651462Y-67608810D01*
X148623410Y-67644383D01*
X148587532Y-67673899D01*
X148562251Y-67688492D01*
X148544485Y-67696957D01*
X148529714Y-67703228D01*
X148520680Y-67706156D01*
X148519839Y-67706240D01*
X148517255Y-67708043D01*
X148515371Y-67714273D01*
X148514092Y-67726160D01*
X148513321Y-67744933D01*
X148512961Y-67771822D01*
X148512902Y-67794600D01*
X148512902Y-67882961D01*
X148251367Y-68133690D01*
X147989833Y-68384420D01*
X147989747Y-68720733D01*
X147989662Y-69057047D01*
X148003632Y-69049891D01*
X148013627Y-69045753D01*
X148031061Y-69039508D01*
X148053634Y-69031945D01*
X148079044Y-69023855D01*
X148083839Y-69022373D01*
X148174037Y-68989392D01*
X148260048Y-68947380D01*
X148341356Y-68896776D01*
X148417448Y-68838023D01*
X148487809Y-68771563D01*
X148551923Y-68697835D01*
X148609277Y-68617281D01*
X148659356Y-68530343D01*
X148660593Y-68527930D01*
X148691093Y-68468240D01*
X148998237Y-68468240D01*
X149069369Y-68468310D01*
X149130603Y-68468526D01*
X149182199Y-68468890D01*
X149224417Y-68469408D01*
X149257519Y-68470085D01*
X149281765Y-68470924D01*
X149297415Y-68471931D01*
X149304731Y-68473110D01*
X149305382Y-68473635D01*
X149303873Y-68480152D01*
X149299720Y-68494464D01*
X149293485Y-68514727D01*
X149285728Y-68539095D01*
X149281949Y-68550729D01*
X149238044Y-68670183D01*
X149186561Y-68782940D01*
X149127372Y-68889212D01*
X149060350Y-68989209D01*
X148985368Y-69083141D01*
X148914377Y-69159275D01*
X148827221Y-69240032D01*
X148735883Y-69311990D01*
X148639670Y-69375568D01*
X148537890Y-69431184D01*
X148429848Y-69479258D01*
X148319758Y-69518649D01*
X148266399Y-69534444D01*
X148209568Y-69549042D01*
X148151313Y-69562060D01*
X148093682Y-69573116D01*
X148038724Y-69581827D01*
X147988488Y-69587813D01*
X147945022Y-69590690D01*
X147932512Y-69590892D01*
X147888062Y-69590920D01*
X147888062Y-68337231D01*
X147956642Y-68272566D01*
X148025222Y-68207902D01*
X148025222Y-67357081D01*
X147994480Y-67345872D01*
X147959531Y-67328466D01*
X147926314Y-67303166D01*
X147897610Y-67272182D01*
X147891664Y-67264092D01*
X147870202Y-67224847D01*
X147857209Y-67181861D01*
X147852649Y-67136946D01*
X147852870Y-67134341D01*
X147956776Y-67134341D01*
X147959182Y-67164798D01*
X147967020Y-67189472D01*
X147981601Y-67211869D01*
X147988971Y-67220283D01*
X148014647Y-67240851D01*
X148044868Y-67253499D01*
X148077449Y-67257918D01*
X148110206Y-67253801D01*
X148139738Y-67241561D01*
X148166882Y-67220523D01*
X148186069Y-67194989D01*
X148197525Y-67166481D01*
X148201475Y-67136521D01*
X148198145Y-67106630D01*
X148187760Y-67078330D01*
X148170545Y-67053142D01*
X148146725Y-67032589D01*
X148116526Y-67018192D01*
X148106228Y-67015294D01*
X148072056Y-67012016D01*
X148039311Y-67018270D01*
X148009445Y-67033428D01*
X147983909Y-67056860D01*
X147972030Y-67073381D01*
X147963525Y-67088649D01*
X147958880Y-67102262D01*
X147957011Y-67118549D01*
X147956776Y-67134341D01*
X147852870Y-67134341D01*
X147856485Y-67091917D01*
X147868681Y-67048588D01*
X147889200Y-67008772D01*
X147897037Y-66997701D01*
X147929003Y-66962983D01*
X147965617Y-66937107D01*
X148007356Y-66919829D01*
X148054696Y-66910905D01*
X148068572Y-66909892D01*
X148093193Y-66909123D01*
X148111940Y-66910109D01*
G37*
X148111940Y-66910109D02*
X148129026Y-66913379D01*
X148148661Y-66919461D01*
X148150925Y-66920244D01*
X148194322Y-66940356D01*
X148231929Y-66968046D01*
X148262744Y-67002297D01*
X148285768Y-67042089D01*
X148295106Y-67067133D01*
X148302451Y-67104332D01*
X148303859Y-67145007D01*
X148299464Y-67185080D01*
X148290158Y-67218560D01*
X148269937Y-67257504D01*
X148241892Y-67292443D01*
X148207902Y-67321511D01*
X148169851Y-67342848D01*
X148161112Y-67346323D01*
X148131902Y-67357081D01*
X148131902Y-68103928D01*
X148176416Y-68061294D01*
X148193110Y-68045305D01*
X148215428Y-68023932D01*
X148241655Y-67998815D01*
X148270077Y-67971595D01*
X148298980Y-67943916D01*
X148313576Y-67929938D01*
X148406222Y-67841216D01*
X148406222Y-67773728D01*
X148406017Y-67745394D01*
X148405309Y-67725848D01*
X148403958Y-67713724D01*
X148401822Y-67707656D01*
X148399284Y-67706240D01*
X148391652Y-67704077D01*
X148377760Y-67698353D01*
X148360352Y-67690217D01*
X148356872Y-67688492D01*
X148318218Y-67663652D01*
X148284860Y-67631054D01*
X148258478Y-67592435D01*
X148252464Y-67580553D01*
X148244315Y-67561706D01*
X148239189Y-67544969D01*
X148236234Y-67526446D01*
X148234599Y-67502239D01*
X148234419Y-67497960D01*
X148234180Y-67485857D01*
X148336065Y-67485857D01*
X148340304Y-67518148D01*
X148349762Y-67542543D01*
X148364513Y-67563889D01*
X148385057Y-67584148D01*
X148407418Y-67599576D01*
X148413447Y-67602514D01*
X148433816Y-67607779D01*
X148459196Y-67609261D01*
X148485142Y-67606893D01*
X148498381Y-67603824D01*
X148520773Y-67593164D01*
X148543006Y-67575969D01*
X148561533Y-67555287D01*
X148569052Y-67543150D01*
X148580343Y-67510963D01*
X148582448Y-67478761D01*
X148576241Y-67447965D01*
X148562594Y-67419999D01*
X148542378Y-67396285D01*
X148516467Y-67378246D01*
X148485733Y-67367304D01*
X148459562Y-67364610D01*
X148425591Y-67369150D01*
X148395818Y-67381834D01*
X148371110Y-67401254D01*
X148352336Y-67426003D01*
X148340365Y-67454673D01*
X148336065Y-67485857D01*
X148234180Y-67485857D01*
X148233898Y-67471674D01*
X148235095Y-67451583D01*
X148238448Y-67433802D01*
X148243539Y-67416954D01*
X148262871Y-67373620D01*
X148289202Y-67336384D01*
X148320969Y-67307045D01*
X148362313Y-67282350D01*
X148405659Y-67266888D01*
X148449822Y-67260371D01*
X148493615Y-67262510D01*
X148535855Y-67273016D01*
X148575355Y-67291601D01*
X148610929Y-67317977D01*
X148641392Y-67351855D01*
X148664479Y-67390640D01*
X148674170Y-67412636D01*
X148680023Y-67431256D01*
X148683209Y-67451253D01*
X148684688Y-67472752D01*
X148682498Y-67522294D01*
X148671290Y-67567880D01*
X148651462Y-67608810D01*
X148623410Y-67644383D01*
X148587532Y-67673899D01*
X148562251Y-67688492D01*
X148544485Y-67696957D01*
X148529714Y-67703228D01*
X148520680Y-67706156D01*
X148519839Y-67706240D01*
X148517255Y-67708043D01*
X148515371Y-67714273D01*
X148514092Y-67726160D01*
X148513321Y-67744933D01*
X148512961Y-67771822D01*
X148512902Y-67794600D01*
X148512902Y-67882961D01*
X148251367Y-68133690D01*
X147989833Y-68384420D01*
X147989747Y-68720733D01*
X147989662Y-69057047D01*
X148003632Y-69049891D01*
X148013627Y-69045753D01*
X148031061Y-69039508D01*
X148053634Y-69031945D01*
X148079044Y-69023855D01*
X148083839Y-69022373D01*
X148174037Y-68989392D01*
X148260048Y-68947380D01*
X148341356Y-68896776D01*
X148417448Y-68838023D01*
X148487809Y-68771563D01*
X148551923Y-68697835D01*
X148609277Y-68617281D01*
X148659356Y-68530343D01*
X148660593Y-68527930D01*
X148691093Y-68468240D01*
X148998237Y-68468240D01*
X149069369Y-68468310D01*
X149130603Y-68468526D01*
X149182199Y-68468890D01*
X149224417Y-68469408D01*
X149257519Y-68470085D01*
X149281765Y-68470924D01*
X149297415Y-68471931D01*
X149304731Y-68473110D01*
X149305382Y-68473635D01*
X149303873Y-68480152D01*
X149299720Y-68494464D01*
X149293485Y-68514727D01*
X149285728Y-68539095D01*
X149281949Y-68550729D01*
X149238044Y-68670183D01*
X149186561Y-68782940D01*
X149127372Y-68889212D01*
X149060350Y-68989209D01*
X148985368Y-69083141D01*
X148914377Y-69159275D01*
X148827221Y-69240032D01*
X148735883Y-69311990D01*
X148639670Y-69375568D01*
X148537890Y-69431184D01*
X148429848Y-69479258D01*
X148319758Y-69518649D01*
X148266399Y-69534444D01*
X148209568Y-69549042D01*
X148151313Y-69562060D01*
X148093682Y-69573116D01*
X148038724Y-69581827D01*
X147988488Y-69587813D01*
X147945022Y-69590690D01*
X147932512Y-69590892D01*
X147888062Y-69590920D01*
X147888062Y-68337231D01*
X147956642Y-68272566D01*
X148025222Y-68207902D01*
X148025222Y-67357081D01*
X147994480Y-67345872D01*
X147959531Y-67328466D01*
X147926314Y-67303166D01*
X147897610Y-67272182D01*
X147891664Y-67264092D01*
X147870202Y-67224847D01*
X147857209Y-67181861D01*
X147852649Y-67136946D01*
X147852870Y-67134341D01*
X147956776Y-67134341D01*
X147959182Y-67164798D01*
X147967020Y-67189472D01*
X147981601Y-67211869D01*
X147988971Y-67220283D01*
X148014647Y-67240851D01*
X148044868Y-67253499D01*
X148077449Y-67257918D01*
X148110206Y-67253801D01*
X148139738Y-67241561D01*
X148166882Y-67220523D01*
X148186069Y-67194989D01*
X148197525Y-67166481D01*
X148201475Y-67136521D01*
X148198145Y-67106630D01*
X148187760Y-67078330D01*
X148170545Y-67053142D01*
X148146725Y-67032589D01*
X148116526Y-67018192D01*
X148106228Y-67015294D01*
X148072056Y-67012016D01*
X148039311Y-67018270D01*
X148009445Y-67033428D01*
X147983909Y-67056860D01*
X147972030Y-67073381D01*
X147963525Y-67088649D01*
X147958880Y-67102262D01*
X147957011Y-67118549D01*
X147956776Y-67134341D01*
X147852870Y-67134341D01*
X147856485Y-67091917D01*
X147868681Y-67048588D01*
X147889200Y-67008772D01*
X147897037Y-66997701D01*
X147929003Y-66962983D01*
X147965617Y-66937107D01*
X148007356Y-66919829D01*
X148054696Y-66910905D01*
X148068572Y-66909892D01*
X148093193Y-66909123D01*
X148111940Y-66910109D01*
G36*
X156134656Y-66376266D02*
G01*
X156185218Y-66377110D01*
X156230366Y-66378870D01*
X156271674Y-66381653D01*
X156310719Y-66385566D01*
X156349076Y-66390717D01*
X156388322Y-66397215D01*
X156430032Y-66405165D01*
X156432622Y-66405686D01*
X156533318Y-66429941D01*
X156629350Y-66461015D01*
X156720172Y-66498533D01*
X156805236Y-66542121D01*
X156883997Y-66591405D01*
X156955907Y-66646010D01*
X157020422Y-66705560D01*
X157076994Y-66769683D01*
X157125077Y-66838003D01*
X157162045Y-66905714D01*
X157191588Y-66977750D01*
X157214933Y-67055022D01*
X157231186Y-67134098D01*
X157238679Y-67199101D01*
X157241863Y-67243960D01*
X157064572Y-67243924D01*
X157016383Y-67243868D01*
X156977093Y-67243683D01*
X156945439Y-67243309D01*
X156920162Y-67242688D01*
X156900000Y-67241762D01*
X156883692Y-67240470D01*
X156869976Y-67238755D01*
X156857591Y-67236557D01*
X156845277Y-67233818D01*
X156844643Y-67233667D01*
X156781562Y-67213570D01*
X156722686Y-67184474D01*
X156667837Y-67146249D01*
X156616841Y-67098765D01*
X156569520Y-67041895D01*
X156554481Y-67020755D01*
X156512542Y-66967782D01*
X156464981Y-66923242D01*
X156411547Y-66886941D01*
X156351987Y-66858686D01*
X156334691Y-66852365D01*
X156305798Y-66843143D01*
X156277790Y-66835927D01*
X156248856Y-66830503D01*
X156217186Y-66826655D01*
X156180970Y-66824168D01*
X156138398Y-66822828D01*
X156087661Y-66822419D01*
X156082706Y-66822420D01*
X156024464Y-66822965D01*
X155974802Y-66824655D01*
X155932180Y-66827730D01*
X155895058Y-66832429D01*
X155861897Y-66838992D01*
X155831156Y-66847659D01*
X155801297Y-66858670D01*
X155774762Y-66870378D01*
X155753441Y-66880931D01*
X155736384Y-66891076D01*
X155720802Y-66902902D01*
X155703905Y-66918500D01*
X155685421Y-66937331D01*
X155643318Y-66986595D01*
X155610207Y-67037705D01*
X155585625Y-67091863D01*
X155569109Y-67150270D01*
X155560193Y-67214127D01*
X155558216Y-67266820D01*
X155561934Y-67336676D01*
X155573368Y-67400625D01*
X155592937Y-67459528D01*
X155621062Y-67514249D01*
X155658162Y-67565651D01*
X155704657Y-67614599D01*
X155743692Y-67648409D01*
X155769858Y-67668574D01*
X155797444Y-67687849D01*
X155827199Y-67706567D01*
X155859871Y-67725064D01*
X155896209Y-67743673D01*
X155936960Y-67762727D01*
X155982873Y-67782561D01*
X156034697Y-67803509D01*
X156093180Y-67825905D01*
X156159071Y-67850082D01*
X156233117Y-67876376D01*
X156316067Y-67905118D01*
X156328482Y-67909373D01*
X156427743Y-67943986D01*
X156517703Y-67976728D01*
X156598988Y-68007886D01*
X156672225Y-68037750D01*
X156738040Y-68066606D01*
X156797060Y-68094744D01*
X156849912Y-68122452D01*
X156897221Y-68150017D01*
X156939615Y-68177728D01*
X156977720Y-68205873D01*
X156983971Y-68210847D01*
X157011939Y-68234947D01*
X157043359Y-68264659D01*
X157075692Y-68297387D01*
X157106400Y-68330535D01*
X157132945Y-68361507D01*
X157140349Y-68370794D01*
X157164816Y-68402200D01*
X156201482Y-68401210D01*
X156158302Y-68383771D01*
X156140940Y-68377062D01*
X156115961Y-68367826D01*
X156085375Y-68356782D01*
X156051190Y-68344654D01*
X156015416Y-68332163D01*
X155996497Y-68325642D01*
X155895019Y-68290155D01*
X155799036Y-68255221D01*
X155709068Y-68221061D01*
X155625636Y-68187895D01*
X155549261Y-68155943D01*
X155480463Y-68125425D01*
X155419761Y-68096562D01*
X155367678Y-68069573D01*
X155324733Y-68044680D01*
X155309942Y-68035166D01*
X155247413Y-67989158D01*
X155188063Y-67937041D01*
X155133337Y-67880406D01*
X155084680Y-67820845D01*
X155043537Y-67759950D01*
X155018233Y-67713860D01*
X154989708Y-67649186D01*
X154967354Y-67583078D01*
X154950840Y-67513923D01*
X154939834Y-67440108D01*
X154934007Y-67360018D01*
X154932833Y-67297300D01*
X154935146Y-67220374D01*
X154942313Y-67149925D01*
X154954866Y-67083236D01*
X154973335Y-67017590D01*
X154998254Y-66950268D01*
X155002875Y-66939160D01*
X155038026Y-66865519D01*
X155079184Y-66797881D01*
X155127791Y-66734105D01*
X155177862Y-66679488D01*
X155248847Y-66614917D01*
X155327403Y-66557061D01*
X155413423Y-66505986D01*
X155506794Y-66461757D01*
X155600389Y-66426742D01*
X155634441Y-66415908D01*
X155666407Y-66406813D01*
X155697647Y-66399294D01*
X155729517Y-66393185D01*
X155763378Y-66388321D01*
X155800585Y-66384537D01*
X155842499Y-66381668D01*
X155890477Y-66379550D01*
X155945876Y-66378017D01*
X156010057Y-66376905D01*
X156010982Y-66376892D01*
X156077102Y-66376229D01*
X156134656Y-66376266D01*
G37*
X156134656Y-66376266D02*
X156185218Y-66377110D01*
X156230366Y-66378870D01*
X156271674Y-66381653D01*
X156310719Y-66385566D01*
X156349076Y-66390717D01*
X156388322Y-66397215D01*
X156430032Y-66405165D01*
X156432622Y-66405686D01*
X156533318Y-66429941D01*
X156629350Y-66461015D01*
X156720172Y-66498533D01*
X156805236Y-66542121D01*
X156883997Y-66591405D01*
X156955907Y-66646010D01*
X157020422Y-66705560D01*
X157076994Y-66769683D01*
X157125077Y-66838003D01*
X157162045Y-66905714D01*
X157191588Y-66977750D01*
X157214933Y-67055022D01*
X157231186Y-67134098D01*
X157238679Y-67199101D01*
X157241863Y-67243960D01*
X157064572Y-67243924D01*
X157016383Y-67243868D01*
X156977093Y-67243683D01*
X156945439Y-67243309D01*
X156920162Y-67242688D01*
X156900000Y-67241762D01*
X156883692Y-67240470D01*
X156869976Y-67238755D01*
X156857591Y-67236557D01*
X156845277Y-67233818D01*
X156844643Y-67233667D01*
X156781562Y-67213570D01*
X156722686Y-67184474D01*
X156667837Y-67146249D01*
X156616841Y-67098765D01*
X156569520Y-67041895D01*
X156554481Y-67020755D01*
X156512542Y-66967782D01*
X156464981Y-66923242D01*
X156411547Y-66886941D01*
X156351987Y-66858686D01*
X156334691Y-66852365D01*
X156305798Y-66843143D01*
X156277790Y-66835927D01*
X156248856Y-66830503D01*
X156217186Y-66826655D01*
X156180970Y-66824168D01*
X156138398Y-66822828D01*
X156087661Y-66822419D01*
X156082706Y-66822420D01*
X156024464Y-66822965D01*
X155974802Y-66824655D01*
X155932180Y-66827730D01*
X155895058Y-66832429D01*
X155861897Y-66838992D01*
X155831156Y-66847659D01*
X155801297Y-66858670D01*
X155774762Y-66870378D01*
X155753441Y-66880931D01*
X155736384Y-66891076D01*
X155720802Y-66902902D01*
X155703905Y-66918500D01*
X155685421Y-66937331D01*
X155643318Y-66986595D01*
X155610207Y-67037705D01*
X155585625Y-67091863D01*
X155569109Y-67150270D01*
X155560193Y-67214127D01*
X155558216Y-67266820D01*
X155561934Y-67336676D01*
X155573368Y-67400625D01*
X155592937Y-67459528D01*
X155621062Y-67514249D01*
X155658162Y-67565651D01*
X155704657Y-67614599D01*
X155743692Y-67648409D01*
X155769858Y-67668574D01*
X155797444Y-67687849D01*
X155827199Y-67706567D01*
X155859871Y-67725064D01*
X155896209Y-67743673D01*
X155936960Y-67762727D01*
X155982873Y-67782561D01*
X156034697Y-67803509D01*
X156093180Y-67825905D01*
X156159071Y-67850082D01*
X156233117Y-67876376D01*
X156316067Y-67905118D01*
X156328482Y-67909373D01*
X156427743Y-67943986D01*
X156517703Y-67976728D01*
X156598988Y-68007886D01*
X156672225Y-68037750D01*
X156738040Y-68066606D01*
X156797060Y-68094744D01*
X156849912Y-68122452D01*
X156897221Y-68150017D01*
X156939615Y-68177728D01*
X156977720Y-68205873D01*
X156983971Y-68210847D01*
X157011939Y-68234947D01*
X157043359Y-68264659D01*
X157075692Y-68297387D01*
X157106400Y-68330535D01*
X157132945Y-68361507D01*
X157140349Y-68370794D01*
X157164816Y-68402200D01*
X156201482Y-68401210D01*
X156158302Y-68383771D01*
X156140940Y-68377062D01*
X156115961Y-68367826D01*
X156085375Y-68356782D01*
X156051190Y-68344654D01*
X156015416Y-68332163D01*
X155996497Y-68325642D01*
X155895019Y-68290155D01*
X155799036Y-68255221D01*
X155709068Y-68221061D01*
X155625636Y-68187895D01*
X155549261Y-68155943D01*
X155480463Y-68125425D01*
X155419761Y-68096562D01*
X155367678Y-68069573D01*
X155324733Y-68044680D01*
X155309942Y-68035166D01*
X155247413Y-67989158D01*
X155188063Y-67937041D01*
X155133337Y-67880406D01*
X155084680Y-67820845D01*
X155043537Y-67759950D01*
X155018233Y-67713860D01*
X154989708Y-67649186D01*
X154967354Y-67583078D01*
X154950840Y-67513923D01*
X154939834Y-67440108D01*
X154934007Y-67360018D01*
X154932833Y-67297300D01*
X154935146Y-67220374D01*
X154942313Y-67149925D01*
X154954866Y-67083236D01*
X154973335Y-67017590D01*
X154998254Y-66950268D01*
X155002875Y-66939160D01*
X155038026Y-66865519D01*
X155079184Y-66797881D01*
X155127791Y-66734105D01*
X155177862Y-66679488D01*
X155248847Y-66614917D01*
X155327403Y-66557061D01*
X155413423Y-66505986D01*
X155506794Y-66461757D01*
X155600389Y-66426742D01*
X155634441Y-66415908D01*
X155666407Y-66406813D01*
X155697647Y-66399294D01*
X155729517Y-66393185D01*
X155763378Y-66388321D01*
X155800585Y-66384537D01*
X155842499Y-66381668D01*
X155890477Y-66379550D01*
X155945876Y-66378017D01*
X156010057Y-66376905D01*
X156010982Y-66376892D01*
X156077102Y-66376229D01*
X156134656Y-66376266D01*
G36*
X147927503Y-66186475D02*
G01*
X148049182Y-66200770D01*
X148167702Y-66222097D01*
X148281708Y-66250366D01*
X148389846Y-66285486D01*
X148419260Y-66296681D01*
X148521400Y-66341030D01*
X148616619Y-66391160D01*
X148706415Y-66448057D01*
X148792283Y-66512705D01*
X148875718Y-66586090D01*
X148911993Y-66621350D01*
X148987001Y-66701066D01*
X149053180Y-66781776D01*
X149111816Y-66865377D01*
X149164199Y-66953770D01*
X149211618Y-67048851D01*
X149229403Y-67088994D01*
X149238160Y-67110288D01*
X149248248Y-67136224D01*
X149259062Y-67165083D01*
X149269995Y-67195148D01*
X149280445Y-67224703D01*
X149289804Y-67252029D01*
X149297468Y-67275411D01*
X149302832Y-67293129D01*
X149305291Y-67303468D01*
X149305382Y-67304600D01*
X149301377Y-67305845D01*
X149289186Y-67306913D01*
X149268545Y-67307809D01*
X149239187Y-67308537D01*
X149200847Y-67309102D01*
X149153260Y-67309509D01*
X149096162Y-67309761D01*
X149029286Y-67309864D01*
X148996772Y-67309863D01*
X148688162Y-67309726D01*
X148673533Y-67276976D01*
X148641879Y-67214823D01*
X148602304Y-67151347D01*
X148556447Y-67088672D01*
X148505944Y-67028923D01*
X148452433Y-66974225D01*
X148413842Y-66939896D01*
X148336746Y-66881361D01*
X148256151Y-66831612D01*
X148171274Y-66790306D01*
X148081336Y-66757098D01*
X147985552Y-66731645D01*
X147908382Y-66717276D01*
X147875402Y-66713354D01*
X147835336Y-66710478D01*
X147790475Y-66708648D01*
X147743111Y-66707865D01*
X147695536Y-66708127D01*
X147650042Y-66709436D01*
X147608919Y-66711790D01*
X147574461Y-66715190D01*
X147560402Y-66717290D01*
X147467245Y-66737289D01*
X147380512Y-66764027D01*
X147298467Y-66798187D01*
X147219375Y-66840456D01*
X147171782Y-66870550D01*
X147103870Y-66920629D01*
X147041293Y-66976643D01*
X146983327Y-67039436D01*
X146929248Y-67109853D01*
X146878333Y-67188739D01*
X146839474Y-67258357D01*
X146816381Y-67301032D01*
X146795511Y-67336409D01*
X146775347Y-67366637D01*
X146754372Y-67393866D01*
X146731068Y-67420243D01*
X146709611Y-67442293D01*
X146650313Y-67494219D01*
X146585292Y-67537902D01*
X146515272Y-67572893D01*
X146471850Y-67589300D01*
X146438488Y-67599596D01*
X146406300Y-67607442D01*
X146373128Y-67613113D01*
X146336811Y-67616887D01*
X146295191Y-67619041D01*
X146246107Y-67619853D01*
X146233759Y-67619880D01*
X146130188Y-67619880D01*
X146132663Y-67608450D01*
X146134529Y-67598072D01*
X146137220Y-67580974D01*
X146140216Y-67560503D01*
X146140794Y-67556380D01*
X146144241Y-67534245D01*
X146149136Y-67506204D01*
X146154756Y-67476274D01*
X146159059Y-67454780D01*
X146190283Y-67326453D01*
X146229630Y-67203468D01*
X146276844Y-67086096D01*
X146331670Y-66974607D01*
X146393852Y-66869273D01*
X146463134Y-66770366D01*
X146539261Y-66678156D01*
X146621978Y-66592915D01*
X146711029Y-66514913D01*
X146806158Y-66444423D01*
X146907109Y-66381715D01*
X147013628Y-66327061D01*
X147125459Y-66280731D01*
X147242346Y-66242997D01*
X147319102Y-66223617D01*
X147436269Y-66201406D01*
X147557047Y-66186677D01*
X147680081Y-66179338D01*
X147804018Y-66179301D01*
X147927503Y-66186475D01*
G37*
X147927503Y-66186475D02*
X148049182Y-66200770D01*
X148167702Y-66222097D01*
X148281708Y-66250366D01*
X148389846Y-66285486D01*
X148419260Y-66296681D01*
X148521400Y-66341030D01*
X148616619Y-66391160D01*
X148706415Y-66448057D01*
X148792283Y-66512705D01*
X148875718Y-66586090D01*
X148911993Y-66621350D01*
X148987001Y-66701066D01*
X149053180Y-66781776D01*
X149111816Y-66865377D01*
X149164199Y-66953770D01*
X149211618Y-67048851D01*
X149229403Y-67088994D01*
X149238160Y-67110288D01*
X149248248Y-67136224D01*
X149259062Y-67165083D01*
X149269995Y-67195148D01*
X149280445Y-67224703D01*
X149289804Y-67252029D01*
X149297468Y-67275411D01*
X149302832Y-67293129D01*
X149305291Y-67303468D01*
X149305382Y-67304600D01*
X149301377Y-67305845D01*
X149289186Y-67306913D01*
X149268545Y-67307809D01*
X149239187Y-67308537D01*
X149200847Y-67309102D01*
X149153260Y-67309509D01*
X149096162Y-67309761D01*
X149029286Y-67309864D01*
X148996772Y-67309863D01*
X148688162Y-67309726D01*
X148673533Y-67276976D01*
X148641879Y-67214823D01*
X148602304Y-67151347D01*
X148556447Y-67088672D01*
X148505944Y-67028923D01*
X148452433Y-66974225D01*
X148413842Y-66939896D01*
X148336746Y-66881361D01*
X148256151Y-66831612D01*
X148171274Y-66790306D01*
X148081336Y-66757098D01*
X147985552Y-66731645D01*
X147908382Y-66717276D01*
X147875402Y-66713354D01*
X147835336Y-66710478D01*
X147790475Y-66708648D01*
X147743111Y-66707865D01*
X147695536Y-66708127D01*
X147650042Y-66709436D01*
X147608919Y-66711790D01*
X147574461Y-66715190D01*
X147560402Y-66717290D01*
X147467245Y-66737289D01*
X147380512Y-66764027D01*
X147298467Y-66798187D01*
X147219375Y-66840456D01*
X147171782Y-66870550D01*
X147103870Y-66920629D01*
X147041293Y-66976643D01*
X146983327Y-67039436D01*
X146929248Y-67109853D01*
X146878333Y-67188739D01*
X146839474Y-67258357D01*
X146816381Y-67301032D01*
X146795511Y-67336409D01*
X146775347Y-67366637D01*
X146754372Y-67393866D01*
X146731068Y-67420243D01*
X146709611Y-67442293D01*
X146650313Y-67494219D01*
X146585292Y-67537902D01*
X146515272Y-67572893D01*
X146471850Y-67589300D01*
X146438488Y-67599596D01*
X146406300Y-67607442D01*
X146373128Y-67613113D01*
X146336811Y-67616887D01*
X146295191Y-67619041D01*
X146246107Y-67619853D01*
X146233759Y-67619880D01*
X146130188Y-67619880D01*
X146132663Y-67608450D01*
X146134529Y-67598072D01*
X146137220Y-67580974D01*
X146140216Y-67560503D01*
X146140794Y-67556380D01*
X146144241Y-67534245D01*
X146149136Y-67506204D01*
X146154756Y-67476274D01*
X146159059Y-67454780D01*
X146190283Y-67326453D01*
X146229630Y-67203468D01*
X146276844Y-67086096D01*
X146331670Y-66974607D01*
X146393852Y-66869273D01*
X146463134Y-66770366D01*
X146539261Y-66678156D01*
X146621978Y-66592915D01*
X146711029Y-66514913D01*
X146806158Y-66444423D01*
X146907109Y-66381715D01*
X147013628Y-66327061D01*
X147125459Y-66280731D01*
X147242346Y-66242997D01*
X147319102Y-66223617D01*
X147436269Y-66201406D01*
X147557047Y-66186677D01*
X147680081Y-66179338D01*
X147804018Y-66179301D01*
X147927503Y-66186475D01*
G36*
X153543699Y-66375967D02*
G01*
X153657688Y-66383627D01*
X153737682Y-66393479D01*
X153847367Y-66414029D01*
X153951318Y-66442192D01*
X154049263Y-66477771D01*
X154140933Y-66520571D01*
X154226056Y-66570397D01*
X154304362Y-66627052D01*
X154375579Y-66690341D01*
X154439438Y-66760069D01*
X154495667Y-66836039D01*
X154543997Y-66918056D01*
X154583867Y-67005200D01*
X154594308Y-67033965D01*
X154605687Y-67069463D01*
X154617086Y-67108437D01*
X154627586Y-67147630D01*
X154636268Y-67183786D01*
X154641529Y-67209670D01*
X154644922Y-67228720D01*
X154011712Y-67228720D01*
X154002550Y-67193155D01*
X153996542Y-67174374D01*
X153987050Y-67149882D01*
X153975404Y-67122921D01*
X153963520Y-67097905D01*
X153925808Y-67032469D01*
X153882319Y-66975375D01*
X153832987Y-66926565D01*
X153777748Y-66885978D01*
X153716538Y-66853557D01*
X153681836Y-66839729D01*
X153616670Y-66820930D01*
X153547597Y-66809219D01*
X153476620Y-66804560D01*
X153405744Y-66806920D01*
X153336973Y-66816265D01*
X153272312Y-66832559D01*
X153232063Y-66847442D01*
X153177932Y-66875301D01*
X153128008Y-66910540D01*
X153084149Y-66951650D01*
X153048916Y-66996071D01*
X153004081Y-67056230D01*
X152956355Y-67106980D01*
X152905102Y-67148819D01*
X152849682Y-67182245D01*
X152789460Y-67207755D01*
X152769880Y-67214085D01*
X152759467Y-67217082D01*
X152749314Y-67219527D01*
X152738244Y-67221488D01*
X152725078Y-67223036D01*
X152708640Y-67224241D01*
X152687752Y-67225172D01*
X152661236Y-67225900D01*
X152627917Y-67226495D01*
X152586615Y-67227026D01*
X152544363Y-67227479D01*
X152356884Y-67229402D01*
X152359997Y-67182071D01*
X152366731Y-67121677D01*
X152378829Y-67057742D01*
X152395412Y-66994743D01*
X152399279Y-66982370D01*
X152429973Y-66903339D01*
X152469644Y-66828507D01*
X152517868Y-66758222D01*
X152574223Y-66692828D01*
X152638285Y-66632671D01*
X152709631Y-66578096D01*
X152787838Y-66529448D01*
X152872483Y-66487072D01*
X152963143Y-66451315D01*
X153059393Y-66422520D01*
X153096146Y-66413743D01*
X153202199Y-66394181D01*
X153313667Y-66381316D01*
X153428263Y-66375221D01*
X153543699Y-66375967D01*
G37*
X153543699Y-66375967D02*
X153657688Y-66383627D01*
X153737682Y-66393479D01*
X153847367Y-66414029D01*
X153951318Y-66442192D01*
X154049263Y-66477771D01*
X154140933Y-66520571D01*
X154226056Y-66570397D01*
X154304362Y-66627052D01*
X154375579Y-66690341D01*
X154439438Y-66760069D01*
X154495667Y-66836039D01*
X154543997Y-66918056D01*
X154583867Y-67005200D01*
X154594308Y-67033965D01*
X154605687Y-67069463D01*
X154617086Y-67108437D01*
X154627586Y-67147630D01*
X154636268Y-67183786D01*
X154641529Y-67209670D01*
X154644922Y-67228720D01*
X154011712Y-67228720D01*
X154002550Y-67193155D01*
X153996542Y-67174374D01*
X153987050Y-67149882D01*
X153975404Y-67122921D01*
X153963520Y-67097905D01*
X153925808Y-67032469D01*
X153882319Y-66975375D01*
X153832987Y-66926565D01*
X153777748Y-66885978D01*
X153716538Y-66853557D01*
X153681836Y-66839729D01*
X153616670Y-66820930D01*
X153547597Y-66809219D01*
X153476620Y-66804560D01*
X153405744Y-66806920D01*
X153336973Y-66816265D01*
X153272312Y-66832559D01*
X153232063Y-66847442D01*
X153177932Y-66875301D01*
X153128008Y-66910540D01*
X153084149Y-66951650D01*
X153048916Y-66996071D01*
X153004081Y-67056230D01*
X152956355Y-67106980D01*
X152905102Y-67148819D01*
X152849682Y-67182245D01*
X152789460Y-67207755D01*
X152769880Y-67214085D01*
X152759467Y-67217082D01*
X152749314Y-67219527D01*
X152738244Y-67221488D01*
X152725078Y-67223036D01*
X152708640Y-67224241D01*
X152687752Y-67225172D01*
X152661236Y-67225900D01*
X152627917Y-67226495D01*
X152586615Y-67227026D01*
X152544363Y-67227479D01*
X152356884Y-67229402D01*
X152359997Y-67182071D01*
X152366731Y-67121677D01*
X152378829Y-67057742D01*
X152395412Y-66994743D01*
X152399279Y-66982370D01*
X152429973Y-66903339D01*
X152469644Y-66828507D01*
X152517868Y-66758222D01*
X152574223Y-66692828D01*
X152638285Y-66632671D01*
X152709631Y-66578096D01*
X152787838Y-66529448D01*
X152872483Y-66487072D01*
X152963143Y-66451315D01*
X153059393Y-66422520D01*
X153096146Y-66413743D01*
X153202199Y-66394181D01*
X153313667Y-66381316D01*
X153428263Y-66375221D01*
X153543699Y-66375967D01*
G36*
X158732337Y-66378212D02*
G01*
X158838729Y-66387769D01*
X158942107Y-66403337D01*
X159040959Y-66424845D01*
X159133773Y-66452221D01*
X159181210Y-66469559D01*
X159269780Y-66508648D01*
X159350903Y-66553556D01*
X159426074Y-66605281D01*
X159496786Y-66664817D01*
X159544122Y-66711348D01*
X159606920Y-66783953D01*
X159661205Y-66861994D01*
X159707023Y-66945562D01*
X159744420Y-67034750D01*
X159773442Y-67129648D01*
X159787836Y-67194430D01*
X159794401Y-67228720D01*
X159162089Y-67228720D01*
X159153420Y-67196693D01*
X159131831Y-67134685D01*
X159101292Y-67073600D01*
X159062955Y-67015437D01*
X159018409Y-66962651D01*
X158969556Y-66917285D01*
X158917063Y-66880158D01*
X158860019Y-66850860D01*
X158797512Y-66828983D01*
X158728630Y-66814118D01*
X158671804Y-66807289D01*
X158591526Y-66804712D01*
X158515794Y-66810932D01*
X158444812Y-66825903D01*
X158378784Y-66849580D01*
X158317914Y-66881916D01*
X158307074Y-66888952D01*
X158272902Y-66914008D01*
X158243434Y-66940927D01*
X158216103Y-66972339D01*
X158188743Y-67010280D01*
X158147859Y-67063602D01*
X158101234Y-67111049D01*
X158050408Y-67151253D01*
X157996921Y-67182845D01*
X157991548Y-67185448D01*
X157970881Y-67195155D01*
X157952772Y-67203148D01*
X157935957Y-67209606D01*
X157919167Y-67214708D01*
X157901138Y-67218631D01*
X157880602Y-67221555D01*
X157856293Y-67223658D01*
X157826944Y-67225119D01*
X157791289Y-67226115D01*
X157748061Y-67226826D01*
X157695995Y-67227431D01*
X157693551Y-67227457D01*
X157504140Y-67229484D01*
X157507238Y-67194812D01*
X157517265Y-67116726D01*
X157532961Y-67040636D01*
X157553750Y-66968721D01*
X157579056Y-66903160D01*
X157591100Y-66877629D01*
X157633569Y-66804200D01*
X157684768Y-66735425D01*
X157744227Y-66671653D01*
X157811474Y-66613229D01*
X157886039Y-66560501D01*
X157967451Y-66513816D01*
X158055239Y-66473520D01*
X158148932Y-66439960D01*
X158208082Y-66423126D01*
X158306866Y-66401543D01*
X158410196Y-66386332D01*
X158516558Y-66377421D01*
X158624443Y-66374739D01*
X158732337Y-66378212D01*
G37*
X158732337Y-66378212D02*
X158838729Y-66387769D01*
X158942107Y-66403337D01*
X159040959Y-66424845D01*
X159133773Y-66452221D01*
X159181210Y-66469559D01*
X159269780Y-66508648D01*
X159350903Y-66553556D01*
X159426074Y-66605281D01*
X159496786Y-66664817D01*
X159544122Y-66711348D01*
X159606920Y-66783953D01*
X159661205Y-66861994D01*
X159707023Y-66945562D01*
X159744420Y-67034750D01*
X159773442Y-67129648D01*
X159787836Y-67194430D01*
X159794401Y-67228720D01*
X159162089Y-67228720D01*
X159153420Y-67196693D01*
X159131831Y-67134685D01*
X159101292Y-67073600D01*
X159062955Y-67015437D01*
X159018409Y-66962651D01*
X158969556Y-66917285D01*
X158917063Y-66880158D01*
X158860019Y-66850860D01*
X158797512Y-66828983D01*
X158728630Y-66814118D01*
X158671804Y-66807289D01*
X158591526Y-66804712D01*
X158515794Y-66810932D01*
X158444812Y-66825903D01*
X158378784Y-66849580D01*
X158317914Y-66881916D01*
X158307074Y-66888952D01*
X158272902Y-66914008D01*
X158243434Y-66940927D01*
X158216103Y-66972339D01*
X158188743Y-67010280D01*
X158147859Y-67063602D01*
X158101234Y-67111049D01*
X158050408Y-67151253D01*
X157996921Y-67182845D01*
X157991548Y-67185448D01*
X157970881Y-67195155D01*
X157952772Y-67203148D01*
X157935957Y-67209606D01*
X157919167Y-67214708D01*
X157901138Y-67218631D01*
X157880602Y-67221555D01*
X157856293Y-67223658D01*
X157826944Y-67225119D01*
X157791289Y-67226115D01*
X157748061Y-67226826D01*
X157695995Y-67227431D01*
X157693551Y-67227457D01*
X157504140Y-67229484D01*
X157507238Y-67194812D01*
X157517265Y-67116726D01*
X157532961Y-67040636D01*
X157553750Y-66968721D01*
X157579056Y-66903160D01*
X157591100Y-66877629D01*
X157633569Y-66804200D01*
X157684768Y-66735425D01*
X157744227Y-66671653D01*
X157811474Y-66613229D01*
X157886039Y-66560501D01*
X157967451Y-66513816D01*
X158055239Y-66473520D01*
X158148932Y-66439960D01*
X158208082Y-66423126D01*
X158306866Y-66401543D01*
X158410196Y-66386332D01*
X158516558Y-66377421D01*
X158624443Y-66374739D01*
X158732337Y-66378212D01*
D11*
%TO.C,J1*%
X107762500Y-86100000D02*
X107762500Y-86550000D01*
X105912500Y-86100000D02*
X107762500Y-86100000D01*
X103362500Y-93900000D02*
X103612500Y-93900000D01*
X103362500Y-86100000D02*
X103612500Y-86100000D01*
X105912500Y-93900000D02*
X107762500Y-93900000D01*
X107762500Y-93900000D02*
X107762500Y-93450000D01*
X108312500Y-88300000D02*
X108312500Y-88750000D01*
X108312500Y-88300000D02*
X107862500Y-88300000D01*
%TO.C,C4*%
X118288748Y-112090000D02*
X119711252Y-112090000D01*
X118288748Y-113910000D02*
X119711252Y-113910000D01*
%TO.C,C7*%
X137090000Y-84711252D02*
X137090000Y-83288748D01*
X138910000Y-84711252D02*
X138910000Y-83288748D01*
%TO.C,C2*%
X114910000Y-78711252D02*
X114910000Y-77288748D01*
X113090000Y-78711252D02*
X113090000Y-77288748D01*
%TO.C,C3*%
X122711252Y-71090000D02*
X121288748Y-71090000D01*
X122711252Y-72910000D02*
X121288748Y-72910000D01*
%TO.C,C1*%
X113288748Y-100910000D02*
X114711252Y-100910000D01*
X113288748Y-99090000D02*
X114711252Y-99090000D01*
%TO.C,C5*%
X130288748Y-112090000D02*
X131711252Y-112090000D01*
X130288748Y-113910000D02*
X131711252Y-113910000D01*
%TO.C,C6*%
X128910000Y-94711252D02*
X128910000Y-93288748D01*
X127090000Y-94711252D02*
X127090000Y-93288748D01*
%TO.C,C9*%
X147426000Y-110032748D02*
X147426000Y-111455252D01*
X149246000Y-110032748D02*
X149246000Y-111455252D01*
%TO.C,C11*%
X144511252Y-97910000D02*
X143088748Y-97910000D01*
X144511252Y-96090000D02*
X143088748Y-96090000D01*
%TO.C,C14*%
X154288748Y-77090000D02*
X155711252Y-77090000D01*
X154288748Y-78910000D02*
X155711252Y-78910000D01*
%TO.C,C15*%
X148288748Y-78910000D02*
X149711252Y-78910000D01*
X148288748Y-77090000D02*
X149711252Y-77090000D01*
%TO.C,C16*%
X142288748Y-77090000D02*
X143711252Y-77090000D01*
X142288748Y-78910000D02*
X143711252Y-78910000D01*
%TO.C,C13*%
X148288748Y-82090000D02*
X149711252Y-82090000D01*
X148288748Y-83910000D02*
X149711252Y-83910000D01*
%TO.C,C17*%
X144511252Y-100090000D02*
X143088748Y-100090000D01*
X144511252Y-101910000D02*
X143088748Y-101910000D01*
%TO.C,C12*%
X154288748Y-83910000D02*
X155711252Y-83910000D01*
X154288748Y-82090000D02*
X155711252Y-82090000D01*
%TO.C,D1*%
X115135000Y-85600000D02*
X115135000Y-81540000D01*
X115135000Y-81540000D02*
X112865000Y-81540000D01*
X112865000Y-81540000D02*
X112865000Y-85600000D01*
%TO.C,Power*%
X131235000Y-85100000D02*
X131235000Y-81040000D01*
X131235000Y-81040000D02*
X128965000Y-81040000D01*
X128965000Y-81040000D02*
X128965000Y-85100000D01*
%TO.C,C10*%
X142288748Y-82090000D02*
X143711252Y-82090000D01*
X142288748Y-83910000D02*
X143711252Y-83910000D01*
%TO.C,C8*%
X146198000Y-110032748D02*
X146198000Y-111455252D01*
X144378000Y-110032748D02*
X144378000Y-111455252D01*
%TO.C,J2*%
X174270000Y-105530000D02*
X174270000Y-102870000D01*
X174270000Y-105530000D02*
X192110000Y-105530000D01*
X192110000Y-105530000D02*
X192110000Y-102870000D01*
X174270000Y-102870000D02*
X192110000Y-102870000D01*
X171670000Y-102870000D02*
X173000000Y-102870000D01*
X171670000Y-104200000D02*
X171670000Y-102870000D01*
%TO.C,R2*%
X137910000Y-110272936D02*
X137910000Y-111727064D01*
X136090000Y-110272936D02*
X136090000Y-111727064D01*
%TO.C,R5*%
X115527064Y-91890000D02*
X114072936Y-91890000D01*
X115527064Y-93710000D02*
X114072936Y-93710000D01*
%TO.C,Q2*%
X133760000Y-96580000D02*
X132300000Y-96580000D01*
X133760000Y-93420000D02*
X131600000Y-93420000D01*
X133760000Y-93420000D02*
X133760000Y-94350000D01*
X133760000Y-96580000D02*
X133760000Y-95650000D01*
%TO.C,SW2*%
X129850000Y-107450000D02*
X128800000Y-107450000D01*
X133200000Y-109050000D02*
X133200000Y-108950000D01*
X128800000Y-110550000D02*
X133200000Y-110550000D01*
X133200000Y-107450000D02*
X132150000Y-107450000D01*
X128800000Y-109050000D02*
X128800000Y-108950000D01*
%TO.C,R7*%
X128910000Y-99272936D02*
X128910000Y-100727064D01*
X127090000Y-99272936D02*
X127090000Y-100727064D01*
%TO.C,R8*%
X138910000Y-89272936D02*
X138910000Y-90727064D01*
X137090000Y-89272936D02*
X137090000Y-90727064D01*
%TO.C,R9*%
X147490000Y-98272936D02*
X147490000Y-99727064D01*
X149310000Y-98272936D02*
X149310000Y-99727064D01*
%TO.C,R11*%
X154910000Y-89272936D02*
X154910000Y-90727064D01*
X153090000Y-89272936D02*
X153090000Y-90727064D01*
%TO.C,J3*%
X191930000Y-75800000D02*
X191930000Y-77130000D01*
X191930000Y-77130000D02*
X190600000Y-77130000D01*
X189330000Y-77130000D02*
X171490000Y-77130000D01*
X171490000Y-74470000D02*
X171490000Y-77130000D01*
X189330000Y-74470000D02*
X171490000Y-74470000D01*
X189330000Y-74470000D02*
X189330000Y-77130000D01*
%TO.C,R6*%
X115327064Y-96610000D02*
X113872936Y-96610000D01*
X115327064Y-94790000D02*
X113872936Y-94790000D01*
%TO.C,R10*%
X141160000Y-105272936D02*
X141160000Y-106727064D01*
X139340000Y-105272936D02*
X139340000Y-106727064D01*
%TO.C,R1*%
X124090000Y-110272936D02*
X124090000Y-111727064D01*
X125910000Y-110272936D02*
X125910000Y-111727064D01*
%TO.C,R3*%
X138910000Y-97727064D02*
X138910000Y-96272936D01*
X137090000Y-97727064D02*
X137090000Y-96272936D01*
%TO.C,R4*%
X130910000Y-78727064D02*
X130910000Y-77272936D01*
X129090000Y-78727064D02*
X129090000Y-77272936D01*
%TO.C,SW1*%
X116800000Y-109050000D02*
X116800000Y-108950000D01*
X121200000Y-107450000D02*
X120150000Y-107450000D01*
X116800000Y-110550000D02*
X121200000Y-110550000D01*
X121200000Y-109050000D02*
X121200000Y-108950000D01*
X117850000Y-107450000D02*
X116800000Y-107450000D01*
%TO.C,U1*%
X123910000Y-83410000D02*
X123910000Y-82150000D01*
X123910000Y-76590000D02*
X123910000Y-77850000D01*
X120150000Y-83410000D02*
X123910000Y-83410000D01*
X117900000Y-76590000D02*
X123910000Y-76590000D01*
D12*
%TO.C,U2*%
X124075000Y-100365000D02*
X124075000Y-101475000D01*
X119925000Y-101475000D02*
X119925000Y-100365000D01*
X119925000Y-92525000D02*
X119925000Y-93635000D01*
X124075000Y-92525000D02*
X124075000Y-93635000D01*
X124075000Y-101475000D02*
X119925000Y-101475000D01*
X124075000Y-92525000D02*
X119925000Y-92525000D01*
X124075000Y-100365000D02*
X125200000Y-100365000D01*
D11*
%TO.C,Q1*%
X133760000Y-100580000D02*
X133760000Y-99650000D01*
X133760000Y-97420000D02*
X133760000Y-98350000D01*
X133760000Y-97420000D02*
X131600000Y-97420000D01*
X133760000Y-100580000D02*
X132300000Y-100580000D01*
%TO.C,U3*%
X150135000Y-86390000D02*
X150610000Y-86390000D01*
X150610000Y-86390000D02*
X150610000Y-86865000D01*
X143865000Y-93610000D02*
X143390000Y-93610000D01*
X143390000Y-93610000D02*
X143390000Y-93135000D01*
X150135000Y-93610000D02*
X150610000Y-93610000D01*
X150610000Y-93610000D02*
X150610000Y-93135000D01*
X143865000Y-86390000D02*
X143390000Y-86390000D01*
D13*
%TO.C,U4*%
X153250000Y-97200000D02*
X153250000Y-112800000D01*
X160750000Y-112800000D02*
X160750000Y-97200000D01*
X160750000Y-97200000D02*
X153250000Y-97200000D01*
X153250000Y-112800000D02*
X160750000Y-112800000D01*
D14*
X163604000Y-112366000D02*
X163604000Y-111604000D01*
D11*
%TO.C,Test*%
X122639999Y-89220001D02*
X122639999Y-85160001D01*
X122639999Y-85160001D02*
X120369999Y-85160001D01*
X120369999Y-85160001D02*
X120369999Y-89220001D01*
%TO.C,R12*%
X119074999Y-86847937D02*
X119074999Y-88302065D01*
X117254999Y-86847937D02*
X117254999Y-88302065D01*
%TO.C,C4*%
X118866666Y-113285714D02*
X118828571Y-113323809D01*
X118714285Y-113361904D01*
X118638095Y-113361904D01*
X118523809Y-113323809D01*
X118447619Y-113247619D01*
X118409523Y-113171428D01*
X118371428Y-113019047D01*
X118371428Y-112904761D01*
X118409523Y-112752380D01*
X118447619Y-112676190D01*
X118523809Y-112600000D01*
X118638095Y-112561904D01*
X118714285Y-112561904D01*
X118828571Y-112600000D01*
X118866666Y-112638095D01*
X119552380Y-112828571D02*
X119552380Y-113361904D01*
X119361904Y-112523809D02*
X119171428Y-113095238D01*
X119666666Y-113095238D01*
%TO.C,C7*%
X138285714Y-84133333D02*
X138323809Y-84171428D01*
X138361904Y-84285714D01*
X138361904Y-84361904D01*
X138323809Y-84476190D01*
X138247619Y-84552380D01*
X138171428Y-84590476D01*
X138019047Y-84628571D01*
X137904761Y-84628571D01*
X137752380Y-84590476D01*
X137676190Y-84552380D01*
X137600000Y-84476190D01*
X137561904Y-84361904D01*
X137561904Y-84285714D01*
X137600000Y-84171428D01*
X137638095Y-84133333D01*
X137561904Y-83866666D02*
X137561904Y-83333333D01*
X138361904Y-83676190D01*
%TO.C,C2*%
X114285714Y-78133333D02*
X114323809Y-78171428D01*
X114361904Y-78285714D01*
X114361904Y-78361904D01*
X114323809Y-78476190D01*
X114247619Y-78552380D01*
X114171428Y-78590476D01*
X114019047Y-78628571D01*
X113904761Y-78628571D01*
X113752380Y-78590476D01*
X113676190Y-78552380D01*
X113600000Y-78476190D01*
X113561904Y-78361904D01*
X113561904Y-78285714D01*
X113600000Y-78171428D01*
X113638095Y-78133333D01*
X113638095Y-77828571D02*
X113600000Y-77790476D01*
X113561904Y-77714285D01*
X113561904Y-77523809D01*
X113600000Y-77447619D01*
X113638095Y-77409523D01*
X113714285Y-77371428D01*
X113790476Y-77371428D01*
X113904761Y-77409523D01*
X114361904Y-77866666D01*
X114361904Y-77371428D01*
%TO.C,C3*%
X121866666Y-72285714D02*
X121828571Y-72323809D01*
X121714285Y-72361904D01*
X121638095Y-72361904D01*
X121523809Y-72323809D01*
X121447619Y-72247619D01*
X121409523Y-72171428D01*
X121371428Y-72019047D01*
X121371428Y-71904761D01*
X121409523Y-71752380D01*
X121447619Y-71676190D01*
X121523809Y-71600000D01*
X121638095Y-71561904D01*
X121714285Y-71561904D01*
X121828571Y-71600000D01*
X121866666Y-71638095D01*
X122133333Y-71561904D02*
X122628571Y-71561904D01*
X122361904Y-71866666D01*
X122476190Y-71866666D01*
X122552380Y-71904761D01*
X122590476Y-71942857D01*
X122628571Y-72019047D01*
X122628571Y-72209523D01*
X122590476Y-72285714D01*
X122552380Y-72323809D01*
X122476190Y-72361904D01*
X122247619Y-72361904D01*
X122171428Y-72323809D01*
X122133333Y-72285714D01*
%TO.C,C1*%
X113866666Y-100285714D02*
X113828571Y-100323809D01*
X113714285Y-100361904D01*
X113638095Y-100361904D01*
X113523809Y-100323809D01*
X113447619Y-100247619D01*
X113409523Y-100171428D01*
X113371428Y-100019047D01*
X113371428Y-99904761D01*
X113409523Y-99752380D01*
X113447619Y-99676190D01*
X113523809Y-99600000D01*
X113638095Y-99561904D01*
X113714285Y-99561904D01*
X113828571Y-99600000D01*
X113866666Y-99638095D01*
X114628571Y-100361904D02*
X114171428Y-100361904D01*
X114400000Y-100361904D02*
X114400000Y-99561904D01*
X114323809Y-99676190D01*
X114247619Y-99752380D01*
X114171428Y-99790476D01*
%TO.C,C5*%
X130866666Y-113285714D02*
X130828571Y-113323809D01*
X130714285Y-113361904D01*
X130638095Y-113361904D01*
X130523809Y-113323809D01*
X130447619Y-113247619D01*
X130409523Y-113171428D01*
X130371428Y-113019047D01*
X130371428Y-112904761D01*
X130409523Y-112752380D01*
X130447619Y-112676190D01*
X130523809Y-112600000D01*
X130638095Y-112561904D01*
X130714285Y-112561904D01*
X130828571Y-112600000D01*
X130866666Y-112638095D01*
X131590476Y-112561904D02*
X131209523Y-112561904D01*
X131171428Y-112942857D01*
X131209523Y-112904761D01*
X131285714Y-112866666D01*
X131476190Y-112866666D01*
X131552380Y-112904761D01*
X131590476Y-112942857D01*
X131628571Y-113019047D01*
X131628571Y-113209523D01*
X131590476Y-113285714D01*
X131552380Y-113323809D01*
X131476190Y-113361904D01*
X131285714Y-113361904D01*
X131209523Y-113323809D01*
X131171428Y-113285714D01*
%TO.C,C6*%
X128285714Y-94133333D02*
X128323809Y-94171428D01*
X128361904Y-94285714D01*
X128361904Y-94361904D01*
X128323809Y-94476190D01*
X128247619Y-94552380D01*
X128171428Y-94590476D01*
X128019047Y-94628571D01*
X127904761Y-94628571D01*
X127752380Y-94590476D01*
X127676190Y-94552380D01*
X127600000Y-94476190D01*
X127561904Y-94361904D01*
X127561904Y-94285714D01*
X127600000Y-94171428D01*
X127638095Y-94133333D01*
X127561904Y-93447619D02*
X127561904Y-93600000D01*
X127600000Y-93676190D01*
X127638095Y-93714285D01*
X127752380Y-93790476D01*
X127904761Y-93828571D01*
X128209523Y-93828571D01*
X128285714Y-93790476D01*
X128323809Y-93752380D01*
X128361904Y-93676190D01*
X128361904Y-93523809D01*
X128323809Y-93447619D01*
X128285714Y-93409523D01*
X128209523Y-93371428D01*
X128019047Y-93371428D01*
X127942857Y-93409523D01*
X127904761Y-93447619D01*
X127866666Y-93523809D01*
X127866666Y-93676190D01*
X127904761Y-93752380D01*
X127942857Y-93790476D01*
X128019047Y-93828571D01*
%TO.C,C9*%
X148621714Y-110877333D02*
X148659809Y-110915428D01*
X148697904Y-111029714D01*
X148697904Y-111105904D01*
X148659809Y-111220190D01*
X148583619Y-111296380D01*
X148507428Y-111334476D01*
X148355047Y-111372571D01*
X148240761Y-111372571D01*
X148088380Y-111334476D01*
X148012190Y-111296380D01*
X147936000Y-111220190D01*
X147897904Y-111105904D01*
X147897904Y-111029714D01*
X147936000Y-110915428D01*
X147974095Y-110877333D01*
X148697904Y-110496380D02*
X148697904Y-110344000D01*
X148659809Y-110267809D01*
X148621714Y-110229714D01*
X148507428Y-110153523D01*
X148355047Y-110115428D01*
X148050285Y-110115428D01*
X147974095Y-110153523D01*
X147936000Y-110191619D01*
X147897904Y-110267809D01*
X147897904Y-110420190D01*
X147936000Y-110496380D01*
X147974095Y-110534476D01*
X148050285Y-110572571D01*
X148240761Y-110572571D01*
X148316952Y-110534476D01*
X148355047Y-110496380D01*
X148393142Y-110420190D01*
X148393142Y-110267809D01*
X148355047Y-110191619D01*
X148316952Y-110153523D01*
X148240761Y-110115428D01*
%TO.C,C11*%
X143285714Y-97285714D02*
X143247619Y-97323809D01*
X143133333Y-97361904D01*
X143057142Y-97361904D01*
X142942857Y-97323809D01*
X142866666Y-97247619D01*
X142828571Y-97171428D01*
X142790476Y-97019047D01*
X142790476Y-96904761D01*
X142828571Y-96752380D01*
X142866666Y-96676190D01*
X142942857Y-96600000D01*
X143057142Y-96561904D01*
X143133333Y-96561904D01*
X143247619Y-96600000D01*
X143285714Y-96638095D01*
X144047619Y-97361904D02*
X143590476Y-97361904D01*
X143819047Y-97361904D02*
X143819047Y-96561904D01*
X143742857Y-96676190D01*
X143666666Y-96752380D01*
X143590476Y-96790476D01*
X144809523Y-97361904D02*
X144352380Y-97361904D01*
X144580952Y-97361904D02*
X144580952Y-96561904D01*
X144504761Y-96676190D01*
X144428571Y-96752380D01*
X144352380Y-96790476D01*
%TO.C,C14*%
X154485714Y-78285714D02*
X154447619Y-78323809D01*
X154333333Y-78361904D01*
X154257142Y-78361904D01*
X154142857Y-78323809D01*
X154066666Y-78247619D01*
X154028571Y-78171428D01*
X153990476Y-78019047D01*
X153990476Y-77904761D01*
X154028571Y-77752380D01*
X154066666Y-77676190D01*
X154142857Y-77600000D01*
X154257142Y-77561904D01*
X154333333Y-77561904D01*
X154447619Y-77600000D01*
X154485714Y-77638095D01*
X155247619Y-78361904D02*
X154790476Y-78361904D01*
X155019047Y-78361904D02*
X155019047Y-77561904D01*
X154942857Y-77676190D01*
X154866666Y-77752380D01*
X154790476Y-77790476D01*
X155933333Y-77828571D02*
X155933333Y-78361904D01*
X155742857Y-77523809D02*
X155552380Y-78095238D01*
X156047619Y-78095238D01*
%TO.C,C15*%
X148485714Y-78285714D02*
X148447619Y-78323809D01*
X148333333Y-78361904D01*
X148257142Y-78361904D01*
X148142857Y-78323809D01*
X148066666Y-78247619D01*
X148028571Y-78171428D01*
X147990476Y-78019047D01*
X147990476Y-77904761D01*
X148028571Y-77752380D01*
X148066666Y-77676190D01*
X148142857Y-77600000D01*
X148257142Y-77561904D01*
X148333333Y-77561904D01*
X148447619Y-77600000D01*
X148485714Y-77638095D01*
X149247619Y-78361904D02*
X148790476Y-78361904D01*
X149019047Y-78361904D02*
X149019047Y-77561904D01*
X148942857Y-77676190D01*
X148866666Y-77752380D01*
X148790476Y-77790476D01*
X149971428Y-77561904D02*
X149590476Y-77561904D01*
X149552380Y-77942857D01*
X149590476Y-77904761D01*
X149666666Y-77866666D01*
X149857142Y-77866666D01*
X149933333Y-77904761D01*
X149971428Y-77942857D01*
X150009523Y-78019047D01*
X150009523Y-78209523D01*
X149971428Y-78285714D01*
X149933333Y-78323809D01*
X149857142Y-78361904D01*
X149666666Y-78361904D01*
X149590476Y-78323809D01*
X149552380Y-78285714D01*
%TO.C,C16*%
X142485714Y-78285714D02*
X142447619Y-78323809D01*
X142333333Y-78361904D01*
X142257142Y-78361904D01*
X142142857Y-78323809D01*
X142066666Y-78247619D01*
X142028571Y-78171428D01*
X141990476Y-78019047D01*
X141990476Y-77904761D01*
X142028571Y-77752380D01*
X142066666Y-77676190D01*
X142142857Y-77600000D01*
X142257142Y-77561904D01*
X142333333Y-77561904D01*
X142447619Y-77600000D01*
X142485714Y-77638095D01*
X143247619Y-78361904D02*
X142790476Y-78361904D01*
X143019047Y-78361904D02*
X143019047Y-77561904D01*
X142942857Y-77676190D01*
X142866666Y-77752380D01*
X142790476Y-77790476D01*
X143933333Y-77561904D02*
X143780952Y-77561904D01*
X143704761Y-77600000D01*
X143666666Y-77638095D01*
X143590476Y-77752380D01*
X143552380Y-77904761D01*
X143552380Y-78209523D01*
X143590476Y-78285714D01*
X143628571Y-78323809D01*
X143704761Y-78361904D01*
X143857142Y-78361904D01*
X143933333Y-78323809D01*
X143971428Y-78285714D01*
X144009523Y-78209523D01*
X144009523Y-78019047D01*
X143971428Y-77942857D01*
X143933333Y-77904761D01*
X143857142Y-77866666D01*
X143704761Y-77866666D01*
X143628571Y-77904761D01*
X143590476Y-77942857D01*
X143552380Y-78019047D01*
%TO.C,C13*%
X148485714Y-83285714D02*
X148447619Y-83323809D01*
X148333333Y-83361904D01*
X148257142Y-83361904D01*
X148142857Y-83323809D01*
X148066666Y-83247619D01*
X148028571Y-83171428D01*
X147990476Y-83019047D01*
X147990476Y-82904761D01*
X148028571Y-82752380D01*
X148066666Y-82676190D01*
X148142857Y-82600000D01*
X148257142Y-82561904D01*
X148333333Y-82561904D01*
X148447619Y-82600000D01*
X148485714Y-82638095D01*
X149247619Y-83361904D02*
X148790476Y-83361904D01*
X149019047Y-83361904D02*
X149019047Y-82561904D01*
X148942857Y-82676190D01*
X148866666Y-82752380D01*
X148790476Y-82790476D01*
X149514285Y-82561904D02*
X150009523Y-82561904D01*
X149742857Y-82866666D01*
X149857142Y-82866666D01*
X149933333Y-82904761D01*
X149971428Y-82942857D01*
X150009523Y-83019047D01*
X150009523Y-83209523D01*
X149971428Y-83285714D01*
X149933333Y-83323809D01*
X149857142Y-83361904D01*
X149628571Y-83361904D01*
X149552380Y-83323809D01*
X149514285Y-83285714D01*
%TO.C,C17*%
X143285714Y-101285714D02*
X143247619Y-101323809D01*
X143133333Y-101361904D01*
X143057142Y-101361904D01*
X142942857Y-101323809D01*
X142866666Y-101247619D01*
X142828571Y-101171428D01*
X142790476Y-101019047D01*
X142790476Y-100904761D01*
X142828571Y-100752380D01*
X142866666Y-100676190D01*
X142942857Y-100600000D01*
X143057142Y-100561904D01*
X143133333Y-100561904D01*
X143247619Y-100600000D01*
X143285714Y-100638095D01*
X144047619Y-101361904D02*
X143590476Y-101361904D01*
X143819047Y-101361904D02*
X143819047Y-100561904D01*
X143742857Y-100676190D01*
X143666666Y-100752380D01*
X143590476Y-100790476D01*
X144314285Y-100561904D02*
X144847619Y-100561904D01*
X144504761Y-101361904D01*
%TO.C,C12*%
X154485714Y-83285714D02*
X154447619Y-83323809D01*
X154333333Y-83361904D01*
X154257142Y-83361904D01*
X154142857Y-83323809D01*
X154066666Y-83247619D01*
X154028571Y-83171428D01*
X153990476Y-83019047D01*
X153990476Y-82904761D01*
X154028571Y-82752380D01*
X154066666Y-82676190D01*
X154142857Y-82600000D01*
X154257142Y-82561904D01*
X154333333Y-82561904D01*
X154447619Y-82600000D01*
X154485714Y-82638095D01*
X155247619Y-83361904D02*
X154790476Y-83361904D01*
X155019047Y-83361904D02*
X155019047Y-82561904D01*
X154942857Y-82676190D01*
X154866666Y-82752380D01*
X154790476Y-82790476D01*
X155552380Y-82638095D02*
X155590476Y-82600000D01*
X155666666Y-82561904D01*
X155857142Y-82561904D01*
X155933333Y-82600000D01*
X155971428Y-82638095D01*
X156009523Y-82714285D01*
X156009523Y-82790476D01*
X155971428Y-82904761D01*
X155514285Y-83361904D01*
X156009523Y-83361904D01*
%TO.C,D1*%
X114361904Y-84590476D02*
X113561904Y-84590476D01*
X113561904Y-84400000D01*
X113600000Y-84285714D01*
X113676190Y-84209523D01*
X113752380Y-84171428D01*
X113904761Y-84133333D01*
X114019047Y-84133333D01*
X114171428Y-84171428D01*
X114247619Y-84209523D01*
X114323809Y-84285714D01*
X114361904Y-84400000D01*
X114361904Y-84590476D01*
X114361904Y-83371428D02*
X114361904Y-83828571D01*
X114361904Y-83600000D02*
X113561904Y-83600000D01*
X113676190Y-83676190D01*
X113752380Y-83752380D01*
X113790476Y-83828571D01*
%TO.C,Power*%
D12*
X132372380Y-85476190D02*
X131372380Y-85476190D01*
X131372380Y-85095238D01*
X131420000Y-85000000D01*
X131467619Y-84952380D01*
X131562857Y-84904761D01*
X131705714Y-84904761D01*
X131800952Y-84952380D01*
X131848571Y-85000000D01*
X131896190Y-85095238D01*
X131896190Y-85476190D01*
X132372380Y-84333333D02*
X132324761Y-84428571D01*
X132277142Y-84476190D01*
X132181904Y-84523809D01*
X131896190Y-84523809D01*
X131800952Y-84476190D01*
X131753333Y-84428571D01*
X131705714Y-84333333D01*
X131705714Y-84190476D01*
X131753333Y-84095238D01*
X131800952Y-84047619D01*
X131896190Y-84000000D01*
X132181904Y-84000000D01*
X132277142Y-84047619D01*
X132324761Y-84095238D01*
X132372380Y-84190476D01*
X132372380Y-84333333D01*
X131705714Y-83666666D02*
X132372380Y-83476190D01*
X131896190Y-83285714D01*
X132372380Y-83095238D01*
X131705714Y-82904761D01*
X132324761Y-82142857D02*
X132372380Y-82238095D01*
X132372380Y-82428571D01*
X132324761Y-82523809D01*
X132229523Y-82571428D01*
X131848571Y-82571428D01*
X131753333Y-82523809D01*
X131705714Y-82428571D01*
X131705714Y-82238095D01*
X131753333Y-82142857D01*
X131848571Y-82095238D01*
X131943809Y-82095238D01*
X132039047Y-82571428D01*
X132372380Y-81666666D02*
X131705714Y-81666666D01*
X131896190Y-81666666D02*
X131800952Y-81619047D01*
X131753333Y-81571428D01*
X131705714Y-81476190D01*
X131705714Y-81380952D01*
D11*
X130461904Y-85080952D02*
X129661904Y-85080952D01*
X129661904Y-84776190D01*
X129700000Y-84700000D01*
X129738095Y-84661904D01*
X129814285Y-84623809D01*
X129928571Y-84623809D01*
X130004761Y-84661904D01*
X130042857Y-84700000D01*
X130080952Y-84776190D01*
X130080952Y-85080952D01*
X130461904Y-84166666D02*
X130423809Y-84242857D01*
X130385714Y-84280952D01*
X130309523Y-84319047D01*
X130080952Y-84319047D01*
X130004761Y-84280952D01*
X129966666Y-84242857D01*
X129928571Y-84166666D01*
X129928571Y-84052380D01*
X129966666Y-83976190D01*
X130004761Y-83938095D01*
X130080952Y-83900000D01*
X130309523Y-83900000D01*
X130385714Y-83938095D01*
X130423809Y-83976190D01*
X130461904Y-84052380D01*
X130461904Y-84166666D01*
X129928571Y-83633333D02*
X130461904Y-83480952D01*
X130080952Y-83328571D01*
X130461904Y-83176190D01*
X129928571Y-83023809D01*
X130423809Y-82414285D02*
X130461904Y-82490476D01*
X130461904Y-82642857D01*
X130423809Y-82719047D01*
X130347619Y-82757142D01*
X130042857Y-82757142D01*
X129966666Y-82719047D01*
X129928571Y-82642857D01*
X129928571Y-82490476D01*
X129966666Y-82414285D01*
X130042857Y-82376190D01*
X130119047Y-82376190D01*
X130195238Y-82757142D01*
X130461904Y-82033333D02*
X129928571Y-82033333D01*
X130080952Y-82033333D02*
X130004761Y-81995238D01*
X129966666Y-81957142D01*
X129928571Y-81880952D01*
X129928571Y-81804761D01*
%TO.C,C10*%
X142485714Y-83285714D02*
X142447619Y-83323809D01*
X142333333Y-83361904D01*
X142257142Y-83361904D01*
X142142857Y-83323809D01*
X142066666Y-83247619D01*
X142028571Y-83171428D01*
X141990476Y-83019047D01*
X141990476Y-82904761D01*
X142028571Y-82752380D01*
X142066666Y-82676190D01*
X142142857Y-82600000D01*
X142257142Y-82561904D01*
X142333333Y-82561904D01*
X142447619Y-82600000D01*
X142485714Y-82638095D01*
X143247619Y-83361904D02*
X142790476Y-83361904D01*
X143019047Y-83361904D02*
X143019047Y-82561904D01*
X142942857Y-82676190D01*
X142866666Y-82752380D01*
X142790476Y-82790476D01*
X143742857Y-82561904D02*
X143819047Y-82561904D01*
X143895238Y-82600000D01*
X143933333Y-82638095D01*
X143971428Y-82714285D01*
X144009523Y-82866666D01*
X144009523Y-83057142D01*
X143971428Y-83209523D01*
X143933333Y-83285714D01*
X143895238Y-83323809D01*
X143819047Y-83361904D01*
X143742857Y-83361904D01*
X143666666Y-83323809D01*
X143628571Y-83285714D01*
X143590476Y-83209523D01*
X143552380Y-83057142D01*
X143552380Y-82866666D01*
X143590476Y-82714285D01*
X143628571Y-82638095D01*
X143666666Y-82600000D01*
X143742857Y-82561904D01*
%TO.C,C8*%
X145573714Y-110877333D02*
X145611809Y-110915428D01*
X145649904Y-111029714D01*
X145649904Y-111105904D01*
X145611809Y-111220190D01*
X145535619Y-111296380D01*
X145459428Y-111334476D01*
X145307047Y-111372571D01*
X145192761Y-111372571D01*
X145040380Y-111334476D01*
X144964190Y-111296380D01*
X144888000Y-111220190D01*
X144849904Y-111105904D01*
X144849904Y-111029714D01*
X144888000Y-110915428D01*
X144926095Y-110877333D01*
X145192761Y-110420190D02*
X145154666Y-110496380D01*
X145116571Y-110534476D01*
X145040380Y-110572571D01*
X145002285Y-110572571D01*
X144926095Y-110534476D01*
X144888000Y-110496380D01*
X144849904Y-110420190D01*
X144849904Y-110267809D01*
X144888000Y-110191619D01*
X144926095Y-110153523D01*
X145002285Y-110115428D01*
X145040380Y-110115428D01*
X145116571Y-110153523D01*
X145154666Y-110191619D01*
X145192761Y-110267809D01*
X145192761Y-110420190D01*
X145230857Y-110496380D01*
X145268952Y-110534476D01*
X145345142Y-110572571D01*
X145497523Y-110572571D01*
X145573714Y-110534476D01*
X145611809Y-110496380D01*
X145649904Y-110420190D01*
X145649904Y-110267809D01*
X145611809Y-110191619D01*
X145573714Y-110153523D01*
X145497523Y-110115428D01*
X145345142Y-110115428D01*
X145268952Y-110153523D01*
X145230857Y-110191619D01*
X145192761Y-110267809D01*
%TO.C,R5*%
X114666666Y-93261904D02*
X114400000Y-92880952D01*
X114209523Y-93261904D02*
X114209523Y-92461904D01*
X114514285Y-92461904D01*
X114590476Y-92500000D01*
X114628571Y-92538095D01*
X114666666Y-92614285D01*
X114666666Y-92728571D01*
X114628571Y-92804761D01*
X114590476Y-92842857D01*
X114514285Y-92880952D01*
X114209523Y-92880952D01*
X115390476Y-92461904D02*
X115009523Y-92461904D01*
X114971428Y-92842857D01*
X115009523Y-92804761D01*
X115085714Y-92766666D01*
X115276190Y-92766666D01*
X115352380Y-92804761D01*
X115390476Y-92842857D01*
X115428571Y-92919047D01*
X115428571Y-93109523D01*
X115390476Y-93185714D01*
X115352380Y-93223809D01*
X115276190Y-93261904D01*
X115085714Y-93261904D01*
X115009523Y-93223809D01*
X114971428Y-93185714D01*
%TO.C,Q2*%
D15*
X133273809Y-95047619D02*
X133250000Y-95095238D01*
X133202380Y-95142857D01*
X133130952Y-95214285D01*
X133107142Y-95261904D01*
X133107142Y-95309523D01*
X133226190Y-95285714D02*
X133202380Y-95333333D01*
X133154761Y-95380952D01*
X133059523Y-95404761D01*
X132892857Y-95404761D01*
X132797619Y-95380952D01*
X132750000Y-95333333D01*
X132726190Y-95285714D01*
X132726190Y-95190476D01*
X132750000Y-95142857D01*
X132797619Y-95095238D01*
X132892857Y-95071428D01*
X133059523Y-95071428D01*
X133154761Y-95095238D01*
X133202380Y-95142857D01*
X133226190Y-95190476D01*
X133226190Y-95285714D01*
X132773809Y-94880952D02*
X132750000Y-94857142D01*
X132726190Y-94809523D01*
X132726190Y-94690476D01*
X132750000Y-94642857D01*
X132773809Y-94619047D01*
X132821428Y-94595238D01*
X132869047Y-94595238D01*
X132940476Y-94619047D01*
X133226190Y-94904761D01*
X133226190Y-94595238D01*
%TO.C,SW2*%
D12*
X129666666Y-106954761D02*
X129809523Y-107002380D01*
X130047619Y-107002380D01*
X130142857Y-106954761D01*
X130190476Y-106907142D01*
X130238095Y-106811904D01*
X130238095Y-106716666D01*
X130190476Y-106621428D01*
X130142857Y-106573809D01*
X130047619Y-106526190D01*
X129857142Y-106478571D01*
X129761904Y-106430952D01*
X129714285Y-106383333D01*
X129666666Y-106288095D01*
X129666666Y-106192857D01*
X129714285Y-106097619D01*
X129761904Y-106050000D01*
X129857142Y-106002380D01*
X130095238Y-106002380D01*
X130238095Y-106050000D01*
X130571428Y-106002380D02*
X130809523Y-107002380D01*
X131000000Y-106288095D01*
X131190476Y-107002380D01*
X131428571Y-106002380D01*
X131761904Y-106097619D02*
X131809523Y-106050000D01*
X131904761Y-106002380D01*
X132142857Y-106002380D01*
X132238095Y-106050000D01*
X132285714Y-106097619D01*
X132333333Y-106192857D01*
X132333333Y-106288095D01*
X132285714Y-106430952D01*
X131714285Y-107002380D01*
X132333333Y-107002380D01*
%TO.C,R7*%
D11*
X128361904Y-100133333D02*
X127980952Y-100400000D01*
X128361904Y-100590476D02*
X127561904Y-100590476D01*
X127561904Y-100285714D01*
X127600000Y-100209523D01*
X127638095Y-100171428D01*
X127714285Y-100133333D01*
X127828571Y-100133333D01*
X127904761Y-100171428D01*
X127942857Y-100209523D01*
X127980952Y-100285714D01*
X127980952Y-100590476D01*
X127561904Y-99866666D02*
X127561904Y-99333333D01*
X128361904Y-99676190D01*
%TO.C,R8*%
X138361904Y-90133333D02*
X137980952Y-90400000D01*
X138361904Y-90590476D02*
X137561904Y-90590476D01*
X137561904Y-90285714D01*
X137600000Y-90209523D01*
X137638095Y-90171428D01*
X137714285Y-90133333D01*
X137828571Y-90133333D01*
X137904761Y-90171428D01*
X137942857Y-90209523D01*
X137980952Y-90285714D01*
X137980952Y-90590476D01*
X137904761Y-89676190D02*
X137866666Y-89752380D01*
X137828571Y-89790476D01*
X137752380Y-89828571D01*
X137714285Y-89828571D01*
X137638095Y-89790476D01*
X137600000Y-89752380D01*
X137561904Y-89676190D01*
X137561904Y-89523809D01*
X137600000Y-89447619D01*
X137638095Y-89409523D01*
X137714285Y-89371428D01*
X137752380Y-89371428D01*
X137828571Y-89409523D01*
X137866666Y-89447619D01*
X137904761Y-89523809D01*
X137904761Y-89676190D01*
X137942857Y-89752380D01*
X137980952Y-89790476D01*
X138057142Y-89828571D01*
X138209523Y-89828571D01*
X138285714Y-89790476D01*
X138323809Y-89752380D01*
X138361904Y-89676190D01*
X138361904Y-89523809D01*
X138323809Y-89447619D01*
X138285714Y-89409523D01*
X138209523Y-89371428D01*
X138057142Y-89371428D01*
X137980952Y-89409523D01*
X137942857Y-89447619D01*
X137904761Y-89523809D01*
%TO.C,R9*%
X148761904Y-99133333D02*
X148380952Y-99400000D01*
X148761904Y-99590476D02*
X147961904Y-99590476D01*
X147961904Y-99285714D01*
X148000000Y-99209523D01*
X148038095Y-99171428D01*
X148114285Y-99133333D01*
X148228571Y-99133333D01*
X148304761Y-99171428D01*
X148342857Y-99209523D01*
X148380952Y-99285714D01*
X148380952Y-99590476D01*
X148761904Y-98752380D02*
X148761904Y-98600000D01*
X148723809Y-98523809D01*
X148685714Y-98485714D01*
X148571428Y-98409523D01*
X148419047Y-98371428D01*
X148114285Y-98371428D01*
X148038095Y-98409523D01*
X148000000Y-98447619D01*
X147961904Y-98523809D01*
X147961904Y-98676190D01*
X148000000Y-98752380D01*
X148038095Y-98790476D01*
X148114285Y-98828571D01*
X148304761Y-98828571D01*
X148380952Y-98790476D01*
X148419047Y-98752380D01*
X148457142Y-98676190D01*
X148457142Y-98523809D01*
X148419047Y-98447619D01*
X148380952Y-98409523D01*
X148304761Y-98371428D01*
%TO.C,R11*%
X154361904Y-90514285D02*
X153980952Y-90780952D01*
X154361904Y-90971428D02*
X153561904Y-90971428D01*
X153561904Y-90666666D01*
X153600000Y-90590476D01*
X153638095Y-90552380D01*
X153714285Y-90514285D01*
X153828571Y-90514285D01*
X153904761Y-90552380D01*
X153942857Y-90590476D01*
X153980952Y-90666666D01*
X153980952Y-90971428D01*
X154361904Y-89752380D02*
X154361904Y-90209523D01*
X154361904Y-89980952D02*
X153561904Y-89980952D01*
X153676190Y-90057142D01*
X153752380Y-90133333D01*
X153790476Y-90209523D01*
X154361904Y-88990476D02*
X154361904Y-89447619D01*
X154361904Y-89219047D02*
X153561904Y-89219047D01*
X153676190Y-89295238D01*
X153752380Y-89371428D01*
X153790476Y-89447619D01*
%TO.C,R6*%
X114466666Y-96061904D02*
X114200000Y-95680952D01*
X114009523Y-96061904D02*
X114009523Y-95261904D01*
X114314285Y-95261904D01*
X114390476Y-95300000D01*
X114428571Y-95338095D01*
X114466666Y-95414285D01*
X114466666Y-95528571D01*
X114428571Y-95604761D01*
X114390476Y-95642857D01*
X114314285Y-95680952D01*
X114009523Y-95680952D01*
X115152380Y-95261904D02*
X115000000Y-95261904D01*
X114923809Y-95300000D01*
X114885714Y-95338095D01*
X114809523Y-95452380D01*
X114771428Y-95604761D01*
X114771428Y-95909523D01*
X114809523Y-95985714D01*
X114847619Y-96023809D01*
X114923809Y-96061904D01*
X115076190Y-96061904D01*
X115152380Y-96023809D01*
X115190476Y-95985714D01*
X115228571Y-95909523D01*
X115228571Y-95719047D01*
X115190476Y-95642857D01*
X115152380Y-95604761D01*
X115076190Y-95566666D01*
X114923809Y-95566666D01*
X114847619Y-95604761D01*
X114809523Y-95642857D01*
X114771428Y-95719047D01*
%TO.C,R10*%
X140611904Y-106514285D02*
X140230952Y-106780952D01*
X140611904Y-106971428D02*
X139811904Y-106971428D01*
X139811904Y-106666666D01*
X139850000Y-106590476D01*
X139888095Y-106552380D01*
X139964285Y-106514285D01*
X140078571Y-106514285D01*
X140154761Y-106552380D01*
X140192857Y-106590476D01*
X140230952Y-106666666D01*
X140230952Y-106971428D01*
X140611904Y-105752380D02*
X140611904Y-106209523D01*
X140611904Y-105980952D02*
X139811904Y-105980952D01*
X139926190Y-106057142D01*
X140002380Y-106133333D01*
X140040476Y-106209523D01*
X139811904Y-105257142D02*
X139811904Y-105180952D01*
X139850000Y-105104761D01*
X139888095Y-105066666D01*
X139964285Y-105028571D01*
X140116666Y-104990476D01*
X140307142Y-104990476D01*
X140459523Y-105028571D01*
X140535714Y-105066666D01*
X140573809Y-105104761D01*
X140611904Y-105180952D01*
X140611904Y-105257142D01*
X140573809Y-105333333D01*
X140535714Y-105371428D01*
X140459523Y-105409523D01*
X140307142Y-105447619D01*
X140116666Y-105447619D01*
X139964285Y-105409523D01*
X139888095Y-105371428D01*
X139850000Y-105333333D01*
X139811904Y-105257142D01*
%TO.C,R1*%
X125361904Y-111133333D02*
X124980952Y-111400000D01*
X125361904Y-111590476D02*
X124561904Y-111590476D01*
X124561904Y-111285714D01*
X124600000Y-111209523D01*
X124638095Y-111171428D01*
X124714285Y-111133333D01*
X124828571Y-111133333D01*
X124904761Y-111171428D01*
X124942857Y-111209523D01*
X124980952Y-111285714D01*
X124980952Y-111590476D01*
X125361904Y-110371428D02*
X125361904Y-110828571D01*
X125361904Y-110600000D02*
X124561904Y-110600000D01*
X124676190Y-110676190D01*
X124752380Y-110752380D01*
X124790476Y-110828571D01*
%TO.C,R3*%
X138361904Y-97133333D02*
X137980952Y-97400000D01*
X138361904Y-97590476D02*
X137561904Y-97590476D01*
X137561904Y-97285714D01*
X137600000Y-97209523D01*
X137638095Y-97171428D01*
X137714285Y-97133333D01*
X137828571Y-97133333D01*
X137904761Y-97171428D01*
X137942857Y-97209523D01*
X137980952Y-97285714D01*
X137980952Y-97590476D01*
X137561904Y-96866666D02*
X137561904Y-96371428D01*
X137866666Y-96638095D01*
X137866666Y-96523809D01*
X137904761Y-96447619D01*
X137942857Y-96409523D01*
X138019047Y-96371428D01*
X138209523Y-96371428D01*
X138285714Y-96409523D01*
X138323809Y-96447619D01*
X138361904Y-96523809D01*
X138361904Y-96752380D01*
X138323809Y-96828571D01*
X138285714Y-96866666D01*
%TO.C,R4*%
X130361904Y-78133333D02*
X129980952Y-78400000D01*
X130361904Y-78590476D02*
X129561904Y-78590476D01*
X129561904Y-78285714D01*
X129600000Y-78209523D01*
X129638095Y-78171428D01*
X129714285Y-78133333D01*
X129828571Y-78133333D01*
X129904761Y-78171428D01*
X129942857Y-78209523D01*
X129980952Y-78285714D01*
X129980952Y-78590476D01*
X129828571Y-77447619D02*
X130361904Y-77447619D01*
X129523809Y-77638095D02*
X130095238Y-77828571D01*
X130095238Y-77333333D01*
%TO.C,SW1*%
D12*
X117666666Y-106904761D02*
X117809523Y-106952380D01*
X118047619Y-106952380D01*
X118142857Y-106904761D01*
X118190476Y-106857142D01*
X118238095Y-106761904D01*
X118238095Y-106666666D01*
X118190476Y-106571428D01*
X118142857Y-106523809D01*
X118047619Y-106476190D01*
X117857142Y-106428571D01*
X117761904Y-106380952D01*
X117714285Y-106333333D01*
X117666666Y-106238095D01*
X117666666Y-106142857D01*
X117714285Y-106047619D01*
X117761904Y-106000000D01*
X117857142Y-105952380D01*
X118095238Y-105952380D01*
X118238095Y-106000000D01*
X118571428Y-105952380D02*
X118809523Y-106952380D01*
X119000000Y-106238095D01*
X119190476Y-106952380D01*
X119428571Y-105952380D01*
X120333333Y-106952380D02*
X119761904Y-106952380D01*
X120047619Y-106952380D02*
X120047619Y-105952380D01*
X119952380Y-106095238D01*
X119857142Y-106190476D01*
X119761904Y-106238095D01*
%TO.C,U1*%
D11*
X121561904Y-80609523D02*
X122209523Y-80609523D01*
X122285714Y-80571428D01*
X122323809Y-80533333D01*
X122361904Y-80457142D01*
X122361904Y-80304761D01*
X122323809Y-80228571D01*
X122285714Y-80190476D01*
X122209523Y-80152380D01*
X121561904Y-80152380D01*
X122361904Y-79352380D02*
X122361904Y-79809523D01*
X122361904Y-79580952D02*
X121561904Y-79580952D01*
X121676190Y-79657142D01*
X121752380Y-79733333D01*
X121790476Y-79809523D01*
%TO.C,U2*%
D12*
X121390476Y-96561904D02*
X121390476Y-97209523D01*
X121428571Y-97285714D01*
X121466666Y-97323809D01*
X121542857Y-97361904D01*
X121695238Y-97361904D01*
X121771428Y-97323809D01*
X121809523Y-97285714D01*
X121847619Y-97209523D01*
X121847619Y-96561904D01*
X122190476Y-96638095D02*
X122228571Y-96600000D01*
X122304761Y-96561904D01*
X122495238Y-96561904D01*
X122571428Y-96600000D01*
X122609523Y-96638095D01*
X122647619Y-96714285D01*
X122647619Y-96790476D01*
X122609523Y-96904761D01*
X122152380Y-97361904D01*
X122647619Y-97361904D01*
%TO.C,Q1*%
D15*
X133273809Y-99047619D02*
X133250000Y-99095238D01*
X133202380Y-99142857D01*
X133130952Y-99214285D01*
X133107142Y-99261904D01*
X133107142Y-99309523D01*
X133226190Y-99285714D02*
X133202380Y-99333333D01*
X133154761Y-99380952D01*
X133059523Y-99404761D01*
X132892857Y-99404761D01*
X132797619Y-99380952D01*
X132750000Y-99333333D01*
X132726190Y-99285714D01*
X132726190Y-99190476D01*
X132750000Y-99142857D01*
X132797619Y-99095238D01*
X132892857Y-99071428D01*
X133059523Y-99071428D01*
X133154761Y-99095238D01*
X133202380Y-99142857D01*
X133226190Y-99190476D01*
X133226190Y-99285714D01*
X133226190Y-98595238D02*
X133226190Y-98880952D01*
X133226190Y-98738095D02*
X132726190Y-98738095D01*
X132797619Y-98785714D01*
X132845238Y-98833333D01*
X132869047Y-98880952D01*
%TO.C,U4*%
D16*
X156069817Y-114540847D02*
X156880698Y-114540847D01*
X156976096Y-114493148D01*
X157023795Y-114445449D01*
X157071494Y-114350051D01*
X157071494Y-114159256D01*
X157023795Y-114063858D01*
X156976096Y-114016159D01*
X156880698Y-113968460D01*
X156069817Y-113968460D01*
X156403709Y-113062181D02*
X157071494Y-113062181D01*
X156022118Y-113300675D02*
X156737602Y-113539170D01*
X156737602Y-112919084D01*
X157356205Y-107474692D02*
X156568803Y-107474692D01*
X157131233Y-107212224D01*
X156568803Y-106949757D01*
X157356205Y-106949757D01*
X157131233Y-106612299D02*
X157131233Y-106237346D01*
X157356205Y-106687290D02*
X156568803Y-106424822D01*
X157356205Y-106162355D01*
X156568803Y-105974878D02*
X157356205Y-105449944D01*
X156568803Y-105449944D02*
X157356205Y-105974878D01*
X156568803Y-105224972D02*
X156568803Y-104700037D01*
X157356205Y-105037495D01*
X156643794Y-104437570D02*
X156606299Y-104400074D01*
X156568803Y-104325084D01*
X156568803Y-104137607D01*
X156606299Y-104062616D01*
X156643794Y-104025121D01*
X156718785Y-103987626D01*
X156793775Y-103987626D01*
X156906261Y-104025121D01*
X157356205Y-104475065D01*
X157356205Y-103987626D01*
X157356205Y-103237719D02*
X157356205Y-103687663D01*
X157356205Y-103462691D02*
X156568803Y-103462691D01*
X156681289Y-103537682D01*
X156756280Y-103612672D01*
X156793775Y-103687663D01*
X157356205Y-102862766D02*
X157356205Y-102712784D01*
X157318710Y-102637794D01*
X157281215Y-102600298D01*
X157168729Y-102525308D01*
X157018747Y-102487812D01*
X156718785Y-102487812D01*
X156643794Y-102525308D01*
X156606299Y-102562803D01*
X156568803Y-102637794D01*
X156568803Y-102787775D01*
X156606299Y-102862766D01*
X156643794Y-102900261D01*
X156718785Y-102937756D01*
X156906261Y-102937756D01*
X156981252Y-102900261D01*
X157018747Y-102862766D01*
X157056243Y-102787775D01*
X157056243Y-102637794D01*
X157018747Y-102562803D01*
X156981252Y-102525308D01*
X156906261Y-102487812D01*
%TO.C,Test*%
D12*
X122777379Y-89024762D02*
X122777379Y-88453334D01*
X123777379Y-88739048D02*
X122777379Y-88739048D01*
X123729760Y-87739048D02*
X123777379Y-87834286D01*
X123777379Y-88024762D01*
X123729760Y-88120001D01*
X123634522Y-88167620D01*
X123253570Y-88167620D01*
X123158332Y-88120001D01*
X123110713Y-88024762D01*
X123110713Y-87834286D01*
X123158332Y-87739048D01*
X123253570Y-87691429D01*
X123348808Y-87691429D01*
X123444046Y-88167620D01*
X123729760Y-87310477D02*
X123777379Y-87215239D01*
X123777379Y-87024762D01*
X123729760Y-86929524D01*
X123634522Y-86881905D01*
X123586903Y-86881905D01*
X123491665Y-86929524D01*
X123444046Y-87024762D01*
X123444046Y-87167620D01*
X123396427Y-87262858D01*
X123301189Y-87310477D01*
X123253570Y-87310477D01*
X123158332Y-87262858D01*
X123110713Y-87167620D01*
X123110713Y-87024762D01*
X123158332Y-86929524D01*
X123110713Y-86596191D02*
X123110713Y-86215239D01*
X122777379Y-86453334D02*
X123634522Y-86453334D01*
X123729760Y-86405715D01*
X123777379Y-86310477D01*
X123777379Y-86215239D01*
D11*
X121866903Y-88210477D02*
X121066903Y-88210477D01*
X121066903Y-88020001D01*
X121104999Y-87905715D01*
X121181189Y-87829524D01*
X121257379Y-87791429D01*
X121409760Y-87753334D01*
X121524046Y-87753334D01*
X121676427Y-87791429D01*
X121752618Y-87829524D01*
X121828808Y-87905715D01*
X121866903Y-88020001D01*
X121866903Y-88210477D01*
X121066903Y-87486667D02*
X121066903Y-86991429D01*
X121371665Y-87258096D01*
X121371665Y-87143810D01*
X121409760Y-87067620D01*
X121447856Y-87029524D01*
X121524046Y-86991429D01*
X121714522Y-86991429D01*
X121790713Y-87029524D01*
X121828808Y-87067620D01*
X121866903Y-87143810D01*
X121866903Y-87372381D01*
X121828808Y-87448572D01*
X121790713Y-87486667D01*
%TO.C,R12*%
X118526903Y-88089286D02*
X118145951Y-88355953D01*
X118526903Y-88546429D02*
X117726903Y-88546429D01*
X117726903Y-88241667D01*
X117764999Y-88165477D01*
X117803094Y-88127381D01*
X117879284Y-88089286D01*
X117993570Y-88089286D01*
X118069760Y-88127381D01*
X118107856Y-88165477D01*
X118145951Y-88241667D01*
X118145951Y-88546429D01*
X118526903Y-87327381D02*
X118526903Y-87784524D01*
X118526903Y-87555953D02*
X117726903Y-87555953D01*
X117841189Y-87632143D01*
X117917379Y-87708334D01*
X117955475Y-87784524D01*
X117803094Y-87022620D02*
X117764999Y-86984524D01*
X117726903Y-86908334D01*
X117726903Y-86717858D01*
X117764999Y-86641667D01*
X117803094Y-86603572D01*
X117879284Y-86565477D01*
X117955475Y-86565477D01*
X118069760Y-86603572D01*
X118526903Y-87060715D01*
X118526903Y-86565477D01*
%TD*%
M02*
