%TF.GenerationSoftware,KiCad,Pcbnew,(5.1.9)-1*%
%TF.CreationDate,2021-03-29T12:12:37-04:00*%
%TF.ProjectId,EEG,4545472e-6b69-4636-9164-5f7063625858,rev?*%
%TF.SameCoordinates,Original*%
%TF.FileFunction,Soldermask,Bot*%
%TF.FilePolarity,Negative*%
%FSLAX46Y46*%
G04 Gerber Fmt 4.6, Leading zero omitted, Abs format (unit mm)*
G04 Created by KiCad (PCBNEW (5.1.9)-1) date 2021-03-29 12:12:37*
%MOMM*%
%LPD*%
G01*
G04 APERTURE LIST*
%ADD10C,0.900000*%
%ADD11C,8.600000*%
%ADD12C,1.450000*%
%ADD13O,1.900000X1.200000*%
%ADD14R,1.700000X1.700000*%
%ADD15O,1.700000X1.700000*%
G04 APERTURE END LIST*
D10*
%TO.C,H1*%
X110280419Y-67719581D03*
X108000000Y-66775000D03*
X105719581Y-67719581D03*
X104775000Y-70000000D03*
X105719581Y-72280419D03*
X108000000Y-73225000D03*
X110280419Y-72280419D03*
X111225000Y-70000000D03*
D11*
X108000000Y-70000000D03*
%TD*%
D12*
%TO.C,J1*%
X107462500Y-87500000D03*
X107462500Y-92500000D03*
D13*
X104762500Y-86500000D03*
X104762500Y-93500000D03*
%TD*%
D10*
%TO.C,H4*%
X110280419Y-107719581D03*
X108000000Y-106775000D03*
X105719581Y-107719581D03*
X104775000Y-110000000D03*
X105719581Y-112280419D03*
X108000000Y-113225000D03*
X110280419Y-112280419D03*
X111225000Y-110000000D03*
D11*
X108000000Y-110000000D03*
%TD*%
D10*
%TO.C,H3*%
X200280419Y-67719581D03*
X198000000Y-66775000D03*
X195719581Y-67719581D03*
X194775000Y-70000000D03*
X195719581Y-72280419D03*
X198000000Y-73225000D03*
X200280419Y-72280419D03*
X201225000Y-70000000D03*
D11*
X198000000Y-70000000D03*
%TD*%
D10*
%TO.C,H2*%
X200280419Y-107719581D03*
X198000000Y-106775000D03*
X195719581Y-107719581D03*
X194775000Y-110000000D03*
X195719581Y-112280419D03*
X198000000Y-113225000D03*
X200280419Y-112280419D03*
X201225000Y-110000000D03*
D11*
X198000000Y-110000000D03*
%TD*%
D14*
%TO.C,J2*%
X173000000Y-104200000D03*
D15*
X175540000Y-104200000D03*
X178080000Y-104200000D03*
X180620000Y-104200000D03*
X183160000Y-104200000D03*
X185700000Y-104200000D03*
X188240000Y-104200000D03*
X190780000Y-104200000D03*
%TD*%
%TO.C,J3*%
X172820000Y-75800000D03*
X175360000Y-75800000D03*
X177900000Y-75800000D03*
X180440000Y-75800000D03*
X182980000Y-75800000D03*
X185520000Y-75800000D03*
X188060000Y-75800000D03*
D14*
X190600000Y-75800000D03*
%TD*%
M02*
