%TF.GenerationSoftware,KiCad,Pcbnew,(5.1.9)-1*%
%TF.CreationDate,2021-03-29T12:12:37-04:00*%
%TF.ProjectId,EEG,4545472e-6b69-4636-9164-5f7063625858,rev?*%
%TF.SameCoordinates,Original*%
%TF.FileFunction,Copper,L4,Bot*%
%TF.FilePolarity,Positive*%
%FSLAX46Y46*%
G04 Gerber Fmt 4.6, Leading zero omitted, Abs format (unit mm)*
G04 Created by KiCad (PCBNEW (5.1.9)-1) date 2021-03-29 12:12:37*
%MOMM*%
%LPD*%
G01*
G04 APERTURE LIST*
%TA.AperFunction,ComponentPad*%
%ADD10C,0.900000*%
%TD*%
%TA.AperFunction,ComponentPad*%
%ADD11C,8.600000*%
%TD*%
%TA.AperFunction,ComponentPad*%
%ADD12C,1.450000*%
%TD*%
%TA.AperFunction,ComponentPad*%
%ADD13O,1.900000X1.200000*%
%TD*%
%TA.AperFunction,ComponentPad*%
%ADD14R,1.700000X1.700000*%
%TD*%
%TA.AperFunction,ComponentPad*%
%ADD15O,1.700000X1.700000*%
%TD*%
%TA.AperFunction,ViaPad*%
%ADD16C,0.800000*%
%TD*%
%TA.AperFunction,Conductor*%
%ADD17C,1.000000*%
%TD*%
%TA.AperFunction,Conductor*%
%ADD18C,0.500000*%
%TD*%
%TA.AperFunction,Conductor*%
%ADD19C,0.300000*%
%TD*%
G04 APERTURE END LIST*
D10*
%TO.P,H1,1*%
%TO.N,GND*%
X110280419Y-67719581D03*
X108000000Y-66775000D03*
X105719581Y-67719581D03*
X104775000Y-70000000D03*
X105719581Y-72280419D03*
X108000000Y-73225000D03*
X110280419Y-72280419D03*
X111225000Y-70000000D03*
D11*
X108000000Y-70000000D03*
%TD*%
D12*
%TO.P,J1,6*%
%TO.N,Net-(J1-Pad6)*%
X107462500Y-87500000D03*
X107462500Y-92500000D03*
D13*
X104762500Y-86500000D03*
X104762500Y-93500000D03*
%TD*%
D10*
%TO.P,H4,1*%
%TO.N,GND*%
X110280419Y-107719581D03*
X108000000Y-106775000D03*
X105719581Y-107719581D03*
X104775000Y-110000000D03*
X105719581Y-112280419D03*
X108000000Y-113225000D03*
X110280419Y-112280419D03*
X111225000Y-110000000D03*
D11*
X108000000Y-110000000D03*
%TD*%
D10*
%TO.P,H3,1*%
%TO.N,GND*%
X200280419Y-67719581D03*
X198000000Y-66775000D03*
X195719581Y-67719581D03*
X194775000Y-70000000D03*
X195719581Y-72280419D03*
X198000000Y-73225000D03*
X200280419Y-72280419D03*
X201225000Y-70000000D03*
D11*
X198000000Y-70000000D03*
%TD*%
D10*
%TO.P,H2,1*%
%TO.N,GND*%
X200280419Y-107719581D03*
X198000000Y-106775000D03*
X195719581Y-107719581D03*
X194775000Y-110000000D03*
X195719581Y-112280419D03*
X198000000Y-113225000D03*
X200280419Y-112280419D03*
X201225000Y-110000000D03*
D11*
X198000000Y-110000000D03*
%TD*%
D14*
%TO.P,J2,1*%
%TO.N,DIG4*%
X173000000Y-104200000D03*
D15*
%TO.P,J2,2*%
%TO.N,DIG6*%
X175540000Y-104200000D03*
%TO.P,J2,3*%
%TO.N,SEGA*%
X178080000Y-104200000D03*
%TO.P,J2,4*%
%TO.N,SEGB*%
X180620000Y-104200000D03*
%TO.P,J2,5*%
%TO.N,DIG7*%
X183160000Y-104200000D03*
%TO.P,J2,6*%
%TO.N,SEGD*%
X185700000Y-104200000D03*
%TO.P,J2,7*%
%TO.N,DIG5*%
X188240000Y-104200000D03*
%TO.P,J2,8*%
%TO.N,DIG2*%
X190780000Y-104200000D03*
%TD*%
%TO.P,J3,8*%
%TO.N,SEGG*%
X172820000Y-75800000D03*
%TO.P,J3,7*%
%TO.N,SEGF*%
X175360000Y-75800000D03*
%TO.P,J3,6*%
%TO.N,DIG1*%
X177900000Y-75800000D03*
%TO.P,J3,5*%
%TO.N,SEGDP*%
X180440000Y-75800000D03*
%TO.P,J3,4*%
%TO.N,DIG3*%
X182980000Y-75800000D03*
%TO.P,J3,3*%
%TO.N,SEGE*%
X185520000Y-75800000D03*
%TO.P,J3,2*%
%TO.N,SEGC*%
X188060000Y-75800000D03*
D14*
%TO.P,J3,1*%
%TO.N,DIG0*%
X190600000Y-75800000D03*
%TD*%
D16*
%TO.N,GND*%
X110000000Y-93000000D03*
X116000000Y-103000000D03*
X117835680Y-99560380D03*
X114000000Y-107000000D03*
X122000000Y-113000000D03*
X123000000Y-107000000D03*
X134000000Y-113000000D03*
X133000000Y-106000000D03*
X129000000Y-106000000D03*
X125969669Y-96969669D03*
X128000000Y-91000000D03*
X114000000Y-75000000D03*
X119000000Y-72000000D03*
X130000000Y-75000000D03*
X138000000Y-81000000D03*
X117000000Y-77000000D03*
X144780000Y-74930000D03*
X144780000Y-72390000D03*
X151130000Y-74930000D03*
X151130000Y-72390000D03*
X156210000Y-76200000D03*
X156210000Y-72390000D03*
X157480000Y-88900000D03*
X140970000Y-95250000D03*
X142240000Y-102870000D03*
X164592000Y-108204000D03*
X150876000Y-113792000D03*
X143764000Y-112268000D03*
X142240000Y-112268000D03*
X154900000Y-113792000D03*
X118200000Y-90900000D03*
X147000000Y-90000000D03*
X148300000Y-90000000D03*
X145700000Y-90000000D03*
X145700000Y-91300000D03*
X147000000Y-91300000D03*
X148300000Y-91300000D03*
X145700000Y-88700000D03*
X147000000Y-88700000D03*
X148300000Y-88700000D03*
%TO.N,+3V3*%
X109000000Y-100000000D03*
X138000000Y-93000000D03*
X125000000Y-72000000D03*
X117000000Y-80000000D03*
X127000000Y-80000000D03*
X130000000Y-87000000D03*
X117000000Y-98000000D03*
X141437500Y-75397500D03*
X142240000Y-72390000D03*
X147320000Y-76200000D03*
X147320000Y-72390000D03*
X153670000Y-76200000D03*
X153670000Y-72390000D03*
X144780000Y-104140000D03*
X147320000Y-102870000D03*
X143764000Y-109220000D03*
X142240000Y-109220000D03*
X140250000Y-109250000D03*
X145400000Y-102800000D03*
%TO.N,EN*%
X135636000Y-94996000D03*
X136652000Y-106680000D03*
%TO.N,SEGDP*%
X150225000Y-109425000D03*
%TO.N,SEGB*%
X150250000Y-101750000D03*
X165750000Y-100250000D03*
%TO.N,SEGC*%
X149025000Y-106900000D03*
X174675000Y-79225000D03*
%TO.N,SEGE*%
X150175000Y-108175000D03*
X160800000Y-95225000D03*
%TO.N,SEGF*%
X150368000Y-95504000D03*
%TO.N,SEGG*%
X150368000Y-103124000D03*
%TO.N,DIG0*%
X164084000Y-110744000D03*
%TO.N,DIG1*%
X163576000Y-99060000D03*
%TO.N,DIG2*%
X172400000Y-101300000D03*
%TO.N,DIG3*%
X163700000Y-104400000D03*
%TO.N,DIG4*%
X167640000Y-109220000D03*
%TO.N,DIG7*%
X169000000Y-103100000D03*
X180500000Y-99600000D03*
%TO.N,Net-(Q1-Pad2)*%
X131000000Y-101000000D03*
X136100000Y-101000000D03*
%TO.N,IO0*%
X135000000Y-99000000D03*
X148336000Y-94996000D03*
%TO.N,Net-(Q2-Pad1)*%
X123200000Y-103000000D03*
X130200000Y-94000000D03*
%TO.N,TXD*%
X146900000Y-84700000D03*
X124400000Y-91000000D03*
%TO.N,RXD*%
X118000000Y-101000000D03*
X149860000Y-85090000D03*
%TO.N,Sclk*%
X152400000Y-86360000D03*
X152400000Y-95250000D03*
%TO.N,Data*%
X152404081Y-85094081D03*
X155956000Y-93980000D03*
%TO.N,Net-(D3-Pad2)*%
X135700000Y-91000000D03*
X127400000Y-89400000D03*
%TD*%
D17*
%TO.N,GND*%
X108000000Y-110000000D02*
X111000000Y-110000000D01*
D18*
X159004000Y-113792000D02*
X150876000Y-113792000D01*
X164592000Y-108204000D02*
X159004000Y-113792000D01*
D17*
%TO.N,+3V3*%
X111000000Y-98000000D02*
X109000000Y-100000000D01*
X117000000Y-98000000D02*
X111000000Y-98000000D01*
%TO.N,EN*%
X131531999Y-99100001D02*
X128483999Y-99100001D01*
X135636000Y-94996000D02*
X131531999Y-99100001D01*
X128483999Y-99100001D02*
X127000000Y-100584000D01*
X127000000Y-100584000D02*
X127000000Y-101600000D01*
X127000000Y-101600000D02*
X129540000Y-104140000D01*
X129540000Y-104140000D02*
X136144000Y-104140000D01*
X136144000Y-104140000D02*
X136652000Y-104648000D01*
X136652000Y-104648000D02*
X136652000Y-106680000D01*
D18*
%TO.N,SEGDP*%
X180440000Y-83454002D02*
X180440000Y-75800000D01*
X154469002Y-109425000D02*
X180440000Y-83454002D01*
X150225000Y-109425000D02*
X154469002Y-109425000D01*
%TO.N,SEGB*%
X150250000Y-101750000D02*
X146750000Y-105250000D01*
X146750000Y-105250000D02*
X146750000Y-108000000D01*
X146750000Y-108000000D02*
X149025001Y-110275001D01*
X149025001Y-110275001D02*
X149750000Y-111000000D01*
X155000000Y-111000000D02*
X165750000Y-100250000D01*
X149750000Y-111000000D02*
X155000000Y-111000000D01*
%TO.N,SEGC*%
X174675000Y-80075002D02*
X174675000Y-79225000D01*
X149025000Y-105725002D02*
X174675000Y-80075002D01*
X149025000Y-106900000D02*
X149025000Y-105725002D01*
%TO.N,SEGE*%
X150175000Y-105850000D02*
X160800000Y-95225000D01*
X150175000Y-108175000D02*
X150175000Y-105850000D01*
%TO.N,SEGF*%
X150767999Y-85472161D02*
X165120160Y-71120000D01*
X150767999Y-95104001D02*
X150767999Y-85472161D01*
X150368000Y-95504000D02*
X150767999Y-95104001D01*
X170680000Y-71120000D02*
X175360000Y-75800000D01*
X165120160Y-71120000D02*
X170680000Y-71120000D01*
%TO.N,SEGG*%
X172820000Y-80672000D02*
X172820000Y-75800000D01*
X150368000Y-103124000D02*
X172820000Y-80672000D01*
%TO.N,DIG0*%
X164084000Y-110744000D02*
X166624000Y-108204000D01*
X166624000Y-108204000D02*
X166624000Y-103632000D01*
X190600000Y-79656000D02*
X190600000Y-75800000D01*
X166624000Y-103632000D02*
X190600000Y-79656000D01*
%TO.N,DIG1*%
X163576000Y-99060000D02*
X163576000Y-92964000D01*
X177900000Y-78640000D02*
X177900000Y-75800000D01*
X163576000Y-92964000D02*
X177900000Y-78640000D01*
%TO.N,DIG2*%
X187880000Y-101300000D02*
X190780000Y-104200000D01*
X172400000Y-101300000D02*
X187880000Y-101300000D01*
%TO.N,DIG3*%
X182980000Y-85120000D02*
X182980000Y-75800000D01*
X163700000Y-104400000D02*
X182980000Y-85120000D01*
%TO.N,DIG4*%
X172660000Y-104200000D02*
X173000000Y-104200000D01*
X167640000Y-109220000D02*
X172660000Y-104200000D01*
%TO.N,DIG7*%
X169000000Y-103100000D02*
X172600000Y-99500000D01*
X180400000Y-99500000D02*
X180500000Y-99600000D01*
X172600000Y-99500000D02*
X180400000Y-99500000D01*
D17*
%TO.N,Net-(Q1-Pad2)*%
X131000000Y-101000000D02*
X136000000Y-101000000D01*
D19*
X136000000Y-101000000D02*
X136100000Y-101000000D01*
D17*
%TO.N,IO0*%
X136200009Y-97799991D02*
X141200009Y-97799991D01*
X135000000Y-99000000D02*
X136200009Y-97799991D01*
X141200009Y-97799991D02*
X144000000Y-95000000D01*
X148332000Y-95000000D02*
X148336000Y-94996000D01*
X144000000Y-95000000D02*
X148332000Y-95000000D01*
D19*
%TO.N,Net-(Q2-Pad1)*%
X122286058Y-94000000D02*
X130200000Y-94000000D01*
X117085679Y-99200379D02*
X122286058Y-94000000D01*
X117085679Y-101195681D02*
X117085679Y-99200379D01*
X118889998Y-103000000D02*
X117085679Y-101195681D01*
X123200000Y-103000000D02*
X118889998Y-103000000D01*
%TO.N,TXD*%
X130700000Y-84700000D02*
X146900000Y-84700000D01*
X124400000Y-91000000D02*
X130700000Y-84700000D01*
%TO.N,RXD*%
X135179895Y-94250011D02*
X141799906Y-87630000D01*
X132131894Y-94250011D02*
X135179895Y-94250011D01*
X141799906Y-87630000D02*
X147320000Y-87630000D01*
X147320000Y-87630000D02*
X149860000Y-85090000D01*
X131809989Y-94250011D02*
X132080000Y-94250011D01*
X118000000Y-101000000D02*
X125060000Y-101000000D01*
X125730000Y-100330000D02*
X131809989Y-94250011D01*
X125060000Y-101000000D02*
X125730000Y-100330000D01*
X125381905Y-100678095D02*
X125730000Y-100330000D01*
D18*
%TO.N,Sclk*%
X152400000Y-86360000D02*
X152400000Y-95250000D01*
D19*
%TO.N,Data*%
X152404081Y-85094081D02*
X154940000Y-87630000D01*
X154940000Y-87630000D02*
X156210000Y-88900000D01*
X156210000Y-93726000D02*
X155956000Y-93980000D01*
X156210000Y-88900000D02*
X156210000Y-93726000D01*
%TO.N,Net-(D3-Pad2)*%
X135700000Y-91000000D02*
X130700000Y-91000000D01*
X129100000Y-89400000D02*
X127400000Y-89400000D01*
X130700000Y-91000000D02*
X129100000Y-89400000D01*
%TD*%
M02*
