%TF.GenerationSoftware,KiCad,Pcbnew,(5.1.9)-1*%
%TF.CreationDate,2021-03-29T12:12:37-04:00*%
%TF.ProjectId,EEG,4545472e-6b69-4636-9164-5f7063625858,rev?*%
%TF.SameCoordinates,Original*%
%TF.FileFunction,Copper,L2,Inr*%
%TF.FilePolarity,Positive*%
%FSLAX46Y46*%
G04 Gerber Fmt 4.6, Leading zero omitted, Abs format (unit mm)*
G04 Created by KiCad (PCBNEW (5.1.9)-1) date 2021-03-29 12:12:37*
%MOMM*%
%LPD*%
G01*
G04 APERTURE LIST*
%TA.AperFunction,ComponentPad*%
%ADD10C,0.900000*%
%TD*%
%TA.AperFunction,ComponentPad*%
%ADD11C,8.600000*%
%TD*%
%TA.AperFunction,ComponentPad*%
%ADD12C,1.450000*%
%TD*%
%TA.AperFunction,ComponentPad*%
%ADD13O,1.900000X1.200000*%
%TD*%
%TA.AperFunction,ComponentPad*%
%ADD14R,1.700000X1.700000*%
%TD*%
%TA.AperFunction,ComponentPad*%
%ADD15O,1.700000X1.700000*%
%TD*%
%TA.AperFunction,ViaPad*%
%ADD16C,0.800000*%
%TD*%
%TA.AperFunction,Conductor*%
%ADD17C,0.254000*%
%TD*%
%TA.AperFunction,Conductor*%
%ADD18C,0.100000*%
%TD*%
G04 APERTURE END LIST*
D10*
%TO.N,GND*%
%TO.C,H1*%
X110280419Y-67719581D03*
X108000000Y-66775000D03*
X105719581Y-67719581D03*
X104775000Y-70000000D03*
X105719581Y-72280419D03*
X108000000Y-73225000D03*
X110280419Y-72280419D03*
X111225000Y-70000000D03*
D11*
X108000000Y-70000000D03*
%TD*%
D12*
%TO.N,Net-(J1-Pad6)*%
%TO.C,J1*%
X107462500Y-87500000D03*
X107462500Y-92500000D03*
D13*
X104762500Y-86500000D03*
X104762500Y-93500000D03*
%TD*%
D10*
%TO.N,GND*%
%TO.C,H4*%
X110280419Y-107719581D03*
X108000000Y-106775000D03*
X105719581Y-107719581D03*
X104775000Y-110000000D03*
X105719581Y-112280419D03*
X108000000Y-113225000D03*
X110280419Y-112280419D03*
X111225000Y-110000000D03*
D11*
X108000000Y-110000000D03*
%TD*%
D10*
%TO.N,GND*%
%TO.C,H3*%
X200280419Y-67719581D03*
X198000000Y-66775000D03*
X195719581Y-67719581D03*
X194775000Y-70000000D03*
X195719581Y-72280419D03*
X198000000Y-73225000D03*
X200280419Y-72280419D03*
X201225000Y-70000000D03*
D11*
X198000000Y-70000000D03*
%TD*%
D10*
%TO.N,GND*%
%TO.C,H2*%
X200280419Y-107719581D03*
X198000000Y-106775000D03*
X195719581Y-107719581D03*
X194775000Y-110000000D03*
X195719581Y-112280419D03*
X198000000Y-113225000D03*
X200280419Y-112280419D03*
X201225000Y-110000000D03*
D11*
X198000000Y-110000000D03*
%TD*%
D14*
%TO.N,DIG4*%
%TO.C,J2*%
X173000000Y-104200000D03*
D15*
%TO.N,DIG6*%
X175540000Y-104200000D03*
%TO.N,SEGA*%
X178080000Y-104200000D03*
%TO.N,SEGB*%
X180620000Y-104200000D03*
%TO.N,DIG7*%
X183160000Y-104200000D03*
%TO.N,SEGD*%
X185700000Y-104200000D03*
%TO.N,DIG5*%
X188240000Y-104200000D03*
%TO.N,DIG2*%
X190780000Y-104200000D03*
%TD*%
%TO.N,SEGG*%
%TO.C,J3*%
X172820000Y-75800000D03*
%TO.N,SEGF*%
X175360000Y-75800000D03*
%TO.N,DIG1*%
X177900000Y-75800000D03*
%TO.N,SEGDP*%
X180440000Y-75800000D03*
%TO.N,DIG3*%
X182980000Y-75800000D03*
%TO.N,SEGE*%
X185520000Y-75800000D03*
%TO.N,SEGC*%
X188060000Y-75800000D03*
D14*
%TO.N,DIG0*%
X190600000Y-75800000D03*
%TD*%
D16*
%TO.N,GND*%
X110000000Y-93000000D03*
X116000000Y-103000000D03*
X117835680Y-99560380D03*
X114000000Y-107000000D03*
X122000000Y-113000000D03*
X123000000Y-107000000D03*
X134000000Y-113000000D03*
X133000000Y-106000000D03*
X129000000Y-106000000D03*
X125969669Y-96969669D03*
X128000000Y-91000000D03*
X114000000Y-75000000D03*
X119000000Y-72000000D03*
X130000000Y-75000000D03*
X138000000Y-81000000D03*
X117000000Y-77000000D03*
X144780000Y-74930000D03*
X144780000Y-72390000D03*
X151130000Y-74930000D03*
X151130000Y-72390000D03*
X156210000Y-76200000D03*
X156210000Y-72390000D03*
X157480000Y-88900000D03*
X140970000Y-95250000D03*
X142240000Y-102870000D03*
X164592000Y-108204000D03*
X150876000Y-113792000D03*
X143764000Y-112268000D03*
X142240000Y-112268000D03*
X154900000Y-113792000D03*
X118200000Y-90900000D03*
X147000000Y-90000000D03*
X148300000Y-90000000D03*
X145700000Y-90000000D03*
X145700000Y-91300000D03*
X147000000Y-91300000D03*
X148300000Y-91300000D03*
X145700000Y-88700000D03*
X147000000Y-88700000D03*
X148300000Y-88700000D03*
%TO.N,+3V3*%
X109000000Y-100000000D03*
X138000000Y-93000000D03*
X125000000Y-72000000D03*
X117000000Y-80000000D03*
X127000000Y-80000000D03*
X130000000Y-87000000D03*
X117000000Y-98000000D03*
X141437500Y-75397500D03*
X142240000Y-72390000D03*
X147320000Y-76200000D03*
X147320000Y-72390000D03*
X153670000Y-76200000D03*
X153670000Y-72390000D03*
X144780000Y-104140000D03*
X147320000Y-102870000D03*
X143764000Y-109220000D03*
X142240000Y-109220000D03*
X140250000Y-109250000D03*
X145400000Y-102800000D03*
%TO.N,EN*%
X135636000Y-94996000D03*
X136652000Y-106680000D03*
%TO.N,SEGDP*%
X150225000Y-109425000D03*
%TO.N,SEGB*%
X150250000Y-101750000D03*
X165750000Y-100250000D03*
%TO.N,SEGC*%
X149025000Y-106900000D03*
X174675000Y-79225000D03*
%TO.N,SEGE*%
X150175000Y-108175000D03*
X160800000Y-95225000D03*
%TO.N,SEGF*%
X150368000Y-95504000D03*
%TO.N,SEGG*%
X150368000Y-103124000D03*
%TO.N,DIG0*%
X164084000Y-110744000D03*
%TO.N,DIG1*%
X163576000Y-99060000D03*
%TO.N,DIG2*%
X172400000Y-101300000D03*
%TO.N,DIG3*%
X163700000Y-104400000D03*
%TO.N,DIG4*%
X167640000Y-109220000D03*
%TO.N,DIG7*%
X169000000Y-103100000D03*
X180500000Y-99600000D03*
%TO.N,Net-(Q1-Pad2)*%
X131000000Y-101000000D03*
X136100000Y-101000000D03*
%TO.N,IO0*%
X135000000Y-99000000D03*
X148336000Y-94996000D03*
%TO.N,Net-(Q2-Pad1)*%
X123200000Y-103000000D03*
X130200000Y-94000000D03*
%TO.N,TXD*%
X146900000Y-84700000D03*
X124400000Y-91000000D03*
%TO.N,RXD*%
X118000000Y-101000000D03*
X149860000Y-85090000D03*
%TO.N,Sclk*%
X152400000Y-86360000D03*
X152400000Y-95250000D03*
%TO.N,Data*%
X152404081Y-85094081D03*
X155956000Y-93980000D03*
%TO.N,Net-(D3-Pad2)*%
X135700000Y-91000000D03*
X127400000Y-89400000D03*
%TD*%
D17*
%TO.N,+3V3*%
X194854121Y-66166735D02*
X194166735Y-66854121D01*
X193626660Y-67662401D01*
X193254650Y-68560514D01*
X193065000Y-69513945D01*
X193065000Y-70486055D01*
X193254650Y-71439486D01*
X193626660Y-72337599D01*
X194166735Y-73145879D01*
X194854121Y-73833265D01*
X195662401Y-74373340D01*
X196560514Y-74745350D01*
X197513945Y-74935000D01*
X198486055Y-74935000D01*
X199439486Y-74745350D01*
X200337599Y-74373340D01*
X201145879Y-73833265D01*
X201833265Y-73145879D01*
X202340000Y-72387496D01*
X202340001Y-107612506D01*
X201833265Y-106854121D01*
X201145879Y-106166735D01*
X200337599Y-105626660D01*
X199439486Y-105254650D01*
X198486055Y-105065000D01*
X197513945Y-105065000D01*
X196560514Y-105254650D01*
X195662401Y-105626660D01*
X194854121Y-106166735D01*
X194166735Y-106854121D01*
X193626660Y-107662401D01*
X193254650Y-108560514D01*
X193065000Y-109513945D01*
X193065000Y-110486055D01*
X193254650Y-111439486D01*
X193626660Y-112337599D01*
X194166735Y-113145879D01*
X194854121Y-113833265D01*
X195612504Y-114340000D01*
X155778622Y-114340000D01*
X155817205Y-114282256D01*
X155895226Y-114093898D01*
X155935000Y-113893939D01*
X155935000Y-113690061D01*
X155895226Y-113490102D01*
X155817205Y-113301744D01*
X155703937Y-113132226D01*
X155559774Y-112988063D01*
X155390256Y-112874795D01*
X155201898Y-112796774D01*
X155001939Y-112757000D01*
X154798061Y-112757000D01*
X154598102Y-112796774D01*
X154409744Y-112874795D01*
X154240226Y-112988063D01*
X154096063Y-113132226D01*
X153982795Y-113301744D01*
X153904774Y-113490102D01*
X153865000Y-113690061D01*
X153865000Y-113893939D01*
X153904774Y-114093898D01*
X153982795Y-114282256D01*
X154021378Y-114340000D01*
X151754622Y-114340000D01*
X151793205Y-114282256D01*
X151871226Y-114093898D01*
X151911000Y-113893939D01*
X151911000Y-113690061D01*
X151871226Y-113490102D01*
X151793205Y-113301744D01*
X151679937Y-113132226D01*
X151535774Y-112988063D01*
X151366256Y-112874795D01*
X151177898Y-112796774D01*
X150977939Y-112757000D01*
X150774061Y-112757000D01*
X150574102Y-112796774D01*
X150385744Y-112874795D01*
X150216226Y-112988063D01*
X150072063Y-113132226D01*
X149958795Y-113301744D01*
X149880774Y-113490102D01*
X149841000Y-113690061D01*
X149841000Y-113893939D01*
X149880774Y-114093898D01*
X149958795Y-114282256D01*
X149997378Y-114340000D01*
X110387496Y-114340000D01*
X111145879Y-113833265D01*
X111833265Y-113145879D01*
X111998851Y-112898061D01*
X120965000Y-112898061D01*
X120965000Y-113101939D01*
X121004774Y-113301898D01*
X121082795Y-113490256D01*
X121196063Y-113659774D01*
X121340226Y-113803937D01*
X121509744Y-113917205D01*
X121698102Y-113995226D01*
X121898061Y-114035000D01*
X122101939Y-114035000D01*
X122301898Y-113995226D01*
X122490256Y-113917205D01*
X122659774Y-113803937D01*
X122803937Y-113659774D01*
X122917205Y-113490256D01*
X122995226Y-113301898D01*
X123035000Y-113101939D01*
X123035000Y-112898061D01*
X132965000Y-112898061D01*
X132965000Y-113101939D01*
X133004774Y-113301898D01*
X133082795Y-113490256D01*
X133196063Y-113659774D01*
X133340226Y-113803937D01*
X133509744Y-113917205D01*
X133698102Y-113995226D01*
X133898061Y-114035000D01*
X134101939Y-114035000D01*
X134301898Y-113995226D01*
X134490256Y-113917205D01*
X134659774Y-113803937D01*
X134803937Y-113659774D01*
X134917205Y-113490256D01*
X134995226Y-113301898D01*
X135035000Y-113101939D01*
X135035000Y-112898061D01*
X134995226Y-112698102D01*
X134917205Y-112509744D01*
X134803937Y-112340226D01*
X134659774Y-112196063D01*
X134614873Y-112166061D01*
X141205000Y-112166061D01*
X141205000Y-112369939D01*
X141244774Y-112569898D01*
X141322795Y-112758256D01*
X141436063Y-112927774D01*
X141580226Y-113071937D01*
X141749744Y-113185205D01*
X141938102Y-113263226D01*
X142138061Y-113303000D01*
X142341939Y-113303000D01*
X142541898Y-113263226D01*
X142730256Y-113185205D01*
X142899774Y-113071937D01*
X143002000Y-112969711D01*
X143104226Y-113071937D01*
X143273744Y-113185205D01*
X143462102Y-113263226D01*
X143662061Y-113303000D01*
X143865939Y-113303000D01*
X144065898Y-113263226D01*
X144254256Y-113185205D01*
X144423774Y-113071937D01*
X144567937Y-112927774D01*
X144681205Y-112758256D01*
X144759226Y-112569898D01*
X144799000Y-112369939D01*
X144799000Y-112166061D01*
X144759226Y-111966102D01*
X144681205Y-111777744D01*
X144567937Y-111608226D01*
X144423774Y-111464063D01*
X144254256Y-111350795D01*
X144065898Y-111272774D01*
X143865939Y-111233000D01*
X143662061Y-111233000D01*
X143462102Y-111272774D01*
X143273744Y-111350795D01*
X143104226Y-111464063D01*
X143002000Y-111566289D01*
X142899774Y-111464063D01*
X142730256Y-111350795D01*
X142541898Y-111272774D01*
X142341939Y-111233000D01*
X142138061Y-111233000D01*
X141938102Y-111272774D01*
X141749744Y-111350795D01*
X141580226Y-111464063D01*
X141436063Y-111608226D01*
X141322795Y-111777744D01*
X141244774Y-111966102D01*
X141205000Y-112166061D01*
X134614873Y-112166061D01*
X134490256Y-112082795D01*
X134301898Y-112004774D01*
X134101939Y-111965000D01*
X133898061Y-111965000D01*
X133698102Y-112004774D01*
X133509744Y-112082795D01*
X133340226Y-112196063D01*
X133196063Y-112340226D01*
X133082795Y-112509744D01*
X133004774Y-112698102D01*
X132965000Y-112898061D01*
X123035000Y-112898061D01*
X122995226Y-112698102D01*
X122917205Y-112509744D01*
X122803937Y-112340226D01*
X122659774Y-112196063D01*
X122490256Y-112082795D01*
X122301898Y-112004774D01*
X122101939Y-111965000D01*
X121898061Y-111965000D01*
X121698102Y-112004774D01*
X121509744Y-112082795D01*
X121340226Y-112196063D01*
X121196063Y-112340226D01*
X121082795Y-112509744D01*
X121004774Y-112698102D01*
X120965000Y-112898061D01*
X111998851Y-112898061D01*
X112373340Y-112337599D01*
X112745350Y-111439486D01*
X112903968Y-110642061D01*
X163049000Y-110642061D01*
X163049000Y-110845939D01*
X163088774Y-111045898D01*
X163166795Y-111234256D01*
X163280063Y-111403774D01*
X163424226Y-111547937D01*
X163593744Y-111661205D01*
X163782102Y-111739226D01*
X163982061Y-111779000D01*
X164185939Y-111779000D01*
X164385898Y-111739226D01*
X164574256Y-111661205D01*
X164743774Y-111547937D01*
X164887937Y-111403774D01*
X165001205Y-111234256D01*
X165079226Y-111045898D01*
X165119000Y-110845939D01*
X165119000Y-110642061D01*
X165079226Y-110442102D01*
X165001205Y-110253744D01*
X164887937Y-110084226D01*
X164743774Y-109940063D01*
X164574256Y-109826795D01*
X164385898Y-109748774D01*
X164185939Y-109709000D01*
X163982061Y-109709000D01*
X163782102Y-109748774D01*
X163593744Y-109826795D01*
X163424226Y-109940063D01*
X163280063Y-110084226D01*
X163166795Y-110253744D01*
X163088774Y-110442102D01*
X163049000Y-110642061D01*
X112903968Y-110642061D01*
X112935000Y-110486055D01*
X112935000Y-109513945D01*
X112745350Y-108560514D01*
X112373340Y-107662401D01*
X111862625Y-106898061D01*
X112965000Y-106898061D01*
X112965000Y-107101939D01*
X113004774Y-107301898D01*
X113082795Y-107490256D01*
X113196063Y-107659774D01*
X113340226Y-107803937D01*
X113509744Y-107917205D01*
X113698102Y-107995226D01*
X113898061Y-108035000D01*
X114101939Y-108035000D01*
X114301898Y-107995226D01*
X114490256Y-107917205D01*
X114659774Y-107803937D01*
X114803937Y-107659774D01*
X114917205Y-107490256D01*
X114995226Y-107301898D01*
X115035000Y-107101939D01*
X115035000Y-106898061D01*
X121965000Y-106898061D01*
X121965000Y-107101939D01*
X122004774Y-107301898D01*
X122082795Y-107490256D01*
X122196063Y-107659774D01*
X122340226Y-107803937D01*
X122509744Y-107917205D01*
X122698102Y-107995226D01*
X122898061Y-108035000D01*
X123101939Y-108035000D01*
X123301898Y-107995226D01*
X123490256Y-107917205D01*
X123659774Y-107803937D01*
X123803937Y-107659774D01*
X123917205Y-107490256D01*
X123995226Y-107301898D01*
X124035000Y-107101939D01*
X124035000Y-106898061D01*
X123995226Y-106698102D01*
X123917205Y-106509744D01*
X123803937Y-106340226D01*
X123659774Y-106196063D01*
X123490256Y-106082795D01*
X123301898Y-106004774D01*
X123101939Y-105965000D01*
X122898061Y-105965000D01*
X122698102Y-106004774D01*
X122509744Y-106082795D01*
X122340226Y-106196063D01*
X122196063Y-106340226D01*
X122082795Y-106509744D01*
X122004774Y-106698102D01*
X121965000Y-106898061D01*
X115035000Y-106898061D01*
X114995226Y-106698102D01*
X114917205Y-106509744D01*
X114803937Y-106340226D01*
X114659774Y-106196063D01*
X114490256Y-106082795D01*
X114301898Y-106004774D01*
X114101939Y-105965000D01*
X113898061Y-105965000D01*
X113698102Y-106004774D01*
X113509744Y-106082795D01*
X113340226Y-106196063D01*
X113196063Y-106340226D01*
X113082795Y-106509744D01*
X113004774Y-106698102D01*
X112965000Y-106898061D01*
X111862625Y-106898061D01*
X111833265Y-106854121D01*
X111145879Y-106166735D01*
X110743780Y-105898061D01*
X127965000Y-105898061D01*
X127965000Y-106101939D01*
X128004774Y-106301898D01*
X128082795Y-106490256D01*
X128196063Y-106659774D01*
X128340226Y-106803937D01*
X128509744Y-106917205D01*
X128698102Y-106995226D01*
X128898061Y-107035000D01*
X129101939Y-107035000D01*
X129301898Y-106995226D01*
X129490256Y-106917205D01*
X129659774Y-106803937D01*
X129803937Y-106659774D01*
X129917205Y-106490256D01*
X129995226Y-106301898D01*
X130035000Y-106101939D01*
X130035000Y-105898061D01*
X131965000Y-105898061D01*
X131965000Y-106101939D01*
X132004774Y-106301898D01*
X132082795Y-106490256D01*
X132196063Y-106659774D01*
X132340226Y-106803937D01*
X132509744Y-106917205D01*
X132698102Y-106995226D01*
X132898061Y-107035000D01*
X133101939Y-107035000D01*
X133301898Y-106995226D01*
X133490256Y-106917205D01*
X133659774Y-106803937D01*
X133803937Y-106659774D01*
X133858535Y-106578061D01*
X135617000Y-106578061D01*
X135617000Y-106781939D01*
X135656774Y-106981898D01*
X135734795Y-107170256D01*
X135848063Y-107339774D01*
X135992226Y-107483937D01*
X136161744Y-107597205D01*
X136350102Y-107675226D01*
X136550061Y-107715000D01*
X136753939Y-107715000D01*
X136953898Y-107675226D01*
X137142256Y-107597205D01*
X137311774Y-107483937D01*
X137455937Y-107339774D01*
X137569205Y-107170256D01*
X137647226Y-106981898D01*
X137683793Y-106798061D01*
X147990000Y-106798061D01*
X147990000Y-107001939D01*
X148029774Y-107201898D01*
X148107795Y-107390256D01*
X148221063Y-107559774D01*
X148365226Y-107703937D01*
X148534744Y-107817205D01*
X148723102Y-107895226D01*
X148923061Y-107935000D01*
X149126939Y-107935000D01*
X149169131Y-107926608D01*
X149140000Y-108073061D01*
X149140000Y-108276939D01*
X149179774Y-108476898D01*
X149257795Y-108665256D01*
X149371063Y-108834774D01*
X149373179Y-108836890D01*
X149307795Y-108934744D01*
X149229774Y-109123102D01*
X149190000Y-109323061D01*
X149190000Y-109526939D01*
X149229774Y-109726898D01*
X149307795Y-109915256D01*
X149421063Y-110084774D01*
X149565226Y-110228937D01*
X149734744Y-110342205D01*
X149923102Y-110420226D01*
X150123061Y-110460000D01*
X150326939Y-110460000D01*
X150526898Y-110420226D01*
X150715256Y-110342205D01*
X150884774Y-110228937D01*
X151028937Y-110084774D01*
X151142205Y-109915256D01*
X151220226Y-109726898D01*
X151260000Y-109526939D01*
X151260000Y-109323061D01*
X151220226Y-109123102D01*
X151142205Y-108934744D01*
X151028937Y-108765226D01*
X151026821Y-108763110D01*
X151092205Y-108665256D01*
X151170226Y-108476898D01*
X151210000Y-108276939D01*
X151210000Y-108102061D01*
X163557000Y-108102061D01*
X163557000Y-108305939D01*
X163596774Y-108505898D01*
X163674795Y-108694256D01*
X163788063Y-108863774D01*
X163932226Y-109007937D01*
X164101744Y-109121205D01*
X164290102Y-109199226D01*
X164490061Y-109239000D01*
X164693939Y-109239000D01*
X164893898Y-109199226D01*
X165082256Y-109121205D01*
X165086961Y-109118061D01*
X166605000Y-109118061D01*
X166605000Y-109321939D01*
X166644774Y-109521898D01*
X166722795Y-109710256D01*
X166836063Y-109879774D01*
X166980226Y-110023937D01*
X167149744Y-110137205D01*
X167338102Y-110215226D01*
X167538061Y-110255000D01*
X167741939Y-110255000D01*
X167941898Y-110215226D01*
X168130256Y-110137205D01*
X168299774Y-110023937D01*
X168443937Y-109879774D01*
X168557205Y-109710256D01*
X168635226Y-109521898D01*
X168675000Y-109321939D01*
X168675000Y-109118061D01*
X168635226Y-108918102D01*
X168557205Y-108729744D01*
X168443937Y-108560226D01*
X168299774Y-108416063D01*
X168130256Y-108302795D01*
X167941898Y-108224774D01*
X167741939Y-108185000D01*
X167538061Y-108185000D01*
X167338102Y-108224774D01*
X167149744Y-108302795D01*
X166980226Y-108416063D01*
X166836063Y-108560226D01*
X166722795Y-108729744D01*
X166644774Y-108918102D01*
X166605000Y-109118061D01*
X165086961Y-109118061D01*
X165251774Y-109007937D01*
X165395937Y-108863774D01*
X165509205Y-108694256D01*
X165587226Y-108505898D01*
X165627000Y-108305939D01*
X165627000Y-108102061D01*
X165587226Y-107902102D01*
X165509205Y-107713744D01*
X165395937Y-107544226D01*
X165251774Y-107400063D01*
X165082256Y-107286795D01*
X164893898Y-107208774D01*
X164693939Y-107169000D01*
X164490061Y-107169000D01*
X164290102Y-107208774D01*
X164101744Y-107286795D01*
X163932226Y-107400063D01*
X163788063Y-107544226D01*
X163674795Y-107713744D01*
X163596774Y-107902102D01*
X163557000Y-108102061D01*
X151210000Y-108102061D01*
X151210000Y-108073061D01*
X151170226Y-107873102D01*
X151092205Y-107684744D01*
X150978937Y-107515226D01*
X150834774Y-107371063D01*
X150665256Y-107257795D01*
X150476898Y-107179774D01*
X150276939Y-107140000D01*
X150073061Y-107140000D01*
X150030869Y-107148392D01*
X150060000Y-107001939D01*
X150060000Y-106798061D01*
X150020226Y-106598102D01*
X149942205Y-106409744D01*
X149828937Y-106240226D01*
X149684774Y-106096063D01*
X149515256Y-105982795D01*
X149326898Y-105904774D01*
X149126939Y-105865000D01*
X148923061Y-105865000D01*
X148723102Y-105904774D01*
X148534744Y-105982795D01*
X148365226Y-106096063D01*
X148221063Y-106240226D01*
X148107795Y-106409744D01*
X148029774Y-106598102D01*
X147990000Y-106798061D01*
X137683793Y-106798061D01*
X137687000Y-106781939D01*
X137687000Y-106578061D01*
X137647226Y-106378102D01*
X137569205Y-106189744D01*
X137455937Y-106020226D01*
X137311774Y-105876063D01*
X137142256Y-105762795D01*
X136953898Y-105684774D01*
X136753939Y-105645000D01*
X136550061Y-105645000D01*
X136350102Y-105684774D01*
X136161744Y-105762795D01*
X135992226Y-105876063D01*
X135848063Y-106020226D01*
X135734795Y-106189744D01*
X135656774Y-106378102D01*
X135617000Y-106578061D01*
X133858535Y-106578061D01*
X133917205Y-106490256D01*
X133995226Y-106301898D01*
X134035000Y-106101939D01*
X134035000Y-105898061D01*
X133995226Y-105698102D01*
X133917205Y-105509744D01*
X133803937Y-105340226D01*
X133659774Y-105196063D01*
X133490256Y-105082795D01*
X133301898Y-105004774D01*
X133101939Y-104965000D01*
X132898061Y-104965000D01*
X132698102Y-105004774D01*
X132509744Y-105082795D01*
X132340226Y-105196063D01*
X132196063Y-105340226D01*
X132082795Y-105509744D01*
X132004774Y-105698102D01*
X131965000Y-105898061D01*
X130035000Y-105898061D01*
X129995226Y-105698102D01*
X129917205Y-105509744D01*
X129803937Y-105340226D01*
X129659774Y-105196063D01*
X129490256Y-105082795D01*
X129301898Y-105004774D01*
X129101939Y-104965000D01*
X128898061Y-104965000D01*
X128698102Y-105004774D01*
X128509744Y-105082795D01*
X128340226Y-105196063D01*
X128196063Y-105340226D01*
X128082795Y-105509744D01*
X128004774Y-105698102D01*
X127965000Y-105898061D01*
X110743780Y-105898061D01*
X110337599Y-105626660D01*
X109439486Y-105254650D01*
X108486055Y-105065000D01*
X107513945Y-105065000D01*
X106560514Y-105254650D01*
X105662401Y-105626660D01*
X104854121Y-106166735D01*
X104166735Y-106854121D01*
X103660000Y-107612504D01*
X103660000Y-104298061D01*
X162665000Y-104298061D01*
X162665000Y-104501939D01*
X162704774Y-104701898D01*
X162782795Y-104890256D01*
X162896063Y-105059774D01*
X163040226Y-105203937D01*
X163209744Y-105317205D01*
X163398102Y-105395226D01*
X163598061Y-105435000D01*
X163801939Y-105435000D01*
X164001898Y-105395226D01*
X164190256Y-105317205D01*
X164359774Y-105203937D01*
X164503937Y-105059774D01*
X164617205Y-104890256D01*
X164695226Y-104701898D01*
X164735000Y-104501939D01*
X164735000Y-104298061D01*
X164695226Y-104098102D01*
X164617205Y-103909744D01*
X164503937Y-103740226D01*
X164359774Y-103596063D01*
X164190256Y-103482795D01*
X164001898Y-103404774D01*
X163801939Y-103365000D01*
X163598061Y-103365000D01*
X163398102Y-103404774D01*
X163209744Y-103482795D01*
X163040226Y-103596063D01*
X162896063Y-103740226D01*
X162782795Y-103909744D01*
X162704774Y-104098102D01*
X162665000Y-104298061D01*
X103660000Y-104298061D01*
X103660000Y-102898061D01*
X114965000Y-102898061D01*
X114965000Y-103101939D01*
X115004774Y-103301898D01*
X115082795Y-103490256D01*
X115196063Y-103659774D01*
X115340226Y-103803937D01*
X115509744Y-103917205D01*
X115698102Y-103995226D01*
X115898061Y-104035000D01*
X116101939Y-104035000D01*
X116301898Y-103995226D01*
X116490256Y-103917205D01*
X116659774Y-103803937D01*
X116803937Y-103659774D01*
X116917205Y-103490256D01*
X116995226Y-103301898D01*
X117035000Y-103101939D01*
X117035000Y-102898061D01*
X122165000Y-102898061D01*
X122165000Y-103101939D01*
X122204774Y-103301898D01*
X122282795Y-103490256D01*
X122396063Y-103659774D01*
X122540226Y-103803937D01*
X122709744Y-103917205D01*
X122898102Y-103995226D01*
X123098061Y-104035000D01*
X123301939Y-104035000D01*
X123501898Y-103995226D01*
X123690256Y-103917205D01*
X123859774Y-103803937D01*
X124003937Y-103659774D01*
X124117205Y-103490256D01*
X124195226Y-103301898D01*
X124235000Y-103101939D01*
X124235000Y-102898061D01*
X124209142Y-102768061D01*
X141205000Y-102768061D01*
X141205000Y-102971939D01*
X141244774Y-103171898D01*
X141322795Y-103360256D01*
X141436063Y-103529774D01*
X141580226Y-103673937D01*
X141749744Y-103787205D01*
X141938102Y-103865226D01*
X142138061Y-103905000D01*
X142341939Y-103905000D01*
X142541898Y-103865226D01*
X142730256Y-103787205D01*
X142899774Y-103673937D01*
X143043937Y-103529774D01*
X143157205Y-103360256D01*
X143235226Y-103171898D01*
X143275000Y-102971939D01*
X143275000Y-102768061D01*
X143235226Y-102568102D01*
X143157205Y-102379744D01*
X143043937Y-102210226D01*
X142899774Y-102066063D01*
X142730256Y-101952795D01*
X142541898Y-101874774D01*
X142341939Y-101835000D01*
X142138061Y-101835000D01*
X141938102Y-101874774D01*
X141749744Y-101952795D01*
X141580226Y-102066063D01*
X141436063Y-102210226D01*
X141322795Y-102379744D01*
X141244774Y-102568102D01*
X141205000Y-102768061D01*
X124209142Y-102768061D01*
X124195226Y-102698102D01*
X124117205Y-102509744D01*
X124003937Y-102340226D01*
X123859774Y-102196063D01*
X123690256Y-102082795D01*
X123501898Y-102004774D01*
X123301939Y-101965000D01*
X123098061Y-101965000D01*
X122898102Y-102004774D01*
X122709744Y-102082795D01*
X122540226Y-102196063D01*
X122396063Y-102340226D01*
X122282795Y-102509744D01*
X122204774Y-102698102D01*
X122165000Y-102898061D01*
X117035000Y-102898061D01*
X116995226Y-102698102D01*
X116917205Y-102509744D01*
X116803937Y-102340226D01*
X116659774Y-102196063D01*
X116490256Y-102082795D01*
X116301898Y-102004774D01*
X116101939Y-101965000D01*
X115898061Y-101965000D01*
X115698102Y-102004774D01*
X115509744Y-102082795D01*
X115340226Y-102196063D01*
X115196063Y-102340226D01*
X115082795Y-102509744D01*
X115004774Y-102698102D01*
X114965000Y-102898061D01*
X103660000Y-102898061D01*
X103660000Y-99458441D01*
X116800680Y-99458441D01*
X116800680Y-99662319D01*
X116840454Y-99862278D01*
X116918475Y-100050636D01*
X117031743Y-100220154D01*
X117175906Y-100364317D01*
X117178713Y-100366192D01*
X117082795Y-100509744D01*
X117004774Y-100698102D01*
X116965000Y-100898061D01*
X116965000Y-101101939D01*
X117004774Y-101301898D01*
X117082795Y-101490256D01*
X117196063Y-101659774D01*
X117340226Y-101803937D01*
X117509744Y-101917205D01*
X117698102Y-101995226D01*
X117898061Y-102035000D01*
X118101939Y-102035000D01*
X118301898Y-101995226D01*
X118490256Y-101917205D01*
X118659774Y-101803937D01*
X118803937Y-101659774D01*
X118917205Y-101490256D01*
X118995226Y-101301898D01*
X119035000Y-101101939D01*
X119035000Y-100898061D01*
X129965000Y-100898061D01*
X129965000Y-101101939D01*
X130004774Y-101301898D01*
X130082795Y-101490256D01*
X130196063Y-101659774D01*
X130340226Y-101803937D01*
X130509744Y-101917205D01*
X130698102Y-101995226D01*
X130898061Y-102035000D01*
X131101939Y-102035000D01*
X131301898Y-101995226D01*
X131490256Y-101917205D01*
X131659774Y-101803937D01*
X131803937Y-101659774D01*
X131917205Y-101490256D01*
X131995226Y-101301898D01*
X132035000Y-101101939D01*
X132035000Y-100898061D01*
X135065000Y-100898061D01*
X135065000Y-101101939D01*
X135104774Y-101301898D01*
X135182795Y-101490256D01*
X135296063Y-101659774D01*
X135440226Y-101803937D01*
X135609744Y-101917205D01*
X135798102Y-101995226D01*
X135998061Y-102035000D01*
X136201939Y-102035000D01*
X136401898Y-101995226D01*
X136590256Y-101917205D01*
X136759774Y-101803937D01*
X136903937Y-101659774D01*
X136911763Y-101648061D01*
X149215000Y-101648061D01*
X149215000Y-101851939D01*
X149254774Y-102051898D01*
X149332795Y-102240256D01*
X149446063Y-102409774D01*
X149538609Y-102502320D01*
X149450795Y-102633744D01*
X149372774Y-102822102D01*
X149333000Y-103022061D01*
X149333000Y-103225939D01*
X149372774Y-103425898D01*
X149450795Y-103614256D01*
X149564063Y-103783774D01*
X149708226Y-103927937D01*
X149877744Y-104041205D01*
X150066102Y-104119226D01*
X150266061Y-104159000D01*
X150469939Y-104159000D01*
X150669898Y-104119226D01*
X150858256Y-104041205D01*
X151027774Y-103927937D01*
X151171937Y-103783774D01*
X151285205Y-103614256D01*
X151363226Y-103425898D01*
X151403000Y-103225939D01*
X151403000Y-103022061D01*
X151398227Y-102998061D01*
X167965000Y-102998061D01*
X167965000Y-103201939D01*
X168004774Y-103401898D01*
X168082795Y-103590256D01*
X168196063Y-103759774D01*
X168340226Y-103903937D01*
X168509744Y-104017205D01*
X168698102Y-104095226D01*
X168898061Y-104135000D01*
X169101939Y-104135000D01*
X169301898Y-104095226D01*
X169490256Y-104017205D01*
X169659774Y-103903937D01*
X169803937Y-103759774D01*
X169917205Y-103590256D01*
X169995226Y-103401898D01*
X170005549Y-103350000D01*
X171511928Y-103350000D01*
X171511928Y-105050000D01*
X171524188Y-105174482D01*
X171560498Y-105294180D01*
X171619463Y-105404494D01*
X171698815Y-105501185D01*
X171795506Y-105580537D01*
X171905820Y-105639502D01*
X172025518Y-105675812D01*
X172150000Y-105688072D01*
X173850000Y-105688072D01*
X173974482Y-105675812D01*
X174094180Y-105639502D01*
X174204494Y-105580537D01*
X174301185Y-105501185D01*
X174380537Y-105404494D01*
X174439502Y-105294180D01*
X174461513Y-105221620D01*
X174593368Y-105353475D01*
X174836589Y-105515990D01*
X175106842Y-105627932D01*
X175393740Y-105685000D01*
X175686260Y-105685000D01*
X175973158Y-105627932D01*
X176243411Y-105515990D01*
X176486632Y-105353475D01*
X176693475Y-105146632D01*
X176810000Y-104972240D01*
X176926525Y-105146632D01*
X177133368Y-105353475D01*
X177376589Y-105515990D01*
X177646842Y-105627932D01*
X177933740Y-105685000D01*
X178226260Y-105685000D01*
X178513158Y-105627932D01*
X178783411Y-105515990D01*
X179026632Y-105353475D01*
X179233475Y-105146632D01*
X179350000Y-104972240D01*
X179466525Y-105146632D01*
X179673368Y-105353475D01*
X179916589Y-105515990D01*
X180186842Y-105627932D01*
X180473740Y-105685000D01*
X180766260Y-105685000D01*
X181053158Y-105627932D01*
X181323411Y-105515990D01*
X181566632Y-105353475D01*
X181773475Y-105146632D01*
X181890000Y-104972240D01*
X182006525Y-105146632D01*
X182213368Y-105353475D01*
X182456589Y-105515990D01*
X182726842Y-105627932D01*
X183013740Y-105685000D01*
X183306260Y-105685000D01*
X183593158Y-105627932D01*
X183863411Y-105515990D01*
X184106632Y-105353475D01*
X184313475Y-105146632D01*
X184430000Y-104972240D01*
X184546525Y-105146632D01*
X184753368Y-105353475D01*
X184996589Y-105515990D01*
X185266842Y-105627932D01*
X185553740Y-105685000D01*
X185846260Y-105685000D01*
X186133158Y-105627932D01*
X186403411Y-105515990D01*
X186646632Y-105353475D01*
X186853475Y-105146632D01*
X186970000Y-104972240D01*
X187086525Y-105146632D01*
X187293368Y-105353475D01*
X187536589Y-105515990D01*
X187806842Y-105627932D01*
X188093740Y-105685000D01*
X188386260Y-105685000D01*
X188673158Y-105627932D01*
X188943411Y-105515990D01*
X189186632Y-105353475D01*
X189393475Y-105146632D01*
X189510000Y-104972240D01*
X189626525Y-105146632D01*
X189833368Y-105353475D01*
X190076589Y-105515990D01*
X190346842Y-105627932D01*
X190633740Y-105685000D01*
X190926260Y-105685000D01*
X191213158Y-105627932D01*
X191483411Y-105515990D01*
X191726632Y-105353475D01*
X191933475Y-105146632D01*
X192095990Y-104903411D01*
X192207932Y-104633158D01*
X192265000Y-104346260D01*
X192265000Y-104053740D01*
X192207932Y-103766842D01*
X192095990Y-103496589D01*
X191933475Y-103253368D01*
X191726632Y-103046525D01*
X191483411Y-102884010D01*
X191213158Y-102772068D01*
X190926260Y-102715000D01*
X190633740Y-102715000D01*
X190346842Y-102772068D01*
X190076589Y-102884010D01*
X189833368Y-103046525D01*
X189626525Y-103253368D01*
X189510000Y-103427760D01*
X189393475Y-103253368D01*
X189186632Y-103046525D01*
X188943411Y-102884010D01*
X188673158Y-102772068D01*
X188386260Y-102715000D01*
X188093740Y-102715000D01*
X187806842Y-102772068D01*
X187536589Y-102884010D01*
X187293368Y-103046525D01*
X187086525Y-103253368D01*
X186970000Y-103427760D01*
X186853475Y-103253368D01*
X186646632Y-103046525D01*
X186403411Y-102884010D01*
X186133158Y-102772068D01*
X185846260Y-102715000D01*
X185553740Y-102715000D01*
X185266842Y-102772068D01*
X184996589Y-102884010D01*
X184753368Y-103046525D01*
X184546525Y-103253368D01*
X184430000Y-103427760D01*
X184313475Y-103253368D01*
X184106632Y-103046525D01*
X183863411Y-102884010D01*
X183593158Y-102772068D01*
X183306260Y-102715000D01*
X183013740Y-102715000D01*
X182726842Y-102772068D01*
X182456589Y-102884010D01*
X182213368Y-103046525D01*
X182006525Y-103253368D01*
X181890000Y-103427760D01*
X181773475Y-103253368D01*
X181566632Y-103046525D01*
X181323411Y-102884010D01*
X181053158Y-102772068D01*
X180766260Y-102715000D01*
X180473740Y-102715000D01*
X180186842Y-102772068D01*
X179916589Y-102884010D01*
X179673368Y-103046525D01*
X179466525Y-103253368D01*
X179350000Y-103427760D01*
X179233475Y-103253368D01*
X179026632Y-103046525D01*
X178783411Y-102884010D01*
X178513158Y-102772068D01*
X178226260Y-102715000D01*
X177933740Y-102715000D01*
X177646842Y-102772068D01*
X177376589Y-102884010D01*
X177133368Y-103046525D01*
X176926525Y-103253368D01*
X176810000Y-103427760D01*
X176693475Y-103253368D01*
X176486632Y-103046525D01*
X176243411Y-102884010D01*
X175973158Y-102772068D01*
X175686260Y-102715000D01*
X175393740Y-102715000D01*
X175106842Y-102772068D01*
X174836589Y-102884010D01*
X174593368Y-103046525D01*
X174461513Y-103178380D01*
X174439502Y-103105820D01*
X174380537Y-102995506D01*
X174301185Y-102898815D01*
X174204494Y-102819463D01*
X174094180Y-102760498D01*
X173974482Y-102724188D01*
X173850000Y-102711928D01*
X172150000Y-102711928D01*
X172025518Y-102724188D01*
X171905820Y-102760498D01*
X171795506Y-102819463D01*
X171698815Y-102898815D01*
X171619463Y-102995506D01*
X171560498Y-103105820D01*
X171524188Y-103225518D01*
X171511928Y-103350000D01*
X170005549Y-103350000D01*
X170035000Y-103201939D01*
X170035000Y-102998061D01*
X169995226Y-102798102D01*
X169917205Y-102609744D01*
X169803937Y-102440226D01*
X169659774Y-102296063D01*
X169490256Y-102182795D01*
X169301898Y-102104774D01*
X169101939Y-102065000D01*
X168898061Y-102065000D01*
X168698102Y-102104774D01*
X168509744Y-102182795D01*
X168340226Y-102296063D01*
X168196063Y-102440226D01*
X168082795Y-102609744D01*
X168004774Y-102798102D01*
X167965000Y-102998061D01*
X151398227Y-102998061D01*
X151363226Y-102822102D01*
X151285205Y-102633744D01*
X151171937Y-102464226D01*
X151079391Y-102371680D01*
X151167205Y-102240256D01*
X151245226Y-102051898D01*
X151285000Y-101851939D01*
X151285000Y-101648061D01*
X151245226Y-101448102D01*
X151167205Y-101259744D01*
X151053937Y-101090226D01*
X150909774Y-100946063D01*
X150740256Y-100832795D01*
X150551898Y-100754774D01*
X150351939Y-100715000D01*
X150148061Y-100715000D01*
X149948102Y-100754774D01*
X149759744Y-100832795D01*
X149590226Y-100946063D01*
X149446063Y-101090226D01*
X149332795Y-101259744D01*
X149254774Y-101448102D01*
X149215000Y-101648061D01*
X136911763Y-101648061D01*
X137017205Y-101490256D01*
X137095226Y-101301898D01*
X137135000Y-101101939D01*
X137135000Y-100898061D01*
X137095226Y-100698102D01*
X137017205Y-100509744D01*
X136903937Y-100340226D01*
X136759774Y-100196063D01*
X136687934Y-100148061D01*
X164715000Y-100148061D01*
X164715000Y-100351939D01*
X164754774Y-100551898D01*
X164832795Y-100740256D01*
X164946063Y-100909774D01*
X165090226Y-101053937D01*
X165259744Y-101167205D01*
X165448102Y-101245226D01*
X165648061Y-101285000D01*
X165851939Y-101285000D01*
X166051898Y-101245226D01*
X166165763Y-101198061D01*
X171365000Y-101198061D01*
X171365000Y-101401939D01*
X171404774Y-101601898D01*
X171482795Y-101790256D01*
X171596063Y-101959774D01*
X171740226Y-102103937D01*
X171909744Y-102217205D01*
X172098102Y-102295226D01*
X172298061Y-102335000D01*
X172501939Y-102335000D01*
X172701898Y-102295226D01*
X172890256Y-102217205D01*
X173059774Y-102103937D01*
X173203937Y-101959774D01*
X173317205Y-101790256D01*
X173395226Y-101601898D01*
X173435000Y-101401939D01*
X173435000Y-101198061D01*
X173395226Y-100998102D01*
X173317205Y-100809744D01*
X173203937Y-100640226D01*
X173059774Y-100496063D01*
X172890256Y-100382795D01*
X172701898Y-100304774D01*
X172501939Y-100265000D01*
X172298061Y-100265000D01*
X172098102Y-100304774D01*
X171909744Y-100382795D01*
X171740226Y-100496063D01*
X171596063Y-100640226D01*
X171482795Y-100809744D01*
X171404774Y-100998102D01*
X171365000Y-101198061D01*
X166165763Y-101198061D01*
X166240256Y-101167205D01*
X166409774Y-101053937D01*
X166553937Y-100909774D01*
X166667205Y-100740256D01*
X166745226Y-100551898D01*
X166785000Y-100351939D01*
X166785000Y-100148061D01*
X166745226Y-99948102D01*
X166667205Y-99759744D01*
X166553937Y-99590226D01*
X166461772Y-99498061D01*
X179465000Y-99498061D01*
X179465000Y-99701939D01*
X179504774Y-99901898D01*
X179582795Y-100090256D01*
X179696063Y-100259774D01*
X179840226Y-100403937D01*
X180009744Y-100517205D01*
X180198102Y-100595226D01*
X180398061Y-100635000D01*
X180601939Y-100635000D01*
X180801898Y-100595226D01*
X180990256Y-100517205D01*
X181159774Y-100403937D01*
X181303937Y-100259774D01*
X181417205Y-100090256D01*
X181495226Y-99901898D01*
X181535000Y-99701939D01*
X181535000Y-99498061D01*
X181495226Y-99298102D01*
X181417205Y-99109744D01*
X181303937Y-98940226D01*
X181159774Y-98796063D01*
X180990256Y-98682795D01*
X180801898Y-98604774D01*
X180601939Y-98565000D01*
X180398061Y-98565000D01*
X180198102Y-98604774D01*
X180009744Y-98682795D01*
X179840226Y-98796063D01*
X179696063Y-98940226D01*
X179582795Y-99109744D01*
X179504774Y-99298102D01*
X179465000Y-99498061D01*
X166461772Y-99498061D01*
X166409774Y-99446063D01*
X166240256Y-99332795D01*
X166051898Y-99254774D01*
X165851939Y-99215000D01*
X165648061Y-99215000D01*
X165448102Y-99254774D01*
X165259744Y-99332795D01*
X165090226Y-99446063D01*
X164946063Y-99590226D01*
X164832795Y-99759744D01*
X164754774Y-99948102D01*
X164715000Y-100148061D01*
X136687934Y-100148061D01*
X136590256Y-100082795D01*
X136401898Y-100004774D01*
X136201939Y-99965000D01*
X135998061Y-99965000D01*
X135798102Y-100004774D01*
X135609744Y-100082795D01*
X135440226Y-100196063D01*
X135296063Y-100340226D01*
X135182795Y-100509744D01*
X135104774Y-100698102D01*
X135065000Y-100898061D01*
X132035000Y-100898061D01*
X131995226Y-100698102D01*
X131917205Y-100509744D01*
X131803937Y-100340226D01*
X131659774Y-100196063D01*
X131490256Y-100082795D01*
X131301898Y-100004774D01*
X131101939Y-99965000D01*
X130898061Y-99965000D01*
X130698102Y-100004774D01*
X130509744Y-100082795D01*
X130340226Y-100196063D01*
X130196063Y-100340226D01*
X130082795Y-100509744D01*
X130004774Y-100698102D01*
X129965000Y-100898061D01*
X119035000Y-100898061D01*
X118995226Y-100698102D01*
X118917205Y-100509744D01*
X118803937Y-100340226D01*
X118659774Y-100196063D01*
X118656967Y-100194188D01*
X118752885Y-100050636D01*
X118830906Y-99862278D01*
X118870680Y-99662319D01*
X118870680Y-99458441D01*
X118830906Y-99258482D01*
X118752885Y-99070124D01*
X118639617Y-98900606D01*
X118637072Y-98898061D01*
X133965000Y-98898061D01*
X133965000Y-99101939D01*
X134004774Y-99301898D01*
X134082795Y-99490256D01*
X134196063Y-99659774D01*
X134340226Y-99803937D01*
X134509744Y-99917205D01*
X134698102Y-99995226D01*
X134898061Y-100035000D01*
X135101939Y-100035000D01*
X135301898Y-99995226D01*
X135490256Y-99917205D01*
X135659774Y-99803937D01*
X135803937Y-99659774D01*
X135917205Y-99490256D01*
X135995226Y-99301898D01*
X136035000Y-99101939D01*
X136035000Y-98958061D01*
X162541000Y-98958061D01*
X162541000Y-99161939D01*
X162580774Y-99361898D01*
X162658795Y-99550256D01*
X162772063Y-99719774D01*
X162916226Y-99863937D01*
X163085744Y-99977205D01*
X163274102Y-100055226D01*
X163474061Y-100095000D01*
X163677939Y-100095000D01*
X163877898Y-100055226D01*
X164066256Y-99977205D01*
X164235774Y-99863937D01*
X164379937Y-99719774D01*
X164493205Y-99550256D01*
X164571226Y-99361898D01*
X164611000Y-99161939D01*
X164611000Y-98958061D01*
X164571226Y-98758102D01*
X164493205Y-98569744D01*
X164379937Y-98400226D01*
X164235774Y-98256063D01*
X164066256Y-98142795D01*
X163877898Y-98064774D01*
X163677939Y-98025000D01*
X163474061Y-98025000D01*
X163274102Y-98064774D01*
X163085744Y-98142795D01*
X162916226Y-98256063D01*
X162772063Y-98400226D01*
X162658795Y-98569744D01*
X162580774Y-98758102D01*
X162541000Y-98958061D01*
X136035000Y-98958061D01*
X136035000Y-98898061D01*
X135995226Y-98698102D01*
X135917205Y-98509744D01*
X135803937Y-98340226D01*
X135659774Y-98196063D01*
X135490256Y-98082795D01*
X135301898Y-98004774D01*
X135101939Y-97965000D01*
X134898061Y-97965000D01*
X134698102Y-98004774D01*
X134509744Y-98082795D01*
X134340226Y-98196063D01*
X134196063Y-98340226D01*
X134082795Y-98509744D01*
X134004774Y-98698102D01*
X133965000Y-98898061D01*
X118637072Y-98898061D01*
X118495454Y-98756443D01*
X118325936Y-98643175D01*
X118137578Y-98565154D01*
X117937619Y-98525380D01*
X117733741Y-98525380D01*
X117533782Y-98565154D01*
X117345424Y-98643175D01*
X117175906Y-98756443D01*
X117031743Y-98900606D01*
X116918475Y-99070124D01*
X116840454Y-99258482D01*
X116800680Y-99458441D01*
X103660000Y-99458441D01*
X103660000Y-96867730D01*
X124934669Y-96867730D01*
X124934669Y-97071608D01*
X124974443Y-97271567D01*
X125052464Y-97459925D01*
X125165732Y-97629443D01*
X125309895Y-97773606D01*
X125479413Y-97886874D01*
X125667771Y-97964895D01*
X125867730Y-98004669D01*
X126071608Y-98004669D01*
X126271567Y-97964895D01*
X126459925Y-97886874D01*
X126629443Y-97773606D01*
X126773606Y-97629443D01*
X126886874Y-97459925D01*
X126964895Y-97271567D01*
X127004669Y-97071608D01*
X127004669Y-96867730D01*
X126964895Y-96667771D01*
X126886874Y-96479413D01*
X126773606Y-96309895D01*
X126629443Y-96165732D01*
X126459925Y-96052464D01*
X126271567Y-95974443D01*
X126071608Y-95934669D01*
X125867730Y-95934669D01*
X125667771Y-95974443D01*
X125479413Y-96052464D01*
X125309895Y-96165732D01*
X125165732Y-96309895D01*
X125052464Y-96479413D01*
X124974443Y-96667771D01*
X124934669Y-96867730D01*
X103660000Y-96867730D01*
X103660000Y-94480088D01*
X103723051Y-94531833D01*
X103937599Y-94646511D01*
X104170398Y-94717130D01*
X104351835Y-94735000D01*
X105173165Y-94735000D01*
X105354602Y-94717130D01*
X105587401Y-94646511D01*
X105801949Y-94531833D01*
X105990002Y-94377502D01*
X106144333Y-94189449D01*
X106259011Y-93974901D01*
X106329630Y-93742102D01*
X106353475Y-93500000D01*
X106329630Y-93257898D01*
X106326617Y-93247965D01*
X106406119Y-93366949D01*
X106595551Y-93556381D01*
X106818299Y-93705216D01*
X107065803Y-93807736D01*
X107328552Y-93860000D01*
X107596448Y-93860000D01*
X107859197Y-93807736D01*
X108106701Y-93705216D01*
X108329449Y-93556381D01*
X108518881Y-93366949D01*
X108667716Y-93144201D01*
X108769671Y-92898061D01*
X108965000Y-92898061D01*
X108965000Y-93101939D01*
X109004774Y-93301898D01*
X109082795Y-93490256D01*
X109196063Y-93659774D01*
X109340226Y-93803937D01*
X109509744Y-93917205D01*
X109698102Y-93995226D01*
X109898061Y-94035000D01*
X110101939Y-94035000D01*
X110301898Y-93995226D01*
X110490256Y-93917205D01*
X110518907Y-93898061D01*
X129165000Y-93898061D01*
X129165000Y-94101939D01*
X129204774Y-94301898D01*
X129282795Y-94490256D01*
X129396063Y-94659774D01*
X129540226Y-94803937D01*
X129709744Y-94917205D01*
X129898102Y-94995226D01*
X130098061Y-95035000D01*
X130301939Y-95035000D01*
X130501898Y-94995226D01*
X130690256Y-94917205D01*
X130724893Y-94894061D01*
X134601000Y-94894061D01*
X134601000Y-95097939D01*
X134640774Y-95297898D01*
X134718795Y-95486256D01*
X134832063Y-95655774D01*
X134976226Y-95799937D01*
X135145744Y-95913205D01*
X135334102Y-95991226D01*
X135534061Y-96031000D01*
X135737939Y-96031000D01*
X135937898Y-95991226D01*
X136126256Y-95913205D01*
X136295774Y-95799937D01*
X136439937Y-95655774D01*
X136553205Y-95486256D01*
X136631226Y-95297898D01*
X136661030Y-95148061D01*
X139935000Y-95148061D01*
X139935000Y-95351939D01*
X139974774Y-95551898D01*
X140052795Y-95740256D01*
X140166063Y-95909774D01*
X140310226Y-96053937D01*
X140479744Y-96167205D01*
X140668102Y-96245226D01*
X140868061Y-96285000D01*
X141071939Y-96285000D01*
X141271898Y-96245226D01*
X141460256Y-96167205D01*
X141629774Y-96053937D01*
X141773937Y-95909774D01*
X141887205Y-95740256D01*
X141965226Y-95551898D01*
X142005000Y-95351939D01*
X142005000Y-95148061D01*
X141965226Y-94948102D01*
X141942842Y-94894061D01*
X147301000Y-94894061D01*
X147301000Y-95097939D01*
X147340774Y-95297898D01*
X147418795Y-95486256D01*
X147532063Y-95655774D01*
X147676226Y-95799937D01*
X147845744Y-95913205D01*
X148034102Y-95991226D01*
X148234061Y-96031000D01*
X148437939Y-96031000D01*
X148637898Y-95991226D01*
X148826256Y-95913205D01*
X148995774Y-95799937D01*
X149139937Y-95655774D01*
X149253205Y-95486256D01*
X149288079Y-95402061D01*
X149333000Y-95402061D01*
X149333000Y-95605939D01*
X149372774Y-95805898D01*
X149450795Y-95994256D01*
X149564063Y-96163774D01*
X149708226Y-96307937D01*
X149877744Y-96421205D01*
X150066102Y-96499226D01*
X150266061Y-96539000D01*
X150469939Y-96539000D01*
X150669898Y-96499226D01*
X150858256Y-96421205D01*
X151027774Y-96307937D01*
X151171937Y-96163774D01*
X151285205Y-95994256D01*
X151363226Y-95805898D01*
X151403000Y-95605939D01*
X151403000Y-95542979D01*
X151404774Y-95551898D01*
X151482795Y-95740256D01*
X151596063Y-95909774D01*
X151740226Y-96053937D01*
X151909744Y-96167205D01*
X152098102Y-96245226D01*
X152298061Y-96285000D01*
X152501939Y-96285000D01*
X152701898Y-96245226D01*
X152890256Y-96167205D01*
X153059774Y-96053937D01*
X153203937Y-95909774D01*
X153317205Y-95740256D01*
X153395226Y-95551898D01*
X153435000Y-95351939D01*
X153435000Y-95148061D01*
X153430028Y-95123061D01*
X159765000Y-95123061D01*
X159765000Y-95326939D01*
X159804774Y-95526898D01*
X159882795Y-95715256D01*
X159996063Y-95884774D01*
X160140226Y-96028937D01*
X160309744Y-96142205D01*
X160498102Y-96220226D01*
X160698061Y-96260000D01*
X160901939Y-96260000D01*
X161101898Y-96220226D01*
X161290256Y-96142205D01*
X161459774Y-96028937D01*
X161603937Y-95884774D01*
X161717205Y-95715256D01*
X161795226Y-95526898D01*
X161835000Y-95326939D01*
X161835000Y-95123061D01*
X161795226Y-94923102D01*
X161717205Y-94734744D01*
X161603937Y-94565226D01*
X161459774Y-94421063D01*
X161290256Y-94307795D01*
X161101898Y-94229774D01*
X160901939Y-94190000D01*
X160698061Y-94190000D01*
X160498102Y-94229774D01*
X160309744Y-94307795D01*
X160140226Y-94421063D01*
X159996063Y-94565226D01*
X159882795Y-94734744D01*
X159804774Y-94923102D01*
X159765000Y-95123061D01*
X153430028Y-95123061D01*
X153395226Y-94948102D01*
X153317205Y-94759744D01*
X153203937Y-94590226D01*
X153059774Y-94446063D01*
X152890256Y-94332795D01*
X152701898Y-94254774D01*
X152501939Y-94215000D01*
X152298061Y-94215000D01*
X152098102Y-94254774D01*
X151909744Y-94332795D01*
X151740226Y-94446063D01*
X151596063Y-94590226D01*
X151482795Y-94759744D01*
X151404774Y-94948102D01*
X151365000Y-95148061D01*
X151365000Y-95211021D01*
X151363226Y-95202102D01*
X151285205Y-95013744D01*
X151171937Y-94844226D01*
X151027774Y-94700063D01*
X150858256Y-94586795D01*
X150669898Y-94508774D01*
X150469939Y-94469000D01*
X150266061Y-94469000D01*
X150066102Y-94508774D01*
X149877744Y-94586795D01*
X149708226Y-94700063D01*
X149564063Y-94844226D01*
X149450795Y-95013744D01*
X149372774Y-95202102D01*
X149333000Y-95402061D01*
X149288079Y-95402061D01*
X149331226Y-95297898D01*
X149371000Y-95097939D01*
X149371000Y-94894061D01*
X149331226Y-94694102D01*
X149253205Y-94505744D01*
X149139937Y-94336226D01*
X148995774Y-94192063D01*
X148826256Y-94078795D01*
X148637898Y-94000774D01*
X148437939Y-93961000D01*
X148234061Y-93961000D01*
X148034102Y-94000774D01*
X147845744Y-94078795D01*
X147676226Y-94192063D01*
X147532063Y-94336226D01*
X147418795Y-94505744D01*
X147340774Y-94694102D01*
X147301000Y-94894061D01*
X141942842Y-94894061D01*
X141887205Y-94759744D01*
X141773937Y-94590226D01*
X141629774Y-94446063D01*
X141460256Y-94332795D01*
X141271898Y-94254774D01*
X141071939Y-94215000D01*
X140868061Y-94215000D01*
X140668102Y-94254774D01*
X140479744Y-94332795D01*
X140310226Y-94446063D01*
X140166063Y-94590226D01*
X140052795Y-94759744D01*
X139974774Y-94948102D01*
X139935000Y-95148061D01*
X136661030Y-95148061D01*
X136671000Y-95097939D01*
X136671000Y-94894061D01*
X136631226Y-94694102D01*
X136553205Y-94505744D01*
X136439937Y-94336226D01*
X136295774Y-94192063D01*
X136126256Y-94078795D01*
X135937898Y-94000774D01*
X135737939Y-93961000D01*
X135534061Y-93961000D01*
X135334102Y-94000774D01*
X135145744Y-94078795D01*
X134976226Y-94192063D01*
X134832063Y-94336226D01*
X134718795Y-94505744D01*
X134640774Y-94694102D01*
X134601000Y-94894061D01*
X130724893Y-94894061D01*
X130859774Y-94803937D01*
X131003937Y-94659774D01*
X131117205Y-94490256D01*
X131195226Y-94301898D01*
X131235000Y-94101939D01*
X131235000Y-93898061D01*
X131231022Y-93878061D01*
X154921000Y-93878061D01*
X154921000Y-94081939D01*
X154960774Y-94281898D01*
X155038795Y-94470256D01*
X155152063Y-94639774D01*
X155296226Y-94783937D01*
X155465744Y-94897205D01*
X155654102Y-94975226D01*
X155854061Y-95015000D01*
X156057939Y-95015000D01*
X156257898Y-94975226D01*
X156446256Y-94897205D01*
X156615774Y-94783937D01*
X156759937Y-94639774D01*
X156873205Y-94470256D01*
X156951226Y-94281898D01*
X156991000Y-94081939D01*
X156991000Y-93878061D01*
X156951226Y-93678102D01*
X156873205Y-93489744D01*
X156759937Y-93320226D01*
X156615774Y-93176063D01*
X156446256Y-93062795D01*
X156257898Y-92984774D01*
X156057939Y-92945000D01*
X155854061Y-92945000D01*
X155654102Y-92984774D01*
X155465744Y-93062795D01*
X155296226Y-93176063D01*
X155152063Y-93320226D01*
X155038795Y-93489744D01*
X154960774Y-93678102D01*
X154921000Y-93878061D01*
X131231022Y-93878061D01*
X131195226Y-93698102D01*
X131117205Y-93509744D01*
X131003937Y-93340226D01*
X130859774Y-93196063D01*
X130690256Y-93082795D01*
X130501898Y-93004774D01*
X130301939Y-92965000D01*
X130098061Y-92965000D01*
X129898102Y-93004774D01*
X129709744Y-93082795D01*
X129540226Y-93196063D01*
X129396063Y-93340226D01*
X129282795Y-93509744D01*
X129204774Y-93698102D01*
X129165000Y-93898061D01*
X110518907Y-93898061D01*
X110659774Y-93803937D01*
X110803937Y-93659774D01*
X110917205Y-93490256D01*
X110995226Y-93301898D01*
X111035000Y-93101939D01*
X111035000Y-92898061D01*
X110995226Y-92698102D01*
X110917205Y-92509744D01*
X110803937Y-92340226D01*
X110659774Y-92196063D01*
X110490256Y-92082795D01*
X110301898Y-92004774D01*
X110101939Y-91965000D01*
X109898061Y-91965000D01*
X109698102Y-92004774D01*
X109509744Y-92082795D01*
X109340226Y-92196063D01*
X109196063Y-92340226D01*
X109082795Y-92509744D01*
X109004774Y-92698102D01*
X108965000Y-92898061D01*
X108769671Y-92898061D01*
X108770236Y-92896697D01*
X108822500Y-92633948D01*
X108822500Y-92366052D01*
X108770236Y-92103303D01*
X108667716Y-91855799D01*
X108518881Y-91633051D01*
X108329449Y-91443619D01*
X108106701Y-91294784D01*
X107859197Y-91192264D01*
X107596448Y-91140000D01*
X107328552Y-91140000D01*
X107065803Y-91192264D01*
X106818299Y-91294784D01*
X106595551Y-91443619D01*
X106406119Y-91633051D01*
X106257284Y-91855799D01*
X106154764Y-92103303D01*
X106102500Y-92366052D01*
X106102500Y-92633948D01*
X106135484Y-92799768D01*
X105990002Y-92622498D01*
X105801949Y-92468167D01*
X105587401Y-92353489D01*
X105354602Y-92282870D01*
X105173165Y-92265000D01*
X104351835Y-92265000D01*
X104170398Y-92282870D01*
X103937599Y-92353489D01*
X103723051Y-92468167D01*
X103660000Y-92519912D01*
X103660000Y-90798061D01*
X117165000Y-90798061D01*
X117165000Y-91001939D01*
X117204774Y-91201898D01*
X117282795Y-91390256D01*
X117396063Y-91559774D01*
X117540226Y-91703937D01*
X117709744Y-91817205D01*
X117898102Y-91895226D01*
X118098061Y-91935000D01*
X118301939Y-91935000D01*
X118501898Y-91895226D01*
X118690256Y-91817205D01*
X118859774Y-91703937D01*
X119003937Y-91559774D01*
X119117205Y-91390256D01*
X119195226Y-91201898D01*
X119235000Y-91001939D01*
X119235000Y-90898061D01*
X123365000Y-90898061D01*
X123365000Y-91101939D01*
X123404774Y-91301898D01*
X123482795Y-91490256D01*
X123596063Y-91659774D01*
X123740226Y-91803937D01*
X123909744Y-91917205D01*
X124098102Y-91995226D01*
X124298061Y-92035000D01*
X124501939Y-92035000D01*
X124701898Y-91995226D01*
X124890256Y-91917205D01*
X125059774Y-91803937D01*
X125203937Y-91659774D01*
X125317205Y-91490256D01*
X125395226Y-91301898D01*
X125435000Y-91101939D01*
X125435000Y-90898061D01*
X125395226Y-90698102D01*
X125317205Y-90509744D01*
X125203937Y-90340226D01*
X125059774Y-90196063D01*
X124890256Y-90082795D01*
X124701898Y-90004774D01*
X124501939Y-89965000D01*
X124298061Y-89965000D01*
X124098102Y-90004774D01*
X123909744Y-90082795D01*
X123740226Y-90196063D01*
X123596063Y-90340226D01*
X123482795Y-90509744D01*
X123404774Y-90698102D01*
X123365000Y-90898061D01*
X119235000Y-90898061D01*
X119235000Y-90798061D01*
X119195226Y-90598102D01*
X119117205Y-90409744D01*
X119003937Y-90240226D01*
X118859774Y-90096063D01*
X118690256Y-89982795D01*
X118501898Y-89904774D01*
X118301939Y-89865000D01*
X118098061Y-89865000D01*
X117898102Y-89904774D01*
X117709744Y-89982795D01*
X117540226Y-90096063D01*
X117396063Y-90240226D01*
X117282795Y-90409744D01*
X117204774Y-90598102D01*
X117165000Y-90798061D01*
X103660000Y-90798061D01*
X103660000Y-89298061D01*
X126365000Y-89298061D01*
X126365000Y-89501939D01*
X126404774Y-89701898D01*
X126482795Y-89890256D01*
X126596063Y-90059774D01*
X126740226Y-90203937D01*
X126909744Y-90317205D01*
X127098102Y-90395226D01*
X127152132Y-90405973D01*
X127082795Y-90509744D01*
X127004774Y-90698102D01*
X126965000Y-90898061D01*
X126965000Y-91101939D01*
X127004774Y-91301898D01*
X127082795Y-91490256D01*
X127196063Y-91659774D01*
X127340226Y-91803937D01*
X127509744Y-91917205D01*
X127698102Y-91995226D01*
X127898061Y-92035000D01*
X128101939Y-92035000D01*
X128301898Y-91995226D01*
X128490256Y-91917205D01*
X128659774Y-91803937D01*
X128803937Y-91659774D01*
X128917205Y-91490256D01*
X128995226Y-91301898D01*
X129035000Y-91101939D01*
X129035000Y-90898061D01*
X134665000Y-90898061D01*
X134665000Y-91101939D01*
X134704774Y-91301898D01*
X134782795Y-91490256D01*
X134896063Y-91659774D01*
X135040226Y-91803937D01*
X135209744Y-91917205D01*
X135398102Y-91995226D01*
X135598061Y-92035000D01*
X135801939Y-92035000D01*
X136001898Y-91995226D01*
X136190256Y-91917205D01*
X136359774Y-91803937D01*
X136503937Y-91659774D01*
X136617205Y-91490256D01*
X136695226Y-91301898D01*
X136735000Y-91101939D01*
X136735000Y-90898061D01*
X136695226Y-90698102D01*
X136617205Y-90509744D01*
X136503937Y-90340226D01*
X136359774Y-90196063D01*
X136190256Y-90082795D01*
X136001898Y-90004774D01*
X135801939Y-89965000D01*
X135598061Y-89965000D01*
X135398102Y-90004774D01*
X135209744Y-90082795D01*
X135040226Y-90196063D01*
X134896063Y-90340226D01*
X134782795Y-90509744D01*
X134704774Y-90698102D01*
X134665000Y-90898061D01*
X129035000Y-90898061D01*
X128995226Y-90698102D01*
X128917205Y-90509744D01*
X128803937Y-90340226D01*
X128659774Y-90196063D01*
X128490256Y-90082795D01*
X128301898Y-90004774D01*
X128247868Y-89994027D01*
X128317205Y-89890256D01*
X128395226Y-89701898D01*
X128435000Y-89501939D01*
X128435000Y-89298061D01*
X128395226Y-89098102D01*
X128317205Y-88909744D01*
X128203937Y-88740226D01*
X128061772Y-88598061D01*
X144665000Y-88598061D01*
X144665000Y-88801939D01*
X144704774Y-89001898D01*
X144782795Y-89190256D01*
X144889532Y-89350000D01*
X144782795Y-89509744D01*
X144704774Y-89698102D01*
X144665000Y-89898061D01*
X144665000Y-90101939D01*
X144704774Y-90301898D01*
X144782795Y-90490256D01*
X144889532Y-90650000D01*
X144782795Y-90809744D01*
X144704774Y-90998102D01*
X144665000Y-91198061D01*
X144665000Y-91401939D01*
X144704774Y-91601898D01*
X144782795Y-91790256D01*
X144896063Y-91959774D01*
X145040226Y-92103937D01*
X145209744Y-92217205D01*
X145398102Y-92295226D01*
X145598061Y-92335000D01*
X145801939Y-92335000D01*
X146001898Y-92295226D01*
X146190256Y-92217205D01*
X146350000Y-92110468D01*
X146509744Y-92217205D01*
X146698102Y-92295226D01*
X146898061Y-92335000D01*
X147101939Y-92335000D01*
X147301898Y-92295226D01*
X147490256Y-92217205D01*
X147650000Y-92110468D01*
X147809744Y-92217205D01*
X147998102Y-92295226D01*
X148198061Y-92335000D01*
X148401939Y-92335000D01*
X148601898Y-92295226D01*
X148790256Y-92217205D01*
X148959774Y-92103937D01*
X149103937Y-91959774D01*
X149217205Y-91790256D01*
X149295226Y-91601898D01*
X149335000Y-91401939D01*
X149335000Y-91198061D01*
X149295226Y-90998102D01*
X149217205Y-90809744D01*
X149110468Y-90650000D01*
X149217205Y-90490256D01*
X149295226Y-90301898D01*
X149335000Y-90101939D01*
X149335000Y-89898061D01*
X149295226Y-89698102D01*
X149217205Y-89509744D01*
X149110468Y-89350000D01*
X149217205Y-89190256D01*
X149295226Y-89001898D01*
X149335000Y-88801939D01*
X149335000Y-88798061D01*
X156445000Y-88798061D01*
X156445000Y-89001939D01*
X156484774Y-89201898D01*
X156562795Y-89390256D01*
X156676063Y-89559774D01*
X156820226Y-89703937D01*
X156989744Y-89817205D01*
X157178102Y-89895226D01*
X157378061Y-89935000D01*
X157581939Y-89935000D01*
X157781898Y-89895226D01*
X157970256Y-89817205D01*
X158139774Y-89703937D01*
X158283937Y-89559774D01*
X158397205Y-89390256D01*
X158475226Y-89201898D01*
X158515000Y-89001939D01*
X158515000Y-88798061D01*
X158475226Y-88598102D01*
X158397205Y-88409744D01*
X158283937Y-88240226D01*
X158139774Y-88096063D01*
X157970256Y-87982795D01*
X157781898Y-87904774D01*
X157581939Y-87865000D01*
X157378061Y-87865000D01*
X157178102Y-87904774D01*
X156989744Y-87982795D01*
X156820226Y-88096063D01*
X156676063Y-88240226D01*
X156562795Y-88409744D01*
X156484774Y-88598102D01*
X156445000Y-88798061D01*
X149335000Y-88798061D01*
X149335000Y-88598061D01*
X149295226Y-88398102D01*
X149217205Y-88209744D01*
X149103937Y-88040226D01*
X148959774Y-87896063D01*
X148790256Y-87782795D01*
X148601898Y-87704774D01*
X148401939Y-87665000D01*
X148198061Y-87665000D01*
X147998102Y-87704774D01*
X147809744Y-87782795D01*
X147650000Y-87889532D01*
X147490256Y-87782795D01*
X147301898Y-87704774D01*
X147101939Y-87665000D01*
X146898061Y-87665000D01*
X146698102Y-87704774D01*
X146509744Y-87782795D01*
X146350000Y-87889532D01*
X146190256Y-87782795D01*
X146001898Y-87704774D01*
X145801939Y-87665000D01*
X145598061Y-87665000D01*
X145398102Y-87704774D01*
X145209744Y-87782795D01*
X145040226Y-87896063D01*
X144896063Y-88040226D01*
X144782795Y-88209744D01*
X144704774Y-88398102D01*
X144665000Y-88598061D01*
X128061772Y-88598061D01*
X128059774Y-88596063D01*
X127890256Y-88482795D01*
X127701898Y-88404774D01*
X127501939Y-88365000D01*
X127298061Y-88365000D01*
X127098102Y-88404774D01*
X126909744Y-88482795D01*
X126740226Y-88596063D01*
X126596063Y-88740226D01*
X126482795Y-88909744D01*
X126404774Y-89098102D01*
X126365000Y-89298061D01*
X103660000Y-89298061D01*
X103660000Y-87480088D01*
X103723051Y-87531833D01*
X103937599Y-87646511D01*
X104170398Y-87717130D01*
X104351835Y-87735000D01*
X105173165Y-87735000D01*
X105354602Y-87717130D01*
X105587401Y-87646511D01*
X105801949Y-87531833D01*
X105990002Y-87377502D01*
X106135484Y-87200232D01*
X106102500Y-87366052D01*
X106102500Y-87633948D01*
X106154764Y-87896697D01*
X106257284Y-88144201D01*
X106406119Y-88366949D01*
X106595551Y-88556381D01*
X106818299Y-88705216D01*
X107065803Y-88807736D01*
X107328552Y-88860000D01*
X107596448Y-88860000D01*
X107859197Y-88807736D01*
X108106701Y-88705216D01*
X108329449Y-88556381D01*
X108518881Y-88366949D01*
X108667716Y-88144201D01*
X108770236Y-87896697D01*
X108822500Y-87633948D01*
X108822500Y-87366052D01*
X108770236Y-87103303D01*
X108667716Y-86855799D01*
X108518881Y-86633051D01*
X108329449Y-86443619D01*
X108106701Y-86294784D01*
X108018045Y-86258061D01*
X151365000Y-86258061D01*
X151365000Y-86461939D01*
X151404774Y-86661898D01*
X151482795Y-86850256D01*
X151596063Y-87019774D01*
X151740226Y-87163937D01*
X151909744Y-87277205D01*
X152098102Y-87355226D01*
X152298061Y-87395000D01*
X152501939Y-87395000D01*
X152701898Y-87355226D01*
X152890256Y-87277205D01*
X153059774Y-87163937D01*
X153203937Y-87019774D01*
X153317205Y-86850256D01*
X153395226Y-86661898D01*
X153435000Y-86461939D01*
X153435000Y-86258061D01*
X153395226Y-86058102D01*
X153317205Y-85869744D01*
X153223894Y-85730094D01*
X153321286Y-85584337D01*
X153399307Y-85395979D01*
X153439081Y-85196020D01*
X153439081Y-84992142D01*
X153399307Y-84792183D01*
X153321286Y-84603825D01*
X153208018Y-84434307D01*
X153063855Y-84290144D01*
X152894337Y-84176876D01*
X152705979Y-84098855D01*
X152506020Y-84059081D01*
X152302142Y-84059081D01*
X152102183Y-84098855D01*
X151913825Y-84176876D01*
X151744307Y-84290144D01*
X151600144Y-84434307D01*
X151486876Y-84603825D01*
X151408855Y-84792183D01*
X151369081Y-84992142D01*
X151369081Y-85196020D01*
X151408855Y-85395979D01*
X151486876Y-85584337D01*
X151580187Y-85723987D01*
X151482795Y-85869744D01*
X151404774Y-86058102D01*
X151365000Y-86258061D01*
X108018045Y-86258061D01*
X107859197Y-86192264D01*
X107596448Y-86140000D01*
X107328552Y-86140000D01*
X107065803Y-86192264D01*
X106818299Y-86294784D01*
X106595551Y-86443619D01*
X106406119Y-86633051D01*
X106326617Y-86752035D01*
X106329630Y-86742102D01*
X106353475Y-86500000D01*
X106329630Y-86257898D01*
X106259011Y-86025099D01*
X106144333Y-85810551D01*
X105990002Y-85622498D01*
X105801949Y-85468167D01*
X105587401Y-85353489D01*
X105354602Y-85282870D01*
X105173165Y-85265000D01*
X104351835Y-85265000D01*
X104170398Y-85282870D01*
X103937599Y-85353489D01*
X103723051Y-85468167D01*
X103660000Y-85519912D01*
X103660000Y-84598061D01*
X145865000Y-84598061D01*
X145865000Y-84801939D01*
X145904774Y-85001898D01*
X145982795Y-85190256D01*
X146096063Y-85359774D01*
X146240226Y-85503937D01*
X146409744Y-85617205D01*
X146598102Y-85695226D01*
X146798061Y-85735000D01*
X147001939Y-85735000D01*
X147201898Y-85695226D01*
X147390256Y-85617205D01*
X147559774Y-85503937D01*
X147703937Y-85359774D01*
X147817205Y-85190256D01*
X147895226Y-85001898D01*
X147897978Y-84988061D01*
X148825000Y-84988061D01*
X148825000Y-85191939D01*
X148864774Y-85391898D01*
X148942795Y-85580256D01*
X149056063Y-85749774D01*
X149200226Y-85893937D01*
X149369744Y-86007205D01*
X149558102Y-86085226D01*
X149758061Y-86125000D01*
X149961939Y-86125000D01*
X150161898Y-86085226D01*
X150350256Y-86007205D01*
X150519774Y-85893937D01*
X150663937Y-85749774D01*
X150777205Y-85580256D01*
X150855226Y-85391898D01*
X150895000Y-85191939D01*
X150895000Y-84988061D01*
X150855226Y-84788102D01*
X150777205Y-84599744D01*
X150663937Y-84430226D01*
X150519774Y-84286063D01*
X150350256Y-84172795D01*
X150161898Y-84094774D01*
X149961939Y-84055000D01*
X149758061Y-84055000D01*
X149558102Y-84094774D01*
X149369744Y-84172795D01*
X149200226Y-84286063D01*
X149056063Y-84430226D01*
X148942795Y-84599744D01*
X148864774Y-84788102D01*
X148825000Y-84988061D01*
X147897978Y-84988061D01*
X147935000Y-84801939D01*
X147935000Y-84598061D01*
X147895226Y-84398102D01*
X147817205Y-84209744D01*
X147703937Y-84040226D01*
X147559774Y-83896063D01*
X147390256Y-83782795D01*
X147201898Y-83704774D01*
X147001939Y-83665000D01*
X146798061Y-83665000D01*
X146598102Y-83704774D01*
X146409744Y-83782795D01*
X146240226Y-83896063D01*
X146096063Y-84040226D01*
X145982795Y-84209744D01*
X145904774Y-84398102D01*
X145865000Y-84598061D01*
X103660000Y-84598061D01*
X103660000Y-80898061D01*
X136965000Y-80898061D01*
X136965000Y-81101939D01*
X137004774Y-81301898D01*
X137082795Y-81490256D01*
X137196063Y-81659774D01*
X137340226Y-81803937D01*
X137509744Y-81917205D01*
X137698102Y-81995226D01*
X137898061Y-82035000D01*
X138101939Y-82035000D01*
X138301898Y-81995226D01*
X138490256Y-81917205D01*
X138659774Y-81803937D01*
X138803937Y-81659774D01*
X138917205Y-81490256D01*
X138995226Y-81301898D01*
X139035000Y-81101939D01*
X139035000Y-80898061D01*
X138995226Y-80698102D01*
X138917205Y-80509744D01*
X138803937Y-80340226D01*
X138659774Y-80196063D01*
X138490256Y-80082795D01*
X138301898Y-80004774D01*
X138101939Y-79965000D01*
X137898061Y-79965000D01*
X137698102Y-80004774D01*
X137509744Y-80082795D01*
X137340226Y-80196063D01*
X137196063Y-80340226D01*
X137082795Y-80509744D01*
X137004774Y-80698102D01*
X136965000Y-80898061D01*
X103660000Y-80898061D01*
X103660000Y-79123061D01*
X173640000Y-79123061D01*
X173640000Y-79326939D01*
X173679774Y-79526898D01*
X173757795Y-79715256D01*
X173871063Y-79884774D01*
X174015226Y-80028937D01*
X174184744Y-80142205D01*
X174373102Y-80220226D01*
X174573061Y-80260000D01*
X174776939Y-80260000D01*
X174976898Y-80220226D01*
X175165256Y-80142205D01*
X175334774Y-80028937D01*
X175478937Y-79884774D01*
X175592205Y-79715256D01*
X175670226Y-79526898D01*
X175710000Y-79326939D01*
X175710000Y-79123061D01*
X175670226Y-78923102D01*
X175592205Y-78734744D01*
X175478937Y-78565226D01*
X175334774Y-78421063D01*
X175165256Y-78307795D01*
X174976898Y-78229774D01*
X174776939Y-78190000D01*
X174573061Y-78190000D01*
X174373102Y-78229774D01*
X174184744Y-78307795D01*
X174015226Y-78421063D01*
X173871063Y-78565226D01*
X173757795Y-78734744D01*
X173679774Y-78923102D01*
X173640000Y-79123061D01*
X103660000Y-79123061D01*
X103660000Y-76898061D01*
X115965000Y-76898061D01*
X115965000Y-77101939D01*
X116004774Y-77301898D01*
X116082795Y-77490256D01*
X116196063Y-77659774D01*
X116340226Y-77803937D01*
X116509744Y-77917205D01*
X116698102Y-77995226D01*
X116898061Y-78035000D01*
X117101939Y-78035000D01*
X117301898Y-77995226D01*
X117490256Y-77917205D01*
X117659774Y-77803937D01*
X117803937Y-77659774D01*
X117917205Y-77490256D01*
X117995226Y-77301898D01*
X118035000Y-77101939D01*
X118035000Y-76898061D01*
X117995226Y-76698102D01*
X117917205Y-76509744D01*
X117803937Y-76340226D01*
X117659774Y-76196063D01*
X117513104Y-76098061D01*
X155175000Y-76098061D01*
X155175000Y-76301939D01*
X155214774Y-76501898D01*
X155292795Y-76690256D01*
X155406063Y-76859774D01*
X155550226Y-77003937D01*
X155719744Y-77117205D01*
X155908102Y-77195226D01*
X156108061Y-77235000D01*
X156311939Y-77235000D01*
X156511898Y-77195226D01*
X156700256Y-77117205D01*
X156869774Y-77003937D01*
X157013937Y-76859774D01*
X157127205Y-76690256D01*
X157205226Y-76501898D01*
X157245000Y-76301939D01*
X157245000Y-76098061D01*
X157205226Y-75898102D01*
X157127205Y-75709744D01*
X157089785Y-75653740D01*
X171335000Y-75653740D01*
X171335000Y-75946260D01*
X171392068Y-76233158D01*
X171504010Y-76503411D01*
X171666525Y-76746632D01*
X171873368Y-76953475D01*
X172116589Y-77115990D01*
X172386842Y-77227932D01*
X172673740Y-77285000D01*
X172966260Y-77285000D01*
X173253158Y-77227932D01*
X173523411Y-77115990D01*
X173766632Y-76953475D01*
X173973475Y-76746632D01*
X174090000Y-76572240D01*
X174206525Y-76746632D01*
X174413368Y-76953475D01*
X174656589Y-77115990D01*
X174926842Y-77227932D01*
X175213740Y-77285000D01*
X175506260Y-77285000D01*
X175793158Y-77227932D01*
X176063411Y-77115990D01*
X176306632Y-76953475D01*
X176513475Y-76746632D01*
X176630000Y-76572240D01*
X176746525Y-76746632D01*
X176953368Y-76953475D01*
X177196589Y-77115990D01*
X177466842Y-77227932D01*
X177753740Y-77285000D01*
X178046260Y-77285000D01*
X178333158Y-77227932D01*
X178603411Y-77115990D01*
X178846632Y-76953475D01*
X179053475Y-76746632D01*
X179170000Y-76572240D01*
X179286525Y-76746632D01*
X179493368Y-76953475D01*
X179736589Y-77115990D01*
X180006842Y-77227932D01*
X180293740Y-77285000D01*
X180586260Y-77285000D01*
X180873158Y-77227932D01*
X181143411Y-77115990D01*
X181386632Y-76953475D01*
X181593475Y-76746632D01*
X181710000Y-76572240D01*
X181826525Y-76746632D01*
X182033368Y-76953475D01*
X182276589Y-77115990D01*
X182546842Y-77227932D01*
X182833740Y-77285000D01*
X183126260Y-77285000D01*
X183413158Y-77227932D01*
X183683411Y-77115990D01*
X183926632Y-76953475D01*
X184133475Y-76746632D01*
X184250000Y-76572240D01*
X184366525Y-76746632D01*
X184573368Y-76953475D01*
X184816589Y-77115990D01*
X185086842Y-77227932D01*
X185373740Y-77285000D01*
X185666260Y-77285000D01*
X185953158Y-77227932D01*
X186223411Y-77115990D01*
X186466632Y-76953475D01*
X186673475Y-76746632D01*
X186790000Y-76572240D01*
X186906525Y-76746632D01*
X187113368Y-76953475D01*
X187356589Y-77115990D01*
X187626842Y-77227932D01*
X187913740Y-77285000D01*
X188206260Y-77285000D01*
X188493158Y-77227932D01*
X188763411Y-77115990D01*
X189006632Y-76953475D01*
X189138487Y-76821620D01*
X189160498Y-76894180D01*
X189219463Y-77004494D01*
X189298815Y-77101185D01*
X189395506Y-77180537D01*
X189505820Y-77239502D01*
X189625518Y-77275812D01*
X189750000Y-77288072D01*
X191450000Y-77288072D01*
X191574482Y-77275812D01*
X191694180Y-77239502D01*
X191804494Y-77180537D01*
X191901185Y-77101185D01*
X191980537Y-77004494D01*
X192039502Y-76894180D01*
X192075812Y-76774482D01*
X192088072Y-76650000D01*
X192088072Y-74950000D01*
X192075812Y-74825518D01*
X192039502Y-74705820D01*
X191980537Y-74595506D01*
X191901185Y-74498815D01*
X191804494Y-74419463D01*
X191694180Y-74360498D01*
X191574482Y-74324188D01*
X191450000Y-74311928D01*
X189750000Y-74311928D01*
X189625518Y-74324188D01*
X189505820Y-74360498D01*
X189395506Y-74419463D01*
X189298815Y-74498815D01*
X189219463Y-74595506D01*
X189160498Y-74705820D01*
X189138487Y-74778380D01*
X189006632Y-74646525D01*
X188763411Y-74484010D01*
X188493158Y-74372068D01*
X188206260Y-74315000D01*
X187913740Y-74315000D01*
X187626842Y-74372068D01*
X187356589Y-74484010D01*
X187113368Y-74646525D01*
X186906525Y-74853368D01*
X186790000Y-75027760D01*
X186673475Y-74853368D01*
X186466632Y-74646525D01*
X186223411Y-74484010D01*
X185953158Y-74372068D01*
X185666260Y-74315000D01*
X185373740Y-74315000D01*
X185086842Y-74372068D01*
X184816589Y-74484010D01*
X184573368Y-74646525D01*
X184366525Y-74853368D01*
X184250000Y-75027760D01*
X184133475Y-74853368D01*
X183926632Y-74646525D01*
X183683411Y-74484010D01*
X183413158Y-74372068D01*
X183126260Y-74315000D01*
X182833740Y-74315000D01*
X182546842Y-74372068D01*
X182276589Y-74484010D01*
X182033368Y-74646525D01*
X181826525Y-74853368D01*
X181710000Y-75027760D01*
X181593475Y-74853368D01*
X181386632Y-74646525D01*
X181143411Y-74484010D01*
X180873158Y-74372068D01*
X180586260Y-74315000D01*
X180293740Y-74315000D01*
X180006842Y-74372068D01*
X179736589Y-74484010D01*
X179493368Y-74646525D01*
X179286525Y-74853368D01*
X179170000Y-75027760D01*
X179053475Y-74853368D01*
X178846632Y-74646525D01*
X178603411Y-74484010D01*
X178333158Y-74372068D01*
X178046260Y-74315000D01*
X177753740Y-74315000D01*
X177466842Y-74372068D01*
X177196589Y-74484010D01*
X176953368Y-74646525D01*
X176746525Y-74853368D01*
X176630000Y-75027760D01*
X176513475Y-74853368D01*
X176306632Y-74646525D01*
X176063411Y-74484010D01*
X175793158Y-74372068D01*
X175506260Y-74315000D01*
X175213740Y-74315000D01*
X174926842Y-74372068D01*
X174656589Y-74484010D01*
X174413368Y-74646525D01*
X174206525Y-74853368D01*
X174090000Y-75027760D01*
X173973475Y-74853368D01*
X173766632Y-74646525D01*
X173523411Y-74484010D01*
X173253158Y-74372068D01*
X172966260Y-74315000D01*
X172673740Y-74315000D01*
X172386842Y-74372068D01*
X172116589Y-74484010D01*
X171873368Y-74646525D01*
X171666525Y-74853368D01*
X171504010Y-75096589D01*
X171392068Y-75366842D01*
X171335000Y-75653740D01*
X157089785Y-75653740D01*
X157013937Y-75540226D01*
X156869774Y-75396063D01*
X156700256Y-75282795D01*
X156511898Y-75204774D01*
X156311939Y-75165000D01*
X156108061Y-75165000D01*
X155908102Y-75204774D01*
X155719744Y-75282795D01*
X155550226Y-75396063D01*
X155406063Y-75540226D01*
X155292795Y-75709744D01*
X155214774Y-75898102D01*
X155175000Y-76098061D01*
X117513104Y-76098061D01*
X117490256Y-76082795D01*
X117301898Y-76004774D01*
X117101939Y-75965000D01*
X116898061Y-75965000D01*
X116698102Y-76004774D01*
X116509744Y-76082795D01*
X116340226Y-76196063D01*
X116196063Y-76340226D01*
X116082795Y-76509744D01*
X116004774Y-76698102D01*
X115965000Y-76898061D01*
X103660000Y-76898061D01*
X103660000Y-72387496D01*
X104166735Y-73145879D01*
X104854121Y-73833265D01*
X105662401Y-74373340D01*
X106560514Y-74745350D01*
X107513945Y-74935000D01*
X108486055Y-74935000D01*
X108671759Y-74898061D01*
X112965000Y-74898061D01*
X112965000Y-75101939D01*
X113004774Y-75301898D01*
X113082795Y-75490256D01*
X113196063Y-75659774D01*
X113340226Y-75803937D01*
X113509744Y-75917205D01*
X113698102Y-75995226D01*
X113898061Y-76035000D01*
X114101939Y-76035000D01*
X114301898Y-75995226D01*
X114490256Y-75917205D01*
X114659774Y-75803937D01*
X114803937Y-75659774D01*
X114917205Y-75490256D01*
X114995226Y-75301898D01*
X115035000Y-75101939D01*
X115035000Y-74898061D01*
X128965000Y-74898061D01*
X128965000Y-75101939D01*
X129004774Y-75301898D01*
X129082795Y-75490256D01*
X129196063Y-75659774D01*
X129340226Y-75803937D01*
X129509744Y-75917205D01*
X129698102Y-75995226D01*
X129898061Y-76035000D01*
X130101939Y-76035000D01*
X130301898Y-75995226D01*
X130490256Y-75917205D01*
X130659774Y-75803937D01*
X130803937Y-75659774D01*
X130917205Y-75490256D01*
X130995226Y-75301898D01*
X131035000Y-75101939D01*
X131035000Y-74898061D01*
X131021077Y-74828061D01*
X143745000Y-74828061D01*
X143745000Y-75031939D01*
X143784774Y-75231898D01*
X143862795Y-75420256D01*
X143976063Y-75589774D01*
X144120226Y-75733937D01*
X144289744Y-75847205D01*
X144478102Y-75925226D01*
X144678061Y-75965000D01*
X144881939Y-75965000D01*
X145081898Y-75925226D01*
X145270256Y-75847205D01*
X145439774Y-75733937D01*
X145583937Y-75589774D01*
X145697205Y-75420256D01*
X145775226Y-75231898D01*
X145815000Y-75031939D01*
X145815000Y-74828061D01*
X150095000Y-74828061D01*
X150095000Y-75031939D01*
X150134774Y-75231898D01*
X150212795Y-75420256D01*
X150326063Y-75589774D01*
X150470226Y-75733937D01*
X150639744Y-75847205D01*
X150828102Y-75925226D01*
X151028061Y-75965000D01*
X151231939Y-75965000D01*
X151431898Y-75925226D01*
X151620256Y-75847205D01*
X151789774Y-75733937D01*
X151933937Y-75589774D01*
X152047205Y-75420256D01*
X152125226Y-75231898D01*
X152165000Y-75031939D01*
X152165000Y-74828061D01*
X152125226Y-74628102D01*
X152047205Y-74439744D01*
X151933937Y-74270226D01*
X151789774Y-74126063D01*
X151620256Y-74012795D01*
X151431898Y-73934774D01*
X151231939Y-73895000D01*
X151028061Y-73895000D01*
X150828102Y-73934774D01*
X150639744Y-74012795D01*
X150470226Y-74126063D01*
X150326063Y-74270226D01*
X150212795Y-74439744D01*
X150134774Y-74628102D01*
X150095000Y-74828061D01*
X145815000Y-74828061D01*
X145775226Y-74628102D01*
X145697205Y-74439744D01*
X145583937Y-74270226D01*
X145439774Y-74126063D01*
X145270256Y-74012795D01*
X145081898Y-73934774D01*
X144881939Y-73895000D01*
X144678061Y-73895000D01*
X144478102Y-73934774D01*
X144289744Y-74012795D01*
X144120226Y-74126063D01*
X143976063Y-74270226D01*
X143862795Y-74439744D01*
X143784774Y-74628102D01*
X143745000Y-74828061D01*
X131021077Y-74828061D01*
X130995226Y-74698102D01*
X130917205Y-74509744D01*
X130803937Y-74340226D01*
X130659774Y-74196063D01*
X130490256Y-74082795D01*
X130301898Y-74004774D01*
X130101939Y-73965000D01*
X129898061Y-73965000D01*
X129698102Y-74004774D01*
X129509744Y-74082795D01*
X129340226Y-74196063D01*
X129196063Y-74340226D01*
X129082795Y-74509744D01*
X129004774Y-74698102D01*
X128965000Y-74898061D01*
X115035000Y-74898061D01*
X114995226Y-74698102D01*
X114917205Y-74509744D01*
X114803937Y-74340226D01*
X114659774Y-74196063D01*
X114490256Y-74082795D01*
X114301898Y-74004774D01*
X114101939Y-73965000D01*
X113898061Y-73965000D01*
X113698102Y-74004774D01*
X113509744Y-74082795D01*
X113340226Y-74196063D01*
X113196063Y-74340226D01*
X113082795Y-74509744D01*
X113004774Y-74698102D01*
X112965000Y-74898061D01*
X108671759Y-74898061D01*
X109439486Y-74745350D01*
X110337599Y-74373340D01*
X111145879Y-73833265D01*
X111833265Y-73145879D01*
X112373340Y-72337599D01*
X112555402Y-71898061D01*
X117965000Y-71898061D01*
X117965000Y-72101939D01*
X118004774Y-72301898D01*
X118082795Y-72490256D01*
X118196063Y-72659774D01*
X118340226Y-72803937D01*
X118509744Y-72917205D01*
X118698102Y-72995226D01*
X118898061Y-73035000D01*
X119101939Y-73035000D01*
X119301898Y-72995226D01*
X119490256Y-72917205D01*
X119659774Y-72803937D01*
X119803937Y-72659774D01*
X119917205Y-72490256D01*
X119995226Y-72301898D01*
X119997978Y-72288061D01*
X143745000Y-72288061D01*
X143745000Y-72491939D01*
X143784774Y-72691898D01*
X143862795Y-72880256D01*
X143976063Y-73049774D01*
X144120226Y-73193937D01*
X144289744Y-73307205D01*
X144478102Y-73385226D01*
X144678061Y-73425000D01*
X144881939Y-73425000D01*
X145081898Y-73385226D01*
X145270256Y-73307205D01*
X145439774Y-73193937D01*
X145583937Y-73049774D01*
X145697205Y-72880256D01*
X145775226Y-72691898D01*
X145815000Y-72491939D01*
X145815000Y-72288061D01*
X150095000Y-72288061D01*
X150095000Y-72491939D01*
X150134774Y-72691898D01*
X150212795Y-72880256D01*
X150326063Y-73049774D01*
X150470226Y-73193937D01*
X150639744Y-73307205D01*
X150828102Y-73385226D01*
X151028061Y-73425000D01*
X151231939Y-73425000D01*
X151431898Y-73385226D01*
X151620256Y-73307205D01*
X151789774Y-73193937D01*
X151933937Y-73049774D01*
X152047205Y-72880256D01*
X152125226Y-72691898D01*
X152165000Y-72491939D01*
X152165000Y-72288061D01*
X155175000Y-72288061D01*
X155175000Y-72491939D01*
X155214774Y-72691898D01*
X155292795Y-72880256D01*
X155406063Y-73049774D01*
X155550226Y-73193937D01*
X155719744Y-73307205D01*
X155908102Y-73385226D01*
X156108061Y-73425000D01*
X156311939Y-73425000D01*
X156511898Y-73385226D01*
X156700256Y-73307205D01*
X156869774Y-73193937D01*
X157013937Y-73049774D01*
X157127205Y-72880256D01*
X157205226Y-72691898D01*
X157245000Y-72491939D01*
X157245000Y-72288061D01*
X157205226Y-72088102D01*
X157127205Y-71899744D01*
X157013937Y-71730226D01*
X156869774Y-71586063D01*
X156700256Y-71472795D01*
X156511898Y-71394774D01*
X156311939Y-71355000D01*
X156108061Y-71355000D01*
X155908102Y-71394774D01*
X155719744Y-71472795D01*
X155550226Y-71586063D01*
X155406063Y-71730226D01*
X155292795Y-71899744D01*
X155214774Y-72088102D01*
X155175000Y-72288061D01*
X152165000Y-72288061D01*
X152125226Y-72088102D01*
X152047205Y-71899744D01*
X151933937Y-71730226D01*
X151789774Y-71586063D01*
X151620256Y-71472795D01*
X151431898Y-71394774D01*
X151231939Y-71355000D01*
X151028061Y-71355000D01*
X150828102Y-71394774D01*
X150639744Y-71472795D01*
X150470226Y-71586063D01*
X150326063Y-71730226D01*
X150212795Y-71899744D01*
X150134774Y-72088102D01*
X150095000Y-72288061D01*
X145815000Y-72288061D01*
X145775226Y-72088102D01*
X145697205Y-71899744D01*
X145583937Y-71730226D01*
X145439774Y-71586063D01*
X145270256Y-71472795D01*
X145081898Y-71394774D01*
X144881939Y-71355000D01*
X144678061Y-71355000D01*
X144478102Y-71394774D01*
X144289744Y-71472795D01*
X144120226Y-71586063D01*
X143976063Y-71730226D01*
X143862795Y-71899744D01*
X143784774Y-72088102D01*
X143745000Y-72288061D01*
X119997978Y-72288061D01*
X120035000Y-72101939D01*
X120035000Y-71898061D01*
X119995226Y-71698102D01*
X119917205Y-71509744D01*
X119803937Y-71340226D01*
X119659774Y-71196063D01*
X119490256Y-71082795D01*
X119301898Y-71004774D01*
X119101939Y-70965000D01*
X118898061Y-70965000D01*
X118698102Y-71004774D01*
X118509744Y-71082795D01*
X118340226Y-71196063D01*
X118196063Y-71340226D01*
X118082795Y-71509744D01*
X118004774Y-71698102D01*
X117965000Y-71898061D01*
X112555402Y-71898061D01*
X112745350Y-71439486D01*
X112935000Y-70486055D01*
X112935000Y-69513945D01*
X112745350Y-68560514D01*
X112373340Y-67662401D01*
X111833265Y-66854121D01*
X111145879Y-66166735D01*
X110387496Y-65660000D01*
X195612504Y-65660000D01*
X194854121Y-66166735D01*
%TA.AperFunction,Conductor*%
D18*
G36*
X194854121Y-66166735D02*
G01*
X194166735Y-66854121D01*
X193626660Y-67662401D01*
X193254650Y-68560514D01*
X193065000Y-69513945D01*
X193065000Y-70486055D01*
X193254650Y-71439486D01*
X193626660Y-72337599D01*
X194166735Y-73145879D01*
X194854121Y-73833265D01*
X195662401Y-74373340D01*
X196560514Y-74745350D01*
X197513945Y-74935000D01*
X198486055Y-74935000D01*
X199439486Y-74745350D01*
X200337599Y-74373340D01*
X201145879Y-73833265D01*
X201833265Y-73145879D01*
X202340000Y-72387496D01*
X202340001Y-107612506D01*
X201833265Y-106854121D01*
X201145879Y-106166735D01*
X200337599Y-105626660D01*
X199439486Y-105254650D01*
X198486055Y-105065000D01*
X197513945Y-105065000D01*
X196560514Y-105254650D01*
X195662401Y-105626660D01*
X194854121Y-106166735D01*
X194166735Y-106854121D01*
X193626660Y-107662401D01*
X193254650Y-108560514D01*
X193065000Y-109513945D01*
X193065000Y-110486055D01*
X193254650Y-111439486D01*
X193626660Y-112337599D01*
X194166735Y-113145879D01*
X194854121Y-113833265D01*
X195612504Y-114340000D01*
X155778622Y-114340000D01*
X155817205Y-114282256D01*
X155895226Y-114093898D01*
X155935000Y-113893939D01*
X155935000Y-113690061D01*
X155895226Y-113490102D01*
X155817205Y-113301744D01*
X155703937Y-113132226D01*
X155559774Y-112988063D01*
X155390256Y-112874795D01*
X155201898Y-112796774D01*
X155001939Y-112757000D01*
X154798061Y-112757000D01*
X154598102Y-112796774D01*
X154409744Y-112874795D01*
X154240226Y-112988063D01*
X154096063Y-113132226D01*
X153982795Y-113301744D01*
X153904774Y-113490102D01*
X153865000Y-113690061D01*
X153865000Y-113893939D01*
X153904774Y-114093898D01*
X153982795Y-114282256D01*
X154021378Y-114340000D01*
X151754622Y-114340000D01*
X151793205Y-114282256D01*
X151871226Y-114093898D01*
X151911000Y-113893939D01*
X151911000Y-113690061D01*
X151871226Y-113490102D01*
X151793205Y-113301744D01*
X151679937Y-113132226D01*
X151535774Y-112988063D01*
X151366256Y-112874795D01*
X151177898Y-112796774D01*
X150977939Y-112757000D01*
X150774061Y-112757000D01*
X150574102Y-112796774D01*
X150385744Y-112874795D01*
X150216226Y-112988063D01*
X150072063Y-113132226D01*
X149958795Y-113301744D01*
X149880774Y-113490102D01*
X149841000Y-113690061D01*
X149841000Y-113893939D01*
X149880774Y-114093898D01*
X149958795Y-114282256D01*
X149997378Y-114340000D01*
X110387496Y-114340000D01*
X111145879Y-113833265D01*
X111833265Y-113145879D01*
X111998851Y-112898061D01*
X120965000Y-112898061D01*
X120965000Y-113101939D01*
X121004774Y-113301898D01*
X121082795Y-113490256D01*
X121196063Y-113659774D01*
X121340226Y-113803937D01*
X121509744Y-113917205D01*
X121698102Y-113995226D01*
X121898061Y-114035000D01*
X122101939Y-114035000D01*
X122301898Y-113995226D01*
X122490256Y-113917205D01*
X122659774Y-113803937D01*
X122803937Y-113659774D01*
X122917205Y-113490256D01*
X122995226Y-113301898D01*
X123035000Y-113101939D01*
X123035000Y-112898061D01*
X132965000Y-112898061D01*
X132965000Y-113101939D01*
X133004774Y-113301898D01*
X133082795Y-113490256D01*
X133196063Y-113659774D01*
X133340226Y-113803937D01*
X133509744Y-113917205D01*
X133698102Y-113995226D01*
X133898061Y-114035000D01*
X134101939Y-114035000D01*
X134301898Y-113995226D01*
X134490256Y-113917205D01*
X134659774Y-113803937D01*
X134803937Y-113659774D01*
X134917205Y-113490256D01*
X134995226Y-113301898D01*
X135035000Y-113101939D01*
X135035000Y-112898061D01*
X134995226Y-112698102D01*
X134917205Y-112509744D01*
X134803937Y-112340226D01*
X134659774Y-112196063D01*
X134614873Y-112166061D01*
X141205000Y-112166061D01*
X141205000Y-112369939D01*
X141244774Y-112569898D01*
X141322795Y-112758256D01*
X141436063Y-112927774D01*
X141580226Y-113071937D01*
X141749744Y-113185205D01*
X141938102Y-113263226D01*
X142138061Y-113303000D01*
X142341939Y-113303000D01*
X142541898Y-113263226D01*
X142730256Y-113185205D01*
X142899774Y-113071937D01*
X143002000Y-112969711D01*
X143104226Y-113071937D01*
X143273744Y-113185205D01*
X143462102Y-113263226D01*
X143662061Y-113303000D01*
X143865939Y-113303000D01*
X144065898Y-113263226D01*
X144254256Y-113185205D01*
X144423774Y-113071937D01*
X144567937Y-112927774D01*
X144681205Y-112758256D01*
X144759226Y-112569898D01*
X144799000Y-112369939D01*
X144799000Y-112166061D01*
X144759226Y-111966102D01*
X144681205Y-111777744D01*
X144567937Y-111608226D01*
X144423774Y-111464063D01*
X144254256Y-111350795D01*
X144065898Y-111272774D01*
X143865939Y-111233000D01*
X143662061Y-111233000D01*
X143462102Y-111272774D01*
X143273744Y-111350795D01*
X143104226Y-111464063D01*
X143002000Y-111566289D01*
X142899774Y-111464063D01*
X142730256Y-111350795D01*
X142541898Y-111272774D01*
X142341939Y-111233000D01*
X142138061Y-111233000D01*
X141938102Y-111272774D01*
X141749744Y-111350795D01*
X141580226Y-111464063D01*
X141436063Y-111608226D01*
X141322795Y-111777744D01*
X141244774Y-111966102D01*
X141205000Y-112166061D01*
X134614873Y-112166061D01*
X134490256Y-112082795D01*
X134301898Y-112004774D01*
X134101939Y-111965000D01*
X133898061Y-111965000D01*
X133698102Y-112004774D01*
X133509744Y-112082795D01*
X133340226Y-112196063D01*
X133196063Y-112340226D01*
X133082795Y-112509744D01*
X133004774Y-112698102D01*
X132965000Y-112898061D01*
X123035000Y-112898061D01*
X122995226Y-112698102D01*
X122917205Y-112509744D01*
X122803937Y-112340226D01*
X122659774Y-112196063D01*
X122490256Y-112082795D01*
X122301898Y-112004774D01*
X122101939Y-111965000D01*
X121898061Y-111965000D01*
X121698102Y-112004774D01*
X121509744Y-112082795D01*
X121340226Y-112196063D01*
X121196063Y-112340226D01*
X121082795Y-112509744D01*
X121004774Y-112698102D01*
X120965000Y-112898061D01*
X111998851Y-112898061D01*
X112373340Y-112337599D01*
X112745350Y-111439486D01*
X112903968Y-110642061D01*
X163049000Y-110642061D01*
X163049000Y-110845939D01*
X163088774Y-111045898D01*
X163166795Y-111234256D01*
X163280063Y-111403774D01*
X163424226Y-111547937D01*
X163593744Y-111661205D01*
X163782102Y-111739226D01*
X163982061Y-111779000D01*
X164185939Y-111779000D01*
X164385898Y-111739226D01*
X164574256Y-111661205D01*
X164743774Y-111547937D01*
X164887937Y-111403774D01*
X165001205Y-111234256D01*
X165079226Y-111045898D01*
X165119000Y-110845939D01*
X165119000Y-110642061D01*
X165079226Y-110442102D01*
X165001205Y-110253744D01*
X164887937Y-110084226D01*
X164743774Y-109940063D01*
X164574256Y-109826795D01*
X164385898Y-109748774D01*
X164185939Y-109709000D01*
X163982061Y-109709000D01*
X163782102Y-109748774D01*
X163593744Y-109826795D01*
X163424226Y-109940063D01*
X163280063Y-110084226D01*
X163166795Y-110253744D01*
X163088774Y-110442102D01*
X163049000Y-110642061D01*
X112903968Y-110642061D01*
X112935000Y-110486055D01*
X112935000Y-109513945D01*
X112745350Y-108560514D01*
X112373340Y-107662401D01*
X111862625Y-106898061D01*
X112965000Y-106898061D01*
X112965000Y-107101939D01*
X113004774Y-107301898D01*
X113082795Y-107490256D01*
X113196063Y-107659774D01*
X113340226Y-107803937D01*
X113509744Y-107917205D01*
X113698102Y-107995226D01*
X113898061Y-108035000D01*
X114101939Y-108035000D01*
X114301898Y-107995226D01*
X114490256Y-107917205D01*
X114659774Y-107803937D01*
X114803937Y-107659774D01*
X114917205Y-107490256D01*
X114995226Y-107301898D01*
X115035000Y-107101939D01*
X115035000Y-106898061D01*
X121965000Y-106898061D01*
X121965000Y-107101939D01*
X122004774Y-107301898D01*
X122082795Y-107490256D01*
X122196063Y-107659774D01*
X122340226Y-107803937D01*
X122509744Y-107917205D01*
X122698102Y-107995226D01*
X122898061Y-108035000D01*
X123101939Y-108035000D01*
X123301898Y-107995226D01*
X123490256Y-107917205D01*
X123659774Y-107803937D01*
X123803937Y-107659774D01*
X123917205Y-107490256D01*
X123995226Y-107301898D01*
X124035000Y-107101939D01*
X124035000Y-106898061D01*
X123995226Y-106698102D01*
X123917205Y-106509744D01*
X123803937Y-106340226D01*
X123659774Y-106196063D01*
X123490256Y-106082795D01*
X123301898Y-106004774D01*
X123101939Y-105965000D01*
X122898061Y-105965000D01*
X122698102Y-106004774D01*
X122509744Y-106082795D01*
X122340226Y-106196063D01*
X122196063Y-106340226D01*
X122082795Y-106509744D01*
X122004774Y-106698102D01*
X121965000Y-106898061D01*
X115035000Y-106898061D01*
X114995226Y-106698102D01*
X114917205Y-106509744D01*
X114803937Y-106340226D01*
X114659774Y-106196063D01*
X114490256Y-106082795D01*
X114301898Y-106004774D01*
X114101939Y-105965000D01*
X113898061Y-105965000D01*
X113698102Y-106004774D01*
X113509744Y-106082795D01*
X113340226Y-106196063D01*
X113196063Y-106340226D01*
X113082795Y-106509744D01*
X113004774Y-106698102D01*
X112965000Y-106898061D01*
X111862625Y-106898061D01*
X111833265Y-106854121D01*
X111145879Y-106166735D01*
X110743780Y-105898061D01*
X127965000Y-105898061D01*
X127965000Y-106101939D01*
X128004774Y-106301898D01*
X128082795Y-106490256D01*
X128196063Y-106659774D01*
X128340226Y-106803937D01*
X128509744Y-106917205D01*
X128698102Y-106995226D01*
X128898061Y-107035000D01*
X129101939Y-107035000D01*
X129301898Y-106995226D01*
X129490256Y-106917205D01*
X129659774Y-106803937D01*
X129803937Y-106659774D01*
X129917205Y-106490256D01*
X129995226Y-106301898D01*
X130035000Y-106101939D01*
X130035000Y-105898061D01*
X131965000Y-105898061D01*
X131965000Y-106101939D01*
X132004774Y-106301898D01*
X132082795Y-106490256D01*
X132196063Y-106659774D01*
X132340226Y-106803937D01*
X132509744Y-106917205D01*
X132698102Y-106995226D01*
X132898061Y-107035000D01*
X133101939Y-107035000D01*
X133301898Y-106995226D01*
X133490256Y-106917205D01*
X133659774Y-106803937D01*
X133803937Y-106659774D01*
X133858535Y-106578061D01*
X135617000Y-106578061D01*
X135617000Y-106781939D01*
X135656774Y-106981898D01*
X135734795Y-107170256D01*
X135848063Y-107339774D01*
X135992226Y-107483937D01*
X136161744Y-107597205D01*
X136350102Y-107675226D01*
X136550061Y-107715000D01*
X136753939Y-107715000D01*
X136953898Y-107675226D01*
X137142256Y-107597205D01*
X137311774Y-107483937D01*
X137455937Y-107339774D01*
X137569205Y-107170256D01*
X137647226Y-106981898D01*
X137683793Y-106798061D01*
X147990000Y-106798061D01*
X147990000Y-107001939D01*
X148029774Y-107201898D01*
X148107795Y-107390256D01*
X148221063Y-107559774D01*
X148365226Y-107703937D01*
X148534744Y-107817205D01*
X148723102Y-107895226D01*
X148923061Y-107935000D01*
X149126939Y-107935000D01*
X149169131Y-107926608D01*
X149140000Y-108073061D01*
X149140000Y-108276939D01*
X149179774Y-108476898D01*
X149257795Y-108665256D01*
X149371063Y-108834774D01*
X149373179Y-108836890D01*
X149307795Y-108934744D01*
X149229774Y-109123102D01*
X149190000Y-109323061D01*
X149190000Y-109526939D01*
X149229774Y-109726898D01*
X149307795Y-109915256D01*
X149421063Y-110084774D01*
X149565226Y-110228937D01*
X149734744Y-110342205D01*
X149923102Y-110420226D01*
X150123061Y-110460000D01*
X150326939Y-110460000D01*
X150526898Y-110420226D01*
X150715256Y-110342205D01*
X150884774Y-110228937D01*
X151028937Y-110084774D01*
X151142205Y-109915256D01*
X151220226Y-109726898D01*
X151260000Y-109526939D01*
X151260000Y-109323061D01*
X151220226Y-109123102D01*
X151142205Y-108934744D01*
X151028937Y-108765226D01*
X151026821Y-108763110D01*
X151092205Y-108665256D01*
X151170226Y-108476898D01*
X151210000Y-108276939D01*
X151210000Y-108102061D01*
X163557000Y-108102061D01*
X163557000Y-108305939D01*
X163596774Y-108505898D01*
X163674795Y-108694256D01*
X163788063Y-108863774D01*
X163932226Y-109007937D01*
X164101744Y-109121205D01*
X164290102Y-109199226D01*
X164490061Y-109239000D01*
X164693939Y-109239000D01*
X164893898Y-109199226D01*
X165082256Y-109121205D01*
X165086961Y-109118061D01*
X166605000Y-109118061D01*
X166605000Y-109321939D01*
X166644774Y-109521898D01*
X166722795Y-109710256D01*
X166836063Y-109879774D01*
X166980226Y-110023937D01*
X167149744Y-110137205D01*
X167338102Y-110215226D01*
X167538061Y-110255000D01*
X167741939Y-110255000D01*
X167941898Y-110215226D01*
X168130256Y-110137205D01*
X168299774Y-110023937D01*
X168443937Y-109879774D01*
X168557205Y-109710256D01*
X168635226Y-109521898D01*
X168675000Y-109321939D01*
X168675000Y-109118061D01*
X168635226Y-108918102D01*
X168557205Y-108729744D01*
X168443937Y-108560226D01*
X168299774Y-108416063D01*
X168130256Y-108302795D01*
X167941898Y-108224774D01*
X167741939Y-108185000D01*
X167538061Y-108185000D01*
X167338102Y-108224774D01*
X167149744Y-108302795D01*
X166980226Y-108416063D01*
X166836063Y-108560226D01*
X166722795Y-108729744D01*
X166644774Y-108918102D01*
X166605000Y-109118061D01*
X165086961Y-109118061D01*
X165251774Y-109007937D01*
X165395937Y-108863774D01*
X165509205Y-108694256D01*
X165587226Y-108505898D01*
X165627000Y-108305939D01*
X165627000Y-108102061D01*
X165587226Y-107902102D01*
X165509205Y-107713744D01*
X165395937Y-107544226D01*
X165251774Y-107400063D01*
X165082256Y-107286795D01*
X164893898Y-107208774D01*
X164693939Y-107169000D01*
X164490061Y-107169000D01*
X164290102Y-107208774D01*
X164101744Y-107286795D01*
X163932226Y-107400063D01*
X163788063Y-107544226D01*
X163674795Y-107713744D01*
X163596774Y-107902102D01*
X163557000Y-108102061D01*
X151210000Y-108102061D01*
X151210000Y-108073061D01*
X151170226Y-107873102D01*
X151092205Y-107684744D01*
X150978937Y-107515226D01*
X150834774Y-107371063D01*
X150665256Y-107257795D01*
X150476898Y-107179774D01*
X150276939Y-107140000D01*
X150073061Y-107140000D01*
X150030869Y-107148392D01*
X150060000Y-107001939D01*
X150060000Y-106798061D01*
X150020226Y-106598102D01*
X149942205Y-106409744D01*
X149828937Y-106240226D01*
X149684774Y-106096063D01*
X149515256Y-105982795D01*
X149326898Y-105904774D01*
X149126939Y-105865000D01*
X148923061Y-105865000D01*
X148723102Y-105904774D01*
X148534744Y-105982795D01*
X148365226Y-106096063D01*
X148221063Y-106240226D01*
X148107795Y-106409744D01*
X148029774Y-106598102D01*
X147990000Y-106798061D01*
X137683793Y-106798061D01*
X137687000Y-106781939D01*
X137687000Y-106578061D01*
X137647226Y-106378102D01*
X137569205Y-106189744D01*
X137455937Y-106020226D01*
X137311774Y-105876063D01*
X137142256Y-105762795D01*
X136953898Y-105684774D01*
X136753939Y-105645000D01*
X136550061Y-105645000D01*
X136350102Y-105684774D01*
X136161744Y-105762795D01*
X135992226Y-105876063D01*
X135848063Y-106020226D01*
X135734795Y-106189744D01*
X135656774Y-106378102D01*
X135617000Y-106578061D01*
X133858535Y-106578061D01*
X133917205Y-106490256D01*
X133995226Y-106301898D01*
X134035000Y-106101939D01*
X134035000Y-105898061D01*
X133995226Y-105698102D01*
X133917205Y-105509744D01*
X133803937Y-105340226D01*
X133659774Y-105196063D01*
X133490256Y-105082795D01*
X133301898Y-105004774D01*
X133101939Y-104965000D01*
X132898061Y-104965000D01*
X132698102Y-105004774D01*
X132509744Y-105082795D01*
X132340226Y-105196063D01*
X132196063Y-105340226D01*
X132082795Y-105509744D01*
X132004774Y-105698102D01*
X131965000Y-105898061D01*
X130035000Y-105898061D01*
X129995226Y-105698102D01*
X129917205Y-105509744D01*
X129803937Y-105340226D01*
X129659774Y-105196063D01*
X129490256Y-105082795D01*
X129301898Y-105004774D01*
X129101939Y-104965000D01*
X128898061Y-104965000D01*
X128698102Y-105004774D01*
X128509744Y-105082795D01*
X128340226Y-105196063D01*
X128196063Y-105340226D01*
X128082795Y-105509744D01*
X128004774Y-105698102D01*
X127965000Y-105898061D01*
X110743780Y-105898061D01*
X110337599Y-105626660D01*
X109439486Y-105254650D01*
X108486055Y-105065000D01*
X107513945Y-105065000D01*
X106560514Y-105254650D01*
X105662401Y-105626660D01*
X104854121Y-106166735D01*
X104166735Y-106854121D01*
X103660000Y-107612504D01*
X103660000Y-104298061D01*
X162665000Y-104298061D01*
X162665000Y-104501939D01*
X162704774Y-104701898D01*
X162782795Y-104890256D01*
X162896063Y-105059774D01*
X163040226Y-105203937D01*
X163209744Y-105317205D01*
X163398102Y-105395226D01*
X163598061Y-105435000D01*
X163801939Y-105435000D01*
X164001898Y-105395226D01*
X164190256Y-105317205D01*
X164359774Y-105203937D01*
X164503937Y-105059774D01*
X164617205Y-104890256D01*
X164695226Y-104701898D01*
X164735000Y-104501939D01*
X164735000Y-104298061D01*
X164695226Y-104098102D01*
X164617205Y-103909744D01*
X164503937Y-103740226D01*
X164359774Y-103596063D01*
X164190256Y-103482795D01*
X164001898Y-103404774D01*
X163801939Y-103365000D01*
X163598061Y-103365000D01*
X163398102Y-103404774D01*
X163209744Y-103482795D01*
X163040226Y-103596063D01*
X162896063Y-103740226D01*
X162782795Y-103909744D01*
X162704774Y-104098102D01*
X162665000Y-104298061D01*
X103660000Y-104298061D01*
X103660000Y-102898061D01*
X114965000Y-102898061D01*
X114965000Y-103101939D01*
X115004774Y-103301898D01*
X115082795Y-103490256D01*
X115196063Y-103659774D01*
X115340226Y-103803937D01*
X115509744Y-103917205D01*
X115698102Y-103995226D01*
X115898061Y-104035000D01*
X116101939Y-104035000D01*
X116301898Y-103995226D01*
X116490256Y-103917205D01*
X116659774Y-103803937D01*
X116803937Y-103659774D01*
X116917205Y-103490256D01*
X116995226Y-103301898D01*
X117035000Y-103101939D01*
X117035000Y-102898061D01*
X122165000Y-102898061D01*
X122165000Y-103101939D01*
X122204774Y-103301898D01*
X122282795Y-103490256D01*
X122396063Y-103659774D01*
X122540226Y-103803937D01*
X122709744Y-103917205D01*
X122898102Y-103995226D01*
X123098061Y-104035000D01*
X123301939Y-104035000D01*
X123501898Y-103995226D01*
X123690256Y-103917205D01*
X123859774Y-103803937D01*
X124003937Y-103659774D01*
X124117205Y-103490256D01*
X124195226Y-103301898D01*
X124235000Y-103101939D01*
X124235000Y-102898061D01*
X124209142Y-102768061D01*
X141205000Y-102768061D01*
X141205000Y-102971939D01*
X141244774Y-103171898D01*
X141322795Y-103360256D01*
X141436063Y-103529774D01*
X141580226Y-103673937D01*
X141749744Y-103787205D01*
X141938102Y-103865226D01*
X142138061Y-103905000D01*
X142341939Y-103905000D01*
X142541898Y-103865226D01*
X142730256Y-103787205D01*
X142899774Y-103673937D01*
X143043937Y-103529774D01*
X143157205Y-103360256D01*
X143235226Y-103171898D01*
X143275000Y-102971939D01*
X143275000Y-102768061D01*
X143235226Y-102568102D01*
X143157205Y-102379744D01*
X143043937Y-102210226D01*
X142899774Y-102066063D01*
X142730256Y-101952795D01*
X142541898Y-101874774D01*
X142341939Y-101835000D01*
X142138061Y-101835000D01*
X141938102Y-101874774D01*
X141749744Y-101952795D01*
X141580226Y-102066063D01*
X141436063Y-102210226D01*
X141322795Y-102379744D01*
X141244774Y-102568102D01*
X141205000Y-102768061D01*
X124209142Y-102768061D01*
X124195226Y-102698102D01*
X124117205Y-102509744D01*
X124003937Y-102340226D01*
X123859774Y-102196063D01*
X123690256Y-102082795D01*
X123501898Y-102004774D01*
X123301939Y-101965000D01*
X123098061Y-101965000D01*
X122898102Y-102004774D01*
X122709744Y-102082795D01*
X122540226Y-102196063D01*
X122396063Y-102340226D01*
X122282795Y-102509744D01*
X122204774Y-102698102D01*
X122165000Y-102898061D01*
X117035000Y-102898061D01*
X116995226Y-102698102D01*
X116917205Y-102509744D01*
X116803937Y-102340226D01*
X116659774Y-102196063D01*
X116490256Y-102082795D01*
X116301898Y-102004774D01*
X116101939Y-101965000D01*
X115898061Y-101965000D01*
X115698102Y-102004774D01*
X115509744Y-102082795D01*
X115340226Y-102196063D01*
X115196063Y-102340226D01*
X115082795Y-102509744D01*
X115004774Y-102698102D01*
X114965000Y-102898061D01*
X103660000Y-102898061D01*
X103660000Y-99458441D01*
X116800680Y-99458441D01*
X116800680Y-99662319D01*
X116840454Y-99862278D01*
X116918475Y-100050636D01*
X117031743Y-100220154D01*
X117175906Y-100364317D01*
X117178713Y-100366192D01*
X117082795Y-100509744D01*
X117004774Y-100698102D01*
X116965000Y-100898061D01*
X116965000Y-101101939D01*
X117004774Y-101301898D01*
X117082795Y-101490256D01*
X117196063Y-101659774D01*
X117340226Y-101803937D01*
X117509744Y-101917205D01*
X117698102Y-101995226D01*
X117898061Y-102035000D01*
X118101939Y-102035000D01*
X118301898Y-101995226D01*
X118490256Y-101917205D01*
X118659774Y-101803937D01*
X118803937Y-101659774D01*
X118917205Y-101490256D01*
X118995226Y-101301898D01*
X119035000Y-101101939D01*
X119035000Y-100898061D01*
X129965000Y-100898061D01*
X129965000Y-101101939D01*
X130004774Y-101301898D01*
X130082795Y-101490256D01*
X130196063Y-101659774D01*
X130340226Y-101803937D01*
X130509744Y-101917205D01*
X130698102Y-101995226D01*
X130898061Y-102035000D01*
X131101939Y-102035000D01*
X131301898Y-101995226D01*
X131490256Y-101917205D01*
X131659774Y-101803937D01*
X131803937Y-101659774D01*
X131917205Y-101490256D01*
X131995226Y-101301898D01*
X132035000Y-101101939D01*
X132035000Y-100898061D01*
X135065000Y-100898061D01*
X135065000Y-101101939D01*
X135104774Y-101301898D01*
X135182795Y-101490256D01*
X135296063Y-101659774D01*
X135440226Y-101803937D01*
X135609744Y-101917205D01*
X135798102Y-101995226D01*
X135998061Y-102035000D01*
X136201939Y-102035000D01*
X136401898Y-101995226D01*
X136590256Y-101917205D01*
X136759774Y-101803937D01*
X136903937Y-101659774D01*
X136911763Y-101648061D01*
X149215000Y-101648061D01*
X149215000Y-101851939D01*
X149254774Y-102051898D01*
X149332795Y-102240256D01*
X149446063Y-102409774D01*
X149538609Y-102502320D01*
X149450795Y-102633744D01*
X149372774Y-102822102D01*
X149333000Y-103022061D01*
X149333000Y-103225939D01*
X149372774Y-103425898D01*
X149450795Y-103614256D01*
X149564063Y-103783774D01*
X149708226Y-103927937D01*
X149877744Y-104041205D01*
X150066102Y-104119226D01*
X150266061Y-104159000D01*
X150469939Y-104159000D01*
X150669898Y-104119226D01*
X150858256Y-104041205D01*
X151027774Y-103927937D01*
X151171937Y-103783774D01*
X151285205Y-103614256D01*
X151363226Y-103425898D01*
X151403000Y-103225939D01*
X151403000Y-103022061D01*
X151398227Y-102998061D01*
X167965000Y-102998061D01*
X167965000Y-103201939D01*
X168004774Y-103401898D01*
X168082795Y-103590256D01*
X168196063Y-103759774D01*
X168340226Y-103903937D01*
X168509744Y-104017205D01*
X168698102Y-104095226D01*
X168898061Y-104135000D01*
X169101939Y-104135000D01*
X169301898Y-104095226D01*
X169490256Y-104017205D01*
X169659774Y-103903937D01*
X169803937Y-103759774D01*
X169917205Y-103590256D01*
X169995226Y-103401898D01*
X170005549Y-103350000D01*
X171511928Y-103350000D01*
X171511928Y-105050000D01*
X171524188Y-105174482D01*
X171560498Y-105294180D01*
X171619463Y-105404494D01*
X171698815Y-105501185D01*
X171795506Y-105580537D01*
X171905820Y-105639502D01*
X172025518Y-105675812D01*
X172150000Y-105688072D01*
X173850000Y-105688072D01*
X173974482Y-105675812D01*
X174094180Y-105639502D01*
X174204494Y-105580537D01*
X174301185Y-105501185D01*
X174380537Y-105404494D01*
X174439502Y-105294180D01*
X174461513Y-105221620D01*
X174593368Y-105353475D01*
X174836589Y-105515990D01*
X175106842Y-105627932D01*
X175393740Y-105685000D01*
X175686260Y-105685000D01*
X175973158Y-105627932D01*
X176243411Y-105515990D01*
X176486632Y-105353475D01*
X176693475Y-105146632D01*
X176810000Y-104972240D01*
X176926525Y-105146632D01*
X177133368Y-105353475D01*
X177376589Y-105515990D01*
X177646842Y-105627932D01*
X177933740Y-105685000D01*
X178226260Y-105685000D01*
X178513158Y-105627932D01*
X178783411Y-105515990D01*
X179026632Y-105353475D01*
X179233475Y-105146632D01*
X179350000Y-104972240D01*
X179466525Y-105146632D01*
X179673368Y-105353475D01*
X179916589Y-105515990D01*
X180186842Y-105627932D01*
X180473740Y-105685000D01*
X180766260Y-105685000D01*
X181053158Y-105627932D01*
X181323411Y-105515990D01*
X181566632Y-105353475D01*
X181773475Y-105146632D01*
X181890000Y-104972240D01*
X182006525Y-105146632D01*
X182213368Y-105353475D01*
X182456589Y-105515990D01*
X182726842Y-105627932D01*
X183013740Y-105685000D01*
X183306260Y-105685000D01*
X183593158Y-105627932D01*
X183863411Y-105515990D01*
X184106632Y-105353475D01*
X184313475Y-105146632D01*
X184430000Y-104972240D01*
X184546525Y-105146632D01*
X184753368Y-105353475D01*
X184996589Y-105515990D01*
X185266842Y-105627932D01*
X185553740Y-105685000D01*
X185846260Y-105685000D01*
X186133158Y-105627932D01*
X186403411Y-105515990D01*
X186646632Y-105353475D01*
X186853475Y-105146632D01*
X186970000Y-104972240D01*
X187086525Y-105146632D01*
X187293368Y-105353475D01*
X187536589Y-105515990D01*
X187806842Y-105627932D01*
X188093740Y-105685000D01*
X188386260Y-105685000D01*
X188673158Y-105627932D01*
X188943411Y-105515990D01*
X189186632Y-105353475D01*
X189393475Y-105146632D01*
X189510000Y-104972240D01*
X189626525Y-105146632D01*
X189833368Y-105353475D01*
X190076589Y-105515990D01*
X190346842Y-105627932D01*
X190633740Y-105685000D01*
X190926260Y-105685000D01*
X191213158Y-105627932D01*
X191483411Y-105515990D01*
X191726632Y-105353475D01*
X191933475Y-105146632D01*
X192095990Y-104903411D01*
X192207932Y-104633158D01*
X192265000Y-104346260D01*
X192265000Y-104053740D01*
X192207932Y-103766842D01*
X192095990Y-103496589D01*
X191933475Y-103253368D01*
X191726632Y-103046525D01*
X191483411Y-102884010D01*
X191213158Y-102772068D01*
X190926260Y-102715000D01*
X190633740Y-102715000D01*
X190346842Y-102772068D01*
X190076589Y-102884010D01*
X189833368Y-103046525D01*
X189626525Y-103253368D01*
X189510000Y-103427760D01*
X189393475Y-103253368D01*
X189186632Y-103046525D01*
X188943411Y-102884010D01*
X188673158Y-102772068D01*
X188386260Y-102715000D01*
X188093740Y-102715000D01*
X187806842Y-102772068D01*
X187536589Y-102884010D01*
X187293368Y-103046525D01*
X187086525Y-103253368D01*
X186970000Y-103427760D01*
X186853475Y-103253368D01*
X186646632Y-103046525D01*
X186403411Y-102884010D01*
X186133158Y-102772068D01*
X185846260Y-102715000D01*
X185553740Y-102715000D01*
X185266842Y-102772068D01*
X184996589Y-102884010D01*
X184753368Y-103046525D01*
X184546525Y-103253368D01*
X184430000Y-103427760D01*
X184313475Y-103253368D01*
X184106632Y-103046525D01*
X183863411Y-102884010D01*
X183593158Y-102772068D01*
X183306260Y-102715000D01*
X183013740Y-102715000D01*
X182726842Y-102772068D01*
X182456589Y-102884010D01*
X182213368Y-103046525D01*
X182006525Y-103253368D01*
X181890000Y-103427760D01*
X181773475Y-103253368D01*
X181566632Y-103046525D01*
X181323411Y-102884010D01*
X181053158Y-102772068D01*
X180766260Y-102715000D01*
X180473740Y-102715000D01*
X180186842Y-102772068D01*
X179916589Y-102884010D01*
X179673368Y-103046525D01*
X179466525Y-103253368D01*
X179350000Y-103427760D01*
X179233475Y-103253368D01*
X179026632Y-103046525D01*
X178783411Y-102884010D01*
X178513158Y-102772068D01*
X178226260Y-102715000D01*
X177933740Y-102715000D01*
X177646842Y-102772068D01*
X177376589Y-102884010D01*
X177133368Y-103046525D01*
X176926525Y-103253368D01*
X176810000Y-103427760D01*
X176693475Y-103253368D01*
X176486632Y-103046525D01*
X176243411Y-102884010D01*
X175973158Y-102772068D01*
X175686260Y-102715000D01*
X175393740Y-102715000D01*
X175106842Y-102772068D01*
X174836589Y-102884010D01*
X174593368Y-103046525D01*
X174461513Y-103178380D01*
X174439502Y-103105820D01*
X174380537Y-102995506D01*
X174301185Y-102898815D01*
X174204494Y-102819463D01*
X174094180Y-102760498D01*
X173974482Y-102724188D01*
X173850000Y-102711928D01*
X172150000Y-102711928D01*
X172025518Y-102724188D01*
X171905820Y-102760498D01*
X171795506Y-102819463D01*
X171698815Y-102898815D01*
X171619463Y-102995506D01*
X171560498Y-103105820D01*
X171524188Y-103225518D01*
X171511928Y-103350000D01*
X170005549Y-103350000D01*
X170035000Y-103201939D01*
X170035000Y-102998061D01*
X169995226Y-102798102D01*
X169917205Y-102609744D01*
X169803937Y-102440226D01*
X169659774Y-102296063D01*
X169490256Y-102182795D01*
X169301898Y-102104774D01*
X169101939Y-102065000D01*
X168898061Y-102065000D01*
X168698102Y-102104774D01*
X168509744Y-102182795D01*
X168340226Y-102296063D01*
X168196063Y-102440226D01*
X168082795Y-102609744D01*
X168004774Y-102798102D01*
X167965000Y-102998061D01*
X151398227Y-102998061D01*
X151363226Y-102822102D01*
X151285205Y-102633744D01*
X151171937Y-102464226D01*
X151079391Y-102371680D01*
X151167205Y-102240256D01*
X151245226Y-102051898D01*
X151285000Y-101851939D01*
X151285000Y-101648061D01*
X151245226Y-101448102D01*
X151167205Y-101259744D01*
X151053937Y-101090226D01*
X150909774Y-100946063D01*
X150740256Y-100832795D01*
X150551898Y-100754774D01*
X150351939Y-100715000D01*
X150148061Y-100715000D01*
X149948102Y-100754774D01*
X149759744Y-100832795D01*
X149590226Y-100946063D01*
X149446063Y-101090226D01*
X149332795Y-101259744D01*
X149254774Y-101448102D01*
X149215000Y-101648061D01*
X136911763Y-101648061D01*
X137017205Y-101490256D01*
X137095226Y-101301898D01*
X137135000Y-101101939D01*
X137135000Y-100898061D01*
X137095226Y-100698102D01*
X137017205Y-100509744D01*
X136903937Y-100340226D01*
X136759774Y-100196063D01*
X136687934Y-100148061D01*
X164715000Y-100148061D01*
X164715000Y-100351939D01*
X164754774Y-100551898D01*
X164832795Y-100740256D01*
X164946063Y-100909774D01*
X165090226Y-101053937D01*
X165259744Y-101167205D01*
X165448102Y-101245226D01*
X165648061Y-101285000D01*
X165851939Y-101285000D01*
X166051898Y-101245226D01*
X166165763Y-101198061D01*
X171365000Y-101198061D01*
X171365000Y-101401939D01*
X171404774Y-101601898D01*
X171482795Y-101790256D01*
X171596063Y-101959774D01*
X171740226Y-102103937D01*
X171909744Y-102217205D01*
X172098102Y-102295226D01*
X172298061Y-102335000D01*
X172501939Y-102335000D01*
X172701898Y-102295226D01*
X172890256Y-102217205D01*
X173059774Y-102103937D01*
X173203937Y-101959774D01*
X173317205Y-101790256D01*
X173395226Y-101601898D01*
X173435000Y-101401939D01*
X173435000Y-101198061D01*
X173395226Y-100998102D01*
X173317205Y-100809744D01*
X173203937Y-100640226D01*
X173059774Y-100496063D01*
X172890256Y-100382795D01*
X172701898Y-100304774D01*
X172501939Y-100265000D01*
X172298061Y-100265000D01*
X172098102Y-100304774D01*
X171909744Y-100382795D01*
X171740226Y-100496063D01*
X171596063Y-100640226D01*
X171482795Y-100809744D01*
X171404774Y-100998102D01*
X171365000Y-101198061D01*
X166165763Y-101198061D01*
X166240256Y-101167205D01*
X166409774Y-101053937D01*
X166553937Y-100909774D01*
X166667205Y-100740256D01*
X166745226Y-100551898D01*
X166785000Y-100351939D01*
X166785000Y-100148061D01*
X166745226Y-99948102D01*
X166667205Y-99759744D01*
X166553937Y-99590226D01*
X166461772Y-99498061D01*
X179465000Y-99498061D01*
X179465000Y-99701939D01*
X179504774Y-99901898D01*
X179582795Y-100090256D01*
X179696063Y-100259774D01*
X179840226Y-100403937D01*
X180009744Y-100517205D01*
X180198102Y-100595226D01*
X180398061Y-100635000D01*
X180601939Y-100635000D01*
X180801898Y-100595226D01*
X180990256Y-100517205D01*
X181159774Y-100403937D01*
X181303937Y-100259774D01*
X181417205Y-100090256D01*
X181495226Y-99901898D01*
X181535000Y-99701939D01*
X181535000Y-99498061D01*
X181495226Y-99298102D01*
X181417205Y-99109744D01*
X181303937Y-98940226D01*
X181159774Y-98796063D01*
X180990256Y-98682795D01*
X180801898Y-98604774D01*
X180601939Y-98565000D01*
X180398061Y-98565000D01*
X180198102Y-98604774D01*
X180009744Y-98682795D01*
X179840226Y-98796063D01*
X179696063Y-98940226D01*
X179582795Y-99109744D01*
X179504774Y-99298102D01*
X179465000Y-99498061D01*
X166461772Y-99498061D01*
X166409774Y-99446063D01*
X166240256Y-99332795D01*
X166051898Y-99254774D01*
X165851939Y-99215000D01*
X165648061Y-99215000D01*
X165448102Y-99254774D01*
X165259744Y-99332795D01*
X165090226Y-99446063D01*
X164946063Y-99590226D01*
X164832795Y-99759744D01*
X164754774Y-99948102D01*
X164715000Y-100148061D01*
X136687934Y-100148061D01*
X136590256Y-100082795D01*
X136401898Y-100004774D01*
X136201939Y-99965000D01*
X135998061Y-99965000D01*
X135798102Y-100004774D01*
X135609744Y-100082795D01*
X135440226Y-100196063D01*
X135296063Y-100340226D01*
X135182795Y-100509744D01*
X135104774Y-100698102D01*
X135065000Y-100898061D01*
X132035000Y-100898061D01*
X131995226Y-100698102D01*
X131917205Y-100509744D01*
X131803937Y-100340226D01*
X131659774Y-100196063D01*
X131490256Y-100082795D01*
X131301898Y-100004774D01*
X131101939Y-99965000D01*
X130898061Y-99965000D01*
X130698102Y-100004774D01*
X130509744Y-100082795D01*
X130340226Y-100196063D01*
X130196063Y-100340226D01*
X130082795Y-100509744D01*
X130004774Y-100698102D01*
X129965000Y-100898061D01*
X119035000Y-100898061D01*
X118995226Y-100698102D01*
X118917205Y-100509744D01*
X118803937Y-100340226D01*
X118659774Y-100196063D01*
X118656967Y-100194188D01*
X118752885Y-100050636D01*
X118830906Y-99862278D01*
X118870680Y-99662319D01*
X118870680Y-99458441D01*
X118830906Y-99258482D01*
X118752885Y-99070124D01*
X118639617Y-98900606D01*
X118637072Y-98898061D01*
X133965000Y-98898061D01*
X133965000Y-99101939D01*
X134004774Y-99301898D01*
X134082795Y-99490256D01*
X134196063Y-99659774D01*
X134340226Y-99803937D01*
X134509744Y-99917205D01*
X134698102Y-99995226D01*
X134898061Y-100035000D01*
X135101939Y-100035000D01*
X135301898Y-99995226D01*
X135490256Y-99917205D01*
X135659774Y-99803937D01*
X135803937Y-99659774D01*
X135917205Y-99490256D01*
X135995226Y-99301898D01*
X136035000Y-99101939D01*
X136035000Y-98958061D01*
X162541000Y-98958061D01*
X162541000Y-99161939D01*
X162580774Y-99361898D01*
X162658795Y-99550256D01*
X162772063Y-99719774D01*
X162916226Y-99863937D01*
X163085744Y-99977205D01*
X163274102Y-100055226D01*
X163474061Y-100095000D01*
X163677939Y-100095000D01*
X163877898Y-100055226D01*
X164066256Y-99977205D01*
X164235774Y-99863937D01*
X164379937Y-99719774D01*
X164493205Y-99550256D01*
X164571226Y-99361898D01*
X164611000Y-99161939D01*
X164611000Y-98958061D01*
X164571226Y-98758102D01*
X164493205Y-98569744D01*
X164379937Y-98400226D01*
X164235774Y-98256063D01*
X164066256Y-98142795D01*
X163877898Y-98064774D01*
X163677939Y-98025000D01*
X163474061Y-98025000D01*
X163274102Y-98064774D01*
X163085744Y-98142795D01*
X162916226Y-98256063D01*
X162772063Y-98400226D01*
X162658795Y-98569744D01*
X162580774Y-98758102D01*
X162541000Y-98958061D01*
X136035000Y-98958061D01*
X136035000Y-98898061D01*
X135995226Y-98698102D01*
X135917205Y-98509744D01*
X135803937Y-98340226D01*
X135659774Y-98196063D01*
X135490256Y-98082795D01*
X135301898Y-98004774D01*
X135101939Y-97965000D01*
X134898061Y-97965000D01*
X134698102Y-98004774D01*
X134509744Y-98082795D01*
X134340226Y-98196063D01*
X134196063Y-98340226D01*
X134082795Y-98509744D01*
X134004774Y-98698102D01*
X133965000Y-98898061D01*
X118637072Y-98898061D01*
X118495454Y-98756443D01*
X118325936Y-98643175D01*
X118137578Y-98565154D01*
X117937619Y-98525380D01*
X117733741Y-98525380D01*
X117533782Y-98565154D01*
X117345424Y-98643175D01*
X117175906Y-98756443D01*
X117031743Y-98900606D01*
X116918475Y-99070124D01*
X116840454Y-99258482D01*
X116800680Y-99458441D01*
X103660000Y-99458441D01*
X103660000Y-96867730D01*
X124934669Y-96867730D01*
X124934669Y-97071608D01*
X124974443Y-97271567D01*
X125052464Y-97459925D01*
X125165732Y-97629443D01*
X125309895Y-97773606D01*
X125479413Y-97886874D01*
X125667771Y-97964895D01*
X125867730Y-98004669D01*
X126071608Y-98004669D01*
X126271567Y-97964895D01*
X126459925Y-97886874D01*
X126629443Y-97773606D01*
X126773606Y-97629443D01*
X126886874Y-97459925D01*
X126964895Y-97271567D01*
X127004669Y-97071608D01*
X127004669Y-96867730D01*
X126964895Y-96667771D01*
X126886874Y-96479413D01*
X126773606Y-96309895D01*
X126629443Y-96165732D01*
X126459925Y-96052464D01*
X126271567Y-95974443D01*
X126071608Y-95934669D01*
X125867730Y-95934669D01*
X125667771Y-95974443D01*
X125479413Y-96052464D01*
X125309895Y-96165732D01*
X125165732Y-96309895D01*
X125052464Y-96479413D01*
X124974443Y-96667771D01*
X124934669Y-96867730D01*
X103660000Y-96867730D01*
X103660000Y-94480088D01*
X103723051Y-94531833D01*
X103937599Y-94646511D01*
X104170398Y-94717130D01*
X104351835Y-94735000D01*
X105173165Y-94735000D01*
X105354602Y-94717130D01*
X105587401Y-94646511D01*
X105801949Y-94531833D01*
X105990002Y-94377502D01*
X106144333Y-94189449D01*
X106259011Y-93974901D01*
X106329630Y-93742102D01*
X106353475Y-93500000D01*
X106329630Y-93257898D01*
X106326617Y-93247965D01*
X106406119Y-93366949D01*
X106595551Y-93556381D01*
X106818299Y-93705216D01*
X107065803Y-93807736D01*
X107328552Y-93860000D01*
X107596448Y-93860000D01*
X107859197Y-93807736D01*
X108106701Y-93705216D01*
X108329449Y-93556381D01*
X108518881Y-93366949D01*
X108667716Y-93144201D01*
X108769671Y-92898061D01*
X108965000Y-92898061D01*
X108965000Y-93101939D01*
X109004774Y-93301898D01*
X109082795Y-93490256D01*
X109196063Y-93659774D01*
X109340226Y-93803937D01*
X109509744Y-93917205D01*
X109698102Y-93995226D01*
X109898061Y-94035000D01*
X110101939Y-94035000D01*
X110301898Y-93995226D01*
X110490256Y-93917205D01*
X110518907Y-93898061D01*
X129165000Y-93898061D01*
X129165000Y-94101939D01*
X129204774Y-94301898D01*
X129282795Y-94490256D01*
X129396063Y-94659774D01*
X129540226Y-94803937D01*
X129709744Y-94917205D01*
X129898102Y-94995226D01*
X130098061Y-95035000D01*
X130301939Y-95035000D01*
X130501898Y-94995226D01*
X130690256Y-94917205D01*
X130724893Y-94894061D01*
X134601000Y-94894061D01*
X134601000Y-95097939D01*
X134640774Y-95297898D01*
X134718795Y-95486256D01*
X134832063Y-95655774D01*
X134976226Y-95799937D01*
X135145744Y-95913205D01*
X135334102Y-95991226D01*
X135534061Y-96031000D01*
X135737939Y-96031000D01*
X135937898Y-95991226D01*
X136126256Y-95913205D01*
X136295774Y-95799937D01*
X136439937Y-95655774D01*
X136553205Y-95486256D01*
X136631226Y-95297898D01*
X136661030Y-95148061D01*
X139935000Y-95148061D01*
X139935000Y-95351939D01*
X139974774Y-95551898D01*
X140052795Y-95740256D01*
X140166063Y-95909774D01*
X140310226Y-96053937D01*
X140479744Y-96167205D01*
X140668102Y-96245226D01*
X140868061Y-96285000D01*
X141071939Y-96285000D01*
X141271898Y-96245226D01*
X141460256Y-96167205D01*
X141629774Y-96053937D01*
X141773937Y-95909774D01*
X141887205Y-95740256D01*
X141965226Y-95551898D01*
X142005000Y-95351939D01*
X142005000Y-95148061D01*
X141965226Y-94948102D01*
X141942842Y-94894061D01*
X147301000Y-94894061D01*
X147301000Y-95097939D01*
X147340774Y-95297898D01*
X147418795Y-95486256D01*
X147532063Y-95655774D01*
X147676226Y-95799937D01*
X147845744Y-95913205D01*
X148034102Y-95991226D01*
X148234061Y-96031000D01*
X148437939Y-96031000D01*
X148637898Y-95991226D01*
X148826256Y-95913205D01*
X148995774Y-95799937D01*
X149139937Y-95655774D01*
X149253205Y-95486256D01*
X149288079Y-95402061D01*
X149333000Y-95402061D01*
X149333000Y-95605939D01*
X149372774Y-95805898D01*
X149450795Y-95994256D01*
X149564063Y-96163774D01*
X149708226Y-96307937D01*
X149877744Y-96421205D01*
X150066102Y-96499226D01*
X150266061Y-96539000D01*
X150469939Y-96539000D01*
X150669898Y-96499226D01*
X150858256Y-96421205D01*
X151027774Y-96307937D01*
X151171937Y-96163774D01*
X151285205Y-95994256D01*
X151363226Y-95805898D01*
X151403000Y-95605939D01*
X151403000Y-95542979D01*
X151404774Y-95551898D01*
X151482795Y-95740256D01*
X151596063Y-95909774D01*
X151740226Y-96053937D01*
X151909744Y-96167205D01*
X152098102Y-96245226D01*
X152298061Y-96285000D01*
X152501939Y-96285000D01*
X152701898Y-96245226D01*
X152890256Y-96167205D01*
X153059774Y-96053937D01*
X153203937Y-95909774D01*
X153317205Y-95740256D01*
X153395226Y-95551898D01*
X153435000Y-95351939D01*
X153435000Y-95148061D01*
X153430028Y-95123061D01*
X159765000Y-95123061D01*
X159765000Y-95326939D01*
X159804774Y-95526898D01*
X159882795Y-95715256D01*
X159996063Y-95884774D01*
X160140226Y-96028937D01*
X160309744Y-96142205D01*
X160498102Y-96220226D01*
X160698061Y-96260000D01*
X160901939Y-96260000D01*
X161101898Y-96220226D01*
X161290256Y-96142205D01*
X161459774Y-96028937D01*
X161603937Y-95884774D01*
X161717205Y-95715256D01*
X161795226Y-95526898D01*
X161835000Y-95326939D01*
X161835000Y-95123061D01*
X161795226Y-94923102D01*
X161717205Y-94734744D01*
X161603937Y-94565226D01*
X161459774Y-94421063D01*
X161290256Y-94307795D01*
X161101898Y-94229774D01*
X160901939Y-94190000D01*
X160698061Y-94190000D01*
X160498102Y-94229774D01*
X160309744Y-94307795D01*
X160140226Y-94421063D01*
X159996063Y-94565226D01*
X159882795Y-94734744D01*
X159804774Y-94923102D01*
X159765000Y-95123061D01*
X153430028Y-95123061D01*
X153395226Y-94948102D01*
X153317205Y-94759744D01*
X153203937Y-94590226D01*
X153059774Y-94446063D01*
X152890256Y-94332795D01*
X152701898Y-94254774D01*
X152501939Y-94215000D01*
X152298061Y-94215000D01*
X152098102Y-94254774D01*
X151909744Y-94332795D01*
X151740226Y-94446063D01*
X151596063Y-94590226D01*
X151482795Y-94759744D01*
X151404774Y-94948102D01*
X151365000Y-95148061D01*
X151365000Y-95211021D01*
X151363226Y-95202102D01*
X151285205Y-95013744D01*
X151171937Y-94844226D01*
X151027774Y-94700063D01*
X150858256Y-94586795D01*
X150669898Y-94508774D01*
X150469939Y-94469000D01*
X150266061Y-94469000D01*
X150066102Y-94508774D01*
X149877744Y-94586795D01*
X149708226Y-94700063D01*
X149564063Y-94844226D01*
X149450795Y-95013744D01*
X149372774Y-95202102D01*
X149333000Y-95402061D01*
X149288079Y-95402061D01*
X149331226Y-95297898D01*
X149371000Y-95097939D01*
X149371000Y-94894061D01*
X149331226Y-94694102D01*
X149253205Y-94505744D01*
X149139937Y-94336226D01*
X148995774Y-94192063D01*
X148826256Y-94078795D01*
X148637898Y-94000774D01*
X148437939Y-93961000D01*
X148234061Y-93961000D01*
X148034102Y-94000774D01*
X147845744Y-94078795D01*
X147676226Y-94192063D01*
X147532063Y-94336226D01*
X147418795Y-94505744D01*
X147340774Y-94694102D01*
X147301000Y-94894061D01*
X141942842Y-94894061D01*
X141887205Y-94759744D01*
X141773937Y-94590226D01*
X141629774Y-94446063D01*
X141460256Y-94332795D01*
X141271898Y-94254774D01*
X141071939Y-94215000D01*
X140868061Y-94215000D01*
X140668102Y-94254774D01*
X140479744Y-94332795D01*
X140310226Y-94446063D01*
X140166063Y-94590226D01*
X140052795Y-94759744D01*
X139974774Y-94948102D01*
X139935000Y-95148061D01*
X136661030Y-95148061D01*
X136671000Y-95097939D01*
X136671000Y-94894061D01*
X136631226Y-94694102D01*
X136553205Y-94505744D01*
X136439937Y-94336226D01*
X136295774Y-94192063D01*
X136126256Y-94078795D01*
X135937898Y-94000774D01*
X135737939Y-93961000D01*
X135534061Y-93961000D01*
X135334102Y-94000774D01*
X135145744Y-94078795D01*
X134976226Y-94192063D01*
X134832063Y-94336226D01*
X134718795Y-94505744D01*
X134640774Y-94694102D01*
X134601000Y-94894061D01*
X130724893Y-94894061D01*
X130859774Y-94803937D01*
X131003937Y-94659774D01*
X131117205Y-94490256D01*
X131195226Y-94301898D01*
X131235000Y-94101939D01*
X131235000Y-93898061D01*
X131231022Y-93878061D01*
X154921000Y-93878061D01*
X154921000Y-94081939D01*
X154960774Y-94281898D01*
X155038795Y-94470256D01*
X155152063Y-94639774D01*
X155296226Y-94783937D01*
X155465744Y-94897205D01*
X155654102Y-94975226D01*
X155854061Y-95015000D01*
X156057939Y-95015000D01*
X156257898Y-94975226D01*
X156446256Y-94897205D01*
X156615774Y-94783937D01*
X156759937Y-94639774D01*
X156873205Y-94470256D01*
X156951226Y-94281898D01*
X156991000Y-94081939D01*
X156991000Y-93878061D01*
X156951226Y-93678102D01*
X156873205Y-93489744D01*
X156759937Y-93320226D01*
X156615774Y-93176063D01*
X156446256Y-93062795D01*
X156257898Y-92984774D01*
X156057939Y-92945000D01*
X155854061Y-92945000D01*
X155654102Y-92984774D01*
X155465744Y-93062795D01*
X155296226Y-93176063D01*
X155152063Y-93320226D01*
X155038795Y-93489744D01*
X154960774Y-93678102D01*
X154921000Y-93878061D01*
X131231022Y-93878061D01*
X131195226Y-93698102D01*
X131117205Y-93509744D01*
X131003937Y-93340226D01*
X130859774Y-93196063D01*
X130690256Y-93082795D01*
X130501898Y-93004774D01*
X130301939Y-92965000D01*
X130098061Y-92965000D01*
X129898102Y-93004774D01*
X129709744Y-93082795D01*
X129540226Y-93196063D01*
X129396063Y-93340226D01*
X129282795Y-93509744D01*
X129204774Y-93698102D01*
X129165000Y-93898061D01*
X110518907Y-93898061D01*
X110659774Y-93803937D01*
X110803937Y-93659774D01*
X110917205Y-93490256D01*
X110995226Y-93301898D01*
X111035000Y-93101939D01*
X111035000Y-92898061D01*
X110995226Y-92698102D01*
X110917205Y-92509744D01*
X110803937Y-92340226D01*
X110659774Y-92196063D01*
X110490256Y-92082795D01*
X110301898Y-92004774D01*
X110101939Y-91965000D01*
X109898061Y-91965000D01*
X109698102Y-92004774D01*
X109509744Y-92082795D01*
X109340226Y-92196063D01*
X109196063Y-92340226D01*
X109082795Y-92509744D01*
X109004774Y-92698102D01*
X108965000Y-92898061D01*
X108769671Y-92898061D01*
X108770236Y-92896697D01*
X108822500Y-92633948D01*
X108822500Y-92366052D01*
X108770236Y-92103303D01*
X108667716Y-91855799D01*
X108518881Y-91633051D01*
X108329449Y-91443619D01*
X108106701Y-91294784D01*
X107859197Y-91192264D01*
X107596448Y-91140000D01*
X107328552Y-91140000D01*
X107065803Y-91192264D01*
X106818299Y-91294784D01*
X106595551Y-91443619D01*
X106406119Y-91633051D01*
X106257284Y-91855799D01*
X106154764Y-92103303D01*
X106102500Y-92366052D01*
X106102500Y-92633948D01*
X106135484Y-92799768D01*
X105990002Y-92622498D01*
X105801949Y-92468167D01*
X105587401Y-92353489D01*
X105354602Y-92282870D01*
X105173165Y-92265000D01*
X104351835Y-92265000D01*
X104170398Y-92282870D01*
X103937599Y-92353489D01*
X103723051Y-92468167D01*
X103660000Y-92519912D01*
X103660000Y-90798061D01*
X117165000Y-90798061D01*
X117165000Y-91001939D01*
X117204774Y-91201898D01*
X117282795Y-91390256D01*
X117396063Y-91559774D01*
X117540226Y-91703937D01*
X117709744Y-91817205D01*
X117898102Y-91895226D01*
X118098061Y-91935000D01*
X118301939Y-91935000D01*
X118501898Y-91895226D01*
X118690256Y-91817205D01*
X118859774Y-91703937D01*
X119003937Y-91559774D01*
X119117205Y-91390256D01*
X119195226Y-91201898D01*
X119235000Y-91001939D01*
X119235000Y-90898061D01*
X123365000Y-90898061D01*
X123365000Y-91101939D01*
X123404774Y-91301898D01*
X123482795Y-91490256D01*
X123596063Y-91659774D01*
X123740226Y-91803937D01*
X123909744Y-91917205D01*
X124098102Y-91995226D01*
X124298061Y-92035000D01*
X124501939Y-92035000D01*
X124701898Y-91995226D01*
X124890256Y-91917205D01*
X125059774Y-91803937D01*
X125203937Y-91659774D01*
X125317205Y-91490256D01*
X125395226Y-91301898D01*
X125435000Y-91101939D01*
X125435000Y-90898061D01*
X125395226Y-90698102D01*
X125317205Y-90509744D01*
X125203937Y-90340226D01*
X125059774Y-90196063D01*
X124890256Y-90082795D01*
X124701898Y-90004774D01*
X124501939Y-89965000D01*
X124298061Y-89965000D01*
X124098102Y-90004774D01*
X123909744Y-90082795D01*
X123740226Y-90196063D01*
X123596063Y-90340226D01*
X123482795Y-90509744D01*
X123404774Y-90698102D01*
X123365000Y-90898061D01*
X119235000Y-90898061D01*
X119235000Y-90798061D01*
X119195226Y-90598102D01*
X119117205Y-90409744D01*
X119003937Y-90240226D01*
X118859774Y-90096063D01*
X118690256Y-89982795D01*
X118501898Y-89904774D01*
X118301939Y-89865000D01*
X118098061Y-89865000D01*
X117898102Y-89904774D01*
X117709744Y-89982795D01*
X117540226Y-90096063D01*
X117396063Y-90240226D01*
X117282795Y-90409744D01*
X117204774Y-90598102D01*
X117165000Y-90798061D01*
X103660000Y-90798061D01*
X103660000Y-89298061D01*
X126365000Y-89298061D01*
X126365000Y-89501939D01*
X126404774Y-89701898D01*
X126482795Y-89890256D01*
X126596063Y-90059774D01*
X126740226Y-90203937D01*
X126909744Y-90317205D01*
X127098102Y-90395226D01*
X127152132Y-90405973D01*
X127082795Y-90509744D01*
X127004774Y-90698102D01*
X126965000Y-90898061D01*
X126965000Y-91101939D01*
X127004774Y-91301898D01*
X127082795Y-91490256D01*
X127196063Y-91659774D01*
X127340226Y-91803937D01*
X127509744Y-91917205D01*
X127698102Y-91995226D01*
X127898061Y-92035000D01*
X128101939Y-92035000D01*
X128301898Y-91995226D01*
X128490256Y-91917205D01*
X128659774Y-91803937D01*
X128803937Y-91659774D01*
X128917205Y-91490256D01*
X128995226Y-91301898D01*
X129035000Y-91101939D01*
X129035000Y-90898061D01*
X134665000Y-90898061D01*
X134665000Y-91101939D01*
X134704774Y-91301898D01*
X134782795Y-91490256D01*
X134896063Y-91659774D01*
X135040226Y-91803937D01*
X135209744Y-91917205D01*
X135398102Y-91995226D01*
X135598061Y-92035000D01*
X135801939Y-92035000D01*
X136001898Y-91995226D01*
X136190256Y-91917205D01*
X136359774Y-91803937D01*
X136503937Y-91659774D01*
X136617205Y-91490256D01*
X136695226Y-91301898D01*
X136735000Y-91101939D01*
X136735000Y-90898061D01*
X136695226Y-90698102D01*
X136617205Y-90509744D01*
X136503937Y-90340226D01*
X136359774Y-90196063D01*
X136190256Y-90082795D01*
X136001898Y-90004774D01*
X135801939Y-89965000D01*
X135598061Y-89965000D01*
X135398102Y-90004774D01*
X135209744Y-90082795D01*
X135040226Y-90196063D01*
X134896063Y-90340226D01*
X134782795Y-90509744D01*
X134704774Y-90698102D01*
X134665000Y-90898061D01*
X129035000Y-90898061D01*
X128995226Y-90698102D01*
X128917205Y-90509744D01*
X128803937Y-90340226D01*
X128659774Y-90196063D01*
X128490256Y-90082795D01*
X128301898Y-90004774D01*
X128247868Y-89994027D01*
X128317205Y-89890256D01*
X128395226Y-89701898D01*
X128435000Y-89501939D01*
X128435000Y-89298061D01*
X128395226Y-89098102D01*
X128317205Y-88909744D01*
X128203937Y-88740226D01*
X128061772Y-88598061D01*
X144665000Y-88598061D01*
X144665000Y-88801939D01*
X144704774Y-89001898D01*
X144782795Y-89190256D01*
X144889532Y-89350000D01*
X144782795Y-89509744D01*
X144704774Y-89698102D01*
X144665000Y-89898061D01*
X144665000Y-90101939D01*
X144704774Y-90301898D01*
X144782795Y-90490256D01*
X144889532Y-90650000D01*
X144782795Y-90809744D01*
X144704774Y-90998102D01*
X144665000Y-91198061D01*
X144665000Y-91401939D01*
X144704774Y-91601898D01*
X144782795Y-91790256D01*
X144896063Y-91959774D01*
X145040226Y-92103937D01*
X145209744Y-92217205D01*
X145398102Y-92295226D01*
X145598061Y-92335000D01*
X145801939Y-92335000D01*
X146001898Y-92295226D01*
X146190256Y-92217205D01*
X146350000Y-92110468D01*
X146509744Y-92217205D01*
X146698102Y-92295226D01*
X146898061Y-92335000D01*
X147101939Y-92335000D01*
X147301898Y-92295226D01*
X147490256Y-92217205D01*
X147650000Y-92110468D01*
X147809744Y-92217205D01*
X147998102Y-92295226D01*
X148198061Y-92335000D01*
X148401939Y-92335000D01*
X148601898Y-92295226D01*
X148790256Y-92217205D01*
X148959774Y-92103937D01*
X149103937Y-91959774D01*
X149217205Y-91790256D01*
X149295226Y-91601898D01*
X149335000Y-91401939D01*
X149335000Y-91198061D01*
X149295226Y-90998102D01*
X149217205Y-90809744D01*
X149110468Y-90650000D01*
X149217205Y-90490256D01*
X149295226Y-90301898D01*
X149335000Y-90101939D01*
X149335000Y-89898061D01*
X149295226Y-89698102D01*
X149217205Y-89509744D01*
X149110468Y-89350000D01*
X149217205Y-89190256D01*
X149295226Y-89001898D01*
X149335000Y-88801939D01*
X149335000Y-88798061D01*
X156445000Y-88798061D01*
X156445000Y-89001939D01*
X156484774Y-89201898D01*
X156562795Y-89390256D01*
X156676063Y-89559774D01*
X156820226Y-89703937D01*
X156989744Y-89817205D01*
X157178102Y-89895226D01*
X157378061Y-89935000D01*
X157581939Y-89935000D01*
X157781898Y-89895226D01*
X157970256Y-89817205D01*
X158139774Y-89703937D01*
X158283937Y-89559774D01*
X158397205Y-89390256D01*
X158475226Y-89201898D01*
X158515000Y-89001939D01*
X158515000Y-88798061D01*
X158475226Y-88598102D01*
X158397205Y-88409744D01*
X158283937Y-88240226D01*
X158139774Y-88096063D01*
X157970256Y-87982795D01*
X157781898Y-87904774D01*
X157581939Y-87865000D01*
X157378061Y-87865000D01*
X157178102Y-87904774D01*
X156989744Y-87982795D01*
X156820226Y-88096063D01*
X156676063Y-88240226D01*
X156562795Y-88409744D01*
X156484774Y-88598102D01*
X156445000Y-88798061D01*
X149335000Y-88798061D01*
X149335000Y-88598061D01*
X149295226Y-88398102D01*
X149217205Y-88209744D01*
X149103937Y-88040226D01*
X148959774Y-87896063D01*
X148790256Y-87782795D01*
X148601898Y-87704774D01*
X148401939Y-87665000D01*
X148198061Y-87665000D01*
X147998102Y-87704774D01*
X147809744Y-87782795D01*
X147650000Y-87889532D01*
X147490256Y-87782795D01*
X147301898Y-87704774D01*
X147101939Y-87665000D01*
X146898061Y-87665000D01*
X146698102Y-87704774D01*
X146509744Y-87782795D01*
X146350000Y-87889532D01*
X146190256Y-87782795D01*
X146001898Y-87704774D01*
X145801939Y-87665000D01*
X145598061Y-87665000D01*
X145398102Y-87704774D01*
X145209744Y-87782795D01*
X145040226Y-87896063D01*
X144896063Y-88040226D01*
X144782795Y-88209744D01*
X144704774Y-88398102D01*
X144665000Y-88598061D01*
X128061772Y-88598061D01*
X128059774Y-88596063D01*
X127890256Y-88482795D01*
X127701898Y-88404774D01*
X127501939Y-88365000D01*
X127298061Y-88365000D01*
X127098102Y-88404774D01*
X126909744Y-88482795D01*
X126740226Y-88596063D01*
X126596063Y-88740226D01*
X126482795Y-88909744D01*
X126404774Y-89098102D01*
X126365000Y-89298061D01*
X103660000Y-89298061D01*
X103660000Y-87480088D01*
X103723051Y-87531833D01*
X103937599Y-87646511D01*
X104170398Y-87717130D01*
X104351835Y-87735000D01*
X105173165Y-87735000D01*
X105354602Y-87717130D01*
X105587401Y-87646511D01*
X105801949Y-87531833D01*
X105990002Y-87377502D01*
X106135484Y-87200232D01*
X106102500Y-87366052D01*
X106102500Y-87633948D01*
X106154764Y-87896697D01*
X106257284Y-88144201D01*
X106406119Y-88366949D01*
X106595551Y-88556381D01*
X106818299Y-88705216D01*
X107065803Y-88807736D01*
X107328552Y-88860000D01*
X107596448Y-88860000D01*
X107859197Y-88807736D01*
X108106701Y-88705216D01*
X108329449Y-88556381D01*
X108518881Y-88366949D01*
X108667716Y-88144201D01*
X108770236Y-87896697D01*
X108822500Y-87633948D01*
X108822500Y-87366052D01*
X108770236Y-87103303D01*
X108667716Y-86855799D01*
X108518881Y-86633051D01*
X108329449Y-86443619D01*
X108106701Y-86294784D01*
X108018045Y-86258061D01*
X151365000Y-86258061D01*
X151365000Y-86461939D01*
X151404774Y-86661898D01*
X151482795Y-86850256D01*
X151596063Y-87019774D01*
X151740226Y-87163937D01*
X151909744Y-87277205D01*
X152098102Y-87355226D01*
X152298061Y-87395000D01*
X152501939Y-87395000D01*
X152701898Y-87355226D01*
X152890256Y-87277205D01*
X153059774Y-87163937D01*
X153203937Y-87019774D01*
X153317205Y-86850256D01*
X153395226Y-86661898D01*
X153435000Y-86461939D01*
X153435000Y-86258061D01*
X153395226Y-86058102D01*
X153317205Y-85869744D01*
X153223894Y-85730094D01*
X153321286Y-85584337D01*
X153399307Y-85395979D01*
X153439081Y-85196020D01*
X153439081Y-84992142D01*
X153399307Y-84792183D01*
X153321286Y-84603825D01*
X153208018Y-84434307D01*
X153063855Y-84290144D01*
X152894337Y-84176876D01*
X152705979Y-84098855D01*
X152506020Y-84059081D01*
X152302142Y-84059081D01*
X152102183Y-84098855D01*
X151913825Y-84176876D01*
X151744307Y-84290144D01*
X151600144Y-84434307D01*
X151486876Y-84603825D01*
X151408855Y-84792183D01*
X151369081Y-84992142D01*
X151369081Y-85196020D01*
X151408855Y-85395979D01*
X151486876Y-85584337D01*
X151580187Y-85723987D01*
X151482795Y-85869744D01*
X151404774Y-86058102D01*
X151365000Y-86258061D01*
X108018045Y-86258061D01*
X107859197Y-86192264D01*
X107596448Y-86140000D01*
X107328552Y-86140000D01*
X107065803Y-86192264D01*
X106818299Y-86294784D01*
X106595551Y-86443619D01*
X106406119Y-86633051D01*
X106326617Y-86752035D01*
X106329630Y-86742102D01*
X106353475Y-86500000D01*
X106329630Y-86257898D01*
X106259011Y-86025099D01*
X106144333Y-85810551D01*
X105990002Y-85622498D01*
X105801949Y-85468167D01*
X105587401Y-85353489D01*
X105354602Y-85282870D01*
X105173165Y-85265000D01*
X104351835Y-85265000D01*
X104170398Y-85282870D01*
X103937599Y-85353489D01*
X103723051Y-85468167D01*
X103660000Y-85519912D01*
X103660000Y-84598061D01*
X145865000Y-84598061D01*
X145865000Y-84801939D01*
X145904774Y-85001898D01*
X145982795Y-85190256D01*
X146096063Y-85359774D01*
X146240226Y-85503937D01*
X146409744Y-85617205D01*
X146598102Y-85695226D01*
X146798061Y-85735000D01*
X147001939Y-85735000D01*
X147201898Y-85695226D01*
X147390256Y-85617205D01*
X147559774Y-85503937D01*
X147703937Y-85359774D01*
X147817205Y-85190256D01*
X147895226Y-85001898D01*
X147897978Y-84988061D01*
X148825000Y-84988061D01*
X148825000Y-85191939D01*
X148864774Y-85391898D01*
X148942795Y-85580256D01*
X149056063Y-85749774D01*
X149200226Y-85893937D01*
X149369744Y-86007205D01*
X149558102Y-86085226D01*
X149758061Y-86125000D01*
X149961939Y-86125000D01*
X150161898Y-86085226D01*
X150350256Y-86007205D01*
X150519774Y-85893937D01*
X150663937Y-85749774D01*
X150777205Y-85580256D01*
X150855226Y-85391898D01*
X150895000Y-85191939D01*
X150895000Y-84988061D01*
X150855226Y-84788102D01*
X150777205Y-84599744D01*
X150663937Y-84430226D01*
X150519774Y-84286063D01*
X150350256Y-84172795D01*
X150161898Y-84094774D01*
X149961939Y-84055000D01*
X149758061Y-84055000D01*
X149558102Y-84094774D01*
X149369744Y-84172795D01*
X149200226Y-84286063D01*
X149056063Y-84430226D01*
X148942795Y-84599744D01*
X148864774Y-84788102D01*
X148825000Y-84988061D01*
X147897978Y-84988061D01*
X147935000Y-84801939D01*
X147935000Y-84598061D01*
X147895226Y-84398102D01*
X147817205Y-84209744D01*
X147703937Y-84040226D01*
X147559774Y-83896063D01*
X147390256Y-83782795D01*
X147201898Y-83704774D01*
X147001939Y-83665000D01*
X146798061Y-83665000D01*
X146598102Y-83704774D01*
X146409744Y-83782795D01*
X146240226Y-83896063D01*
X146096063Y-84040226D01*
X145982795Y-84209744D01*
X145904774Y-84398102D01*
X145865000Y-84598061D01*
X103660000Y-84598061D01*
X103660000Y-80898061D01*
X136965000Y-80898061D01*
X136965000Y-81101939D01*
X137004774Y-81301898D01*
X137082795Y-81490256D01*
X137196063Y-81659774D01*
X137340226Y-81803937D01*
X137509744Y-81917205D01*
X137698102Y-81995226D01*
X137898061Y-82035000D01*
X138101939Y-82035000D01*
X138301898Y-81995226D01*
X138490256Y-81917205D01*
X138659774Y-81803937D01*
X138803937Y-81659774D01*
X138917205Y-81490256D01*
X138995226Y-81301898D01*
X139035000Y-81101939D01*
X139035000Y-80898061D01*
X138995226Y-80698102D01*
X138917205Y-80509744D01*
X138803937Y-80340226D01*
X138659774Y-80196063D01*
X138490256Y-80082795D01*
X138301898Y-80004774D01*
X138101939Y-79965000D01*
X137898061Y-79965000D01*
X137698102Y-80004774D01*
X137509744Y-80082795D01*
X137340226Y-80196063D01*
X137196063Y-80340226D01*
X137082795Y-80509744D01*
X137004774Y-80698102D01*
X136965000Y-80898061D01*
X103660000Y-80898061D01*
X103660000Y-79123061D01*
X173640000Y-79123061D01*
X173640000Y-79326939D01*
X173679774Y-79526898D01*
X173757795Y-79715256D01*
X173871063Y-79884774D01*
X174015226Y-80028937D01*
X174184744Y-80142205D01*
X174373102Y-80220226D01*
X174573061Y-80260000D01*
X174776939Y-80260000D01*
X174976898Y-80220226D01*
X175165256Y-80142205D01*
X175334774Y-80028937D01*
X175478937Y-79884774D01*
X175592205Y-79715256D01*
X175670226Y-79526898D01*
X175710000Y-79326939D01*
X175710000Y-79123061D01*
X175670226Y-78923102D01*
X175592205Y-78734744D01*
X175478937Y-78565226D01*
X175334774Y-78421063D01*
X175165256Y-78307795D01*
X174976898Y-78229774D01*
X174776939Y-78190000D01*
X174573061Y-78190000D01*
X174373102Y-78229774D01*
X174184744Y-78307795D01*
X174015226Y-78421063D01*
X173871063Y-78565226D01*
X173757795Y-78734744D01*
X173679774Y-78923102D01*
X173640000Y-79123061D01*
X103660000Y-79123061D01*
X103660000Y-76898061D01*
X115965000Y-76898061D01*
X115965000Y-77101939D01*
X116004774Y-77301898D01*
X116082795Y-77490256D01*
X116196063Y-77659774D01*
X116340226Y-77803937D01*
X116509744Y-77917205D01*
X116698102Y-77995226D01*
X116898061Y-78035000D01*
X117101939Y-78035000D01*
X117301898Y-77995226D01*
X117490256Y-77917205D01*
X117659774Y-77803937D01*
X117803937Y-77659774D01*
X117917205Y-77490256D01*
X117995226Y-77301898D01*
X118035000Y-77101939D01*
X118035000Y-76898061D01*
X117995226Y-76698102D01*
X117917205Y-76509744D01*
X117803937Y-76340226D01*
X117659774Y-76196063D01*
X117513104Y-76098061D01*
X155175000Y-76098061D01*
X155175000Y-76301939D01*
X155214774Y-76501898D01*
X155292795Y-76690256D01*
X155406063Y-76859774D01*
X155550226Y-77003937D01*
X155719744Y-77117205D01*
X155908102Y-77195226D01*
X156108061Y-77235000D01*
X156311939Y-77235000D01*
X156511898Y-77195226D01*
X156700256Y-77117205D01*
X156869774Y-77003937D01*
X157013937Y-76859774D01*
X157127205Y-76690256D01*
X157205226Y-76501898D01*
X157245000Y-76301939D01*
X157245000Y-76098061D01*
X157205226Y-75898102D01*
X157127205Y-75709744D01*
X157089785Y-75653740D01*
X171335000Y-75653740D01*
X171335000Y-75946260D01*
X171392068Y-76233158D01*
X171504010Y-76503411D01*
X171666525Y-76746632D01*
X171873368Y-76953475D01*
X172116589Y-77115990D01*
X172386842Y-77227932D01*
X172673740Y-77285000D01*
X172966260Y-77285000D01*
X173253158Y-77227932D01*
X173523411Y-77115990D01*
X173766632Y-76953475D01*
X173973475Y-76746632D01*
X174090000Y-76572240D01*
X174206525Y-76746632D01*
X174413368Y-76953475D01*
X174656589Y-77115990D01*
X174926842Y-77227932D01*
X175213740Y-77285000D01*
X175506260Y-77285000D01*
X175793158Y-77227932D01*
X176063411Y-77115990D01*
X176306632Y-76953475D01*
X176513475Y-76746632D01*
X176630000Y-76572240D01*
X176746525Y-76746632D01*
X176953368Y-76953475D01*
X177196589Y-77115990D01*
X177466842Y-77227932D01*
X177753740Y-77285000D01*
X178046260Y-77285000D01*
X178333158Y-77227932D01*
X178603411Y-77115990D01*
X178846632Y-76953475D01*
X179053475Y-76746632D01*
X179170000Y-76572240D01*
X179286525Y-76746632D01*
X179493368Y-76953475D01*
X179736589Y-77115990D01*
X180006842Y-77227932D01*
X180293740Y-77285000D01*
X180586260Y-77285000D01*
X180873158Y-77227932D01*
X181143411Y-77115990D01*
X181386632Y-76953475D01*
X181593475Y-76746632D01*
X181710000Y-76572240D01*
X181826525Y-76746632D01*
X182033368Y-76953475D01*
X182276589Y-77115990D01*
X182546842Y-77227932D01*
X182833740Y-77285000D01*
X183126260Y-77285000D01*
X183413158Y-77227932D01*
X183683411Y-77115990D01*
X183926632Y-76953475D01*
X184133475Y-76746632D01*
X184250000Y-76572240D01*
X184366525Y-76746632D01*
X184573368Y-76953475D01*
X184816589Y-77115990D01*
X185086842Y-77227932D01*
X185373740Y-77285000D01*
X185666260Y-77285000D01*
X185953158Y-77227932D01*
X186223411Y-77115990D01*
X186466632Y-76953475D01*
X186673475Y-76746632D01*
X186790000Y-76572240D01*
X186906525Y-76746632D01*
X187113368Y-76953475D01*
X187356589Y-77115990D01*
X187626842Y-77227932D01*
X187913740Y-77285000D01*
X188206260Y-77285000D01*
X188493158Y-77227932D01*
X188763411Y-77115990D01*
X189006632Y-76953475D01*
X189138487Y-76821620D01*
X189160498Y-76894180D01*
X189219463Y-77004494D01*
X189298815Y-77101185D01*
X189395506Y-77180537D01*
X189505820Y-77239502D01*
X189625518Y-77275812D01*
X189750000Y-77288072D01*
X191450000Y-77288072D01*
X191574482Y-77275812D01*
X191694180Y-77239502D01*
X191804494Y-77180537D01*
X191901185Y-77101185D01*
X191980537Y-77004494D01*
X192039502Y-76894180D01*
X192075812Y-76774482D01*
X192088072Y-76650000D01*
X192088072Y-74950000D01*
X192075812Y-74825518D01*
X192039502Y-74705820D01*
X191980537Y-74595506D01*
X191901185Y-74498815D01*
X191804494Y-74419463D01*
X191694180Y-74360498D01*
X191574482Y-74324188D01*
X191450000Y-74311928D01*
X189750000Y-74311928D01*
X189625518Y-74324188D01*
X189505820Y-74360498D01*
X189395506Y-74419463D01*
X189298815Y-74498815D01*
X189219463Y-74595506D01*
X189160498Y-74705820D01*
X189138487Y-74778380D01*
X189006632Y-74646525D01*
X188763411Y-74484010D01*
X188493158Y-74372068D01*
X188206260Y-74315000D01*
X187913740Y-74315000D01*
X187626842Y-74372068D01*
X187356589Y-74484010D01*
X187113368Y-74646525D01*
X186906525Y-74853368D01*
X186790000Y-75027760D01*
X186673475Y-74853368D01*
X186466632Y-74646525D01*
X186223411Y-74484010D01*
X185953158Y-74372068D01*
X185666260Y-74315000D01*
X185373740Y-74315000D01*
X185086842Y-74372068D01*
X184816589Y-74484010D01*
X184573368Y-74646525D01*
X184366525Y-74853368D01*
X184250000Y-75027760D01*
X184133475Y-74853368D01*
X183926632Y-74646525D01*
X183683411Y-74484010D01*
X183413158Y-74372068D01*
X183126260Y-74315000D01*
X182833740Y-74315000D01*
X182546842Y-74372068D01*
X182276589Y-74484010D01*
X182033368Y-74646525D01*
X181826525Y-74853368D01*
X181710000Y-75027760D01*
X181593475Y-74853368D01*
X181386632Y-74646525D01*
X181143411Y-74484010D01*
X180873158Y-74372068D01*
X180586260Y-74315000D01*
X180293740Y-74315000D01*
X180006842Y-74372068D01*
X179736589Y-74484010D01*
X179493368Y-74646525D01*
X179286525Y-74853368D01*
X179170000Y-75027760D01*
X179053475Y-74853368D01*
X178846632Y-74646525D01*
X178603411Y-74484010D01*
X178333158Y-74372068D01*
X178046260Y-74315000D01*
X177753740Y-74315000D01*
X177466842Y-74372068D01*
X177196589Y-74484010D01*
X176953368Y-74646525D01*
X176746525Y-74853368D01*
X176630000Y-75027760D01*
X176513475Y-74853368D01*
X176306632Y-74646525D01*
X176063411Y-74484010D01*
X175793158Y-74372068D01*
X175506260Y-74315000D01*
X175213740Y-74315000D01*
X174926842Y-74372068D01*
X174656589Y-74484010D01*
X174413368Y-74646525D01*
X174206525Y-74853368D01*
X174090000Y-75027760D01*
X173973475Y-74853368D01*
X173766632Y-74646525D01*
X173523411Y-74484010D01*
X173253158Y-74372068D01*
X172966260Y-74315000D01*
X172673740Y-74315000D01*
X172386842Y-74372068D01*
X172116589Y-74484010D01*
X171873368Y-74646525D01*
X171666525Y-74853368D01*
X171504010Y-75096589D01*
X171392068Y-75366842D01*
X171335000Y-75653740D01*
X157089785Y-75653740D01*
X157013937Y-75540226D01*
X156869774Y-75396063D01*
X156700256Y-75282795D01*
X156511898Y-75204774D01*
X156311939Y-75165000D01*
X156108061Y-75165000D01*
X155908102Y-75204774D01*
X155719744Y-75282795D01*
X155550226Y-75396063D01*
X155406063Y-75540226D01*
X155292795Y-75709744D01*
X155214774Y-75898102D01*
X155175000Y-76098061D01*
X117513104Y-76098061D01*
X117490256Y-76082795D01*
X117301898Y-76004774D01*
X117101939Y-75965000D01*
X116898061Y-75965000D01*
X116698102Y-76004774D01*
X116509744Y-76082795D01*
X116340226Y-76196063D01*
X116196063Y-76340226D01*
X116082795Y-76509744D01*
X116004774Y-76698102D01*
X115965000Y-76898061D01*
X103660000Y-76898061D01*
X103660000Y-72387496D01*
X104166735Y-73145879D01*
X104854121Y-73833265D01*
X105662401Y-74373340D01*
X106560514Y-74745350D01*
X107513945Y-74935000D01*
X108486055Y-74935000D01*
X108671759Y-74898061D01*
X112965000Y-74898061D01*
X112965000Y-75101939D01*
X113004774Y-75301898D01*
X113082795Y-75490256D01*
X113196063Y-75659774D01*
X113340226Y-75803937D01*
X113509744Y-75917205D01*
X113698102Y-75995226D01*
X113898061Y-76035000D01*
X114101939Y-76035000D01*
X114301898Y-75995226D01*
X114490256Y-75917205D01*
X114659774Y-75803937D01*
X114803937Y-75659774D01*
X114917205Y-75490256D01*
X114995226Y-75301898D01*
X115035000Y-75101939D01*
X115035000Y-74898061D01*
X128965000Y-74898061D01*
X128965000Y-75101939D01*
X129004774Y-75301898D01*
X129082795Y-75490256D01*
X129196063Y-75659774D01*
X129340226Y-75803937D01*
X129509744Y-75917205D01*
X129698102Y-75995226D01*
X129898061Y-76035000D01*
X130101939Y-76035000D01*
X130301898Y-75995226D01*
X130490256Y-75917205D01*
X130659774Y-75803937D01*
X130803937Y-75659774D01*
X130917205Y-75490256D01*
X130995226Y-75301898D01*
X131035000Y-75101939D01*
X131035000Y-74898061D01*
X131021077Y-74828061D01*
X143745000Y-74828061D01*
X143745000Y-75031939D01*
X143784774Y-75231898D01*
X143862795Y-75420256D01*
X143976063Y-75589774D01*
X144120226Y-75733937D01*
X144289744Y-75847205D01*
X144478102Y-75925226D01*
X144678061Y-75965000D01*
X144881939Y-75965000D01*
X145081898Y-75925226D01*
X145270256Y-75847205D01*
X145439774Y-75733937D01*
X145583937Y-75589774D01*
X145697205Y-75420256D01*
X145775226Y-75231898D01*
X145815000Y-75031939D01*
X145815000Y-74828061D01*
X150095000Y-74828061D01*
X150095000Y-75031939D01*
X150134774Y-75231898D01*
X150212795Y-75420256D01*
X150326063Y-75589774D01*
X150470226Y-75733937D01*
X150639744Y-75847205D01*
X150828102Y-75925226D01*
X151028061Y-75965000D01*
X151231939Y-75965000D01*
X151431898Y-75925226D01*
X151620256Y-75847205D01*
X151789774Y-75733937D01*
X151933937Y-75589774D01*
X152047205Y-75420256D01*
X152125226Y-75231898D01*
X152165000Y-75031939D01*
X152165000Y-74828061D01*
X152125226Y-74628102D01*
X152047205Y-74439744D01*
X151933937Y-74270226D01*
X151789774Y-74126063D01*
X151620256Y-74012795D01*
X151431898Y-73934774D01*
X151231939Y-73895000D01*
X151028061Y-73895000D01*
X150828102Y-73934774D01*
X150639744Y-74012795D01*
X150470226Y-74126063D01*
X150326063Y-74270226D01*
X150212795Y-74439744D01*
X150134774Y-74628102D01*
X150095000Y-74828061D01*
X145815000Y-74828061D01*
X145775226Y-74628102D01*
X145697205Y-74439744D01*
X145583937Y-74270226D01*
X145439774Y-74126063D01*
X145270256Y-74012795D01*
X145081898Y-73934774D01*
X144881939Y-73895000D01*
X144678061Y-73895000D01*
X144478102Y-73934774D01*
X144289744Y-74012795D01*
X144120226Y-74126063D01*
X143976063Y-74270226D01*
X143862795Y-74439744D01*
X143784774Y-74628102D01*
X143745000Y-74828061D01*
X131021077Y-74828061D01*
X130995226Y-74698102D01*
X130917205Y-74509744D01*
X130803937Y-74340226D01*
X130659774Y-74196063D01*
X130490256Y-74082795D01*
X130301898Y-74004774D01*
X130101939Y-73965000D01*
X129898061Y-73965000D01*
X129698102Y-74004774D01*
X129509744Y-74082795D01*
X129340226Y-74196063D01*
X129196063Y-74340226D01*
X129082795Y-74509744D01*
X129004774Y-74698102D01*
X128965000Y-74898061D01*
X115035000Y-74898061D01*
X114995226Y-74698102D01*
X114917205Y-74509744D01*
X114803937Y-74340226D01*
X114659774Y-74196063D01*
X114490256Y-74082795D01*
X114301898Y-74004774D01*
X114101939Y-73965000D01*
X113898061Y-73965000D01*
X113698102Y-74004774D01*
X113509744Y-74082795D01*
X113340226Y-74196063D01*
X113196063Y-74340226D01*
X113082795Y-74509744D01*
X113004774Y-74698102D01*
X112965000Y-74898061D01*
X108671759Y-74898061D01*
X109439486Y-74745350D01*
X110337599Y-74373340D01*
X111145879Y-73833265D01*
X111833265Y-73145879D01*
X112373340Y-72337599D01*
X112555402Y-71898061D01*
X117965000Y-71898061D01*
X117965000Y-72101939D01*
X118004774Y-72301898D01*
X118082795Y-72490256D01*
X118196063Y-72659774D01*
X118340226Y-72803937D01*
X118509744Y-72917205D01*
X118698102Y-72995226D01*
X118898061Y-73035000D01*
X119101939Y-73035000D01*
X119301898Y-72995226D01*
X119490256Y-72917205D01*
X119659774Y-72803937D01*
X119803937Y-72659774D01*
X119917205Y-72490256D01*
X119995226Y-72301898D01*
X119997978Y-72288061D01*
X143745000Y-72288061D01*
X143745000Y-72491939D01*
X143784774Y-72691898D01*
X143862795Y-72880256D01*
X143976063Y-73049774D01*
X144120226Y-73193937D01*
X144289744Y-73307205D01*
X144478102Y-73385226D01*
X144678061Y-73425000D01*
X144881939Y-73425000D01*
X145081898Y-73385226D01*
X145270256Y-73307205D01*
X145439774Y-73193937D01*
X145583937Y-73049774D01*
X145697205Y-72880256D01*
X145775226Y-72691898D01*
X145815000Y-72491939D01*
X145815000Y-72288061D01*
X150095000Y-72288061D01*
X150095000Y-72491939D01*
X150134774Y-72691898D01*
X150212795Y-72880256D01*
X150326063Y-73049774D01*
X150470226Y-73193937D01*
X150639744Y-73307205D01*
X150828102Y-73385226D01*
X151028061Y-73425000D01*
X151231939Y-73425000D01*
X151431898Y-73385226D01*
X151620256Y-73307205D01*
X151789774Y-73193937D01*
X151933937Y-73049774D01*
X152047205Y-72880256D01*
X152125226Y-72691898D01*
X152165000Y-72491939D01*
X152165000Y-72288061D01*
X155175000Y-72288061D01*
X155175000Y-72491939D01*
X155214774Y-72691898D01*
X155292795Y-72880256D01*
X155406063Y-73049774D01*
X155550226Y-73193937D01*
X155719744Y-73307205D01*
X155908102Y-73385226D01*
X156108061Y-73425000D01*
X156311939Y-73425000D01*
X156511898Y-73385226D01*
X156700256Y-73307205D01*
X156869774Y-73193937D01*
X157013937Y-73049774D01*
X157127205Y-72880256D01*
X157205226Y-72691898D01*
X157245000Y-72491939D01*
X157245000Y-72288061D01*
X157205226Y-72088102D01*
X157127205Y-71899744D01*
X157013937Y-71730226D01*
X156869774Y-71586063D01*
X156700256Y-71472795D01*
X156511898Y-71394774D01*
X156311939Y-71355000D01*
X156108061Y-71355000D01*
X155908102Y-71394774D01*
X155719744Y-71472795D01*
X155550226Y-71586063D01*
X155406063Y-71730226D01*
X155292795Y-71899744D01*
X155214774Y-72088102D01*
X155175000Y-72288061D01*
X152165000Y-72288061D01*
X152125226Y-72088102D01*
X152047205Y-71899744D01*
X151933937Y-71730226D01*
X151789774Y-71586063D01*
X151620256Y-71472795D01*
X151431898Y-71394774D01*
X151231939Y-71355000D01*
X151028061Y-71355000D01*
X150828102Y-71394774D01*
X150639744Y-71472795D01*
X150470226Y-71586063D01*
X150326063Y-71730226D01*
X150212795Y-71899744D01*
X150134774Y-72088102D01*
X150095000Y-72288061D01*
X145815000Y-72288061D01*
X145775226Y-72088102D01*
X145697205Y-71899744D01*
X145583937Y-71730226D01*
X145439774Y-71586063D01*
X145270256Y-71472795D01*
X145081898Y-71394774D01*
X144881939Y-71355000D01*
X144678061Y-71355000D01*
X144478102Y-71394774D01*
X144289744Y-71472795D01*
X144120226Y-71586063D01*
X143976063Y-71730226D01*
X143862795Y-71899744D01*
X143784774Y-72088102D01*
X143745000Y-72288061D01*
X119997978Y-72288061D01*
X120035000Y-72101939D01*
X120035000Y-71898061D01*
X119995226Y-71698102D01*
X119917205Y-71509744D01*
X119803937Y-71340226D01*
X119659774Y-71196063D01*
X119490256Y-71082795D01*
X119301898Y-71004774D01*
X119101939Y-70965000D01*
X118898061Y-70965000D01*
X118698102Y-71004774D01*
X118509744Y-71082795D01*
X118340226Y-71196063D01*
X118196063Y-71340226D01*
X118082795Y-71509744D01*
X118004774Y-71698102D01*
X117965000Y-71898061D01*
X112555402Y-71898061D01*
X112745350Y-71439486D01*
X112935000Y-70486055D01*
X112935000Y-69513945D01*
X112745350Y-68560514D01*
X112373340Y-67662401D01*
X111833265Y-66854121D01*
X111145879Y-66166735D01*
X110387496Y-65660000D01*
X195612504Y-65660000D01*
X194854121Y-66166735D01*
G37*
%TD.AperFunction*%
%TD*%
M02*
